%TF.GenerationSoftware,KiCad,Pcbnew,7.0.6*%
%TF.CreationDate,2024-04-09T21:05:34+03:00*%
%TF.ProjectId,ecu-emulator,6563752d-656d-4756-9c61-746f722e6b69,rev?*%
%TF.SameCoordinates,Original*%
%TF.FileFunction,Copper,L1,Top*%
%TF.FilePolarity,Positive*%
%FSLAX46Y46*%
G04 Gerber Fmt 4.6, Leading zero omitted, Abs format (unit mm)*
G04 Created by KiCad (PCBNEW 7.0.6) date 2024-04-09 21:05:34*
%MOMM*%
%LPD*%
G01*
G04 APERTURE LIST*
G04 Aperture macros list*
%AMRoundRect*
0 Rectangle with rounded corners*
0 $1 Rounding radius*
0 $2 $3 $4 $5 $6 $7 $8 $9 X,Y pos of 4 corners*
0 Add a 4 corners polygon primitive as box body*
4,1,4,$2,$3,$4,$5,$6,$7,$8,$9,$2,$3,0*
0 Add four circle primitives for the rounded corners*
1,1,$1+$1,$2,$3*
1,1,$1+$1,$4,$5*
1,1,$1+$1,$6,$7*
1,1,$1+$1,$8,$9*
0 Add four rect primitives between the rounded corners*
20,1,$1+$1,$2,$3,$4,$5,0*
20,1,$1+$1,$4,$5,$6,$7,0*
20,1,$1+$1,$6,$7,$8,$9,0*
20,1,$1+$1,$8,$9,$2,$3,0*%
G04 Aperture macros list end*
%TA.AperFunction,SMDPad,CuDef*%
%ADD10R,0.700000X1.550000*%
%TD*%
%TA.AperFunction,SMDPad,CuDef*%
%ADD11RoundRect,0.250000X-0.400000X-1.075000X0.400000X-1.075000X0.400000X1.075000X-0.400000X1.075000X0*%
%TD*%
%TA.AperFunction,ComponentPad*%
%ADD12R,3.000000X3.000000*%
%TD*%
%TA.AperFunction,ComponentPad*%
%ADD13C,3.000000*%
%TD*%
%TA.AperFunction,ComponentPad*%
%ADD14C,2.000000*%
%TD*%
%TA.AperFunction,SMDPad,CuDef*%
%ADD15RoundRect,0.250000X1.075000X-0.375000X1.075000X0.375000X-1.075000X0.375000X-1.075000X-0.375000X0*%
%TD*%
%TA.AperFunction,ComponentPad*%
%ADD16R,1.700000X1.700000*%
%TD*%
%TA.AperFunction,ComponentPad*%
%ADD17O,1.700000X1.700000*%
%TD*%
%TA.AperFunction,SMDPad,CuDef*%
%ADD18RoundRect,0.250000X-1.075000X0.400000X-1.075000X-0.400000X1.075000X-0.400000X1.075000X0.400000X0*%
%TD*%
%TA.AperFunction,ViaPad*%
%ADD19C,4.500000*%
%TD*%
%TA.AperFunction,ViaPad*%
%ADD20C,0.800000*%
%TD*%
%TA.AperFunction,Conductor*%
%ADD21C,0.250000*%
%TD*%
%TA.AperFunction,Conductor*%
%ADD22C,0.500000*%
%TD*%
G04 APERTURE END LIST*
D10*
%TO.P,IC1,1,TXD*%
%TO.N,CAN_TX*%
X113795000Y-68050000D03*
%TO.P,IC1,2,GND*%
%TO.N,GND*%
X115065000Y-68050000D03*
%TO.P,IC1,3,VCC*%
%TO.N,5V*%
X116335000Y-68050000D03*
%TO.P,IC1,4,RXD*%
%TO.N,CAN_RX*%
X117605000Y-68050000D03*
%TO.P,IC1,5,VIO*%
%TO.N,3V3*%
X117605000Y-62650000D03*
%TO.P,IC1,6,CANL*%
%TO.N,CAN_L*%
X116335000Y-62650000D03*
%TO.P,IC1,7,CANH*%
%TO.N,CAN_H*%
X115065000Y-62650000D03*
%TO.P,IC1,8,STBY*%
%TO.N,GND*%
X113795000Y-62650000D03*
%TD*%
D11*
%TO.P,R2,1*%
%TO.N,CAN_H*%
X113800000Y-58100000D03*
%TO.P,R2,2*%
%TO.N,CAN_L*%
X116900000Y-58100000D03*
%TD*%
D12*
%TO.P,OIL_TEMP1,1,1*%
%TO.N,3V3*%
X154450000Y-101900000D03*
D13*
%TO.P,OIL_TEMP1,2,2*%
%TO.N,ADC1*%
X154450000Y-96900000D03*
%TO.P,OIL_TEMP1,3,3*%
%TO.N,GND*%
X154450000Y-91900000D03*
%TD*%
D14*
%TO.P,LOW_BATT1,1,1*%
%TO.N,LOW_12VBAT_VOLTAGE*%
X113750000Y-97000000D03*
X120250000Y-97000000D03*
%TO.P,LOW_BATT1,2,2*%
%TO.N,GND*%
X113750000Y-101500000D03*
X120250000Y-101500000D03*
%TD*%
%TO.P,GEAR_SHIFT1,1,1*%
%TO.N,GEAR_SHIFT*%
X113850000Y-77700000D03*
X120350000Y-77700000D03*
%TO.P,GEAR_SHIFT1,2,2*%
%TO.N,GND*%
X113850000Y-82200000D03*
X120350000Y-82200000D03*
%TD*%
D15*
%TO.P,D1,1,K*%
%TO.N,GND*%
X113950000Y-74250000D03*
%TO.P,D1,2,A*%
%TO.N,Net-(D1-A)*%
X113950000Y-71450000D03*
%TD*%
D12*
%TO.P,RPM1,1,1*%
%TO.N,3V3*%
X154400000Y-64150000D03*
D13*
%TO.P,RPM1,2,2*%
%TO.N,ADC0*%
X154400000Y-59150000D03*
%TO.P,RPM1,3,3*%
%TO.N,GND*%
X154400000Y-54150000D03*
%TD*%
D12*
%TO.P,COOLANT_TEMP1,1,1*%
%TO.N,3V3*%
X154450000Y-83100000D03*
D13*
%TO.P,COOLANT_TEMP1,2,2*%
%TO.N,ADC2*%
X154450000Y-78100000D03*
%TO.P,COOLANT_TEMP1,3,3*%
%TO.N,GND*%
X154450000Y-73100000D03*
%TD*%
D16*
%TO.P,J3,1,Pin_1*%
%TO.N,unconnected-(J3-Pin_1-Pad1)*%
X125600000Y-52980000D03*
D17*
%TO.P,J3,2,Pin_2*%
%TO.N,unconnected-(J3-Pin_2-Pad2)*%
X125600000Y-55520000D03*
%TO.P,J3,3,Pin_3*%
%TO.N,unconnected-(J3-Pin_3-Pad3)*%
X125600000Y-58060000D03*
%TO.P,J3,4,Pin_4*%
%TO.N,CAN_STATUS*%
X125600000Y-60600000D03*
%TO.P,J3,5,Pin_5*%
%TO.N,unconnected-(J3-Pin_5-Pad5)*%
X125600000Y-63140000D03*
%TO.P,J3,6,Pin_6*%
%TO.N,CAN_RX*%
X125600000Y-65680000D03*
%TO.P,J3,7,Pin_7*%
%TO.N,CAN_TX*%
X125600000Y-68220000D03*
%TO.P,J3,8,Pin_8*%
%TO.N,unconnected-(J3-Pin_8-Pad8)*%
X125600000Y-70760000D03*
%TO.P,J3,9,Pin_9*%
%TO.N,unconnected-(J3-Pin_9-Pad9)*%
X125600000Y-73300000D03*
%TO.P,J3,10,Pin_10*%
%TO.N,unconnected-(J3-Pin_10-Pad10)*%
X125600000Y-75840000D03*
%TO.P,J3,11,Pin_11*%
%TO.N,unconnected-(J3-Pin_11-Pad11)*%
X125600000Y-78380000D03*
%TO.P,J3,12,Pin_12*%
%TO.N,unconnected-(J3-Pin_12-Pad12)*%
X125600000Y-80920000D03*
%TO.P,J3,13,Pin_13*%
%TO.N,unconnected-(J3-Pin_13-Pad13)*%
X125600000Y-83460000D03*
%TO.P,J3,14,Pin_14*%
%TO.N,unconnected-(J3-Pin_14-Pad14)*%
X125600000Y-86000000D03*
%TO.P,J3,15,Pin_15*%
%TO.N,unconnected-(J3-Pin_15-Pad15)*%
X125600000Y-88540000D03*
%TO.P,J3,16,Pin_16*%
%TO.N,unconnected-(J3-Pin_16-Pad16)*%
X125600000Y-91080000D03*
%TO.P,J3,17,Pin_17*%
%TO.N,unconnected-(J3-Pin_17-Pad17)*%
X125600000Y-93620000D03*
%TO.P,J3,18,Pin_18*%
%TO.N,unconnected-(J3-Pin_18-Pad18)*%
X125600000Y-96160000D03*
%TO.P,J3,19,Pin_19*%
%TO.N,LOW_12VBAT_VOLTAGE*%
X125600000Y-98700000D03*
%TO.P,J3,20,Pin_20*%
%TO.N,LOW_OIL_PRESSURE*%
X125600000Y-101240000D03*
%TD*%
D18*
%TO.P,R1,1*%
%TO.N,CAN_STATUS*%
X119550000Y-70950000D03*
%TO.P,R1,2*%
%TO.N,Net-(D1-A)*%
X119550000Y-74050000D03*
%TD*%
D16*
%TO.P,J2,1,Pin_1*%
%TO.N,5V*%
X143500000Y-53280000D03*
D17*
%TO.P,J2,2,Pin_2*%
%TO.N,GND*%
X143500000Y-55820000D03*
%TO.P,J2,3,Pin_3*%
%TO.N,unconnected-(J2-Pin_3-Pad3)*%
X143500000Y-58360000D03*
%TO.P,J2,4,Pin_4*%
%TO.N,unconnected-(J2-Pin_4-Pad4)*%
X143500000Y-60900000D03*
%TO.P,J2,5,Pin_5*%
%TO.N,3V3*%
X143500000Y-63440000D03*
%TO.P,J2,6,Pin_6*%
%TO.N,unconnected-(J2-Pin_6-Pad6)*%
X143500000Y-65980000D03*
%TO.P,J2,7,Pin_7*%
%TO.N,ADC0*%
X143500000Y-68520000D03*
%TO.P,J2,8,Pin_8*%
%TO.N,ADC1*%
X143500000Y-71060000D03*
%TO.P,J2,9,Pin_9*%
%TO.N,ADC2*%
X143500000Y-73600000D03*
%TO.P,J2,10,Pin_10*%
%TO.N,unconnected-(J2-Pin_10-Pad10)*%
X143500000Y-76140000D03*
%TO.P,J2,11,Pin_11*%
%TO.N,GEAR_SHIFT*%
X143500000Y-78680000D03*
%TO.P,J2,12,Pin_12*%
%TO.N,unconnected-(J2-Pin_12-Pad12)*%
X143500000Y-81220000D03*
%TO.P,J2,13,Pin_13*%
%TO.N,GND*%
X143500000Y-83760000D03*
%TO.P,J2,14,Pin_14*%
%TO.N,unconnected-(J2-Pin_14-Pad14)*%
X143500000Y-86300000D03*
%TO.P,J2,15,Pin_15*%
%TO.N,unconnected-(J2-Pin_15-Pad15)*%
X143500000Y-88840000D03*
%TO.P,J2,16,Pin_16*%
%TO.N,unconnected-(J2-Pin_16-Pad16)*%
X143500000Y-91380000D03*
%TO.P,J2,17,Pin_17*%
%TO.N,unconnected-(J2-Pin_17-Pad17)*%
X143500000Y-93920000D03*
%TO.P,J2,18,Pin_18*%
%TO.N,unconnected-(J2-Pin_18-Pad18)*%
X143500000Y-96460000D03*
%TO.P,J2,19,Pin_19*%
%TO.N,unconnected-(J2-Pin_19-Pad19)*%
X143500000Y-99000000D03*
%TO.P,J2,20,Pin_20*%
%TO.N,unconnected-(J2-Pin_20-Pad20)*%
X143500000Y-101540000D03*
%TD*%
D16*
%TO.P,J1,1,Pin_1*%
%TO.N,CAN_H*%
X113960000Y-53500000D03*
D17*
%TO.P,J1,2,Pin_2*%
%TO.N,CAN_L*%
X116500000Y-53500000D03*
%TO.P,J1,3,Pin_3*%
%TO.N,GND*%
X119040000Y-53500000D03*
%TD*%
D14*
%TO.P,LOW_OIL1,1,1*%
%TO.N,LOW_OIL_PRESSURE*%
X113800000Y-87600000D03*
X120300000Y-87600000D03*
%TO.P,LOW_OIL1,2,2*%
%TO.N,GND*%
X113800000Y-92100000D03*
X120300000Y-92100000D03*
%TD*%
D19*
%TO.N,GND*%
X139000000Y-67000000D03*
X133000000Y-99000000D03*
D20*
X121250000Y-61300000D03*
D19*
X133000000Y-59000000D03*
D20*
%TO.N,3V3*%
X147550000Y-64200000D03*
X150750000Y-64200000D03*
X118675500Y-60450000D03*
X120250000Y-59300000D03*
%TO.N,ADC1*%
X146400000Y-76300000D03*
X146350000Y-73050000D03*
%TO.N,CAN_STATUS*%
X122700000Y-61950000D03*
X121500000Y-67700000D03*
%TO.N,LOW_OIL_PRESSURE*%
X122850000Y-96750000D03*
X122862701Y-98837299D03*
%TD*%
D21*
%TO.N,Net-(D1-A)*%
X119550000Y-74050000D02*
X117200000Y-74050000D01*
X116750000Y-73600000D02*
X116750000Y-71800000D01*
X117200000Y-74050000D02*
X116750000Y-73600000D01*
X116750000Y-71800000D02*
X116400000Y-71450000D01*
X116400000Y-71450000D02*
X113950000Y-71450000D01*
%TO.N,CAN_TX*%
X118750000Y-69050000D02*
X118750000Y-66800000D01*
X114150000Y-69450000D02*
X118350000Y-69450000D01*
X118750000Y-66800000D02*
X119350000Y-66200000D01*
X113795000Y-69095000D02*
X114150000Y-69450000D01*
X113795000Y-68050000D02*
X113795000Y-69095000D01*
X119350000Y-66200000D02*
X123580000Y-66200000D01*
X125083604Y-68220000D02*
X125600000Y-68220000D01*
X118350000Y-69450000D02*
X118750000Y-69050000D01*
X123580000Y-66200000D02*
X125600000Y-68220000D01*
%TO.N,5V*%
X119400000Y-63600000D02*
X119400000Y-58000000D01*
X119400000Y-58000000D02*
X123150000Y-54250000D01*
X116335000Y-66665000D02*
X119400000Y-63600000D01*
X142530000Y-54250000D02*
X143500000Y-53280000D01*
X123150000Y-54250000D02*
X142530000Y-54250000D01*
X116335000Y-68050000D02*
X116335000Y-66665000D01*
%TO.N,CAN_RX*%
X125600000Y-65680000D02*
X118470000Y-65680000D01*
X117605000Y-66545000D02*
X117605000Y-68050000D01*
X118470000Y-65680000D02*
X117605000Y-66545000D01*
D22*
%TO.N,3V3*%
X152050000Y-66600000D02*
X154400000Y-66600000D01*
X157050000Y-69250000D02*
X157050000Y-82000000D01*
D21*
X120250000Y-59300000D02*
X127650000Y-59300000D01*
D22*
X156700000Y-82550000D02*
X155100000Y-82550000D01*
X150750000Y-64200000D02*
X151700000Y-65150000D01*
X157050000Y-82200000D02*
X156700000Y-82550000D01*
X146800000Y-64200000D02*
X146040000Y-63440000D01*
X146040000Y-63440000D02*
X143500000Y-63440000D01*
X147550000Y-64200000D02*
X146800000Y-64200000D01*
D21*
X117605000Y-61520500D02*
X117605000Y-62650000D01*
X118675500Y-60450000D02*
X117605000Y-61520500D01*
D22*
X155100000Y-82550000D02*
X155050000Y-82500000D01*
X154400000Y-66600000D02*
X157050000Y-69250000D01*
D21*
X131790000Y-63440000D02*
X143500000Y-63440000D01*
D22*
X157050000Y-101500000D02*
X156650000Y-101900000D01*
X157050000Y-82000000D02*
X157050000Y-83050000D01*
X157050000Y-82900000D02*
X156700000Y-82550000D01*
X151700000Y-66250000D02*
X152050000Y-66600000D01*
D21*
X155050000Y-82500000D02*
X154450000Y-83100000D01*
D22*
X156650000Y-101900000D02*
X154450000Y-101900000D01*
X157050000Y-83050000D02*
X157050000Y-82900000D01*
X154400000Y-64150000D02*
X154400000Y-66600000D01*
X157050000Y-82000000D02*
X157050000Y-82200000D01*
X151700000Y-65150000D02*
X151700000Y-66250000D01*
D21*
X127650000Y-59300000D02*
X131790000Y-63440000D01*
D22*
X157050000Y-83050000D02*
X157050000Y-101500000D01*
X150800000Y-64150000D02*
X150750000Y-64200000D01*
X154400000Y-64150000D02*
X150800000Y-64150000D01*
D21*
%TO.N,CAN_L*%
X116950000Y-55062252D02*
X116950000Y-54850000D01*
X116900000Y-58100000D02*
X116950000Y-58150000D01*
X116756126Y-55856126D02*
X116756125Y-55856126D01*
X116335000Y-61415000D02*
X116950000Y-60800000D01*
X116950000Y-54700000D02*
X116500000Y-54250000D01*
X116950000Y-54850000D02*
X116950000Y-54700000D01*
X116500000Y-54250000D02*
X116500000Y-53500000D01*
X116950000Y-60800000D02*
X116950000Y-56050000D01*
X116756125Y-55256126D02*
X116756126Y-55256126D01*
X116335000Y-62650000D02*
X116335000Y-61415000D01*
X116562251Y-55662252D02*
X116562251Y-55450000D01*
X116949974Y-56050000D02*
G75*
G03*
X116756126Y-55856126I-193874J0D01*
G01*
X116562274Y-55662252D02*
G75*
G03*
X116756125Y-55856126I193826J-48D01*
G01*
X116756125Y-55256151D02*
G75*
G03*
X116562251Y-55450000I-25J-193849D01*
G01*
X116756126Y-55256200D02*
G75*
G03*
X116950000Y-55062252I-26J193900D01*
G01*
%TO.N,CAN_H*%
X113616349Y-55856350D02*
X113616349Y-55600000D01*
X113788175Y-56028175D02*
X113788174Y-56028175D01*
X113960000Y-60260000D02*
X113960000Y-56200000D01*
X113960000Y-55000000D02*
X113960000Y-53500000D01*
X115065000Y-62650000D02*
X115065000Y-61365000D01*
X115065000Y-61365000D02*
X113960000Y-60260000D01*
X113960000Y-55256350D02*
X113960000Y-55000000D01*
X113788174Y-55428175D02*
X113788175Y-55428175D01*
X113788175Y-55428200D02*
G75*
G03*
X113960000Y-55256350I25J171800D01*
G01*
X113788174Y-55428149D02*
G75*
G03*
X113616349Y-55600000I26J-171851D01*
G01*
X113616425Y-55856350D02*
G75*
G03*
X113788174Y-56028175I171775J-50D01*
G01*
X113960025Y-56200000D02*
G75*
G03*
X113788175Y-56028175I-171825J0D01*
G01*
%TO.N,ADC0*%
X145630000Y-68520000D02*
X149550000Y-64600000D01*
X149550000Y-64600000D02*
X149550000Y-60500000D01*
X149550000Y-60500000D02*
X150900000Y-59150000D01*
X150900000Y-59150000D02*
X154400000Y-59150000D01*
X143500000Y-68520000D02*
X145630000Y-68520000D01*
%TO.N,ADC1*%
X146400000Y-91700000D02*
X146400000Y-76300000D01*
X151600000Y-96900000D02*
X146400000Y-91700000D01*
X145460000Y-71060000D02*
X143500000Y-71060000D01*
X146350000Y-71950000D02*
X145460000Y-71060000D01*
X146350000Y-73050000D02*
X146350000Y-71950000D01*
X154450000Y-96900000D02*
X151600000Y-96900000D01*
%TO.N,ADC2*%
X154450000Y-78100000D02*
X150100000Y-78100000D01*
X145600000Y-73600000D02*
X143500000Y-73600000D01*
X150100000Y-78100000D02*
X145600000Y-73600000D01*
%TO.N,GEAR_SHIFT*%
X120950000Y-77100000D02*
X138700000Y-77100000D01*
X138700000Y-77100000D02*
X140280000Y-78680000D01*
X113850000Y-77700000D02*
X120350000Y-77700000D01*
X140280000Y-78680000D02*
X143500000Y-78680000D01*
X120350000Y-77700000D02*
X120950000Y-77100000D01*
%TO.N,CAN_STATUS*%
X122700000Y-61800000D02*
X123900000Y-60600000D01*
X122700000Y-61950000D02*
X122700000Y-61800000D01*
X123900000Y-60600000D02*
X125600000Y-60600000D01*
X119550000Y-69650000D02*
X119550000Y-70950000D01*
X121500000Y-67700000D02*
X119550000Y-69650000D01*
%TO.N,LOW_12VBAT_VOLTAGE*%
X122050000Y-97000000D02*
X123750000Y-98700000D01*
X113750000Y-97000000D02*
X120250000Y-97000000D01*
X120250000Y-97000000D02*
X122050000Y-97000000D01*
X123750000Y-98700000D02*
X125600000Y-98700000D01*
%TO.N,LOW_OIL_PRESSURE*%
X122800000Y-90100000D02*
X120300000Y-87600000D01*
X113800000Y-87600000D02*
X120300000Y-87600000D01*
X122862701Y-100812701D02*
X123290000Y-101240000D01*
X123290000Y-101240000D02*
X125600000Y-101240000D01*
X122862701Y-98837299D02*
X122862701Y-100812701D01*
X122850000Y-96750000D02*
X122800000Y-96700000D01*
X122800000Y-96700000D02*
X122800000Y-90100000D01*
%TD*%
%TA.AperFunction,Conductor*%
%TO.N,GND*%
G36*
X159442539Y-49520185D02*
G01*
X159488294Y-49572989D01*
X159499500Y-49624500D01*
X159499500Y-107875500D01*
X159479815Y-107942539D01*
X159427011Y-107988294D01*
X159375500Y-107999500D01*
X111124500Y-107999500D01*
X111057461Y-107979815D01*
X111011706Y-107927011D01*
X111000500Y-107875500D01*
X111000500Y-101500005D01*
X112244858Y-101500005D01*
X112265385Y-101747729D01*
X112265387Y-101747738D01*
X112326412Y-101988717D01*
X112426266Y-102216364D01*
X112526564Y-102369882D01*
X113224070Y-101672375D01*
X113226884Y-101685915D01*
X113296442Y-101820156D01*
X113399638Y-101930652D01*
X113528819Y-102009209D01*
X113580002Y-102023549D01*
X112879942Y-102723609D01*
X112926768Y-102760055D01*
X112926770Y-102760056D01*
X113145385Y-102878364D01*
X113145396Y-102878369D01*
X113380506Y-102959083D01*
X113625707Y-103000000D01*
X113874293Y-103000000D01*
X114119493Y-102959083D01*
X114354603Y-102878369D01*
X114354614Y-102878364D01*
X114573228Y-102760057D01*
X114573231Y-102760055D01*
X114620056Y-102723609D01*
X113921568Y-102025121D01*
X114038458Y-101974349D01*
X114155739Y-101878934D01*
X114242928Y-101755415D01*
X114273354Y-101669802D01*
X114973434Y-102369882D01*
X115073731Y-102216369D01*
X115173587Y-101988717D01*
X115234612Y-101747738D01*
X115234614Y-101747729D01*
X115255141Y-101500005D01*
X118744858Y-101500005D01*
X118765385Y-101747729D01*
X118765387Y-101747738D01*
X118826412Y-101988717D01*
X118926266Y-102216364D01*
X119026564Y-102369882D01*
X119724070Y-101672376D01*
X119726884Y-101685915D01*
X119796442Y-101820156D01*
X119899638Y-101930652D01*
X120028819Y-102009209D01*
X120080002Y-102023549D01*
X119379942Y-102723609D01*
X119426768Y-102760055D01*
X119426770Y-102760056D01*
X119645385Y-102878364D01*
X119645396Y-102878369D01*
X119880506Y-102959083D01*
X120125707Y-103000000D01*
X120374293Y-103000000D01*
X120619493Y-102959083D01*
X120854603Y-102878369D01*
X120854614Y-102878364D01*
X121073228Y-102760057D01*
X121073231Y-102760055D01*
X121120056Y-102723609D01*
X120421568Y-102025121D01*
X120538458Y-101974349D01*
X120655739Y-101878934D01*
X120742928Y-101755415D01*
X120773355Y-101669801D01*
X121473434Y-102369882D01*
X121573731Y-102216369D01*
X121673587Y-101988717D01*
X121734612Y-101747738D01*
X121734614Y-101747729D01*
X121755141Y-101500005D01*
X121755141Y-101499994D01*
X121734614Y-101252270D01*
X121734612Y-101252261D01*
X121673587Y-101011282D01*
X121573731Y-100783630D01*
X121473434Y-100630116D01*
X120775928Y-101327621D01*
X120773116Y-101314085D01*
X120703558Y-101179844D01*
X120600362Y-101069348D01*
X120471181Y-100990791D01*
X120419997Y-100976450D01*
X121120057Y-100276390D01*
X121120056Y-100276389D01*
X121073229Y-100239943D01*
X120854614Y-100121635D01*
X120854603Y-100121630D01*
X120619493Y-100040916D01*
X120374293Y-100000000D01*
X120125707Y-100000000D01*
X119880506Y-100040916D01*
X119645396Y-100121630D01*
X119645390Y-100121632D01*
X119426761Y-100239949D01*
X119379942Y-100276388D01*
X119379942Y-100276390D01*
X120078431Y-100974878D01*
X119961542Y-101025651D01*
X119844261Y-101121066D01*
X119757072Y-101244585D01*
X119726645Y-101330197D01*
X119026564Y-100630116D01*
X118926267Y-100783632D01*
X118826412Y-101011282D01*
X118765387Y-101252261D01*
X118765385Y-101252270D01*
X118744858Y-101499994D01*
X118744858Y-101500005D01*
X115255141Y-101500005D01*
X115255141Y-101499994D01*
X115234614Y-101252270D01*
X115234612Y-101252261D01*
X115173587Y-101011282D01*
X115073731Y-100783630D01*
X114973434Y-100630116D01*
X114275928Y-101327621D01*
X114273116Y-101314085D01*
X114203558Y-101179844D01*
X114100362Y-101069348D01*
X113971181Y-100990791D01*
X113919997Y-100976450D01*
X114620057Y-100276390D01*
X114620056Y-100276389D01*
X114573229Y-100239943D01*
X114354614Y-100121635D01*
X114354603Y-100121630D01*
X114119493Y-100040916D01*
X113874293Y-100000000D01*
X113625707Y-100000000D01*
X113380506Y-100040916D01*
X113145396Y-100121630D01*
X113145390Y-100121632D01*
X112926761Y-100239949D01*
X112879942Y-100276388D01*
X112879942Y-100276390D01*
X113578431Y-100974878D01*
X113461542Y-101025651D01*
X113344261Y-101121066D01*
X113257072Y-101244585D01*
X113226645Y-101330197D01*
X112526564Y-100630116D01*
X112426267Y-100783632D01*
X112326412Y-101011282D01*
X112265387Y-101252261D01*
X112265385Y-101252270D01*
X112244858Y-101499994D01*
X112244858Y-101500005D01*
X111000500Y-101500005D01*
X111000500Y-97000002D01*
X112490708Y-97000002D01*
X112508842Y-97207287D01*
X112509839Y-97218674D01*
X112566653Y-97430703D01*
X112566654Y-97430706D01*
X112566655Y-97430708D01*
X112659419Y-97629642D01*
X112659423Y-97629650D01*
X112785322Y-97809452D01*
X112785327Y-97809458D01*
X112940541Y-97964672D01*
X112940547Y-97964677D01*
X113120349Y-98090576D01*
X113120351Y-98090577D01*
X113120354Y-98090579D01*
X113319297Y-98183347D01*
X113531326Y-98240161D01*
X113674823Y-98252715D01*
X113749998Y-98259292D01*
X113750000Y-98259292D01*
X113750002Y-98259292D01*
X113825177Y-98252715D01*
X113968674Y-98240161D01*
X114180703Y-98183347D01*
X114379646Y-98090579D01*
X114559457Y-97964674D01*
X114714674Y-97809457D01*
X114840579Y-97629646D01*
X114915365Y-97469266D01*
X114923838Y-97451096D01*
X114970010Y-97398656D01*
X115036220Y-97379500D01*
X118963780Y-97379500D01*
X119030819Y-97399185D01*
X119076162Y-97451096D01*
X119159419Y-97629642D01*
X119159423Y-97629650D01*
X119285322Y-97809452D01*
X119285327Y-97809458D01*
X119440541Y-97964672D01*
X119440547Y-97964677D01*
X119620349Y-98090576D01*
X119620351Y-98090577D01*
X119620354Y-98090579D01*
X119819297Y-98183347D01*
X120031326Y-98240161D01*
X120174823Y-98252715D01*
X120249998Y-98259292D01*
X120250000Y-98259292D01*
X120250002Y-98259292D01*
X120325177Y-98252715D01*
X120468674Y-98240161D01*
X120680703Y-98183347D01*
X120879646Y-98090579D01*
X121059457Y-97964674D01*
X121214674Y-97809457D01*
X121340579Y-97629646D01*
X121415365Y-97469266D01*
X121423838Y-97451096D01*
X121470010Y-97398656D01*
X121536220Y-97379500D01*
X121841444Y-97379500D01*
X121908483Y-97399185D01*
X121929125Y-97415819D01*
X122578758Y-98065453D01*
X122612243Y-98126776D01*
X122607259Y-98196468D01*
X122565387Y-98252401D01*
X122548703Y-98262930D01*
X122488173Y-98294698D01*
X122488171Y-98294700D01*
X122369207Y-98400093D01*
X122369201Y-98400100D01*
X122278915Y-98530901D01*
X122222551Y-98679517D01*
X122203394Y-98837298D01*
X122203394Y-98837299D01*
X122222551Y-98995080D01*
X122278915Y-99143696D01*
X122320413Y-99203816D01*
X122369203Y-99274500D01*
X122369205Y-99274502D01*
X122369207Y-99274504D01*
X122441428Y-99338486D01*
X122478555Y-99397675D01*
X122483201Y-99431301D01*
X122483201Y-100760480D01*
X122480562Y-100785928D01*
X122478281Y-100796801D01*
X122482724Y-100832440D01*
X122483201Y-100840117D01*
X122483201Y-100844144D01*
X122485930Y-100860500D01*
X122487084Y-100867417D01*
X122493949Y-100922488D01*
X122496206Y-100930068D01*
X122498800Y-100937624D01*
X122498801Y-100937628D01*
X122498802Y-100937631D01*
X122498803Y-100937632D01*
X122525197Y-100986405D01*
X122549576Y-101036271D01*
X122554173Y-101042709D01*
X122559083Y-101049018D01*
X122599887Y-101086582D01*
X122984728Y-101471422D01*
X123000852Y-101491277D01*
X123006932Y-101500582D01*
X123035285Y-101522650D01*
X123041036Y-101527730D01*
X123043887Y-101530581D01*
X123043890Y-101530583D01*
X123063093Y-101544294D01*
X123078360Y-101556177D01*
X123106881Y-101578375D01*
X123106885Y-101578376D01*
X123113877Y-101582160D01*
X123121018Y-101585651D01*
X123121021Y-101585653D01*
X123174182Y-101601479D01*
X123226673Y-101619500D01*
X123226676Y-101619500D01*
X123234481Y-101620803D01*
X123242407Y-101621791D01*
X123242410Y-101621792D01*
X123242412Y-101621791D01*
X123242413Y-101621792D01*
X123283971Y-101620073D01*
X123297825Y-101619500D01*
X124478337Y-101619500D01*
X124545376Y-101639185D01*
X124589337Y-101688228D01*
X124656912Y-101823935D01*
X124780269Y-101987287D01*
X124931537Y-102125185D01*
X124931539Y-102125187D01*
X125105569Y-102232942D01*
X125105575Y-102232945D01*
X125107715Y-102233774D01*
X125296444Y-102306888D01*
X125497653Y-102344500D01*
X125497656Y-102344500D01*
X125702344Y-102344500D01*
X125702347Y-102344500D01*
X125903556Y-102306888D01*
X126094427Y-102232944D01*
X126268462Y-102125186D01*
X126419732Y-101987285D01*
X126543088Y-101823935D01*
X126634328Y-101640701D01*
X126662980Y-101540000D01*
X142390768Y-101540000D01*
X142409654Y-101743816D01*
X142409654Y-101743818D01*
X142409655Y-101743821D01*
X142452694Y-101895087D01*
X142465673Y-101940704D01*
X142556912Y-102123935D01*
X142680269Y-102287287D01*
X142831537Y-102425185D01*
X142831539Y-102425187D01*
X143005569Y-102532942D01*
X143005575Y-102532945D01*
X143046010Y-102548609D01*
X143196444Y-102606888D01*
X143397653Y-102644500D01*
X143397656Y-102644500D01*
X143602344Y-102644500D01*
X143602347Y-102644500D01*
X143803556Y-102606888D01*
X143994427Y-102532944D01*
X144168462Y-102425186D01*
X144313380Y-102293076D01*
X144319730Y-102287287D01*
X144323534Y-102282250D01*
X144443088Y-102123935D01*
X144534328Y-101940701D01*
X144590345Y-101743821D01*
X144609232Y-101540000D01*
X144607842Y-101525005D01*
X144602015Y-101462114D01*
X144590345Y-101336179D01*
X144534328Y-101139299D01*
X144443088Y-100956065D01*
X144376144Y-100867417D01*
X144319730Y-100792712D01*
X144168462Y-100654814D01*
X144168460Y-100654812D01*
X143994430Y-100547057D01*
X143994424Y-100547054D01*
X143843993Y-100488777D01*
X143803556Y-100473112D01*
X143602347Y-100435500D01*
X143397653Y-100435500D01*
X143196444Y-100473112D01*
X143196441Y-100473112D01*
X143196441Y-100473113D01*
X143005575Y-100547054D01*
X143005569Y-100547057D01*
X142831539Y-100654812D01*
X142831537Y-100654814D01*
X142680269Y-100792712D01*
X142556912Y-100956064D01*
X142465673Y-101139295D01*
X142465671Y-101139299D01*
X142465672Y-101139299D01*
X142412169Y-101327345D01*
X142409654Y-101336183D01*
X142390768Y-101539999D01*
X142390768Y-101540000D01*
X126662980Y-101540000D01*
X126690345Y-101443821D01*
X126709232Y-101240000D01*
X126690345Y-101036179D01*
X126634328Y-100839299D01*
X126543088Y-100656065D01*
X126419732Y-100492715D01*
X126419730Y-100492712D01*
X126268462Y-100354814D01*
X126268460Y-100354812D01*
X126094430Y-100247057D01*
X126094424Y-100247054D01*
X125943993Y-100188777D01*
X125903556Y-100173112D01*
X125702347Y-100135500D01*
X125497653Y-100135500D01*
X125296444Y-100173112D01*
X125296441Y-100173112D01*
X125296441Y-100173113D01*
X125105575Y-100247054D01*
X125105569Y-100247057D01*
X124931539Y-100354812D01*
X124931537Y-100354814D01*
X124780269Y-100492712D01*
X124656912Y-100656064D01*
X124589337Y-100791772D01*
X124541834Y-100843009D01*
X124478337Y-100860500D01*
X123498556Y-100860500D01*
X123431517Y-100840815D01*
X123410875Y-100824181D01*
X123278519Y-100691825D01*
X123245034Y-100630502D01*
X123242200Y-100604144D01*
X123242200Y-100040916D01*
X123242200Y-99431297D01*
X123261885Y-99364262D01*
X123283969Y-99338489D01*
X123356199Y-99274500D01*
X123446488Y-99143694D01*
X123452680Y-99127365D01*
X123494856Y-99071666D01*
X123560453Y-99047608D01*
X123604003Y-99052494D01*
X123617424Y-99056490D01*
X123634184Y-99061480D01*
X123650632Y-99067126D01*
X123686673Y-99079500D01*
X123686675Y-99079500D01*
X123694481Y-99080803D01*
X123702407Y-99081791D01*
X123702410Y-99081792D01*
X123702412Y-99081791D01*
X123702413Y-99081792D01*
X123743971Y-99080073D01*
X123757825Y-99079500D01*
X124478337Y-99079500D01*
X124545376Y-99099185D01*
X124589337Y-99148228D01*
X124656912Y-99283935D01*
X124780269Y-99447287D01*
X124931537Y-99585185D01*
X124931539Y-99585187D01*
X125105569Y-99692942D01*
X125105575Y-99692945D01*
X125146010Y-99708609D01*
X125296444Y-99766888D01*
X125497653Y-99804500D01*
X125497656Y-99804500D01*
X125702344Y-99804500D01*
X125702347Y-99804500D01*
X125903556Y-99766888D01*
X126094427Y-99692944D01*
X126268462Y-99585186D01*
X126419732Y-99447285D01*
X126543088Y-99283935D01*
X126634328Y-99100701D01*
X126662980Y-99000000D01*
X142390768Y-99000000D01*
X142409654Y-99203816D01*
X142409654Y-99203818D01*
X142409655Y-99203821D01*
X142455304Y-99364262D01*
X142465673Y-99400704D01*
X142556912Y-99583935D01*
X142680269Y-99747287D01*
X142831537Y-99885185D01*
X142831539Y-99885187D01*
X143005569Y-99992942D01*
X143005575Y-99992945D01*
X143046010Y-100008609D01*
X143196444Y-100066888D01*
X143397653Y-100104500D01*
X143397656Y-100104500D01*
X143602344Y-100104500D01*
X143602347Y-100104500D01*
X143803556Y-100066888D01*
X143994427Y-99992944D01*
X144168462Y-99885186D01*
X144319732Y-99747285D01*
X144443088Y-99583935D01*
X144534328Y-99400701D01*
X144590345Y-99203821D01*
X144609232Y-99000000D01*
X144590345Y-98796179D01*
X144534328Y-98599299D01*
X144443088Y-98416065D01*
X144319732Y-98252715D01*
X144319730Y-98252712D01*
X144168462Y-98114814D01*
X144168460Y-98114812D01*
X143994430Y-98007057D01*
X143994424Y-98007054D01*
X143843993Y-97948777D01*
X143803556Y-97933112D01*
X143602347Y-97895500D01*
X143397653Y-97895500D01*
X143196444Y-97933112D01*
X143196441Y-97933112D01*
X143196441Y-97933113D01*
X143005575Y-98007054D01*
X143005569Y-98007057D01*
X142831539Y-98114812D01*
X142831537Y-98114814D01*
X142680269Y-98252712D01*
X142556912Y-98416064D01*
X142465673Y-98599295D01*
X142409654Y-98796183D01*
X142390768Y-98999999D01*
X142390768Y-99000000D01*
X126662980Y-99000000D01*
X126690345Y-98903821D01*
X126709232Y-98700000D01*
X126690345Y-98496179D01*
X126634328Y-98299299D01*
X126543088Y-98116065D01*
X126428763Y-97964674D01*
X126419730Y-97952712D01*
X126268462Y-97814814D01*
X126268460Y-97814812D01*
X126094430Y-97707057D01*
X126094424Y-97707054D01*
X125943993Y-97648777D01*
X125903556Y-97633112D01*
X125702347Y-97595500D01*
X125497653Y-97595500D01*
X125296444Y-97633112D01*
X125296441Y-97633112D01*
X125296441Y-97633113D01*
X125105575Y-97707054D01*
X125105569Y-97707057D01*
X124931539Y-97814812D01*
X124931537Y-97814814D01*
X124780269Y-97952712D01*
X124656912Y-98116064D01*
X124589337Y-98251772D01*
X124541834Y-98303009D01*
X124478337Y-98320500D01*
X123958556Y-98320500D01*
X123891517Y-98300815D01*
X123870875Y-98284181D01*
X123117283Y-97530589D01*
X123083798Y-97469266D01*
X123088782Y-97399574D01*
X123130654Y-97343641D01*
X123147334Y-97333113D01*
X123224529Y-97292599D01*
X123343498Y-97187201D01*
X123433787Y-97056395D01*
X123490149Y-96907782D01*
X123509307Y-96750000D01*
X123490149Y-96592218D01*
X123433787Y-96443605D01*
X123343498Y-96312799D01*
X123343496Y-96312797D01*
X123221272Y-96204515D01*
X123193351Y-96160000D01*
X124490768Y-96160000D01*
X124509654Y-96363816D01*
X124509654Y-96363818D01*
X124509655Y-96363821D01*
X124565672Y-96560701D01*
X124565673Y-96560704D01*
X124656912Y-96743935D01*
X124780269Y-96907287D01*
X124931537Y-97045185D01*
X124931539Y-97045187D01*
X125105569Y-97152942D01*
X125105575Y-97152945D01*
X125146010Y-97168609D01*
X125296444Y-97226888D01*
X125497653Y-97264500D01*
X125497656Y-97264500D01*
X125702344Y-97264500D01*
X125702347Y-97264500D01*
X125903556Y-97226888D01*
X126094427Y-97152944D01*
X126268462Y-97045186D01*
X126419732Y-96907285D01*
X126543088Y-96743935D01*
X126634328Y-96560701D01*
X126662980Y-96460000D01*
X142390768Y-96460000D01*
X142409654Y-96663816D01*
X142409654Y-96663818D01*
X142409655Y-96663821D01*
X142465672Y-96860701D01*
X142465673Y-96860704D01*
X142556912Y-97043935D01*
X142680269Y-97207287D01*
X142831537Y-97345185D01*
X142831539Y-97345187D01*
X143005569Y-97452942D01*
X143005575Y-97452945D01*
X143046010Y-97468609D01*
X143196444Y-97526888D01*
X143397653Y-97564500D01*
X143397656Y-97564500D01*
X143602344Y-97564500D01*
X143602347Y-97564500D01*
X143803556Y-97526888D01*
X143994427Y-97452944D01*
X144168462Y-97345186D01*
X144307239Y-97218674D01*
X144319730Y-97207287D01*
X144319732Y-97207285D01*
X144443088Y-97043935D01*
X144534328Y-96860701D01*
X144590345Y-96663821D01*
X144609232Y-96460000D01*
X144607712Y-96443602D01*
X144600925Y-96370354D01*
X144590345Y-96256179D01*
X144534328Y-96059299D01*
X144443088Y-95876065D01*
X144319732Y-95712715D01*
X144319730Y-95712712D01*
X144168462Y-95574814D01*
X144168460Y-95574812D01*
X143994430Y-95467057D01*
X143994424Y-95467054D01*
X143843993Y-95408777D01*
X143803556Y-95393112D01*
X143602347Y-95355500D01*
X143397653Y-95355500D01*
X143196444Y-95393112D01*
X143196441Y-95393112D01*
X143196441Y-95393113D01*
X143005575Y-95467054D01*
X143005569Y-95467057D01*
X142831539Y-95574812D01*
X142831537Y-95574814D01*
X142680269Y-95712712D01*
X142556912Y-95876064D01*
X142465673Y-96059295D01*
X142465671Y-96059299D01*
X142465672Y-96059299D01*
X142423534Y-96207401D01*
X142409654Y-96256183D01*
X142390768Y-96459999D01*
X142390768Y-96460000D01*
X126662980Y-96460000D01*
X126690345Y-96363821D01*
X126709232Y-96160000D01*
X126690345Y-95956179D01*
X126634328Y-95759299D01*
X126543088Y-95576065D01*
X126419732Y-95412715D01*
X126419730Y-95412712D01*
X126268462Y-95274814D01*
X126268460Y-95274812D01*
X126094430Y-95167057D01*
X126094424Y-95167054D01*
X125943993Y-95108777D01*
X125903556Y-95093112D01*
X125702347Y-95055500D01*
X125497653Y-95055500D01*
X125296444Y-95093112D01*
X125296441Y-95093112D01*
X125296441Y-95093113D01*
X125105575Y-95167054D01*
X125105569Y-95167057D01*
X124931539Y-95274812D01*
X124931537Y-95274814D01*
X124780269Y-95412712D01*
X124656912Y-95576064D01*
X124565673Y-95759295D01*
X124509654Y-95956183D01*
X124490768Y-96159999D01*
X124490768Y-96160000D01*
X123193351Y-96160000D01*
X123184146Y-96145325D01*
X123179500Y-96111700D01*
X123179500Y-93620000D01*
X124490768Y-93620000D01*
X124509654Y-93823816D01*
X124509654Y-93823818D01*
X124509655Y-93823821D01*
X124537020Y-93919999D01*
X124565673Y-94020704D01*
X124656912Y-94203935D01*
X124780269Y-94367287D01*
X124931537Y-94505185D01*
X124931539Y-94505187D01*
X125105569Y-94612942D01*
X125105575Y-94612945D01*
X125146010Y-94628609D01*
X125296444Y-94686888D01*
X125497653Y-94724500D01*
X125497656Y-94724500D01*
X125702344Y-94724500D01*
X125702347Y-94724500D01*
X125903556Y-94686888D01*
X126094427Y-94612944D01*
X126268462Y-94505186D01*
X126419732Y-94367285D01*
X126543088Y-94203935D01*
X126634328Y-94020701D01*
X126662980Y-93920000D01*
X142390768Y-93920000D01*
X142409654Y-94123816D01*
X142409654Y-94123818D01*
X142409655Y-94123821D01*
X142465672Y-94320701D01*
X142465673Y-94320704D01*
X142556912Y-94503935D01*
X142680269Y-94667287D01*
X142831537Y-94805185D01*
X142831539Y-94805187D01*
X143005569Y-94912942D01*
X143005575Y-94912945D01*
X143046010Y-94928609D01*
X143196444Y-94986888D01*
X143397653Y-95024500D01*
X143397656Y-95024500D01*
X143602344Y-95024500D01*
X143602347Y-95024500D01*
X143803556Y-94986888D01*
X143994427Y-94912944D01*
X144168462Y-94805186D01*
X144319732Y-94667285D01*
X144443088Y-94503935D01*
X144534328Y-94320701D01*
X144590345Y-94123821D01*
X144609232Y-93920000D01*
X144590345Y-93716179D01*
X144534328Y-93519299D01*
X144443088Y-93336065D01*
X144319732Y-93172715D01*
X144319730Y-93172712D01*
X144168462Y-93034814D01*
X144168460Y-93034812D01*
X143994430Y-92927057D01*
X143994424Y-92927054D01*
X143843993Y-92868777D01*
X143803556Y-92853112D01*
X143602347Y-92815500D01*
X143397653Y-92815500D01*
X143196444Y-92853112D01*
X143196441Y-92853112D01*
X143196441Y-92853113D01*
X143005575Y-92927054D01*
X143005569Y-92927057D01*
X142831539Y-93034812D01*
X142831537Y-93034814D01*
X142680269Y-93172712D01*
X142556912Y-93336064D01*
X142465673Y-93519295D01*
X142409654Y-93716183D01*
X142390768Y-93919999D01*
X142390768Y-93920000D01*
X126662980Y-93920000D01*
X126690345Y-93823821D01*
X126709232Y-93620000D01*
X126690345Y-93416179D01*
X126634328Y-93219299D01*
X126543088Y-93036065D01*
X126419732Y-92872715D01*
X126419730Y-92872712D01*
X126268462Y-92734814D01*
X126268460Y-92734812D01*
X126094430Y-92627057D01*
X126094424Y-92627054D01*
X125943006Y-92568395D01*
X125903556Y-92553112D01*
X125702347Y-92515500D01*
X125497653Y-92515500D01*
X125296444Y-92553112D01*
X125296441Y-92553112D01*
X125296441Y-92553113D01*
X125105575Y-92627054D01*
X125105569Y-92627057D01*
X124931539Y-92734812D01*
X124931537Y-92734814D01*
X124780269Y-92872712D01*
X124656912Y-93036064D01*
X124565673Y-93219295D01*
X124509654Y-93416183D01*
X124490768Y-93619999D01*
X124490768Y-93620000D01*
X123179500Y-93620000D01*
X123179500Y-91080000D01*
X124490768Y-91080000D01*
X124509654Y-91283816D01*
X124509654Y-91283818D01*
X124509655Y-91283821D01*
X124535854Y-91375901D01*
X124565673Y-91480704D01*
X124656912Y-91663935D01*
X124780269Y-91827287D01*
X124931537Y-91965185D01*
X124931539Y-91965187D01*
X125105569Y-92072942D01*
X125105575Y-92072945D01*
X125146010Y-92088609D01*
X125296444Y-92146888D01*
X125497653Y-92184500D01*
X125497656Y-92184500D01*
X125702344Y-92184500D01*
X125702347Y-92184500D01*
X125903556Y-92146888D01*
X126094427Y-92072944D01*
X126268462Y-91965186D01*
X126419732Y-91827285D01*
X126543088Y-91663935D01*
X126634328Y-91480701D01*
X126662980Y-91380000D01*
X142390768Y-91380000D01*
X142409654Y-91583816D01*
X142409654Y-91583818D01*
X142409655Y-91583821D01*
X142458279Y-91754716D01*
X142465673Y-91780704D01*
X142556912Y-91963935D01*
X142680269Y-92127287D01*
X142831537Y-92265185D01*
X142831539Y-92265187D01*
X143005569Y-92372942D01*
X143005575Y-92372945D01*
X143046010Y-92388609D01*
X143196444Y-92446888D01*
X143397653Y-92484500D01*
X143397656Y-92484500D01*
X143602344Y-92484500D01*
X143602347Y-92484500D01*
X143803556Y-92446888D01*
X143994427Y-92372944D01*
X144168462Y-92265186D01*
X144319732Y-92127285D01*
X144443088Y-91963935D01*
X144534328Y-91780701D01*
X144590345Y-91583821D01*
X144609232Y-91380000D01*
X144590345Y-91176179D01*
X144534328Y-90979299D01*
X144443088Y-90796065D01*
X144319732Y-90632715D01*
X144319730Y-90632712D01*
X144168462Y-90494814D01*
X144168460Y-90494812D01*
X143994430Y-90387057D01*
X143994424Y-90387054D01*
X143821031Y-90319882D01*
X143803556Y-90313112D01*
X143602347Y-90275500D01*
X143397653Y-90275500D01*
X143196444Y-90313112D01*
X143196441Y-90313112D01*
X143196441Y-90313113D01*
X143005575Y-90387054D01*
X143005569Y-90387057D01*
X142831539Y-90494812D01*
X142831537Y-90494814D01*
X142680269Y-90632712D01*
X142556912Y-90796064D01*
X142465673Y-90979295D01*
X142409654Y-91176183D01*
X142390768Y-91379999D01*
X142390768Y-91380000D01*
X126662980Y-91380000D01*
X126690345Y-91283821D01*
X126709232Y-91080000D01*
X126690345Y-90876179D01*
X126634328Y-90679299D01*
X126543088Y-90496065D01*
X126419732Y-90332715D01*
X126419730Y-90332712D01*
X126268462Y-90194814D01*
X126268460Y-90194812D01*
X126094430Y-90087057D01*
X126094424Y-90087054D01*
X125943993Y-90028777D01*
X125903556Y-90013112D01*
X125702347Y-89975500D01*
X125497653Y-89975500D01*
X125296444Y-90013112D01*
X125296441Y-90013112D01*
X125296441Y-90013113D01*
X125105575Y-90087054D01*
X125105569Y-90087057D01*
X124931539Y-90194812D01*
X124931537Y-90194814D01*
X124780269Y-90332712D01*
X124656912Y-90496064D01*
X124565673Y-90679295D01*
X124509654Y-90876183D01*
X124490768Y-91079999D01*
X124490768Y-91080000D01*
X123179500Y-91080000D01*
X123179500Y-90152220D01*
X123182139Y-90126775D01*
X123182801Y-90123611D01*
X123184419Y-90115900D01*
X123180824Y-90087057D01*
X123179977Y-90080260D01*
X123179500Y-90072584D01*
X123179500Y-90068560D01*
X123179498Y-90068547D01*
X123175616Y-90045285D01*
X123175616Y-90045284D01*
X123168752Y-89990217D01*
X123168750Y-89990213D01*
X123166484Y-89982598D01*
X123163901Y-89975075D01*
X123137502Y-89926294D01*
X123113126Y-89876432D01*
X123108541Y-89870009D01*
X123103620Y-89863686D01*
X123103619Y-89863684D01*
X123062813Y-89826119D01*
X121776694Y-88540000D01*
X124490768Y-88540000D01*
X124509654Y-88743816D01*
X124509654Y-88743818D01*
X124509655Y-88743821D01*
X124520901Y-88783345D01*
X124565673Y-88940704D01*
X124656912Y-89123935D01*
X124780269Y-89287287D01*
X124931537Y-89425185D01*
X124931539Y-89425187D01*
X125105569Y-89532942D01*
X125105575Y-89532945D01*
X125146010Y-89548609D01*
X125296444Y-89606888D01*
X125497653Y-89644500D01*
X125497656Y-89644500D01*
X125702344Y-89644500D01*
X125702347Y-89644500D01*
X125903556Y-89606888D01*
X126094427Y-89532944D01*
X126268462Y-89425186D01*
X126419732Y-89287285D01*
X126543088Y-89123935D01*
X126634328Y-88940701D01*
X126662980Y-88840000D01*
X142390768Y-88840000D01*
X142409654Y-89043816D01*
X142409654Y-89043818D01*
X142409655Y-89043821D01*
X142465672Y-89240701D01*
X142465673Y-89240704D01*
X142556912Y-89423935D01*
X142680269Y-89587287D01*
X142831537Y-89725185D01*
X142831539Y-89725187D01*
X143005569Y-89832942D01*
X143005575Y-89832945D01*
X143046010Y-89848609D01*
X143196444Y-89906888D01*
X143397653Y-89944500D01*
X143397656Y-89944500D01*
X143602344Y-89944500D01*
X143602347Y-89944500D01*
X143803556Y-89906888D01*
X143994427Y-89832944D01*
X144168462Y-89725186D01*
X144319732Y-89587285D01*
X144443088Y-89423935D01*
X144534328Y-89240701D01*
X144590345Y-89043821D01*
X144609232Y-88840000D01*
X144590345Y-88636179D01*
X144534328Y-88439299D01*
X144443088Y-88256065D01*
X144331544Y-88108357D01*
X144319730Y-88092712D01*
X144168462Y-87954814D01*
X144168460Y-87954812D01*
X143994430Y-87847057D01*
X143994424Y-87847054D01*
X143843993Y-87788777D01*
X143803556Y-87773112D01*
X143602347Y-87735500D01*
X143397653Y-87735500D01*
X143196444Y-87773112D01*
X143196441Y-87773112D01*
X143196441Y-87773113D01*
X143005575Y-87847054D01*
X143005569Y-87847057D01*
X142831539Y-87954812D01*
X142831537Y-87954814D01*
X142680269Y-88092712D01*
X142556912Y-88256064D01*
X142465673Y-88439295D01*
X142409654Y-88636183D01*
X142390768Y-88839999D01*
X142390768Y-88840000D01*
X126662980Y-88840000D01*
X126690345Y-88743821D01*
X126709232Y-88540000D01*
X126690345Y-88336179D01*
X126634328Y-88139299D01*
X126543088Y-87956065D01*
X126419732Y-87792715D01*
X126419730Y-87792712D01*
X126268462Y-87654814D01*
X126268460Y-87654812D01*
X126094430Y-87547057D01*
X126094424Y-87547054D01*
X125943993Y-87488777D01*
X125903556Y-87473112D01*
X125702347Y-87435500D01*
X125497653Y-87435500D01*
X125296444Y-87473112D01*
X125296441Y-87473112D01*
X125296441Y-87473113D01*
X125105575Y-87547054D01*
X125105569Y-87547057D01*
X124931539Y-87654812D01*
X124931537Y-87654814D01*
X124780269Y-87792712D01*
X124656912Y-87956064D01*
X124565673Y-88139295D01*
X124509654Y-88336183D01*
X124490768Y-88539999D01*
X124490768Y-88540000D01*
X121776694Y-88540000D01*
X121476066Y-88239372D01*
X121442581Y-88178049D01*
X121447565Y-88108357D01*
X121451348Y-88099325D01*
X121483347Y-88030703D01*
X121540161Y-87818674D01*
X121559292Y-87600000D01*
X121540161Y-87381326D01*
X121483347Y-87169297D01*
X121390579Y-86970354D01*
X121390577Y-86970351D01*
X121390576Y-86970349D01*
X121264677Y-86790547D01*
X121264672Y-86790541D01*
X121109458Y-86635327D01*
X121109452Y-86635322D01*
X120929650Y-86509423D01*
X120929642Y-86509419D01*
X120730708Y-86416655D01*
X120730706Y-86416654D01*
X120730703Y-86416653D01*
X120579885Y-86376240D01*
X120518675Y-86359839D01*
X120518668Y-86359838D01*
X120300002Y-86340708D01*
X120299998Y-86340708D01*
X120081331Y-86359838D01*
X120081324Y-86359839D01*
X119958902Y-86392642D01*
X119869297Y-86416653D01*
X119869295Y-86416653D01*
X119869291Y-86416655D01*
X119670357Y-86509419D01*
X119670349Y-86509423D01*
X119490547Y-86635322D01*
X119490541Y-86635327D01*
X119335327Y-86790541D01*
X119335322Y-86790547D01*
X119209423Y-86970349D01*
X119209419Y-86970357D01*
X119126162Y-87148904D01*
X119079990Y-87201344D01*
X119013780Y-87220500D01*
X115086220Y-87220500D01*
X115019181Y-87200815D01*
X114973838Y-87148904D01*
X114890580Y-86970357D01*
X114890579Y-86970354D01*
X114890577Y-86970351D01*
X114890576Y-86970349D01*
X114764677Y-86790547D01*
X114764672Y-86790541D01*
X114609458Y-86635327D01*
X114609452Y-86635322D01*
X114429650Y-86509423D01*
X114429642Y-86509419D01*
X114230708Y-86416655D01*
X114230706Y-86416654D01*
X114230703Y-86416653D01*
X114079885Y-86376240D01*
X114018675Y-86359839D01*
X114018668Y-86359838D01*
X113800002Y-86340708D01*
X113799998Y-86340708D01*
X113581331Y-86359838D01*
X113581324Y-86359839D01*
X113458902Y-86392642D01*
X113369297Y-86416653D01*
X113369295Y-86416653D01*
X113369291Y-86416655D01*
X113170357Y-86509419D01*
X113170349Y-86509423D01*
X112990547Y-86635322D01*
X112990541Y-86635327D01*
X112835327Y-86790541D01*
X112835322Y-86790547D01*
X112709423Y-86970349D01*
X112709419Y-86970357D01*
X112616655Y-87169291D01*
X112616653Y-87169295D01*
X112616653Y-87169297D01*
X112608208Y-87200815D01*
X112559839Y-87381324D01*
X112559838Y-87381331D01*
X112540708Y-87599997D01*
X112540708Y-87600002D01*
X112559838Y-87818668D01*
X112559839Y-87818675D01*
X112567444Y-87847056D01*
X112616653Y-88030703D01*
X112616654Y-88030706D01*
X112616655Y-88030708D01*
X112709419Y-88229642D01*
X112709423Y-88229650D01*
X112835322Y-88409452D01*
X112835327Y-88409458D01*
X112990541Y-88564672D01*
X112990547Y-88564677D01*
X113170349Y-88690576D01*
X113170351Y-88690577D01*
X113170354Y-88690579D01*
X113369297Y-88783347D01*
X113581326Y-88840161D01*
X113737521Y-88853826D01*
X113799998Y-88859292D01*
X113800000Y-88859292D01*
X113800002Y-88859292D01*
X113854668Y-88854509D01*
X114018674Y-88840161D01*
X114230703Y-88783347D01*
X114429646Y-88690579D01*
X114609457Y-88564674D01*
X114764674Y-88409457D01*
X114890579Y-88229646D01*
X114973837Y-88051096D01*
X115020010Y-87998656D01*
X115086220Y-87979500D01*
X119013780Y-87979500D01*
X119080819Y-87999185D01*
X119126162Y-88051096D01*
X119209419Y-88229642D01*
X119209423Y-88229650D01*
X119335322Y-88409452D01*
X119335327Y-88409458D01*
X119490541Y-88564672D01*
X119490547Y-88564677D01*
X119670349Y-88690576D01*
X119670351Y-88690577D01*
X119670354Y-88690579D01*
X119869297Y-88783347D01*
X120081326Y-88840161D01*
X120237521Y-88853826D01*
X120299998Y-88859292D01*
X120300000Y-88859292D01*
X120300002Y-88859292D01*
X120354668Y-88854509D01*
X120518674Y-88840161D01*
X120730703Y-88783347D01*
X120799291Y-88751364D01*
X120868362Y-88740873D01*
X120932147Y-88769392D01*
X120939372Y-88776065D01*
X122384182Y-90220876D01*
X122417666Y-90282197D01*
X122420500Y-90308555D01*
X122420500Y-96200293D01*
X122400815Y-96267332D01*
X122378729Y-96293107D01*
X122356503Y-96312797D01*
X122356500Y-96312801D01*
X122266214Y-96443603D01*
X122266212Y-96443606D01*
X122229932Y-96539265D01*
X122187753Y-96594967D01*
X122122155Y-96619023D01*
X122098659Y-96618340D01*
X122097595Y-96618207D01*
X122044922Y-96620386D01*
X122042175Y-96620500D01*
X121536220Y-96620500D01*
X121469181Y-96600815D01*
X121423838Y-96548904D01*
X121365637Y-96424092D01*
X121340579Y-96370354D01*
X121340577Y-96370351D01*
X121340576Y-96370349D01*
X121214677Y-96190547D01*
X121214672Y-96190541D01*
X121059458Y-96035327D01*
X121059452Y-96035322D01*
X120879650Y-95909423D01*
X120879642Y-95909419D01*
X120680708Y-95816655D01*
X120680706Y-95816654D01*
X120680703Y-95816653D01*
X120529885Y-95776240D01*
X120468675Y-95759839D01*
X120468668Y-95759838D01*
X120250002Y-95740708D01*
X120249998Y-95740708D01*
X120031331Y-95759838D01*
X120031324Y-95759839D01*
X119908902Y-95792642D01*
X119819297Y-95816653D01*
X119819295Y-95816653D01*
X119819291Y-95816655D01*
X119620357Y-95909419D01*
X119620349Y-95909423D01*
X119440547Y-96035322D01*
X119440541Y-96035327D01*
X119285327Y-96190541D01*
X119285322Y-96190547D01*
X119159423Y-96370349D01*
X119159419Y-96370357D01*
X119076162Y-96548904D01*
X119029990Y-96601344D01*
X118963780Y-96620500D01*
X115036220Y-96620500D01*
X114969181Y-96600815D01*
X114923838Y-96548904D01*
X114865637Y-96424092D01*
X114840579Y-96370354D01*
X114840577Y-96370351D01*
X114840576Y-96370349D01*
X114714677Y-96190547D01*
X114714672Y-96190541D01*
X114559458Y-96035327D01*
X114559452Y-96035322D01*
X114379650Y-95909423D01*
X114379642Y-95909419D01*
X114180708Y-95816655D01*
X114180706Y-95816654D01*
X114180703Y-95816653D01*
X114029885Y-95776240D01*
X113968675Y-95759839D01*
X113968668Y-95759838D01*
X113750002Y-95740708D01*
X113749998Y-95740708D01*
X113531331Y-95759838D01*
X113531324Y-95759839D01*
X113408902Y-95792642D01*
X113319297Y-95816653D01*
X113319295Y-95816653D01*
X113319291Y-95816655D01*
X113120357Y-95909419D01*
X113120349Y-95909423D01*
X112940547Y-96035322D01*
X112940541Y-96035327D01*
X112785327Y-96190541D01*
X112785322Y-96190547D01*
X112659423Y-96370349D01*
X112659419Y-96370357D01*
X112566655Y-96569291D01*
X112566653Y-96569295D01*
X112566653Y-96569297D01*
X112545147Y-96649556D01*
X112509839Y-96781324D01*
X112509838Y-96781331D01*
X112490708Y-96999997D01*
X112490708Y-97000002D01*
X111000500Y-97000002D01*
X111000500Y-92100005D01*
X112294858Y-92100005D01*
X112315385Y-92347729D01*
X112315387Y-92347738D01*
X112376412Y-92588717D01*
X112476266Y-92816364D01*
X112576564Y-92969882D01*
X113274070Y-92272376D01*
X113276884Y-92285915D01*
X113346442Y-92420156D01*
X113449638Y-92530652D01*
X113578819Y-92609209D01*
X113630002Y-92623549D01*
X112929942Y-93323609D01*
X112976768Y-93360055D01*
X112976770Y-93360056D01*
X113195385Y-93478364D01*
X113195396Y-93478369D01*
X113430506Y-93559083D01*
X113675707Y-93600000D01*
X113924293Y-93600000D01*
X114169493Y-93559083D01*
X114404603Y-93478369D01*
X114404614Y-93478364D01*
X114623228Y-93360057D01*
X114623231Y-93360055D01*
X114670056Y-93323609D01*
X113971568Y-92625121D01*
X114088458Y-92574349D01*
X114205739Y-92478934D01*
X114292928Y-92355415D01*
X114323354Y-92269802D01*
X115023434Y-92969882D01*
X115123731Y-92816369D01*
X115223587Y-92588717D01*
X115284612Y-92347738D01*
X115284614Y-92347729D01*
X115305141Y-92100005D01*
X118794858Y-92100005D01*
X118815385Y-92347729D01*
X118815387Y-92347738D01*
X118876412Y-92588717D01*
X118976266Y-92816364D01*
X119076564Y-92969882D01*
X119774070Y-92272376D01*
X119776884Y-92285915D01*
X119846442Y-92420156D01*
X119949638Y-92530652D01*
X120078819Y-92609209D01*
X120130002Y-92623549D01*
X119429942Y-93323609D01*
X119476768Y-93360055D01*
X119476770Y-93360056D01*
X119695385Y-93478364D01*
X119695396Y-93478369D01*
X119930506Y-93559083D01*
X120175707Y-93600000D01*
X120424293Y-93600000D01*
X120669493Y-93559083D01*
X120904603Y-93478369D01*
X120904614Y-93478364D01*
X121123228Y-93360057D01*
X121123231Y-93360055D01*
X121170056Y-93323609D01*
X120471568Y-92625121D01*
X120588458Y-92574349D01*
X120705739Y-92478934D01*
X120792928Y-92355415D01*
X120823354Y-92269802D01*
X121523434Y-92969882D01*
X121623731Y-92816369D01*
X121723587Y-92588717D01*
X121784612Y-92347738D01*
X121784614Y-92347729D01*
X121805141Y-92100005D01*
X121805141Y-92099994D01*
X121784614Y-91852270D01*
X121784612Y-91852261D01*
X121723587Y-91611282D01*
X121623731Y-91383630D01*
X121523434Y-91230116D01*
X120825928Y-91927621D01*
X120823116Y-91914085D01*
X120753558Y-91779844D01*
X120650362Y-91669348D01*
X120521181Y-91590791D01*
X120469997Y-91576450D01*
X121170057Y-90876390D01*
X121170056Y-90876389D01*
X121123229Y-90839943D01*
X120904614Y-90721635D01*
X120904603Y-90721630D01*
X120669493Y-90640916D01*
X120424293Y-90600000D01*
X120175707Y-90600000D01*
X119930506Y-90640916D01*
X119695396Y-90721630D01*
X119695390Y-90721632D01*
X119476761Y-90839949D01*
X119429942Y-90876388D01*
X119429942Y-90876390D01*
X120128431Y-91574878D01*
X120011542Y-91625651D01*
X119894261Y-91721066D01*
X119807072Y-91844585D01*
X119776645Y-91930197D01*
X119076564Y-91230116D01*
X118976267Y-91383632D01*
X118876412Y-91611282D01*
X118815387Y-91852261D01*
X118815385Y-91852270D01*
X118794858Y-92099994D01*
X118794858Y-92100005D01*
X115305141Y-92100005D01*
X115305141Y-92099994D01*
X115284614Y-91852270D01*
X115284612Y-91852261D01*
X115223587Y-91611282D01*
X115123731Y-91383630D01*
X115023434Y-91230116D01*
X114325929Y-91927622D01*
X114323116Y-91914085D01*
X114253558Y-91779844D01*
X114150362Y-91669348D01*
X114021181Y-91590791D01*
X113969996Y-91576449D01*
X114670056Y-90876389D01*
X114623229Y-90839943D01*
X114404614Y-90721635D01*
X114404603Y-90721630D01*
X114169493Y-90640916D01*
X113924293Y-90600000D01*
X113675707Y-90600000D01*
X113430506Y-90640916D01*
X113195396Y-90721630D01*
X113195390Y-90721632D01*
X112976761Y-90839949D01*
X112929942Y-90876388D01*
X112929942Y-90876390D01*
X113628430Y-91574879D01*
X113511542Y-91625651D01*
X113394261Y-91721066D01*
X113307072Y-91844585D01*
X113276645Y-91930197D01*
X112576564Y-91230116D01*
X112476267Y-91383632D01*
X112376412Y-91611282D01*
X112315387Y-91852261D01*
X112315385Y-91852270D01*
X112294858Y-92099994D01*
X112294858Y-92100005D01*
X111000500Y-92100005D01*
X111000500Y-86000000D01*
X124490768Y-86000000D01*
X124509654Y-86203816D01*
X124565673Y-86400704D01*
X124656912Y-86583935D01*
X124780269Y-86747287D01*
X124931537Y-86885185D01*
X124931539Y-86885187D01*
X125105569Y-86992942D01*
X125105575Y-86992945D01*
X125146010Y-87008609D01*
X125296444Y-87066888D01*
X125497653Y-87104500D01*
X125497656Y-87104500D01*
X125702344Y-87104500D01*
X125702347Y-87104500D01*
X125903556Y-87066888D01*
X126094427Y-86992944D01*
X126268462Y-86885186D01*
X126419732Y-86747285D01*
X126543088Y-86583935D01*
X126634328Y-86400701D01*
X126690345Y-86203821D01*
X126709232Y-86000000D01*
X126690345Y-85796179D01*
X126634328Y-85599299D01*
X126543088Y-85416065D01*
X126419732Y-85252715D01*
X126419730Y-85252712D01*
X126268462Y-85114814D01*
X126268460Y-85114812D01*
X126094430Y-85007057D01*
X126094424Y-85007054D01*
X125943993Y-84948777D01*
X125903556Y-84933112D01*
X125702347Y-84895500D01*
X125497653Y-84895500D01*
X125296444Y-84933112D01*
X125296441Y-84933112D01*
X125296441Y-84933113D01*
X125105575Y-85007054D01*
X125105569Y-85007057D01*
X124931539Y-85114812D01*
X124931537Y-85114814D01*
X124780269Y-85252712D01*
X124656912Y-85416064D01*
X124565673Y-85599295D01*
X124509654Y-85796183D01*
X124490768Y-85999999D01*
X124490768Y-86000000D01*
X111000500Y-86000000D01*
X111000500Y-82200005D01*
X112344858Y-82200005D01*
X112365385Y-82447729D01*
X112365387Y-82447738D01*
X112426412Y-82688717D01*
X112526266Y-82916364D01*
X112626564Y-83069882D01*
X113324070Y-82372375D01*
X113326884Y-82385915D01*
X113396442Y-82520156D01*
X113499638Y-82630652D01*
X113628819Y-82709209D01*
X113680002Y-82723549D01*
X112979942Y-83423609D01*
X113026768Y-83460055D01*
X113026770Y-83460056D01*
X113245385Y-83578364D01*
X113245396Y-83578369D01*
X113480506Y-83659083D01*
X113725707Y-83700000D01*
X113974293Y-83700000D01*
X114219493Y-83659083D01*
X114454603Y-83578369D01*
X114454614Y-83578364D01*
X114673228Y-83460057D01*
X114673231Y-83460055D01*
X114720056Y-83423609D01*
X114021568Y-82725121D01*
X114138458Y-82674349D01*
X114255739Y-82578934D01*
X114342928Y-82455415D01*
X114373354Y-82369802D01*
X115073434Y-83069882D01*
X115173731Y-82916369D01*
X115273587Y-82688717D01*
X115334612Y-82447738D01*
X115334614Y-82447729D01*
X115355141Y-82200005D01*
X118844858Y-82200005D01*
X118865385Y-82447729D01*
X118865387Y-82447738D01*
X118926412Y-82688717D01*
X119026266Y-82916364D01*
X119126564Y-83069882D01*
X119824070Y-82372376D01*
X119826884Y-82385915D01*
X119896442Y-82520156D01*
X119999638Y-82630652D01*
X120128819Y-82709209D01*
X120180002Y-82723549D01*
X119479942Y-83423609D01*
X119526768Y-83460055D01*
X119526770Y-83460056D01*
X119745385Y-83578364D01*
X119745396Y-83578369D01*
X119980506Y-83659083D01*
X120225707Y-83700000D01*
X120474293Y-83700000D01*
X120719493Y-83659083D01*
X120954603Y-83578369D01*
X120954614Y-83578364D01*
X121173228Y-83460057D01*
X121173231Y-83460055D01*
X121173302Y-83460000D01*
X124490768Y-83460000D01*
X124509654Y-83663816D01*
X124565673Y-83860704D01*
X124656912Y-84043935D01*
X124780269Y-84207287D01*
X124931537Y-84345185D01*
X124931539Y-84345187D01*
X125105569Y-84452942D01*
X125105575Y-84452945D01*
X125146010Y-84468609D01*
X125296444Y-84526888D01*
X125497653Y-84564500D01*
X125497656Y-84564500D01*
X125702344Y-84564500D01*
X125702347Y-84564500D01*
X125903556Y-84526888D01*
X126094427Y-84452944D01*
X126268462Y-84345186D01*
X126419732Y-84207285D01*
X126543088Y-84043935D01*
X126559986Y-84010000D01*
X142169364Y-84010000D01*
X142226567Y-84223486D01*
X142226570Y-84223492D01*
X142326399Y-84437578D01*
X142461894Y-84631082D01*
X142628917Y-84798105D01*
X142822421Y-84933600D01*
X143036507Y-85033429D01*
X143036516Y-85033433D01*
X143069037Y-85042147D01*
X143128698Y-85078512D01*
X143159227Y-85141358D01*
X143150933Y-85210734D01*
X143106448Y-85264612D01*
X143081739Y-85277548D01*
X143005581Y-85307052D01*
X143005569Y-85307057D01*
X142831539Y-85414812D01*
X142831537Y-85414814D01*
X142680269Y-85552712D01*
X142556912Y-85716064D01*
X142465673Y-85899295D01*
X142409654Y-86096183D01*
X142390768Y-86299999D01*
X142390768Y-86300000D01*
X142409654Y-86503816D01*
X142409654Y-86503818D01*
X142409655Y-86503821D01*
X142447072Y-86635327D01*
X142465673Y-86700704D01*
X142556912Y-86883935D01*
X142680269Y-87047287D01*
X142831537Y-87185185D01*
X142831539Y-87185187D01*
X143005569Y-87292942D01*
X143005575Y-87292945D01*
X143046010Y-87308609D01*
X143196444Y-87366888D01*
X143397653Y-87404500D01*
X143397656Y-87404500D01*
X143602344Y-87404500D01*
X143602347Y-87404500D01*
X143803556Y-87366888D01*
X143994427Y-87292944D01*
X144168462Y-87185186D01*
X144319732Y-87047285D01*
X144443088Y-86883935D01*
X144534328Y-86700701D01*
X144590345Y-86503821D01*
X144609232Y-86300000D01*
X144590345Y-86096179D01*
X144534328Y-85899299D01*
X144443088Y-85716065D01*
X144319732Y-85552715D01*
X144319730Y-85552712D01*
X144168462Y-85414814D01*
X144168460Y-85414812D01*
X143994430Y-85307057D01*
X143994424Y-85307054D01*
X143918261Y-85277549D01*
X143862859Y-85234976D01*
X143839269Y-85169209D01*
X143854980Y-85101129D01*
X143905004Y-85052350D01*
X143930963Y-85042147D01*
X143963481Y-85033434D01*
X143963492Y-85033429D01*
X144177578Y-84933600D01*
X144371082Y-84798105D01*
X144538105Y-84631082D01*
X144673600Y-84437578D01*
X144773429Y-84223492D01*
X144773432Y-84223486D01*
X144830636Y-84010000D01*
X143933686Y-84010000D01*
X143959493Y-83969844D01*
X144000000Y-83831889D01*
X144000000Y-83688111D01*
X143959493Y-83550156D01*
X143933686Y-83510000D01*
X144830636Y-83510000D01*
X144830635Y-83509999D01*
X144773432Y-83296513D01*
X144773429Y-83296507D01*
X144673600Y-83082422D01*
X144673599Y-83082420D01*
X144538113Y-82888926D01*
X144538108Y-82888920D01*
X144371082Y-82721894D01*
X144177578Y-82586399D01*
X143963492Y-82486570D01*
X143963477Y-82486564D01*
X143930960Y-82477851D01*
X143871300Y-82441486D01*
X143840772Y-82378638D01*
X143849067Y-82309263D01*
X143893553Y-82255386D01*
X143918257Y-82242452D01*
X143994427Y-82212944D01*
X144168462Y-82105186D01*
X144319732Y-81967285D01*
X144443088Y-81803935D01*
X144534328Y-81620701D01*
X144590345Y-81423821D01*
X144609232Y-81220000D01*
X144590345Y-81016179D01*
X144534328Y-80819299D01*
X144443088Y-80636065D01*
X144319732Y-80472715D01*
X144319730Y-80472712D01*
X144168462Y-80334814D01*
X144168460Y-80334812D01*
X143994430Y-80227057D01*
X143994424Y-80227054D01*
X143843993Y-80168777D01*
X143803556Y-80153112D01*
X143602347Y-80115500D01*
X143397653Y-80115500D01*
X143196444Y-80153112D01*
X143196441Y-80153112D01*
X143196441Y-80153113D01*
X143005575Y-80227054D01*
X143005569Y-80227057D01*
X142831539Y-80334812D01*
X142831537Y-80334814D01*
X142680269Y-80472712D01*
X142556912Y-80636064D01*
X142465673Y-80819295D01*
X142465671Y-80819299D01*
X142465672Y-80819299D01*
X142420977Y-80976388D01*
X142409654Y-81016183D01*
X142390768Y-81219999D01*
X142390768Y-81220000D01*
X142409654Y-81423816D01*
X142409654Y-81423818D01*
X142409655Y-81423821D01*
X142452649Y-81574928D01*
X142465673Y-81620704D01*
X142556912Y-81803935D01*
X142680269Y-81967287D01*
X142831537Y-82105185D01*
X142831539Y-82105187D01*
X143005569Y-82212942D01*
X143005571Y-82212943D01*
X143005573Y-82212944D01*
X143005576Y-82212945D01*
X143005578Y-82212946D01*
X143081737Y-82242450D01*
X143137139Y-82285023D01*
X143160730Y-82350789D01*
X143145019Y-82418870D01*
X143094996Y-82467649D01*
X143069040Y-82477851D01*
X143036519Y-82486565D01*
X143036507Y-82486570D01*
X142822422Y-82586399D01*
X142822420Y-82586400D01*
X142628926Y-82721886D01*
X142628920Y-82721891D01*
X142461891Y-82888920D01*
X142461886Y-82888926D01*
X142326400Y-83082420D01*
X142326399Y-83082422D01*
X142226570Y-83296507D01*
X142226567Y-83296513D01*
X142169364Y-83509999D01*
X142169364Y-83510000D01*
X143066314Y-83510000D01*
X143040507Y-83550156D01*
X143000000Y-83688111D01*
X143000000Y-83831889D01*
X143040507Y-83969844D01*
X143066314Y-84010000D01*
X142169364Y-84010000D01*
X126559986Y-84010000D01*
X126634328Y-83860701D01*
X126690345Y-83663821D01*
X126709232Y-83460000D01*
X126690345Y-83256179D01*
X126634328Y-83059299D01*
X126543088Y-82876065D01*
X126426664Y-82721894D01*
X126419730Y-82712712D01*
X126268462Y-82574814D01*
X126268460Y-82574812D01*
X126094430Y-82467057D01*
X126094424Y-82467054D01*
X125943993Y-82408777D01*
X125903556Y-82393112D01*
X125702347Y-82355500D01*
X125497653Y-82355500D01*
X125296444Y-82393112D01*
X125296441Y-82393112D01*
X125296441Y-82393113D01*
X125105575Y-82467054D01*
X125105569Y-82467057D01*
X124931539Y-82574812D01*
X124931537Y-82574814D01*
X124780269Y-82712712D01*
X124656912Y-82876064D01*
X124565673Y-83059295D01*
X124509654Y-83256183D01*
X124490768Y-83459999D01*
X124490768Y-83460000D01*
X121173302Y-83460000D01*
X121220056Y-83423609D01*
X120521568Y-82725121D01*
X120638458Y-82674349D01*
X120755739Y-82578934D01*
X120842928Y-82455415D01*
X120873354Y-82369802D01*
X121573434Y-83069882D01*
X121673731Y-82916369D01*
X121773587Y-82688717D01*
X121834612Y-82447738D01*
X121834614Y-82447729D01*
X121855141Y-82200005D01*
X121855141Y-82199994D01*
X121834614Y-81952270D01*
X121834612Y-81952261D01*
X121773587Y-81711282D01*
X121673731Y-81483630D01*
X121573434Y-81330116D01*
X120875929Y-82027622D01*
X120873116Y-82014085D01*
X120803558Y-81879844D01*
X120700362Y-81769348D01*
X120571181Y-81690791D01*
X120519996Y-81676449D01*
X121220056Y-80976389D01*
X121173229Y-80939943D01*
X121136377Y-80920000D01*
X124490768Y-80920000D01*
X124509654Y-81123816D01*
X124565673Y-81320704D01*
X124656912Y-81503935D01*
X124780269Y-81667287D01*
X124931537Y-81805185D01*
X124931539Y-81805187D01*
X125105569Y-81912942D01*
X125105575Y-81912945D01*
X125146010Y-81928609D01*
X125296444Y-81986888D01*
X125497653Y-82024500D01*
X125497656Y-82024500D01*
X125702344Y-82024500D01*
X125702347Y-82024500D01*
X125903556Y-81986888D01*
X126094427Y-81912944D01*
X126268462Y-81805186D01*
X126419732Y-81667285D01*
X126543088Y-81503935D01*
X126634328Y-81320701D01*
X126690345Y-81123821D01*
X126709232Y-80920000D01*
X126690345Y-80716179D01*
X126634328Y-80519299D01*
X126543088Y-80336065D01*
X126419732Y-80172715D01*
X126419730Y-80172712D01*
X126268462Y-80034814D01*
X126268460Y-80034812D01*
X126094430Y-79927057D01*
X126094424Y-79927054D01*
X125943993Y-79868777D01*
X125903556Y-79853112D01*
X125702347Y-79815500D01*
X125497653Y-79815500D01*
X125296444Y-79853112D01*
X125296441Y-79853112D01*
X125296441Y-79853113D01*
X125105575Y-79927054D01*
X125105569Y-79927057D01*
X124931539Y-80034812D01*
X124931537Y-80034814D01*
X124780269Y-80172712D01*
X124656912Y-80336064D01*
X124565673Y-80519295D01*
X124509654Y-80716183D01*
X124490768Y-80919999D01*
X124490768Y-80920000D01*
X121136377Y-80920000D01*
X120954614Y-80821635D01*
X120954603Y-80821630D01*
X120719493Y-80740916D01*
X120474293Y-80700000D01*
X120225707Y-80700000D01*
X119980506Y-80740916D01*
X119745396Y-80821630D01*
X119745390Y-80821632D01*
X119526761Y-80939949D01*
X119479942Y-80976388D01*
X119479942Y-80976390D01*
X120178430Y-81674879D01*
X120061542Y-81725651D01*
X119944261Y-81821066D01*
X119857072Y-81944585D01*
X119826645Y-82030197D01*
X119126564Y-81330116D01*
X119026267Y-81483632D01*
X118926412Y-81711282D01*
X118865387Y-81952261D01*
X118865385Y-81952270D01*
X118844858Y-82199994D01*
X118844858Y-82200005D01*
X115355141Y-82200005D01*
X115355141Y-82199994D01*
X115334614Y-81952270D01*
X115334612Y-81952261D01*
X115273587Y-81711282D01*
X115173731Y-81483630D01*
X115073434Y-81330116D01*
X114375929Y-82027622D01*
X114373116Y-82014085D01*
X114303558Y-81879844D01*
X114200362Y-81769348D01*
X114071181Y-81690791D01*
X114019996Y-81676449D01*
X114720056Y-80976389D01*
X114673229Y-80939943D01*
X114454614Y-80821635D01*
X114454603Y-80821630D01*
X114219493Y-80740916D01*
X113974293Y-80700000D01*
X113725707Y-80700000D01*
X113480506Y-80740916D01*
X113245396Y-80821630D01*
X113245390Y-80821632D01*
X113026761Y-80939949D01*
X112979942Y-80976388D01*
X112979942Y-80976390D01*
X113678430Y-81674879D01*
X113561542Y-81725651D01*
X113444261Y-81821066D01*
X113357072Y-81944585D01*
X113326645Y-82030197D01*
X112626563Y-81330116D01*
X112526267Y-81483632D01*
X112426412Y-81711282D01*
X112365387Y-81952261D01*
X112365385Y-81952270D01*
X112344858Y-82199994D01*
X112344858Y-82200005D01*
X111000500Y-82200005D01*
X111000500Y-77700002D01*
X112590708Y-77700002D01*
X112609838Y-77918668D01*
X112609839Y-77918675D01*
X112613601Y-77932715D01*
X112666653Y-78130703D01*
X112666654Y-78130706D01*
X112666655Y-78130708D01*
X112759419Y-78329642D01*
X112759423Y-78329650D01*
X112885322Y-78509452D01*
X112885327Y-78509458D01*
X113040541Y-78664672D01*
X113040547Y-78664677D01*
X113220349Y-78790576D01*
X113220351Y-78790577D01*
X113220354Y-78790579D01*
X113419297Y-78883347D01*
X113631326Y-78940161D01*
X113787521Y-78953825D01*
X113849998Y-78959292D01*
X113850000Y-78959292D01*
X113850002Y-78959292D01*
X113904668Y-78954509D01*
X114068674Y-78940161D01*
X114280703Y-78883347D01*
X114479646Y-78790579D01*
X114659457Y-78664674D01*
X114814674Y-78509457D01*
X114940579Y-78329646D01*
X115000053Y-78202101D01*
X115023838Y-78151096D01*
X115070010Y-78098656D01*
X115136220Y-78079500D01*
X119063780Y-78079500D01*
X119130819Y-78099185D01*
X119176162Y-78151096D01*
X119259419Y-78329642D01*
X119259423Y-78329650D01*
X119385322Y-78509452D01*
X119385327Y-78509458D01*
X119540541Y-78664672D01*
X119540547Y-78664677D01*
X119720349Y-78790576D01*
X119720351Y-78790577D01*
X119720354Y-78790579D01*
X119919297Y-78883347D01*
X120131326Y-78940161D01*
X120287521Y-78953826D01*
X120349998Y-78959292D01*
X120350000Y-78959292D01*
X120350002Y-78959292D01*
X120404668Y-78954509D01*
X120568674Y-78940161D01*
X120780703Y-78883347D01*
X120979646Y-78790579D01*
X121159457Y-78664674D01*
X121314674Y-78509457D01*
X121440579Y-78329646D01*
X121533347Y-78130703D01*
X121590161Y-77918674D01*
X121607499Y-77720500D01*
X121609292Y-77700002D01*
X121609292Y-77699998D01*
X121601795Y-77614307D01*
X121615562Y-77545807D01*
X121664177Y-77495624D01*
X121725323Y-77479500D01*
X124646945Y-77479500D01*
X124713984Y-77499185D01*
X124759739Y-77551989D01*
X124769683Y-77621147D01*
X124745899Y-77678227D01*
X124656912Y-77796064D01*
X124565673Y-77979295D01*
X124509654Y-78176183D01*
X124490768Y-78379999D01*
X124490768Y-78380000D01*
X124509654Y-78583816D01*
X124509654Y-78583818D01*
X124509655Y-78583821D01*
X124537020Y-78679999D01*
X124565673Y-78780704D01*
X124656912Y-78963935D01*
X124780269Y-79127287D01*
X124931537Y-79265185D01*
X124931539Y-79265187D01*
X125105569Y-79372942D01*
X125105575Y-79372945D01*
X125146010Y-79388609D01*
X125296444Y-79446888D01*
X125497653Y-79484500D01*
X125497656Y-79484500D01*
X125702344Y-79484500D01*
X125702347Y-79484500D01*
X125903556Y-79446888D01*
X126094427Y-79372944D01*
X126268462Y-79265186D01*
X126419732Y-79127285D01*
X126543088Y-78963935D01*
X126634328Y-78780701D01*
X126690345Y-78583821D01*
X126709232Y-78380000D01*
X126690345Y-78176179D01*
X126634328Y-77979299D01*
X126543088Y-77796065D01*
X126454100Y-77678226D01*
X126429409Y-77612865D01*
X126443974Y-77544531D01*
X126493172Y-77494918D01*
X126553055Y-77479500D01*
X138491444Y-77479500D01*
X138558483Y-77499185D01*
X138579125Y-77515819D01*
X139974728Y-78911422D01*
X139990852Y-78931277D01*
X139996932Y-78940582D01*
X140025277Y-78962643D01*
X140031029Y-78967723D01*
X140033886Y-78970580D01*
X140053093Y-78984293D01*
X140096881Y-79018375D01*
X140096882Y-79018375D01*
X140103880Y-79022162D01*
X140111015Y-79025649D01*
X140111020Y-79025653D01*
X140164179Y-79041478D01*
X140216673Y-79059500D01*
X140216676Y-79059500D01*
X140224479Y-79060803D01*
X140232407Y-79061791D01*
X140232408Y-79061790D01*
X140232409Y-79061791D01*
X140287811Y-79059500D01*
X142378337Y-79059500D01*
X142445376Y-79079185D01*
X142489337Y-79128228D01*
X142556912Y-79263935D01*
X142680269Y-79427287D01*
X142831537Y-79565185D01*
X142831539Y-79565187D01*
X143005569Y-79672942D01*
X143005575Y-79672945D01*
X143046010Y-79688609D01*
X143196444Y-79746888D01*
X143397653Y-79784500D01*
X143397656Y-79784500D01*
X143602344Y-79784500D01*
X143602347Y-79784500D01*
X143803556Y-79746888D01*
X143994427Y-79672944D01*
X144168462Y-79565186D01*
X144319732Y-79427285D01*
X144443088Y-79263935D01*
X144534328Y-79080701D01*
X144590345Y-78883821D01*
X144609232Y-78680000D01*
X144590345Y-78476179D01*
X144534328Y-78279299D01*
X144443088Y-78096065D01*
X144319732Y-77932715D01*
X144319730Y-77932712D01*
X144168462Y-77794814D01*
X144168460Y-77794812D01*
X143994430Y-77687057D01*
X143994424Y-77687054D01*
X143843993Y-77628777D01*
X143803556Y-77613112D01*
X143602347Y-77575500D01*
X143397653Y-77575500D01*
X143196444Y-77613112D01*
X143196441Y-77613112D01*
X143196441Y-77613113D01*
X143005575Y-77687054D01*
X143005569Y-77687057D01*
X142831539Y-77794812D01*
X142831537Y-77794814D01*
X142680269Y-77932712D01*
X142556912Y-78096064D01*
X142489337Y-78231772D01*
X142441834Y-78283009D01*
X142378337Y-78300500D01*
X140488556Y-78300500D01*
X140421517Y-78280815D01*
X140400875Y-78264181D01*
X139005271Y-76868577D01*
X138989143Y-76848716D01*
X138983070Y-76839421D01*
X138983069Y-76839420D01*
X138983068Y-76839418D01*
X138954718Y-76817352D01*
X138948972Y-76812278D01*
X138946113Y-76809419D01*
X138943721Y-76807711D01*
X138926906Y-76795704D01*
X138883123Y-76761628D01*
X138883122Y-76761627D01*
X138883119Y-76761625D01*
X138883114Y-76761623D01*
X138876127Y-76757841D01*
X138868981Y-76754348D01*
X138868979Y-76754347D01*
X138856782Y-76750715D01*
X138815817Y-76738519D01*
X138763328Y-76720499D01*
X138755516Y-76719196D01*
X138747586Y-76718207D01*
X138694075Y-76720421D01*
X138692175Y-76720500D01*
X126568158Y-76720500D01*
X126501119Y-76700815D01*
X126455364Y-76648011D01*
X126445420Y-76578853D01*
X126469204Y-76521773D01*
X126473069Y-76516655D01*
X126543088Y-76423935D01*
X126634328Y-76240701D01*
X126662980Y-76140000D01*
X142390768Y-76140000D01*
X142409654Y-76343816D01*
X142409654Y-76343818D01*
X142409655Y-76343821D01*
X142460287Y-76521773D01*
X142465673Y-76540704D01*
X142556912Y-76723935D01*
X142680269Y-76887287D01*
X142831537Y-77025185D01*
X142831539Y-77025187D01*
X143005569Y-77132942D01*
X143005575Y-77132945D01*
X143046010Y-77148609D01*
X143196444Y-77206888D01*
X143397653Y-77244500D01*
X143397656Y-77244500D01*
X143602344Y-77244500D01*
X143602347Y-77244500D01*
X143803556Y-77206888D01*
X143994427Y-77132944D01*
X144168462Y-77025186D01*
X144316158Y-76890543D01*
X144319730Y-76887287D01*
X144319732Y-76887285D01*
X144443088Y-76723935D01*
X144534328Y-76540701D01*
X144590345Y-76343821D01*
X144594406Y-76300000D01*
X145740693Y-76300000D01*
X145759850Y-76457781D01*
X145760631Y-76459839D01*
X145808965Y-76587285D01*
X145816214Y-76606397D01*
X145884332Y-76705082D01*
X145906502Y-76737201D01*
X145906504Y-76737203D01*
X145906506Y-76737205D01*
X145978727Y-76801187D01*
X146015854Y-76860376D01*
X146020500Y-76894002D01*
X146020500Y-91647779D01*
X146017861Y-91673227D01*
X146015580Y-91684100D01*
X146020023Y-91719739D01*
X146020500Y-91727416D01*
X146020500Y-91731443D01*
X146023412Y-91748897D01*
X146024383Y-91754716D01*
X146031248Y-91809787D01*
X146033505Y-91817367D01*
X146036099Y-91824923D01*
X146036100Y-91824927D01*
X146036101Y-91824930D01*
X146036102Y-91824931D01*
X146062496Y-91873704D01*
X146086875Y-91923570D01*
X146091472Y-91930008D01*
X146096382Y-91936317D01*
X146137186Y-91973881D01*
X151294728Y-97131422D01*
X151310852Y-97151277D01*
X151316932Y-97160582D01*
X151345285Y-97182650D01*
X151351036Y-97187730D01*
X151353887Y-97190581D01*
X151373093Y-97204294D01*
X151416881Y-97238375D01*
X151416885Y-97238376D01*
X151423877Y-97242160D01*
X151431018Y-97245651D01*
X151431021Y-97245653D01*
X151484182Y-97261479D01*
X151536673Y-97279500D01*
X151536676Y-97279500D01*
X151544482Y-97280803D01*
X151552407Y-97281791D01*
X151552410Y-97281792D01*
X151552412Y-97281791D01*
X151552413Y-97281792D01*
X151607836Y-97279500D01*
X152638111Y-97279500D01*
X152705150Y-97299185D01*
X152750905Y-97351989D01*
X152759002Y-97375908D01*
X152768742Y-97418584D01*
X152768744Y-97418593D01*
X152768746Y-97418598D01*
X152864817Y-97663384D01*
X152996299Y-97891117D01*
X153160254Y-98096710D01*
X153353020Y-98275570D01*
X153570290Y-98423702D01*
X153807212Y-98537798D01*
X154058492Y-98615308D01*
X154058493Y-98615308D01*
X154058496Y-98615309D01*
X154318510Y-98654499D01*
X154318515Y-98654499D01*
X154318518Y-98654500D01*
X154318519Y-98654500D01*
X154581481Y-98654500D01*
X154581482Y-98654500D01*
X154581489Y-98654499D01*
X154841503Y-98615309D01*
X154841504Y-98615308D01*
X154841508Y-98615308D01*
X155092788Y-98537798D01*
X155329710Y-98423702D01*
X155546980Y-98275570D01*
X155739746Y-98096710D01*
X155903701Y-97891117D01*
X156035183Y-97663384D01*
X156131254Y-97418598D01*
X156189769Y-97162228D01*
X156189770Y-97162218D01*
X156209420Y-96900004D01*
X156209420Y-96899995D01*
X156189770Y-96637781D01*
X156189769Y-96637776D01*
X156189769Y-96637772D01*
X156131254Y-96381402D01*
X156035183Y-96136616D01*
X155903701Y-95908883D01*
X155739746Y-95703290D01*
X155546980Y-95524430D01*
X155329710Y-95376298D01*
X155329707Y-95376297D01*
X155329705Y-95376295D01*
X155092788Y-95262202D01*
X154841509Y-95184692D01*
X154841503Y-95184690D01*
X154581489Y-95145500D01*
X154581482Y-95145500D01*
X154318518Y-95145500D01*
X154318510Y-95145500D01*
X154058496Y-95184690D01*
X154058490Y-95184692D01*
X153807211Y-95262202D01*
X153570294Y-95376295D01*
X153353019Y-95524430D01*
X153160256Y-95703288D01*
X153160254Y-95703290D01*
X152996299Y-95908883D01*
X152864817Y-96136615D01*
X152768748Y-96381396D01*
X152768742Y-96381415D01*
X152759002Y-96424092D01*
X152724894Y-96485071D01*
X152663233Y-96517929D01*
X152638111Y-96520500D01*
X151808556Y-96520500D01*
X151741517Y-96500815D01*
X151720875Y-96484181D01*
X146815819Y-91579125D01*
X146782334Y-91517802D01*
X146779500Y-91491444D01*
X146779500Y-76894002D01*
X146799185Y-76826963D01*
X146821273Y-76801187D01*
X146827462Y-76795704D01*
X146893498Y-76737201D01*
X146983787Y-76606395D01*
X147040149Y-76457782D01*
X147059307Y-76300000D01*
X147040149Y-76142218D01*
X146983787Y-75993605D01*
X146893498Y-75862799D01*
X146893495Y-75862796D01*
X146893493Y-75862794D01*
X146774530Y-75757401D01*
X146633791Y-75683536D01*
X146479472Y-75645500D01*
X146479471Y-75645500D01*
X146320529Y-75645500D01*
X146320528Y-75645500D01*
X146166208Y-75683536D01*
X146025469Y-75757401D01*
X145906506Y-75862794D01*
X145906500Y-75862801D01*
X145816214Y-75993602D01*
X145759850Y-76142218D01*
X145740693Y-76299999D01*
X145740693Y-76300000D01*
X144594406Y-76300000D01*
X144609232Y-76140000D01*
X144590345Y-75936179D01*
X144534328Y-75739299D01*
X144443088Y-75556065D01*
X144319732Y-75392715D01*
X144319730Y-75392712D01*
X144168462Y-75254814D01*
X144168460Y-75254812D01*
X143994430Y-75147057D01*
X143994424Y-75147054D01*
X143833465Y-75084699D01*
X143803556Y-75073112D01*
X143602347Y-75035500D01*
X143397653Y-75035500D01*
X143196444Y-75073112D01*
X143196441Y-75073112D01*
X143196441Y-75073113D01*
X143005575Y-75147054D01*
X143005569Y-75147057D01*
X142831539Y-75254812D01*
X142831537Y-75254814D01*
X142680269Y-75392712D01*
X142556912Y-75556064D01*
X142465673Y-75739295D01*
X142409654Y-75936183D01*
X142390768Y-76139999D01*
X142390768Y-76140000D01*
X126662980Y-76140000D01*
X126690345Y-76043821D01*
X126709232Y-75840000D01*
X126690345Y-75636179D01*
X126634328Y-75439299D01*
X126543088Y-75256065D01*
X126460767Y-75147054D01*
X126419730Y-75092712D01*
X126268462Y-74954814D01*
X126268460Y-74954812D01*
X126094430Y-74847057D01*
X126094424Y-74847054D01*
X125915373Y-74777690D01*
X125903556Y-74773112D01*
X125702347Y-74735500D01*
X125497653Y-74735500D01*
X125296444Y-74773112D01*
X125296441Y-74773112D01*
X125296441Y-74773113D01*
X125105575Y-74847054D01*
X125105569Y-74847057D01*
X124931539Y-74954812D01*
X124931537Y-74954814D01*
X124780269Y-75092712D01*
X124656912Y-75256064D01*
X124565673Y-75439295D01*
X124509654Y-75636183D01*
X124490768Y-75839999D01*
X124490768Y-75840000D01*
X124509654Y-76043816D01*
X124509654Y-76043818D01*
X124509655Y-76043821D01*
X124565672Y-76240701D01*
X124656912Y-76423935D01*
X124726929Y-76516653D01*
X124730796Y-76521773D01*
X124755488Y-76587134D01*
X124740923Y-76655469D01*
X124691726Y-76705082D01*
X124631842Y-76720500D01*
X121177381Y-76720500D01*
X121110342Y-76700815D01*
X121106258Y-76698075D01*
X120979650Y-76609423D01*
X120979642Y-76609419D01*
X120780708Y-76516655D01*
X120780706Y-76516654D01*
X120780703Y-76516653D01*
X120629885Y-76476240D01*
X120568675Y-76459839D01*
X120568668Y-76459838D01*
X120350002Y-76440708D01*
X120349998Y-76440708D01*
X120131331Y-76459838D01*
X120131324Y-76459839D01*
X120008902Y-76492642D01*
X119919297Y-76516653D01*
X119919295Y-76516653D01*
X119919291Y-76516655D01*
X119720357Y-76609419D01*
X119720349Y-76609423D01*
X119540547Y-76735322D01*
X119540541Y-76735327D01*
X119385327Y-76890541D01*
X119385322Y-76890547D01*
X119259423Y-77070349D01*
X119259419Y-77070357D01*
X119176162Y-77248904D01*
X119129990Y-77301344D01*
X119063780Y-77320500D01*
X115136220Y-77320500D01*
X115069181Y-77300815D01*
X115023838Y-77248904D01*
X114940580Y-77070357D01*
X114940579Y-77070354D01*
X114940577Y-77070351D01*
X114940576Y-77070349D01*
X114814677Y-76890547D01*
X114814672Y-76890541D01*
X114659458Y-76735327D01*
X114659452Y-76735322D01*
X114479650Y-76609423D01*
X114479642Y-76609419D01*
X114280708Y-76516655D01*
X114280706Y-76516654D01*
X114280703Y-76516653D01*
X114129885Y-76476240D01*
X114068675Y-76459839D01*
X114068668Y-76459838D01*
X113850002Y-76440708D01*
X113849998Y-76440708D01*
X113631331Y-76459838D01*
X113631324Y-76459839D01*
X113508902Y-76492642D01*
X113419297Y-76516653D01*
X113419295Y-76516653D01*
X113419291Y-76516655D01*
X113220357Y-76609419D01*
X113220349Y-76609423D01*
X113040547Y-76735322D01*
X113040541Y-76735327D01*
X112885327Y-76890541D01*
X112885322Y-76890547D01*
X112759423Y-77070349D01*
X112759419Y-77070357D01*
X112666655Y-77269291D01*
X112609839Y-77481324D01*
X112609838Y-77481331D01*
X112590708Y-77699997D01*
X112590708Y-77700002D01*
X111000500Y-77700002D01*
X111000500Y-74500000D01*
X112125001Y-74500000D01*
X112125001Y-74674986D01*
X112135494Y-74777697D01*
X112190641Y-74944119D01*
X112190643Y-74944124D01*
X112282684Y-75093345D01*
X112406654Y-75217315D01*
X112555875Y-75309356D01*
X112555880Y-75309358D01*
X112722302Y-75364505D01*
X112722309Y-75364506D01*
X112825019Y-75374999D01*
X113699999Y-75374999D01*
X113700000Y-75374998D01*
X113700000Y-74500000D01*
X114200000Y-74500000D01*
X114200000Y-75374999D01*
X115074972Y-75374999D01*
X115074986Y-75374998D01*
X115177697Y-75364505D01*
X115344119Y-75309358D01*
X115344124Y-75309356D01*
X115493345Y-75217315D01*
X115617315Y-75093345D01*
X115709356Y-74944124D01*
X115709358Y-74944119D01*
X115764505Y-74777697D01*
X115764506Y-74777690D01*
X115774999Y-74674986D01*
X115775000Y-74674973D01*
X115775000Y-74500000D01*
X114200000Y-74500000D01*
X113700000Y-74500000D01*
X112125001Y-74500000D01*
X111000500Y-74500000D01*
X111000500Y-74000000D01*
X112125000Y-74000000D01*
X113700000Y-74000000D01*
X113700000Y-73125000D01*
X114200000Y-73125000D01*
X114200000Y-74000000D01*
X115774999Y-74000000D01*
X115774999Y-73825028D01*
X115774998Y-73825013D01*
X115764505Y-73722302D01*
X115709358Y-73555880D01*
X115709356Y-73555875D01*
X115617315Y-73406654D01*
X115493345Y-73282684D01*
X115344124Y-73190643D01*
X115344119Y-73190641D01*
X115177697Y-73135494D01*
X115177690Y-73135493D01*
X115074986Y-73125000D01*
X114200000Y-73125000D01*
X113700000Y-73125000D01*
X112825028Y-73125000D01*
X112825012Y-73125001D01*
X112722302Y-73135494D01*
X112555880Y-73190641D01*
X112555875Y-73190643D01*
X112406654Y-73282684D01*
X112282684Y-73406654D01*
X112190643Y-73555875D01*
X112190641Y-73555880D01*
X112135494Y-73722302D01*
X112135493Y-73722309D01*
X112125000Y-73825013D01*
X112125000Y-74000000D01*
X111000500Y-74000000D01*
X111000500Y-71873251D01*
X112370500Y-71873251D01*
X112370501Y-71873257D01*
X112376960Y-71933344D01*
X112427655Y-72069261D01*
X112427656Y-72069264D01*
X112427658Y-72069267D01*
X112428861Y-72070874D01*
X112514595Y-72185404D01*
X112572443Y-72228707D01*
X112630733Y-72272342D01*
X112766658Y-72323040D01*
X112826745Y-72329500D01*
X115073254Y-72329499D01*
X115133342Y-72323040D01*
X115269267Y-72272342D01*
X115385404Y-72185404D01*
X115472342Y-72069267D01*
X115523040Y-71933342D01*
X115523040Y-71933332D01*
X115524824Y-71925792D01*
X115527977Y-71926537D01*
X115549027Y-71875704D01*
X115606416Y-71835850D01*
X115645587Y-71829500D01*
X116191444Y-71829500D01*
X116258483Y-71849185D01*
X116279125Y-71865819D01*
X116334181Y-71920875D01*
X116367666Y-71982198D01*
X116370500Y-72008556D01*
X116370500Y-73547779D01*
X116367861Y-73573227D01*
X116365580Y-73584100D01*
X116370023Y-73619739D01*
X116370500Y-73627416D01*
X116370500Y-73631443D01*
X116370957Y-73634181D01*
X116374383Y-73654716D01*
X116381248Y-73709787D01*
X116383505Y-73717367D01*
X116386099Y-73724923D01*
X116386100Y-73724927D01*
X116386101Y-73724930D01*
X116386102Y-73724931D01*
X116412496Y-73773704D01*
X116436875Y-73823570D01*
X116441472Y-73830008D01*
X116446382Y-73836317D01*
X116487185Y-73873880D01*
X116894730Y-74281425D01*
X116910854Y-74301280D01*
X116916932Y-74310582D01*
X116916936Y-74310585D01*
X116945269Y-74332638D01*
X116951034Y-74337729D01*
X116953886Y-74340581D01*
X116973104Y-74354302D01*
X117016881Y-74388375D01*
X117016883Y-74388375D01*
X117023878Y-74392161D01*
X117031020Y-74395653D01*
X117084186Y-74411481D01*
X117136673Y-74429500D01*
X117136674Y-74429500D01*
X117144483Y-74430803D01*
X117152407Y-74431791D01*
X117152410Y-74431792D01*
X117152412Y-74431791D01*
X117152413Y-74431792D01*
X117193971Y-74430073D01*
X117207825Y-74429500D01*
X117851725Y-74429500D01*
X117918764Y-74449185D01*
X117964519Y-74501989D01*
X117975015Y-74540248D01*
X117976960Y-74558344D01*
X118027655Y-74694261D01*
X118027656Y-74694264D01*
X118027658Y-74694267D01*
X118056747Y-74733126D01*
X118114595Y-74810404D01*
X118163555Y-74847054D01*
X118230733Y-74897342D01*
X118366658Y-74948040D01*
X118426745Y-74954500D01*
X120673254Y-74954499D01*
X120733342Y-74948040D01*
X120869267Y-74897342D01*
X120985404Y-74810404D01*
X121072342Y-74694267D01*
X121123040Y-74558342D01*
X121129099Y-74501989D01*
X121129499Y-74498271D01*
X121129499Y-74498264D01*
X121129500Y-74498255D01*
X121129499Y-73601746D01*
X121123040Y-73541658D01*
X121108927Y-73503821D01*
X121072344Y-73405738D01*
X121072343Y-73405737D01*
X121072342Y-73405733D01*
X121028707Y-73347443D01*
X120993193Y-73300000D01*
X124490768Y-73300000D01*
X124509654Y-73503816D01*
X124509654Y-73503818D01*
X124509655Y-73503821D01*
X124562375Y-73689114D01*
X124565673Y-73700704D01*
X124656912Y-73883935D01*
X124780269Y-74047287D01*
X124920176Y-74174828D01*
X124930287Y-74184046D01*
X124931537Y-74185185D01*
X124931539Y-74185187D01*
X125105569Y-74292942D01*
X125105575Y-74292945D01*
X125127098Y-74301283D01*
X125296444Y-74366888D01*
X125497653Y-74404500D01*
X125497656Y-74404500D01*
X125702344Y-74404500D01*
X125702347Y-74404500D01*
X125903556Y-74366888D01*
X126094427Y-74292944D01*
X126268462Y-74185186D01*
X126419732Y-74047285D01*
X126543088Y-73883935D01*
X126634328Y-73700701D01*
X126662980Y-73600000D01*
X142390768Y-73600000D01*
X142409654Y-73803816D01*
X142409654Y-73803818D01*
X142409655Y-73803821D01*
X142465241Y-73999185D01*
X142465673Y-74000704D01*
X142556912Y-74183935D01*
X142680269Y-74347287D01*
X142831537Y-74485185D01*
X142831539Y-74485187D01*
X143005569Y-74592942D01*
X143005575Y-74592945D01*
X143046010Y-74608609D01*
X143196444Y-74666888D01*
X143397653Y-74704500D01*
X143397656Y-74704500D01*
X143602344Y-74704500D01*
X143602347Y-74704500D01*
X143803556Y-74666888D01*
X143994427Y-74592944D01*
X144168462Y-74485186D01*
X144319732Y-74347285D01*
X144443088Y-74183935D01*
X144482507Y-74104769D01*
X144510663Y-74048228D01*
X144558166Y-73996991D01*
X144621663Y-73979500D01*
X145391444Y-73979500D01*
X145458483Y-73999185D01*
X145479125Y-74015819D01*
X149794728Y-78331422D01*
X149810852Y-78351277D01*
X149816932Y-78360582D01*
X149845285Y-78382650D01*
X149851036Y-78387730D01*
X149853887Y-78390581D01*
X149873093Y-78404294D01*
X149916881Y-78438375D01*
X149916885Y-78438376D01*
X149923877Y-78442160D01*
X149931018Y-78445651D01*
X149931021Y-78445653D01*
X149984182Y-78461479D01*
X150036673Y-78479500D01*
X150036676Y-78479500D01*
X150044481Y-78480803D01*
X150052407Y-78481791D01*
X150052410Y-78481792D01*
X150052412Y-78481791D01*
X150052413Y-78481792D01*
X150093971Y-78480073D01*
X150107825Y-78479500D01*
X152638111Y-78479500D01*
X152705150Y-78499185D01*
X152750905Y-78551989D01*
X152759002Y-78575908D01*
X152768742Y-78618584D01*
X152768744Y-78618593D01*
X152768746Y-78618598D01*
X152864817Y-78863384D01*
X152996299Y-79091117D01*
X153160254Y-79296710D01*
X153353020Y-79475570D01*
X153570290Y-79623702D01*
X153807212Y-79737798D01*
X154058492Y-79815308D01*
X154058493Y-79815308D01*
X154058496Y-79815309D01*
X154318510Y-79854499D01*
X154318515Y-79854499D01*
X154318518Y-79854500D01*
X154318519Y-79854500D01*
X154581481Y-79854500D01*
X154581482Y-79854500D01*
X154581489Y-79854499D01*
X154841503Y-79815309D01*
X154841504Y-79815308D01*
X154841508Y-79815308D01*
X155092788Y-79737798D01*
X155329710Y-79623702D01*
X155546980Y-79475570D01*
X155739746Y-79296710D01*
X155903701Y-79091117D01*
X156035183Y-78863384D01*
X156131254Y-78618598D01*
X156189769Y-78362228D01*
X156189770Y-78362218D01*
X156209420Y-78100004D01*
X156209420Y-78099995D01*
X156189770Y-77837781D01*
X156189769Y-77837776D01*
X156189769Y-77837772D01*
X156131254Y-77581402D01*
X156035183Y-77336616D01*
X155903701Y-77108883D01*
X155739746Y-76903290D01*
X155546980Y-76724430D01*
X155329710Y-76576298D01*
X155329707Y-76576297D01*
X155329705Y-76576295D01*
X155092788Y-76462202D01*
X154841509Y-76384692D01*
X154841503Y-76384690D01*
X154581489Y-76345500D01*
X154581482Y-76345500D01*
X154318518Y-76345500D01*
X154318510Y-76345500D01*
X154058496Y-76384690D01*
X154058490Y-76384692D01*
X153807211Y-76462202D01*
X153570294Y-76576295D01*
X153353019Y-76724430D01*
X153160256Y-76903288D01*
X153160254Y-76903290D01*
X152996299Y-77108883D01*
X152864817Y-77336615D01*
X152768748Y-77581396D01*
X152768742Y-77581415D01*
X152759002Y-77624092D01*
X152724894Y-77685071D01*
X152663233Y-77717929D01*
X152638111Y-77720500D01*
X150308556Y-77720500D01*
X150241517Y-77700815D01*
X150220875Y-77684181D01*
X146433886Y-73897192D01*
X146400401Y-73835869D01*
X146405385Y-73766177D01*
X146447257Y-73710244D01*
X146491891Y-73689114D01*
X146583793Y-73666463D01*
X146724529Y-73592599D01*
X146843498Y-73487201D01*
X146933787Y-73356395D01*
X146990149Y-73207782D01*
X147009307Y-73050000D01*
X147005186Y-73016064D01*
X146990149Y-72892218D01*
X146934864Y-72746446D01*
X146933787Y-72743605D01*
X146843498Y-72612799D01*
X146843494Y-72612796D01*
X146843492Y-72612793D01*
X146771272Y-72548810D01*
X146734146Y-72489620D01*
X146729500Y-72455996D01*
X146729500Y-72002220D01*
X146732139Y-71976775D01*
X146732801Y-71973611D01*
X146734419Y-71965900D01*
X146730361Y-71933344D01*
X146729977Y-71930260D01*
X146729500Y-71922584D01*
X146729500Y-71918560D01*
X146729498Y-71918547D01*
X146725616Y-71895285D01*
X146723175Y-71875704D01*
X146718752Y-71840217D01*
X146718750Y-71840213D01*
X146716484Y-71832598D01*
X146713901Y-71825075D01*
X146687502Y-71776294D01*
X146663126Y-71726432D01*
X146658541Y-71720009D01*
X146653620Y-71713686D01*
X146653619Y-71713684D01*
X146612813Y-71676119D01*
X145765270Y-70828576D01*
X145749143Y-70808716D01*
X145743070Y-70799421D01*
X145743069Y-70799420D01*
X145743068Y-70799418D01*
X145714718Y-70777352D01*
X145708972Y-70772278D01*
X145706113Y-70769419D01*
X145703721Y-70767711D01*
X145686906Y-70755704D01*
X145643123Y-70721628D01*
X145643122Y-70721627D01*
X145643119Y-70721625D01*
X145643114Y-70721623D01*
X145636127Y-70717841D01*
X145628981Y-70714348D01*
X145628979Y-70714347D01*
X145616782Y-70710715D01*
X145575817Y-70698519D01*
X145523328Y-70680499D01*
X145515516Y-70679196D01*
X145507586Y-70678207D01*
X145454075Y-70680421D01*
X145452175Y-70680500D01*
X144621663Y-70680500D01*
X144554624Y-70660815D01*
X144510663Y-70611772D01*
X144470981Y-70532081D01*
X144443088Y-70476065D01*
X144319732Y-70312715D01*
X144319730Y-70312712D01*
X144168462Y-70174814D01*
X144168460Y-70174812D01*
X143994430Y-70067057D01*
X143994424Y-70067054D01*
X143843993Y-70008777D01*
X143803556Y-69993112D01*
X143602347Y-69955500D01*
X143397653Y-69955500D01*
X143196444Y-69993112D01*
X143196441Y-69993112D01*
X143196441Y-69993113D01*
X143005575Y-70067054D01*
X143005569Y-70067057D01*
X142831539Y-70174812D01*
X142831537Y-70174814D01*
X142680269Y-70312712D01*
X142556912Y-70476064D01*
X142465673Y-70659295D01*
X142449939Y-70714595D01*
X142417509Y-70828577D01*
X142409654Y-70856183D01*
X142390768Y-71059999D01*
X142390768Y-71060000D01*
X142409654Y-71263816D01*
X142409654Y-71263818D01*
X142409655Y-71263821D01*
X142465241Y-71459185D01*
X142465673Y-71460704D01*
X142556912Y-71643935D01*
X142680269Y-71807287D01*
X142831537Y-71945185D01*
X142831539Y-71945187D01*
X143005569Y-72052942D01*
X143005575Y-72052945D01*
X143046010Y-72068609D01*
X143196444Y-72126888D01*
X143397653Y-72164500D01*
X143397656Y-72164500D01*
X143602344Y-72164500D01*
X143602347Y-72164500D01*
X143803556Y-72126888D01*
X143994427Y-72052944D01*
X144168462Y-71945186D01*
X144319732Y-71807285D01*
X144443088Y-71643935D01*
X144483050Y-71563681D01*
X144510663Y-71508228D01*
X144558166Y-71456991D01*
X144621663Y-71439500D01*
X145251444Y-71439500D01*
X145318483Y-71459185D01*
X145339125Y-71475819D01*
X145934182Y-72070876D01*
X145967666Y-72132197D01*
X145970500Y-72158555D01*
X145970500Y-72455996D01*
X145950815Y-72523035D01*
X145928728Y-72548810D01*
X145856507Y-72612793D01*
X145856500Y-72612801D01*
X145766214Y-72743602D01*
X145709850Y-72892218D01*
X145690693Y-73049999D01*
X145690693Y-73050000D01*
X145694524Y-73081554D01*
X145683063Y-73150478D01*
X145636159Y-73202263D01*
X145571428Y-73220500D01*
X144621663Y-73220500D01*
X144554624Y-73200815D01*
X144510663Y-73151772D01*
X144470981Y-73072081D01*
X144443088Y-73016065D01*
X144319732Y-72852715D01*
X144319730Y-72852712D01*
X144168462Y-72714814D01*
X144168460Y-72714812D01*
X143994430Y-72607057D01*
X143994424Y-72607054D01*
X143843993Y-72548777D01*
X143803556Y-72533112D01*
X143602347Y-72495500D01*
X143397653Y-72495500D01*
X143196444Y-72533112D01*
X143196441Y-72533112D01*
X143196441Y-72533113D01*
X143005575Y-72607054D01*
X143005569Y-72607057D01*
X142831539Y-72714812D01*
X142831537Y-72714814D01*
X142680269Y-72852712D01*
X142556912Y-73016064D01*
X142465673Y-73199295D01*
X142465671Y-73199299D01*
X142465672Y-73199299D01*
X142420975Y-73356395D01*
X142409654Y-73396183D01*
X142390768Y-73599999D01*
X142390768Y-73600000D01*
X126662980Y-73600000D01*
X126690345Y-73503821D01*
X126709232Y-73300000D01*
X126690345Y-73096179D01*
X126634328Y-72899299D01*
X126543088Y-72716065D01*
X126419732Y-72552715D01*
X126419730Y-72552712D01*
X126268462Y-72414814D01*
X126268460Y-72414812D01*
X126094430Y-72307057D01*
X126094424Y-72307054D01*
X125943993Y-72248777D01*
X125903556Y-72233112D01*
X125702347Y-72195500D01*
X125497653Y-72195500D01*
X125296444Y-72233112D01*
X125296441Y-72233112D01*
X125296441Y-72233113D01*
X125105575Y-72307054D01*
X125105569Y-72307057D01*
X124931539Y-72414812D01*
X124931537Y-72414814D01*
X124780269Y-72552712D01*
X124656912Y-72716064D01*
X124565673Y-72899295D01*
X124509654Y-73096183D01*
X124490768Y-73299999D01*
X124490768Y-73300000D01*
X120993193Y-73300000D01*
X120985404Y-73289595D01*
X120893101Y-73220500D01*
X120869267Y-73202658D01*
X120733342Y-73151960D01*
X120733338Y-73151959D01*
X120673262Y-73145500D01*
X118426748Y-73145500D01*
X118426742Y-73145501D01*
X118366655Y-73151960D01*
X118230738Y-73202655D01*
X118230730Y-73202660D01*
X118114595Y-73289595D01*
X118027660Y-73405730D01*
X118027658Y-73405733D01*
X117997273Y-73487198D01*
X117976959Y-73541661D01*
X117975014Y-73559756D01*
X117948276Y-73624307D01*
X117890884Y-73664155D01*
X117851725Y-73670500D01*
X117408556Y-73670500D01*
X117341517Y-73650815D01*
X117320879Y-73634185D01*
X117165818Y-73479124D01*
X117132334Y-73417801D01*
X117129500Y-73391443D01*
X117129500Y-71852220D01*
X117132139Y-71826775D01*
X117132801Y-71823611D01*
X117134419Y-71815900D01*
X117132105Y-71797339D01*
X117129977Y-71780260D01*
X117129500Y-71772584D01*
X117129500Y-71768557D01*
X117125616Y-71745281D01*
X117123266Y-71726432D01*
X117118752Y-71690218D01*
X117118751Y-71690216D01*
X117118751Y-71690214D01*
X117116489Y-71682618D01*
X117113898Y-71675068D01*
X117087499Y-71626289D01*
X117087498Y-71626289D01*
X117063126Y-71576432D01*
X117063123Y-71576429D01*
X117063123Y-71576428D01*
X117058541Y-71570009D01*
X117053620Y-71563686D01*
X117053619Y-71563684D01*
X117012813Y-71526119D01*
X116705270Y-71218576D01*
X116689143Y-71198716D01*
X116683070Y-71189421D01*
X116683069Y-71189420D01*
X116683068Y-71189418D01*
X116654718Y-71167352D01*
X116648972Y-71162278D01*
X116646113Y-71159419D01*
X116643721Y-71157711D01*
X116626906Y-71145704D01*
X116583123Y-71111628D01*
X116583122Y-71111627D01*
X116583119Y-71111625D01*
X116583114Y-71111623D01*
X116576127Y-71107841D01*
X116568981Y-71104348D01*
X116568979Y-71104347D01*
X116556782Y-71100715D01*
X116515817Y-71088519D01*
X116463328Y-71070499D01*
X116455516Y-71069196D01*
X116447586Y-71068207D01*
X116394075Y-71070421D01*
X116392175Y-71070500D01*
X115645588Y-71070500D01*
X115578549Y-71050815D01*
X115532794Y-70998011D01*
X115526174Y-70973890D01*
X115524825Y-70974209D01*
X115523040Y-70966657D01*
X115472344Y-70830738D01*
X115472343Y-70830737D01*
X115472342Y-70830733D01*
X115428578Y-70772271D01*
X115385404Y-70714595D01*
X115308126Y-70656747D01*
X115269267Y-70627658D01*
X115133342Y-70576960D01*
X115133338Y-70576959D01*
X115073262Y-70570500D01*
X112826748Y-70570500D01*
X112826742Y-70570501D01*
X112766655Y-70576960D01*
X112630738Y-70627655D01*
X112630730Y-70627660D01*
X112514595Y-70714595D01*
X112429272Y-70828577D01*
X112427658Y-70830733D01*
X112376960Y-70966658D01*
X112376959Y-70966662D01*
X112370500Y-71026728D01*
X112370500Y-71873251D01*
X111000500Y-71873251D01*
X111000500Y-62900000D01*
X112945000Y-62900000D01*
X112945000Y-63472844D01*
X112951401Y-63532372D01*
X112951403Y-63532379D01*
X113001645Y-63667086D01*
X113001649Y-63667093D01*
X113087809Y-63782187D01*
X113087812Y-63782190D01*
X113202906Y-63868350D01*
X113202913Y-63868354D01*
X113337620Y-63918596D01*
X113337627Y-63918598D01*
X113397155Y-63924999D01*
X113397172Y-63925000D01*
X113545000Y-63925000D01*
X113545000Y-62900000D01*
X112945000Y-62900000D01*
X111000500Y-62900000D01*
X111000500Y-62400000D01*
X112945000Y-62400000D01*
X113545000Y-62400000D01*
X113545000Y-61375000D01*
X113397155Y-61375000D01*
X113337627Y-61381401D01*
X113337620Y-61381403D01*
X113202913Y-61431645D01*
X113202906Y-61431649D01*
X113087812Y-61517809D01*
X113087809Y-61517812D01*
X113001649Y-61632906D01*
X113001645Y-61632913D01*
X112951403Y-61767620D01*
X112951401Y-61767627D01*
X112945000Y-61827155D01*
X112945000Y-62400000D01*
X111000500Y-62400000D01*
X111000500Y-54375063D01*
X112855500Y-54375063D01*
X112870266Y-54449301D01*
X112926515Y-54533484D01*
X112956650Y-54553619D01*
X113010699Y-54589734D01*
X113010702Y-54589734D01*
X113010703Y-54589735D01*
X113035666Y-54594700D01*
X113084933Y-54604500D01*
X113456500Y-54604499D01*
X113523539Y-54624183D01*
X113569294Y-54676987D01*
X113580500Y-54728499D01*
X113580500Y-55010159D01*
X113560815Y-55077198D01*
X113510316Y-55121872D01*
X113492964Y-55130230D01*
X113492956Y-55130236D01*
X113395840Y-55207697D01*
X113395839Y-55207698D01*
X113318386Y-55304834D01*
X113264490Y-55416762D01*
X113264489Y-55416765D01*
X113238401Y-55531070D01*
X113236908Y-55536311D01*
X113236848Y-55536675D01*
X113236849Y-55578448D01*
X113236849Y-55889571D01*
X113236915Y-55891184D01*
X113236907Y-55918354D01*
X113236908Y-55918356D01*
X113236908Y-55918359D01*
X113249571Y-55973908D01*
X113264521Y-56039492D01*
X113318396Y-56151434D01*
X113318400Y-56151441D01*
X113337541Y-56175455D01*
X113395837Y-56248590D01*
X113459737Y-56299571D01*
X113499865Y-56356766D01*
X113502700Y-56426578D01*
X113467342Y-56486841D01*
X113405016Y-56518421D01*
X113382407Y-56520500D01*
X113351749Y-56520500D01*
X113351741Y-56520501D01*
X113291655Y-56526960D01*
X113155738Y-56577655D01*
X113155730Y-56577660D01*
X113039595Y-56664595D01*
X112952660Y-56780730D01*
X112952658Y-56780733D01*
X112901960Y-56916658D01*
X112901959Y-56916662D01*
X112895500Y-56976728D01*
X112895500Y-59223251D01*
X112895501Y-59223257D01*
X112901960Y-59283344D01*
X112952655Y-59419261D01*
X112952656Y-59419264D01*
X112952658Y-59419267D01*
X112958363Y-59426888D01*
X113039595Y-59535404D01*
X113058005Y-59549185D01*
X113155733Y-59622342D01*
X113291658Y-59673040D01*
X113351745Y-59679500D01*
X113456499Y-59679499D01*
X113523537Y-59699183D01*
X113569293Y-59751986D01*
X113580499Y-59803499D01*
X113580499Y-60207781D01*
X113577861Y-60233221D01*
X113575580Y-60244099D01*
X113580023Y-60279739D01*
X113580500Y-60287416D01*
X113580500Y-60291443D01*
X113581324Y-60296379D01*
X113584383Y-60314716D01*
X113591248Y-60369787D01*
X113593505Y-60377367D01*
X113596099Y-60384923D01*
X113596100Y-60384927D01*
X113596101Y-60384930D01*
X113596102Y-60384931D01*
X113622496Y-60433704D01*
X113646875Y-60483570D01*
X113651472Y-60490008D01*
X113656382Y-60496317D01*
X113697186Y-60533881D01*
X114331379Y-61168073D01*
X114364864Y-61229396D01*
X114359880Y-61299087D01*
X114318009Y-61355021D01*
X114252544Y-61379438D01*
X114230443Y-61379044D01*
X114192828Y-61375000D01*
X114045000Y-61375000D01*
X114045000Y-63925000D01*
X114192828Y-63925000D01*
X114192844Y-63924999D01*
X114252372Y-63918598D01*
X114252379Y-63918596D01*
X114387086Y-63868354D01*
X114387093Y-63868350D01*
X114502186Y-63782191D01*
X114546606Y-63722854D01*
X114602540Y-63680983D01*
X114670065Y-63675548D01*
X114689933Y-63679500D01*
X115440066Y-63679499D01*
X115514301Y-63664734D01*
X115598484Y-63608484D01*
X115598484Y-63608483D01*
X115607120Y-63599849D01*
X115608464Y-63601193D01*
X115650498Y-63566058D01*
X115719822Y-63557344D01*
X115782852Y-63587492D01*
X115797992Y-63604961D01*
X115801514Y-63608483D01*
X115822703Y-63622641D01*
X115885699Y-63664734D01*
X115885702Y-63664734D01*
X115885703Y-63664735D01*
X115910666Y-63669700D01*
X115959933Y-63679500D01*
X116710066Y-63679499D01*
X116784301Y-63664734D01*
X116868484Y-63608484D01*
X116868484Y-63608483D01*
X116877120Y-63599849D01*
X116878463Y-63601192D01*
X116920509Y-63566054D01*
X116989834Y-63557346D01*
X117052862Y-63587500D01*
X117067994Y-63604963D01*
X117071514Y-63608483D01*
X117092703Y-63622641D01*
X117155699Y-63664734D01*
X117155702Y-63664734D01*
X117155703Y-63664735D01*
X117180666Y-63669700D01*
X117229933Y-63679500D01*
X117980066Y-63679499D01*
X118054301Y-63664734D01*
X118138484Y-63608484D01*
X118194734Y-63524301D01*
X118209500Y-63450067D01*
X118209499Y-61849934D01*
X118194734Y-61775699D01*
X118143356Y-61698807D01*
X118131699Y-61681361D01*
X118133864Y-61679914D01*
X118108777Y-61633970D01*
X118113761Y-61564278D01*
X118142262Y-61519931D01*
X118521374Y-61140819D01*
X118582697Y-61107334D01*
X118609055Y-61104500D01*
X118754970Y-61104500D01*
X118754971Y-61104500D01*
X118866826Y-61076930D01*
X118936627Y-61079999D01*
X118993689Y-61120318D01*
X119019894Y-61185088D01*
X119020500Y-61197327D01*
X119020500Y-63391442D01*
X119000815Y-63458481D01*
X118984181Y-63479123D01*
X116103577Y-66359727D01*
X116083727Y-66375848D01*
X116074419Y-66381929D01*
X116052359Y-66410272D01*
X116047281Y-66416024D01*
X116044424Y-66418881D01*
X116044420Y-66418885D01*
X116044419Y-66418887D01*
X116030705Y-66438093D01*
X116008992Y-66465990D01*
X115996623Y-66481883D01*
X115992849Y-66488857D01*
X115989345Y-66496023D01*
X115973520Y-66549182D01*
X115955500Y-66601670D01*
X115954195Y-66609487D01*
X115953207Y-66617413D01*
X115955500Y-66672825D01*
X115955499Y-66807316D01*
X115935814Y-66874355D01*
X115883010Y-66920110D01*
X115813851Y-66930053D01*
X115757187Y-66906581D01*
X115657089Y-66831647D01*
X115657086Y-66831645D01*
X115522379Y-66781403D01*
X115522372Y-66781401D01*
X115462844Y-66775000D01*
X115315000Y-66775000D01*
X115315000Y-68176000D01*
X115295315Y-68243039D01*
X115242511Y-68288794D01*
X115191000Y-68300000D01*
X114939000Y-68300000D01*
X114871961Y-68280315D01*
X114826206Y-68227511D01*
X114815000Y-68176000D01*
X114815000Y-66775000D01*
X114667155Y-66775000D01*
X114607627Y-66781401D01*
X114607620Y-66781403D01*
X114472913Y-66831645D01*
X114472906Y-66831649D01*
X114357812Y-66917809D01*
X114313392Y-66977146D01*
X114257457Y-67019017D01*
X114189937Y-67024452D01*
X114170067Y-67020500D01*
X113419936Y-67020500D01*
X113345698Y-67035266D01*
X113261515Y-67091515D01*
X113205266Y-67175699D01*
X113205264Y-67175703D01*
X113190500Y-67249928D01*
X113190500Y-68850063D01*
X113205266Y-68924301D01*
X113261515Y-69008484D01*
X113355854Y-69071519D01*
X113355222Y-69072464D01*
X113399957Y-69108512D01*
X113421151Y-69163895D01*
X113426248Y-69204787D01*
X113428505Y-69212367D01*
X113431099Y-69219923D01*
X113431100Y-69219927D01*
X113431101Y-69219930D01*
X113431102Y-69219931D01*
X113457496Y-69268704D01*
X113481875Y-69318570D01*
X113486472Y-69325008D01*
X113491382Y-69331317D01*
X113532186Y-69368881D01*
X113844728Y-69681422D01*
X113860852Y-69701277D01*
X113866932Y-69710582D01*
X113895285Y-69732650D01*
X113901036Y-69737730D01*
X113903887Y-69740581D01*
X113923093Y-69754294D01*
X113966881Y-69788375D01*
X113966885Y-69788376D01*
X113973877Y-69792160D01*
X113981018Y-69795651D01*
X113981021Y-69795653D01*
X114034182Y-69811479D01*
X114086673Y-69829500D01*
X114086676Y-69829500D01*
X114094482Y-69830803D01*
X114102407Y-69831791D01*
X114102410Y-69831792D01*
X114102412Y-69831791D01*
X114102413Y-69831792D01*
X114157836Y-69829500D01*
X118275811Y-69829500D01*
X118342850Y-69849185D01*
X118388605Y-69901989D01*
X118398549Y-69971147D01*
X118369524Y-70034703D01*
X118319146Y-70069681D01*
X118257902Y-70092524D01*
X118230733Y-70102658D01*
X118230730Y-70102659D01*
X118230730Y-70102660D01*
X118114595Y-70189595D01*
X118027660Y-70305730D01*
X118027658Y-70305733D01*
X117976960Y-70441658D01*
X117976959Y-70441662D01*
X117970500Y-70501728D01*
X117970500Y-71398251D01*
X117970501Y-71398257D01*
X117976960Y-71458344D01*
X118027655Y-71594261D01*
X118027656Y-71594264D01*
X118027658Y-71594267D01*
X118051629Y-71626289D01*
X118114595Y-71710404D01*
X118136007Y-71726432D01*
X118230733Y-71797342D01*
X118366658Y-71848040D01*
X118426745Y-71854500D01*
X120673254Y-71854499D01*
X120733342Y-71848040D01*
X120869267Y-71797342D01*
X120985404Y-71710404D01*
X121072342Y-71594267D01*
X121123040Y-71458342D01*
X121127894Y-71413196D01*
X121129499Y-71398271D01*
X121129499Y-71398264D01*
X121129500Y-71398255D01*
X121129499Y-70760000D01*
X124490768Y-70760000D01*
X124509654Y-70963816D01*
X124509654Y-70963818D01*
X124509655Y-70963821D01*
X124561405Y-71145704D01*
X124565673Y-71160704D01*
X124656912Y-71343935D01*
X124780269Y-71507287D01*
X124931537Y-71645185D01*
X124931539Y-71645187D01*
X125105569Y-71752942D01*
X125105575Y-71752945D01*
X125145875Y-71768557D01*
X125296444Y-71826888D01*
X125497653Y-71864500D01*
X125497656Y-71864500D01*
X125702344Y-71864500D01*
X125702347Y-71864500D01*
X125903556Y-71826888D01*
X126094427Y-71752944D01*
X126268462Y-71645186D01*
X126419732Y-71507285D01*
X126543088Y-71343935D01*
X126634328Y-71160701D01*
X126690345Y-70963821D01*
X126709232Y-70760000D01*
X126690345Y-70556179D01*
X126634328Y-70359299D01*
X126543088Y-70176065D01*
X126460767Y-70067054D01*
X126419730Y-70012712D01*
X126268462Y-69874814D01*
X126268460Y-69874812D01*
X126094430Y-69767057D01*
X126094424Y-69767054D01*
X125924640Y-69701280D01*
X125903556Y-69693112D01*
X125702347Y-69655500D01*
X125497653Y-69655500D01*
X125296444Y-69693112D01*
X125296441Y-69693112D01*
X125296441Y-69693113D01*
X125105575Y-69767054D01*
X125105569Y-69767057D01*
X124931539Y-69874812D01*
X124931537Y-69874814D01*
X124780269Y-70012712D01*
X124656912Y-70176064D01*
X124565673Y-70359295D01*
X124565671Y-70359299D01*
X124565672Y-70359299D01*
X124525143Y-70501746D01*
X124509654Y-70556183D01*
X124490768Y-70759999D01*
X124490768Y-70760000D01*
X121129499Y-70760000D01*
X121129499Y-70501746D01*
X121123040Y-70441658D01*
X121072342Y-70305733D01*
X121028707Y-70247443D01*
X120985404Y-70189595D01*
X120908126Y-70131747D01*
X120869267Y-70102658D01*
X120733342Y-70051960D01*
X120733338Y-70051959D01*
X120673271Y-70045500D01*
X120673255Y-70045500D01*
X120053500Y-70045500D01*
X119986461Y-70025815D01*
X119940706Y-69973011D01*
X119929500Y-69921500D01*
X119929500Y-69858555D01*
X119949185Y-69791516D01*
X119965814Y-69770879D01*
X121345874Y-68390818D01*
X121407197Y-68357334D01*
X121433555Y-68354500D01*
X121579472Y-68354500D01*
X121630911Y-68341820D01*
X121733793Y-68316463D01*
X121874529Y-68242599D01*
X121993498Y-68137201D01*
X122083787Y-68006395D01*
X122140149Y-67857782D01*
X122159307Y-67700000D01*
X122140149Y-67542218D01*
X122083787Y-67393605D01*
X121993498Y-67262799D01*
X121993495Y-67262796D01*
X121993493Y-67262794D01*
X121874530Y-67157401D01*
X121733791Y-67083536D01*
X121579472Y-67045500D01*
X121579471Y-67045500D01*
X121420529Y-67045500D01*
X121420528Y-67045500D01*
X121266208Y-67083536D01*
X121125469Y-67157401D01*
X121006506Y-67262794D01*
X121006500Y-67262801D01*
X120916214Y-67393602D01*
X120859850Y-67542218D01*
X120840693Y-67699999D01*
X120846691Y-67749401D01*
X120835230Y-67818325D01*
X120811276Y-67852028D01*
X119318577Y-69344727D01*
X119298727Y-69360848D01*
X119280824Y-69372547D01*
X119279949Y-69371208D01*
X119227689Y-69396997D01*
X119208903Y-69394869D01*
X119217577Y-69421422D01*
X119206879Y-69471056D01*
X119207278Y-69471175D01*
X119205741Y-69476334D01*
X119205036Y-69479610D01*
X119204347Y-69481018D01*
X119188520Y-69534182D01*
X119170499Y-69586674D01*
X119169192Y-69594507D01*
X119168207Y-69602408D01*
X119170500Y-69657824D01*
X119170500Y-69921500D01*
X119150815Y-69988539D01*
X119098011Y-70034294D01*
X119046500Y-70045500D01*
X118536630Y-70045500D01*
X118469591Y-70025815D01*
X118423836Y-69973011D01*
X118413892Y-69903853D01*
X118442917Y-69840297D01*
X118477606Y-69812449D01*
X118517271Y-69790984D01*
X118523706Y-69787502D01*
X118547551Y-69775844D01*
X118573568Y-69763126D01*
X118573569Y-69763124D01*
X118573571Y-69763124D01*
X118580001Y-69758533D01*
X118586309Y-69753622D01*
X118586316Y-69753619D01*
X118623880Y-69712813D01*
X118981425Y-69355267D01*
X119001279Y-69339145D01*
X119010582Y-69333068D01*
X119010582Y-69333066D01*
X119019189Y-69327445D01*
X119020065Y-69328786D01*
X119072299Y-69303004D01*
X119091097Y-69305131D01*
X119082423Y-69278565D01*
X119093120Y-69228947D01*
X119092721Y-69228829D01*
X119094263Y-69223647D01*
X119094968Y-69220380D01*
X119095648Y-69218986D01*
X119095653Y-69218980D01*
X119111478Y-69165820D01*
X119129500Y-69113327D01*
X119129500Y-69113324D01*
X119130801Y-69105532D01*
X119131791Y-69097588D01*
X119129500Y-69042189D01*
X119129500Y-67008555D01*
X119149185Y-66941516D01*
X119165819Y-66920874D01*
X119470875Y-66615819D01*
X119532198Y-66582334D01*
X119558556Y-66579500D01*
X123371444Y-66579500D01*
X123438483Y-66599185D01*
X123459125Y-66615819D01*
X124535615Y-67692309D01*
X124569100Y-67753632D01*
X124567201Y-67813923D01*
X124509654Y-68016181D01*
X124490768Y-68219999D01*
X124490768Y-68220000D01*
X124509654Y-68423816D01*
X124565673Y-68620704D01*
X124656912Y-68803935D01*
X124780269Y-68967287D01*
X124931537Y-69105185D01*
X124931539Y-69105187D01*
X125105569Y-69212942D01*
X125105575Y-69212945D01*
X125138033Y-69225519D01*
X125296444Y-69286888D01*
X125497653Y-69324500D01*
X125497656Y-69324500D01*
X125702344Y-69324500D01*
X125702347Y-69324500D01*
X125903556Y-69286888D01*
X126094427Y-69212944D01*
X126268462Y-69105186D01*
X126419732Y-68967285D01*
X126543088Y-68803935D01*
X126634328Y-68620701D01*
X126662980Y-68520000D01*
X142390768Y-68520000D01*
X142409654Y-68723816D01*
X142409654Y-68723818D01*
X142409655Y-68723821D01*
X142465124Y-68918774D01*
X142465673Y-68920704D01*
X142556912Y-69103935D01*
X142680269Y-69267287D01*
X142789575Y-69366932D01*
X142823996Y-69398311D01*
X142831537Y-69405185D01*
X142831539Y-69405187D01*
X143005569Y-69512942D01*
X143005575Y-69512945D01*
X143046010Y-69528609D01*
X143196444Y-69586888D01*
X143397653Y-69624500D01*
X143397656Y-69624500D01*
X143602344Y-69624500D01*
X143602347Y-69624500D01*
X143803556Y-69586888D01*
X143994427Y-69512944D01*
X144168462Y-69405186D01*
X144298812Y-69286356D01*
X144319730Y-69267287D01*
X144319732Y-69267285D01*
X144443088Y-69103935D01*
X144491987Y-69005733D01*
X144510663Y-68968228D01*
X144558166Y-68916991D01*
X144621663Y-68899500D01*
X145577780Y-68899500D01*
X145603225Y-68902139D01*
X145607120Y-68902955D01*
X145614100Y-68904419D01*
X145632616Y-68902110D01*
X145649740Y-68899977D01*
X145657416Y-68899500D01*
X145661440Y-68899500D01*
X145661443Y-68899500D01*
X145678875Y-68896590D01*
X145684716Y-68895616D01*
X145690819Y-68894855D01*
X145739783Y-68888752D01*
X145739788Y-68888749D01*
X145747391Y-68886486D01*
X145754923Y-68883900D01*
X145754927Y-68883900D01*
X145803705Y-68857502D01*
X145853568Y-68833126D01*
X145853570Y-68833123D01*
X145860001Y-68828533D01*
X145866309Y-68823622D01*
X145866316Y-68823619D01*
X145903880Y-68782813D01*
X149781425Y-64905267D01*
X149801279Y-64889145D01*
X149810582Y-64883068D01*
X149832640Y-64854726D01*
X149837722Y-64848970D01*
X149840580Y-64846114D01*
X149854293Y-64826906D01*
X149888375Y-64783119D01*
X149888376Y-64783113D01*
X149892158Y-64776128D01*
X149895653Y-64768979D01*
X149911482Y-64715811D01*
X149916140Y-64702243D01*
X149929500Y-64663327D01*
X149929500Y-64663322D01*
X149930803Y-64655514D01*
X149931792Y-64647589D01*
X149929500Y-64592175D01*
X149929500Y-64558463D01*
X149949185Y-64491424D01*
X150001989Y-64445669D01*
X150071147Y-64435725D01*
X150134703Y-64464750D01*
X150163299Y-64500841D01*
X150166210Y-64506388D01*
X150166213Y-64506395D01*
X150256502Y-64637201D01*
X150256504Y-64637203D01*
X150256506Y-64637205D01*
X150375469Y-64742598D01*
X150375471Y-64742599D01*
X150516207Y-64816463D01*
X150664172Y-64852933D01*
X150722178Y-64885649D01*
X151159181Y-65322652D01*
X151192666Y-65383975D01*
X151195500Y-65410333D01*
X151195500Y-66182432D01*
X151192667Y-66208783D01*
X151192434Y-66209858D01*
X151191610Y-66213642D01*
X151195342Y-66265806D01*
X151195500Y-66270230D01*
X151195500Y-66286082D01*
X151195501Y-66286096D01*
X151197755Y-66301779D01*
X151198227Y-66306173D01*
X151201960Y-66358344D01*
X151203695Y-66362995D01*
X151210251Y-66388679D01*
X151210957Y-66393595D01*
X151210958Y-66393598D01*
X151232687Y-66441176D01*
X151234372Y-66445246D01*
X151250958Y-66489711D01*
X151252658Y-66494269D01*
X151255634Y-66498244D01*
X151269158Y-66521037D01*
X151271223Y-66525558D01*
X151271224Y-66525560D01*
X151271226Y-66525562D01*
X151305471Y-66565083D01*
X151308245Y-66568525D01*
X151317750Y-66581221D01*
X151328964Y-66592435D01*
X151331970Y-66595664D01*
X151366220Y-66635191D01*
X151366222Y-66635194D01*
X151366224Y-66635195D01*
X151366225Y-66635196D01*
X151370405Y-66637882D01*
X151391044Y-66654515D01*
X151645484Y-66908955D01*
X151662117Y-66929594D01*
X151664803Y-66933773D01*
X151664803Y-66933774D01*
X151704335Y-66968029D01*
X151707562Y-66971033D01*
X151718779Y-66982250D01*
X151729852Y-66990539D01*
X151731470Y-66991750D01*
X151734909Y-66994521D01*
X151774442Y-67028777D01*
X151778960Y-67030840D01*
X151801754Y-67044364D01*
X151805733Y-67047343D01*
X151854766Y-67065631D01*
X151858792Y-67067298D01*
X151906404Y-67089042D01*
X151906405Y-67089042D01*
X151906407Y-67089043D01*
X151906406Y-67089043D01*
X151911317Y-67089749D01*
X151937008Y-67096305D01*
X151941658Y-67098040D01*
X151993845Y-67101772D01*
X151998195Y-67102239D01*
X152013917Y-67104500D01*
X152029769Y-67104500D01*
X152034191Y-67104657D01*
X152086360Y-67108389D01*
X152091210Y-67107333D01*
X152117567Y-67104500D01*
X154139667Y-67104500D01*
X154206706Y-67124185D01*
X154227348Y-67140819D01*
X156509181Y-69422652D01*
X156542666Y-69483975D01*
X156545500Y-69510333D01*
X156545500Y-72307920D01*
X156525815Y-72374959D01*
X156473011Y-72420714D01*
X156403853Y-72430658D01*
X156340297Y-72401633D01*
X156305318Y-72351254D01*
X156273908Y-72267042D01*
X156136808Y-72015961D01*
X156136807Y-72015960D01*
X156030115Y-71873436D01*
X155012772Y-72890778D01*
X154974099Y-72797412D01*
X154877925Y-72672075D01*
X154752588Y-72575901D01*
X154659219Y-72537226D01*
X155676562Y-71519883D01*
X155676561Y-71519882D01*
X155534046Y-71413196D01*
X155534038Y-71413191D01*
X155282957Y-71276091D01*
X155282958Y-71276091D01*
X155014895Y-71176109D01*
X154735362Y-71115300D01*
X154450001Y-71094891D01*
X154449999Y-71094891D01*
X154164637Y-71115300D01*
X153885104Y-71176109D01*
X153617041Y-71276091D01*
X153365961Y-71413191D01*
X153365953Y-71413196D01*
X153223437Y-71519882D01*
X153223436Y-71519883D01*
X154240780Y-72537226D01*
X154147412Y-72575901D01*
X154022075Y-72672075D01*
X153925901Y-72797411D01*
X153887226Y-72890779D01*
X152869882Y-71873436D01*
X152763196Y-72015953D01*
X152763191Y-72015961D01*
X152626091Y-72267041D01*
X152526109Y-72535104D01*
X152465300Y-72814637D01*
X152444891Y-73099998D01*
X152444891Y-73100001D01*
X152465300Y-73385362D01*
X152526109Y-73664895D01*
X152626091Y-73932958D01*
X152763191Y-74184038D01*
X152763196Y-74184046D01*
X152869882Y-74326561D01*
X152869883Y-74326562D01*
X153887226Y-73309218D01*
X153925901Y-73402588D01*
X154022075Y-73527925D01*
X154147412Y-73624099D01*
X154240779Y-73662772D01*
X153223436Y-74680115D01*
X153365960Y-74786807D01*
X153365961Y-74786808D01*
X153617042Y-74923908D01*
X153617041Y-74923908D01*
X153885104Y-75023890D01*
X154164637Y-75084699D01*
X154449999Y-75105109D01*
X154450001Y-75105109D01*
X154735362Y-75084699D01*
X155014895Y-75023890D01*
X155282958Y-74923908D01*
X155534047Y-74786803D01*
X155676561Y-74680116D01*
X155676562Y-74680115D01*
X154659220Y-73662772D01*
X154752588Y-73624099D01*
X154877925Y-73527925D01*
X154974099Y-73402589D01*
X155012773Y-73309220D01*
X156030115Y-74326562D01*
X156030116Y-74326561D01*
X156136803Y-74184047D01*
X156273908Y-73932957D01*
X156273910Y-73932953D01*
X156305318Y-73848746D01*
X156347189Y-73792812D01*
X156412654Y-73768395D01*
X156480927Y-73783247D01*
X156530332Y-73832652D01*
X156545500Y-73892079D01*
X156545500Y-81921500D01*
X156525815Y-81988539D01*
X156473011Y-82034294D01*
X156421500Y-82045500D01*
X156328499Y-82045500D01*
X156261460Y-82025815D01*
X156215705Y-81973011D01*
X156204499Y-81921500D01*
X156204499Y-81574936D01*
X156204499Y-81574934D01*
X156189734Y-81500699D01*
X156171068Y-81472765D01*
X156133484Y-81416515D01*
X156083019Y-81382796D01*
X156049301Y-81360266D01*
X156049299Y-81360265D01*
X156049296Y-81360264D01*
X155975069Y-81345500D01*
X152924936Y-81345500D01*
X152850698Y-81360266D01*
X152766515Y-81416515D01*
X152710266Y-81500699D01*
X152710264Y-81500703D01*
X152695500Y-81574928D01*
X152695500Y-84625063D01*
X152710266Y-84699301D01*
X152766515Y-84783484D01*
X152800234Y-84806014D01*
X152850699Y-84839734D01*
X152850702Y-84839734D01*
X152850703Y-84839735D01*
X152875666Y-84844700D01*
X152924933Y-84854500D01*
X155975066Y-84854499D01*
X156049301Y-84839734D01*
X156133484Y-84783484D01*
X156189734Y-84699301D01*
X156204500Y-84625067D01*
X156204499Y-83178499D01*
X156224184Y-83111461D01*
X156276987Y-83065706D01*
X156328499Y-83054500D01*
X156421500Y-83054500D01*
X156488539Y-83074185D01*
X156534294Y-83126989D01*
X156545500Y-83178500D01*
X156545500Y-91107920D01*
X156525815Y-91174959D01*
X156473011Y-91220714D01*
X156403853Y-91230658D01*
X156340297Y-91201633D01*
X156305318Y-91151254D01*
X156273908Y-91067042D01*
X156136808Y-90815961D01*
X156136807Y-90815960D01*
X156030115Y-90673436D01*
X155012772Y-91690778D01*
X154974099Y-91597412D01*
X154877925Y-91472075D01*
X154752588Y-91375901D01*
X154659219Y-91337226D01*
X155676562Y-90319883D01*
X155676561Y-90319882D01*
X155534046Y-90213196D01*
X155534038Y-90213191D01*
X155282957Y-90076091D01*
X155282958Y-90076091D01*
X155014895Y-89976109D01*
X154735362Y-89915300D01*
X154450001Y-89894891D01*
X154449999Y-89894891D01*
X154164637Y-89915300D01*
X153885104Y-89976109D01*
X153617041Y-90076091D01*
X153365961Y-90213191D01*
X153365953Y-90213196D01*
X153223437Y-90319882D01*
X153223436Y-90319883D01*
X154240780Y-91337226D01*
X154147412Y-91375901D01*
X154022075Y-91472075D01*
X153925901Y-91597411D01*
X153887226Y-91690779D01*
X152869882Y-90673436D01*
X152763196Y-90815953D01*
X152763191Y-90815961D01*
X152626091Y-91067041D01*
X152526109Y-91335104D01*
X152465300Y-91614637D01*
X152444891Y-91899998D01*
X152444891Y-91900001D01*
X152465300Y-92185362D01*
X152526109Y-92464895D01*
X152626091Y-92732958D01*
X152763191Y-92984038D01*
X152763196Y-92984046D01*
X152869882Y-93126561D01*
X152869883Y-93126562D01*
X153887226Y-92109218D01*
X153925901Y-92202588D01*
X154022075Y-92327925D01*
X154147412Y-92424099D01*
X154240779Y-92462772D01*
X153223436Y-93480115D01*
X153365960Y-93586807D01*
X153365961Y-93586808D01*
X153617042Y-93723908D01*
X153617041Y-93723908D01*
X153885104Y-93823890D01*
X154164637Y-93884699D01*
X154449999Y-93905109D01*
X154450001Y-93905109D01*
X154735362Y-93884699D01*
X155014895Y-93823890D01*
X155282958Y-93723908D01*
X155534047Y-93586803D01*
X155676561Y-93480116D01*
X155676562Y-93480115D01*
X154659220Y-92462772D01*
X154752588Y-92424099D01*
X154877925Y-92327925D01*
X154974099Y-92202589D01*
X155012773Y-92109220D01*
X156030115Y-93126562D01*
X156030116Y-93126561D01*
X156136803Y-92984047D01*
X156273908Y-92732957D01*
X156273910Y-92732953D01*
X156305318Y-92648746D01*
X156347189Y-92592812D01*
X156412654Y-92568395D01*
X156480927Y-92583247D01*
X156530332Y-92632652D01*
X156545500Y-92692079D01*
X156545500Y-101239665D01*
X156525815Y-101306704D01*
X156509183Y-101327345D01*
X156477349Y-101359180D01*
X156416026Y-101392666D01*
X156389666Y-101395500D01*
X156328499Y-101395500D01*
X156261460Y-101375815D01*
X156215705Y-101323011D01*
X156204499Y-101271500D01*
X156204499Y-100374936D01*
X156204499Y-100374934D01*
X156189734Y-100300699D01*
X156153891Y-100247057D01*
X156133484Y-100216515D01*
X156083019Y-100182796D01*
X156049301Y-100160266D01*
X156049299Y-100160265D01*
X156049296Y-100160264D01*
X155975069Y-100145500D01*
X152924936Y-100145500D01*
X152850698Y-100160266D01*
X152766515Y-100216515D01*
X152710266Y-100300699D01*
X152710264Y-100300703D01*
X152695500Y-100374928D01*
X152695500Y-103425063D01*
X152710266Y-103499301D01*
X152766515Y-103583484D01*
X152800234Y-103606014D01*
X152850699Y-103639734D01*
X152850702Y-103639734D01*
X152850703Y-103639735D01*
X152875666Y-103644700D01*
X152924933Y-103654500D01*
X155975066Y-103654499D01*
X156049301Y-103639734D01*
X156133484Y-103583484D01*
X156189734Y-103499301D01*
X156204500Y-103425067D01*
X156204500Y-102528499D01*
X156224185Y-102461461D01*
X156276989Y-102415706D01*
X156328500Y-102404500D01*
X156582433Y-102404500D01*
X156608789Y-102407333D01*
X156613640Y-102408389D01*
X156665808Y-102404657D01*
X156670231Y-102404500D01*
X156686082Y-102404500D01*
X156686083Y-102404500D01*
X156701804Y-102402239D01*
X156706156Y-102401772D01*
X156758342Y-102398040D01*
X156762987Y-102396307D01*
X156788691Y-102389747D01*
X156789008Y-102389701D01*
X156793596Y-102389042D01*
X156841189Y-102367306D01*
X156845239Y-102365628D01*
X156894267Y-102347343D01*
X156898236Y-102344371D01*
X156921047Y-102330837D01*
X156921297Y-102330722D01*
X156925558Y-102328777D01*
X156965083Y-102294526D01*
X156968533Y-102291747D01*
X156981221Y-102282250D01*
X156992441Y-102271028D01*
X156995645Y-102268044D01*
X157035196Y-102233775D01*
X157037875Y-102229604D01*
X157054511Y-102208958D01*
X157358958Y-101904511D01*
X157379604Y-101887875D01*
X157383775Y-101885196D01*
X157418044Y-101845645D01*
X157421028Y-101842441D01*
X157432250Y-101831221D01*
X157441752Y-101818526D01*
X157444512Y-101815100D01*
X157478777Y-101775558D01*
X157480839Y-101771041D01*
X157494372Y-101748234D01*
X157497342Y-101744268D01*
X157515631Y-101695229D01*
X157517304Y-101691193D01*
X157539042Y-101643596D01*
X157539746Y-101638691D01*
X157546308Y-101612984D01*
X157546320Y-101612953D01*
X157548040Y-101608342D01*
X157551772Y-101556156D01*
X157552239Y-101551804D01*
X157554500Y-101536083D01*
X157554500Y-101520230D01*
X157554658Y-101515806D01*
X157558389Y-101463642D01*
X157558057Y-101462114D01*
X157557332Y-101458783D01*
X157554500Y-101432432D01*
X157554500Y-82967567D01*
X157557334Y-82941209D01*
X157558389Y-82936360D01*
X157554657Y-82884191D01*
X157554500Y-82879769D01*
X157554500Y-82220230D01*
X157554658Y-82215806D01*
X157555788Y-82200001D01*
X157558389Y-82163640D01*
X157557333Y-82158784D01*
X157554500Y-82132429D01*
X157554500Y-69317568D01*
X157557334Y-69291210D01*
X157558389Y-69286360D01*
X157558389Y-69286356D01*
X157554658Y-69234193D01*
X157554500Y-69229769D01*
X157554500Y-69213920D01*
X157554500Y-69213917D01*
X157552239Y-69198195D01*
X157551772Y-69193845D01*
X157548040Y-69141658D01*
X157546305Y-69137008D01*
X157539749Y-69111317D01*
X157539043Y-69106407D01*
X157539042Y-69106404D01*
X157517298Y-69058792D01*
X157515631Y-69054766D01*
X157497343Y-69005733D01*
X157494364Y-69001754D01*
X157480839Y-68978958D01*
X157478777Y-68974442D01*
X157444521Y-68934909D01*
X157441750Y-68931470D01*
X157432250Y-68918779D01*
X157421033Y-68907562D01*
X157418029Y-68904335D01*
X157404525Y-68888751D01*
X157383775Y-68864804D01*
X157379593Y-68862116D01*
X157358955Y-68845484D01*
X154940819Y-66427347D01*
X154907334Y-66366024D01*
X154904500Y-66339666D01*
X154904500Y-66028499D01*
X154924185Y-65961460D01*
X154976989Y-65915705D01*
X155028500Y-65904499D01*
X155925064Y-65904499D01*
X155925066Y-65904499D01*
X155999301Y-65889734D01*
X156083484Y-65833484D01*
X156139734Y-65749301D01*
X156154500Y-65675067D01*
X156154499Y-62624934D01*
X156139734Y-62550699D01*
X156121068Y-62522765D01*
X156083484Y-62466515D01*
X156033019Y-62432796D01*
X155999301Y-62410266D01*
X155999299Y-62410265D01*
X155999296Y-62410264D01*
X155925069Y-62395500D01*
X152874936Y-62395500D01*
X152800698Y-62410266D01*
X152716515Y-62466515D01*
X152660266Y-62550699D01*
X152660264Y-62550703D01*
X152645500Y-62624928D01*
X152645500Y-63521500D01*
X152625815Y-63588539D01*
X152573011Y-63634294D01*
X152521500Y-63645500D01*
X151132418Y-63645500D01*
X151074793Y-63631297D01*
X150983791Y-63583536D01*
X150829472Y-63545500D01*
X150829471Y-63545500D01*
X150670529Y-63545500D01*
X150670528Y-63545500D01*
X150516208Y-63583536D01*
X150375469Y-63657401D01*
X150256506Y-63762794D01*
X150256500Y-63762801D01*
X150166215Y-63893601D01*
X150163297Y-63899162D01*
X150114712Y-63949374D01*
X150046693Y-63965349D01*
X149980835Y-63942014D01*
X149938048Y-63886778D01*
X149929500Y-63841536D01*
X149929500Y-60708555D01*
X149949185Y-60641516D01*
X149965819Y-60620874D01*
X151020875Y-59565819D01*
X151082198Y-59532334D01*
X151108556Y-59529500D01*
X152588111Y-59529500D01*
X152655150Y-59549185D01*
X152700905Y-59601989D01*
X152709002Y-59625908D01*
X152718742Y-59668584D01*
X152718744Y-59668593D01*
X152718746Y-59668598D01*
X152814817Y-59913384D01*
X152946299Y-60141117D01*
X153110254Y-60346710D01*
X153303020Y-60525570D01*
X153520290Y-60673702D01*
X153757212Y-60787798D01*
X154008492Y-60865308D01*
X154008493Y-60865308D01*
X154008496Y-60865309D01*
X154268510Y-60904499D01*
X154268515Y-60904499D01*
X154268518Y-60904500D01*
X154268519Y-60904500D01*
X154531481Y-60904500D01*
X154531482Y-60904500D01*
X154531489Y-60904499D01*
X154791503Y-60865309D01*
X154791504Y-60865308D01*
X154791508Y-60865308D01*
X155042788Y-60787798D01*
X155279710Y-60673702D01*
X155496980Y-60525570D01*
X155689746Y-60346710D01*
X155853701Y-60141117D01*
X155985183Y-59913384D01*
X156081254Y-59668598D01*
X156139769Y-59412228D01*
X156144212Y-59352942D01*
X156159420Y-59150004D01*
X156159420Y-59149995D01*
X156139770Y-58887781D01*
X156139769Y-58887776D01*
X156139769Y-58887772D01*
X156081254Y-58631402D01*
X155985183Y-58386616D01*
X155853701Y-58158883D01*
X155689746Y-57953290D01*
X155496980Y-57774430D01*
X155279710Y-57626298D01*
X155279707Y-57626297D01*
X155279705Y-57626295D01*
X155042788Y-57512202D01*
X154791509Y-57434692D01*
X154791503Y-57434690D01*
X154531489Y-57395500D01*
X154531482Y-57395500D01*
X154268518Y-57395500D01*
X154268510Y-57395500D01*
X154008496Y-57434690D01*
X154008490Y-57434692D01*
X153757211Y-57512202D01*
X153520294Y-57626295D01*
X153303019Y-57774430D01*
X153110256Y-57953288D01*
X153110254Y-57953290D01*
X152946299Y-58158883D01*
X152814817Y-58386615D01*
X152718748Y-58631396D01*
X152718742Y-58631415D01*
X152709002Y-58674092D01*
X152674894Y-58735071D01*
X152613233Y-58767929D01*
X152588111Y-58770500D01*
X150952215Y-58770500D01*
X150926770Y-58767861D01*
X150915901Y-58765582D01*
X150915897Y-58765582D01*
X150880266Y-58770023D01*
X150872590Y-58770500D01*
X150868556Y-58770500D01*
X150845274Y-58774385D01*
X150790213Y-58781248D01*
X150782594Y-58783516D01*
X150775077Y-58786097D01*
X150726295Y-58812496D01*
X150676432Y-58836873D01*
X150669976Y-58841482D01*
X150663685Y-58846379D01*
X150626119Y-58887186D01*
X149318576Y-60194728D01*
X149298725Y-60210850D01*
X149289419Y-60216930D01*
X149267359Y-60245272D01*
X149262281Y-60251024D01*
X149259424Y-60253881D01*
X149259420Y-60253885D01*
X149259419Y-60253887D01*
X149245705Y-60273093D01*
X149227582Y-60296379D01*
X149211623Y-60316883D01*
X149207849Y-60323857D01*
X149204345Y-60331023D01*
X149188520Y-60384182D01*
X149170500Y-60436670D01*
X149169195Y-60444487D01*
X149168207Y-60452413D01*
X149170500Y-60507824D01*
X149170500Y-64391443D01*
X149150815Y-64458482D01*
X149134181Y-64479124D01*
X145509125Y-68104181D01*
X145447802Y-68137666D01*
X145421444Y-68140500D01*
X144621663Y-68140500D01*
X144554624Y-68120815D01*
X144510663Y-68071772D01*
X144470981Y-67992081D01*
X144443088Y-67936065D01*
X144319732Y-67772715D01*
X144319730Y-67772712D01*
X144168462Y-67634814D01*
X144168460Y-67634812D01*
X143994430Y-67527057D01*
X143994424Y-67527054D01*
X143843993Y-67468777D01*
X143803556Y-67453112D01*
X143602347Y-67415500D01*
X143397653Y-67415500D01*
X143196444Y-67453112D01*
X143196441Y-67453112D01*
X143196441Y-67453113D01*
X143005575Y-67527054D01*
X143005569Y-67527057D01*
X142831539Y-67634812D01*
X142831537Y-67634814D01*
X142680269Y-67772712D01*
X142556912Y-67936064D01*
X142465673Y-68119295D01*
X142409654Y-68316183D01*
X142390768Y-68519999D01*
X142390768Y-68520000D01*
X126662980Y-68520000D01*
X126690345Y-68423821D01*
X126709232Y-68220000D01*
X126690345Y-68016179D01*
X126634328Y-67819299D01*
X126543088Y-67636065D01*
X126419732Y-67472715D01*
X126419730Y-67472712D01*
X126268462Y-67334814D01*
X126268460Y-67334812D01*
X126094430Y-67227057D01*
X126094424Y-67227054D01*
X125914627Y-67157401D01*
X125903556Y-67153112D01*
X125702347Y-67115500D01*
X125497653Y-67115500D01*
X125362207Y-67140819D01*
X125296438Y-67153113D01*
X125208430Y-67187208D01*
X125138807Y-67193070D01*
X125077067Y-67160360D01*
X125075956Y-67159262D01*
X124187875Y-66271181D01*
X124154390Y-66209858D01*
X124159374Y-66140166D01*
X124201246Y-66084233D01*
X124266710Y-66059816D01*
X124275556Y-66059500D01*
X124478337Y-66059500D01*
X124545376Y-66079185D01*
X124589337Y-66128228D01*
X124656912Y-66263935D01*
X124780269Y-66427287D01*
X124931537Y-66565185D01*
X124931539Y-66565187D01*
X125105569Y-66672942D01*
X125105575Y-66672945D01*
X125140609Y-66686517D01*
X125296444Y-66746888D01*
X125497653Y-66784500D01*
X125497656Y-66784500D01*
X125702344Y-66784500D01*
X125702347Y-66784500D01*
X125903556Y-66746888D01*
X126094427Y-66672944D01*
X126268462Y-66565186D01*
X126419732Y-66427285D01*
X126543088Y-66263935D01*
X126634328Y-66080701D01*
X126662980Y-65980000D01*
X142390768Y-65980000D01*
X142409654Y-66183816D01*
X142409654Y-66183818D01*
X142409655Y-66183821D01*
X142465672Y-66380701D01*
X142465673Y-66380704D01*
X142556912Y-66563935D01*
X142680269Y-66727287D01*
X142831537Y-66865185D01*
X142831539Y-66865187D01*
X143005569Y-66972942D01*
X143005575Y-66972945D01*
X143029594Y-66982250D01*
X143196444Y-67046888D01*
X143397653Y-67084500D01*
X143397656Y-67084500D01*
X143602344Y-67084500D01*
X143602347Y-67084500D01*
X143803556Y-67046888D01*
X143994427Y-66972944D01*
X144168462Y-66865186D01*
X144319732Y-66727285D01*
X144443088Y-66563935D01*
X144534328Y-66380701D01*
X144590345Y-66183821D01*
X144609232Y-65980000D01*
X144590345Y-65776179D01*
X144534328Y-65579299D01*
X144443088Y-65396065D01*
X144319732Y-65232715D01*
X144319730Y-65232712D01*
X144168462Y-65094814D01*
X144168460Y-65094812D01*
X143994430Y-64987057D01*
X143994424Y-64987054D01*
X143843993Y-64928777D01*
X143803556Y-64913112D01*
X143602347Y-64875500D01*
X143397653Y-64875500D01*
X143196444Y-64913112D01*
X143196441Y-64913112D01*
X143196441Y-64913113D01*
X143005575Y-64987054D01*
X143005569Y-64987057D01*
X142831539Y-65094812D01*
X142831537Y-65094814D01*
X142680269Y-65232712D01*
X142556912Y-65396064D01*
X142465673Y-65579295D01*
X142465671Y-65579299D01*
X142465672Y-65579299D01*
X142417303Y-65749301D01*
X142409654Y-65776183D01*
X142390768Y-65979999D01*
X142390768Y-65980000D01*
X126662980Y-65980000D01*
X126690345Y-65883821D01*
X126709232Y-65680000D01*
X126690345Y-65476179D01*
X126634328Y-65279299D01*
X126543088Y-65096065D01*
X126460767Y-64987054D01*
X126419730Y-64932712D01*
X126268462Y-64794814D01*
X126268460Y-64794812D01*
X126094430Y-64687057D01*
X126094424Y-64687054D01*
X125943993Y-64628777D01*
X125903556Y-64613112D01*
X125702347Y-64575500D01*
X125497653Y-64575500D01*
X125296444Y-64613112D01*
X125296441Y-64613112D01*
X125296441Y-64613113D01*
X125105575Y-64687054D01*
X125105569Y-64687057D01*
X124931539Y-64794812D01*
X124931537Y-64794814D01*
X124780269Y-64932712D01*
X124656912Y-65096064D01*
X124589337Y-65231772D01*
X124541834Y-65283009D01*
X124478337Y-65300500D01*
X118535555Y-65300500D01*
X118468516Y-65280815D01*
X118422761Y-65228011D01*
X118412817Y-65158853D01*
X118441842Y-65095297D01*
X118447874Y-65088819D01*
X119035852Y-64500841D01*
X119631425Y-63905267D01*
X119651279Y-63889145D01*
X119660582Y-63883068D01*
X119682640Y-63854726D01*
X119687729Y-63848963D01*
X119690581Y-63846113D01*
X119704294Y-63826906D01*
X119738375Y-63783119D01*
X119738376Y-63783113D01*
X119742159Y-63776126D01*
X119745653Y-63768978D01*
X119761479Y-63715818D01*
X119765984Y-63702694D01*
X119779500Y-63663327D01*
X119779500Y-63663324D01*
X119780802Y-63655521D01*
X119781792Y-63647587D01*
X119779500Y-63592164D01*
X119779500Y-63140000D01*
X124490768Y-63140000D01*
X124509654Y-63343816D01*
X124509654Y-63343818D01*
X124509655Y-63343821D01*
X124561006Y-63524300D01*
X124565673Y-63540704D01*
X124656912Y-63723935D01*
X124780269Y-63887287D01*
X124931537Y-64025185D01*
X124931539Y-64025187D01*
X125105569Y-64132942D01*
X125105575Y-64132945D01*
X125146010Y-64148609D01*
X125296444Y-64206888D01*
X125497653Y-64244500D01*
X125497656Y-64244500D01*
X125702344Y-64244500D01*
X125702347Y-64244500D01*
X125903556Y-64206888D01*
X126094427Y-64132944D01*
X126268462Y-64025186D01*
X126419732Y-63887285D01*
X126543088Y-63723935D01*
X126634328Y-63540701D01*
X126690345Y-63343821D01*
X126709232Y-63140000D01*
X126707528Y-63121616D01*
X126700607Y-63046923D01*
X126690345Y-62936179D01*
X126634328Y-62739299D01*
X126543088Y-62556065D01*
X126432986Y-62410266D01*
X126419730Y-62392712D01*
X126268462Y-62254814D01*
X126268460Y-62254812D01*
X126094430Y-62147057D01*
X126094424Y-62147054D01*
X125943993Y-62088777D01*
X125903556Y-62073112D01*
X125702347Y-62035500D01*
X125497653Y-62035500D01*
X125296444Y-62073112D01*
X125296441Y-62073112D01*
X125296441Y-62073113D01*
X125105575Y-62147054D01*
X125105569Y-62147057D01*
X124931539Y-62254812D01*
X124931537Y-62254814D01*
X124780269Y-62392712D01*
X124656912Y-62556064D01*
X124565673Y-62739295D01*
X124509654Y-62936183D01*
X124490768Y-63139999D01*
X124490768Y-63140000D01*
X119779500Y-63140000D01*
X119779500Y-59997350D01*
X119799185Y-59930311D01*
X119851989Y-59884556D01*
X119921147Y-59874612D01*
X119961124Y-59887553D01*
X120016207Y-59916463D01*
X120016206Y-59916463D01*
X120170528Y-59954500D01*
X120170529Y-59954500D01*
X120329472Y-59954500D01*
X120380911Y-59941820D01*
X120483793Y-59916463D01*
X120624529Y-59842599D01*
X120743498Y-59737201D01*
X120746354Y-59733062D01*
X120800637Y-59689070D01*
X120848406Y-59679500D01*
X124662048Y-59679500D01*
X124729087Y-59699185D01*
X124774842Y-59751989D01*
X124784786Y-59821147D01*
X124761002Y-59878227D01*
X124656912Y-60016064D01*
X124589337Y-60151772D01*
X124541834Y-60203009D01*
X124478337Y-60220500D01*
X123952215Y-60220500D01*
X123926770Y-60217861D01*
X123915901Y-60215582D01*
X123915897Y-60215582D01*
X123880266Y-60220023D01*
X123872590Y-60220500D01*
X123868556Y-60220500D01*
X123845274Y-60224385D01*
X123790213Y-60231248D01*
X123782594Y-60233516D01*
X123775077Y-60236097D01*
X123726295Y-60262496D01*
X123676432Y-60286873D01*
X123669976Y-60291482D01*
X123663685Y-60296379D01*
X123637814Y-60324482D01*
X123626119Y-60337186D01*
X123159485Y-60803821D01*
X122704125Y-61259181D01*
X122642802Y-61292666D01*
X122627932Y-61294264D01*
X122627973Y-61294596D01*
X122620529Y-61295499D01*
X122466208Y-61333536D01*
X122325469Y-61407401D01*
X122206506Y-61512794D01*
X122206500Y-61512801D01*
X122116214Y-61643602D01*
X122059850Y-61792218D01*
X122040693Y-61949999D01*
X122040693Y-61950000D01*
X122059850Y-62107781D01*
X122074746Y-62147057D01*
X122116213Y-62256395D01*
X122206502Y-62387201D01*
X122206504Y-62387203D01*
X122206506Y-62387205D01*
X122325469Y-62492598D01*
X122325471Y-62492599D01*
X122466207Y-62566463D01*
X122543368Y-62585481D01*
X122620528Y-62604500D01*
X122620529Y-62604500D01*
X122779472Y-62604500D01*
X122830911Y-62591820D01*
X122933793Y-62566463D01*
X123074529Y-62492599D01*
X123193498Y-62387201D01*
X123283787Y-62256395D01*
X123340149Y-62107782D01*
X123359307Y-61950000D01*
X123340149Y-61792218D01*
X123340149Y-61792217D01*
X123338355Y-61784940D01*
X123341231Y-61784230D01*
X123336893Y-61728195D01*
X123370018Y-61666676D01*
X123370255Y-61666438D01*
X124020874Y-61015819D01*
X124082198Y-60982334D01*
X124108556Y-60979500D01*
X124478337Y-60979500D01*
X124545376Y-60999185D01*
X124589337Y-61048228D01*
X124656912Y-61183935D01*
X124780269Y-61347287D01*
X124931537Y-61485185D01*
X124931539Y-61485187D01*
X125105569Y-61592942D01*
X125105575Y-61592945D01*
X125146010Y-61608609D01*
X125296444Y-61666888D01*
X125497653Y-61704500D01*
X125497656Y-61704500D01*
X125702344Y-61704500D01*
X125702347Y-61704500D01*
X125903556Y-61666888D01*
X126094427Y-61592944D01*
X126268462Y-61485186D01*
X126419732Y-61347285D01*
X126543088Y-61183935D01*
X126634328Y-61000701D01*
X126690345Y-60803821D01*
X126709232Y-60600000D01*
X126690345Y-60396179D01*
X126634328Y-60199299D01*
X126543088Y-60016065D01*
X126460769Y-59907057D01*
X126438998Y-59878227D01*
X126414306Y-59812865D01*
X126428871Y-59744531D01*
X126478069Y-59694918D01*
X126537952Y-59679500D01*
X127441444Y-59679500D01*
X127508483Y-59699185D01*
X127529125Y-59715819D01*
X131484728Y-63671422D01*
X131500852Y-63691277D01*
X131506932Y-63700582D01*
X131535277Y-63722643D01*
X131541029Y-63727723D01*
X131543886Y-63730580D01*
X131563092Y-63744293D01*
X131563093Y-63744293D01*
X131603991Y-63776126D01*
X131606881Y-63778375D01*
X131606882Y-63778375D01*
X131613874Y-63782159D01*
X131621017Y-63785651D01*
X131621020Y-63785653D01*
X131674189Y-63801482D01*
X131726673Y-63819500D01*
X131726674Y-63819500D01*
X131734486Y-63820804D01*
X131742406Y-63821791D01*
X131742409Y-63821792D01*
X131742411Y-63821791D01*
X131742412Y-63821792D01*
X131783970Y-63820073D01*
X131797824Y-63819500D01*
X142378337Y-63819500D01*
X142445376Y-63839185D01*
X142489337Y-63888228D01*
X142556912Y-64023935D01*
X142680269Y-64187287D01*
X142831537Y-64325185D01*
X142831539Y-64325187D01*
X143005569Y-64432942D01*
X143005575Y-64432945D01*
X143031027Y-64442805D01*
X143196444Y-64506888D01*
X143397653Y-64544500D01*
X143397656Y-64544500D01*
X143602344Y-64544500D01*
X143602347Y-64544500D01*
X143803556Y-64506888D01*
X143994427Y-64432944D01*
X144168462Y-64325186D01*
X144319732Y-64187285D01*
X144443088Y-64023935D01*
X144448417Y-64013231D01*
X144495920Y-63961993D01*
X144559419Y-63944500D01*
X145779667Y-63944500D01*
X145846706Y-63964185D01*
X145867348Y-63980819D01*
X146395484Y-64508955D01*
X146412117Y-64529594D01*
X146414803Y-64533773D01*
X146414806Y-64533777D01*
X146454335Y-64568029D01*
X146457575Y-64571046D01*
X146468779Y-64582250D01*
X146474772Y-64586737D01*
X146481463Y-64591746D01*
X146484909Y-64594522D01*
X146524442Y-64628777D01*
X146528955Y-64630838D01*
X146551758Y-64644366D01*
X146555733Y-64647342D01*
X146604754Y-64665625D01*
X146608813Y-64667307D01*
X146652055Y-64687056D01*
X146656402Y-64689041D01*
X146656403Y-64689042D01*
X146661309Y-64689747D01*
X146687012Y-64696307D01*
X146691652Y-64698038D01*
X146691658Y-64698040D01*
X146743845Y-64701772D01*
X146748195Y-64702239D01*
X146763917Y-64704500D01*
X146779769Y-64704500D01*
X146784191Y-64704657D01*
X146836360Y-64708389D01*
X146841210Y-64707333D01*
X146867567Y-64704500D01*
X147085439Y-64704500D01*
X147152478Y-64724185D01*
X147167665Y-64735684D01*
X147175469Y-64742598D01*
X147175471Y-64742599D01*
X147316207Y-64816463D01*
X147358576Y-64826906D01*
X147470528Y-64854500D01*
X147470529Y-64854500D01*
X147629472Y-64854500D01*
X147680911Y-64841821D01*
X147783793Y-64816463D01*
X147924529Y-64742599D01*
X148043498Y-64637201D01*
X148133787Y-64506395D01*
X148190149Y-64357782D01*
X148209307Y-64200000D01*
X148190149Y-64042218D01*
X148133787Y-63893605D01*
X148043498Y-63762799D01*
X148043495Y-63762796D01*
X148043493Y-63762794D01*
X147924530Y-63657401D01*
X147795961Y-63589923D01*
X147783793Y-63583537D01*
X147783792Y-63583536D01*
X147783791Y-63583536D01*
X147629472Y-63545500D01*
X147629471Y-63545500D01*
X147470529Y-63545500D01*
X147470528Y-63545500D01*
X147316208Y-63583536D01*
X147175469Y-63657401D01*
X147167665Y-63664316D01*
X147104432Y-63694037D01*
X147085439Y-63695500D01*
X147060333Y-63695500D01*
X146993294Y-63675815D01*
X146972652Y-63659181D01*
X146444515Y-63131044D01*
X146427882Y-63110405D01*
X146425196Y-63106225D01*
X146425195Y-63106224D01*
X146425194Y-63106222D01*
X146425191Y-63106220D01*
X146385664Y-63071970D01*
X146382435Y-63068964D01*
X146371221Y-63057750D01*
X146358525Y-63048245D01*
X146355083Y-63045471D01*
X146315562Y-63011226D01*
X146315560Y-63011224D01*
X146315558Y-63011223D01*
X146311037Y-63009158D01*
X146288244Y-62995634D01*
X146284269Y-62992658D01*
X146284267Y-62992657D01*
X146235246Y-62974372D01*
X146231186Y-62972691D01*
X146215291Y-62965432D01*
X146183598Y-62950958D01*
X146183595Y-62950957D01*
X146178679Y-62950251D01*
X146152995Y-62943695D01*
X146148344Y-62941960D01*
X146096173Y-62938227D01*
X146091779Y-62937755D01*
X146076096Y-62935501D01*
X146076083Y-62935500D01*
X146076082Y-62935500D01*
X146060231Y-62935500D01*
X146055808Y-62935342D01*
X146047083Y-62934718D01*
X146003644Y-62931611D01*
X146003638Y-62931611D01*
X146000303Y-62932336D01*
X145998789Y-62932666D01*
X145972433Y-62935500D01*
X144559419Y-62935500D01*
X144492380Y-62915815D01*
X144448418Y-62866769D01*
X144443088Y-62856065D01*
X144319730Y-62692712D01*
X144168462Y-62554814D01*
X144168460Y-62554812D01*
X143994430Y-62447057D01*
X143994424Y-62447054D01*
X143839916Y-62387198D01*
X143803556Y-62373112D01*
X143602347Y-62335500D01*
X143397653Y-62335500D01*
X143196444Y-62373112D01*
X143196441Y-62373112D01*
X143196441Y-62373113D01*
X143005575Y-62447054D01*
X143005569Y-62447057D01*
X142831539Y-62554812D01*
X142831537Y-62554814D01*
X142680269Y-62692712D01*
X142556912Y-62856064D01*
X142489337Y-62991772D01*
X142441834Y-63043009D01*
X142378337Y-63060500D01*
X131998556Y-63060500D01*
X131931517Y-63040815D01*
X131910875Y-63024181D01*
X129786694Y-60900000D01*
X142390768Y-60900000D01*
X142409654Y-61103816D01*
X142409654Y-61103818D01*
X142409655Y-61103821D01*
X142452731Y-61255217D01*
X142465673Y-61300704D01*
X142556912Y-61483935D01*
X142680269Y-61647287D01*
X142831537Y-61785185D01*
X142831539Y-61785187D01*
X143005569Y-61892942D01*
X143005575Y-61892945D01*
X143046010Y-61908609D01*
X143196444Y-61966888D01*
X143397653Y-62004500D01*
X143397656Y-62004500D01*
X143602344Y-62004500D01*
X143602347Y-62004500D01*
X143803556Y-61966888D01*
X143994427Y-61892944D01*
X144168462Y-61785186D01*
X144319732Y-61647285D01*
X144443088Y-61483935D01*
X144534328Y-61300701D01*
X144590345Y-61103821D01*
X144609232Y-60900000D01*
X144590345Y-60696179D01*
X144534328Y-60499299D01*
X144443088Y-60316065D01*
X144373855Y-60224385D01*
X144319730Y-60152712D01*
X144168462Y-60014814D01*
X144168460Y-60014812D01*
X143994430Y-59907057D01*
X143994424Y-59907054D01*
X143843993Y-59848777D01*
X143803556Y-59833112D01*
X143602347Y-59795500D01*
X143397653Y-59795500D01*
X143196444Y-59833112D01*
X143196441Y-59833112D01*
X143196441Y-59833113D01*
X143005575Y-59907054D01*
X143005569Y-59907057D01*
X142831539Y-60014812D01*
X142831537Y-60014814D01*
X142680269Y-60152712D01*
X142556912Y-60316064D01*
X142465673Y-60499295D01*
X142458197Y-60525570D01*
X142420748Y-60657193D01*
X142409654Y-60696183D01*
X142390768Y-60899999D01*
X142390768Y-60900000D01*
X129786694Y-60900000D01*
X127955271Y-59068577D01*
X127939143Y-59048716D01*
X127933070Y-59039421D01*
X127933069Y-59039420D01*
X127933068Y-59039418D01*
X127904718Y-59017352D01*
X127898972Y-59012278D01*
X127896113Y-59009419D01*
X127893721Y-59007711D01*
X127876906Y-58995704D01*
X127833123Y-58961628D01*
X127833122Y-58961627D01*
X127833119Y-58961625D01*
X127833114Y-58961623D01*
X127826127Y-58957841D01*
X127818981Y-58954348D01*
X127818979Y-58954347D01*
X127806782Y-58950715D01*
X127765817Y-58938519D01*
X127713328Y-58920499D01*
X127705516Y-58919196D01*
X127697586Y-58918207D01*
X127644075Y-58920421D01*
X127642175Y-58920500D01*
X126583262Y-58920500D01*
X126516223Y-58900815D01*
X126470468Y-58848011D01*
X126460524Y-58778853D01*
X126484308Y-58721774D01*
X126543086Y-58643938D01*
X126543086Y-58643936D01*
X126543088Y-58643935D01*
X126634328Y-58460701D01*
X126690345Y-58263821D01*
X126709232Y-58060000D01*
X126690345Y-57856179D01*
X126634328Y-57659299D01*
X126543088Y-57476065D01*
X126419732Y-57312715D01*
X126419730Y-57312712D01*
X126268462Y-57174814D01*
X126268460Y-57174812D01*
X126094430Y-57067057D01*
X126094424Y-57067054D01*
X125943993Y-57008777D01*
X125903556Y-56993112D01*
X125702347Y-56955500D01*
X125497653Y-56955500D01*
X125296444Y-56993112D01*
X125296441Y-56993112D01*
X125296441Y-56993113D01*
X125105575Y-57067054D01*
X125105569Y-57067057D01*
X124931539Y-57174812D01*
X124931537Y-57174814D01*
X124780269Y-57312712D01*
X124656912Y-57476064D01*
X124565673Y-57659295D01*
X124549275Y-57716930D01*
X124516813Y-57831023D01*
X124509654Y-57856183D01*
X124490768Y-58059999D01*
X124490768Y-58060000D01*
X124509654Y-58263816D01*
X124565673Y-58460704D01*
X124656913Y-58643938D01*
X124715692Y-58721774D01*
X124740384Y-58787135D01*
X124725819Y-58855470D01*
X124676621Y-58905082D01*
X124616738Y-58920500D01*
X120848406Y-58920500D01*
X120781367Y-58900815D01*
X120746355Y-58866938D01*
X120743500Y-58862802D01*
X120743498Y-58862799D01*
X120743495Y-58862796D01*
X120743493Y-58862794D01*
X120624530Y-58757401D01*
X120483791Y-58683536D01*
X120329472Y-58645500D01*
X120329471Y-58645500D01*
X120170529Y-58645500D01*
X120170528Y-58645500D01*
X120016206Y-58683536D01*
X120016206Y-58683537D01*
X119961123Y-58712446D01*
X119892614Y-58726170D01*
X119827562Y-58700677D01*
X119786618Y-58644061D01*
X119779500Y-58602654D01*
X119779500Y-58208555D01*
X119799185Y-58141516D01*
X119815819Y-58120875D01*
X123270875Y-54665819D01*
X123332198Y-54632334D01*
X123358556Y-54629500D01*
X124639393Y-54629500D01*
X124706432Y-54649185D01*
X124752187Y-54701989D01*
X124762131Y-54771147D01*
X124738347Y-54828226D01*
X124656913Y-54936061D01*
X124565673Y-55119295D01*
X124558926Y-55143008D01*
X124527700Y-55252759D01*
X124509654Y-55316183D01*
X124490768Y-55519999D01*
X124490768Y-55520000D01*
X124509654Y-55723816D01*
X124509654Y-55723818D01*
X124509655Y-55723821D01*
X124561147Y-55904797D01*
X124565673Y-55920704D01*
X124656912Y-56103935D01*
X124780269Y-56267287D01*
X124931537Y-56405185D01*
X124931539Y-56405187D01*
X125105569Y-56512942D01*
X125105575Y-56512945D01*
X125125077Y-56520500D01*
X125296444Y-56586888D01*
X125497653Y-56624500D01*
X125497656Y-56624500D01*
X125702344Y-56624500D01*
X125702347Y-56624500D01*
X125903556Y-56586888D01*
X126094427Y-56512944D01*
X126268462Y-56405186D01*
X126419732Y-56267285D01*
X126543088Y-56103935D01*
X126634328Y-55920701D01*
X126690345Y-55723821D01*
X126709232Y-55520000D01*
X126690345Y-55316179D01*
X126634328Y-55119299D01*
X126543088Y-54936065D01*
X126543087Y-54936064D01*
X126543086Y-54936061D01*
X126461653Y-54828226D01*
X126436961Y-54762865D01*
X126451526Y-54694531D01*
X126500724Y-54644918D01*
X126560607Y-54629500D01*
X142477780Y-54629500D01*
X142503201Y-54632134D01*
X142504768Y-54632462D01*
X142506649Y-54632856D01*
X142568228Y-54665866D01*
X142602186Y-54726928D01*
X142597740Y-54796657D01*
X142568909Y-54841903D01*
X142461886Y-54948926D01*
X142326400Y-55142420D01*
X142326399Y-55142422D01*
X142226570Y-55356507D01*
X142226567Y-55356513D01*
X142169364Y-55569999D01*
X142169364Y-55570000D01*
X143066314Y-55570000D01*
X143040507Y-55610156D01*
X143000000Y-55748111D01*
X143000000Y-55891889D01*
X143040507Y-56029844D01*
X143066314Y-56070000D01*
X142169364Y-56070000D01*
X142226567Y-56283486D01*
X142226570Y-56283492D01*
X142326399Y-56497578D01*
X142461894Y-56691082D01*
X142628917Y-56858105D01*
X142822421Y-56993600D01*
X143036507Y-57093429D01*
X143036516Y-57093433D01*
X143069037Y-57102147D01*
X143128698Y-57138512D01*
X143159227Y-57201358D01*
X143150933Y-57270734D01*
X143106448Y-57324612D01*
X143081739Y-57337548D01*
X143005581Y-57367052D01*
X143005569Y-57367057D01*
X142831539Y-57474812D01*
X142831537Y-57474814D01*
X142680269Y-57612712D01*
X142556912Y-57776064D01*
X142465673Y-57959295D01*
X142409654Y-58156183D01*
X142390768Y-58359999D01*
X142390768Y-58360000D01*
X142409654Y-58563816D01*
X142409654Y-58563818D01*
X142409655Y-58563821D01*
X142455847Y-58726170D01*
X142465673Y-58760704D01*
X142556912Y-58943935D01*
X142680269Y-59107287D01*
X142831537Y-59245185D01*
X142831539Y-59245187D01*
X143005569Y-59352942D01*
X143005575Y-59352945D01*
X143046010Y-59368609D01*
X143196444Y-59426888D01*
X143397653Y-59464500D01*
X143397656Y-59464500D01*
X143602344Y-59464500D01*
X143602347Y-59464500D01*
X143803556Y-59426888D01*
X143994427Y-59352944D01*
X144168462Y-59245186D01*
X144319732Y-59107285D01*
X144443088Y-58943935D01*
X144534328Y-58760701D01*
X144590345Y-58563821D01*
X144609232Y-58360000D01*
X144590345Y-58156179D01*
X144534328Y-57959299D01*
X144443088Y-57776065D01*
X144354908Y-57659295D01*
X144319730Y-57612712D01*
X144168462Y-57474814D01*
X144168460Y-57474812D01*
X143994430Y-57367057D01*
X143994424Y-57367054D01*
X143918261Y-57337549D01*
X143862859Y-57294976D01*
X143839269Y-57229209D01*
X143854980Y-57161129D01*
X143905004Y-57112350D01*
X143930963Y-57102147D01*
X143963481Y-57093434D01*
X143963492Y-57093429D01*
X144177578Y-56993600D01*
X144371082Y-56858105D01*
X144538105Y-56691082D01*
X144673600Y-56497578D01*
X144773429Y-56283492D01*
X144773432Y-56283486D01*
X144830636Y-56070000D01*
X143933686Y-56070000D01*
X143959493Y-56029844D01*
X144000000Y-55891889D01*
X144000000Y-55748111D01*
X143959493Y-55610156D01*
X143933686Y-55570000D01*
X144830636Y-55570000D01*
X144830635Y-55569999D01*
X144773432Y-55356513D01*
X144773429Y-55356507D01*
X144673600Y-55142422D01*
X144673599Y-55142420D01*
X144538113Y-54948926D01*
X144538108Y-54948920D01*
X144371082Y-54781894D01*
X144177578Y-54646399D01*
X144122853Y-54620881D01*
X144070414Y-54574709D01*
X144051262Y-54507515D01*
X144071478Y-54440634D01*
X144124643Y-54395299D01*
X144175258Y-54384499D01*
X144375064Y-54384499D01*
X144375066Y-54384499D01*
X144449301Y-54369734D01*
X144533484Y-54313484D01*
X144589734Y-54229301D01*
X144604500Y-54155067D01*
X144604500Y-54150001D01*
X152394891Y-54150001D01*
X152415300Y-54435362D01*
X152476109Y-54714895D01*
X152576091Y-54982958D01*
X152713191Y-55234038D01*
X152713196Y-55234046D01*
X152819882Y-55376561D01*
X152819883Y-55376562D01*
X153837226Y-54359219D01*
X153875901Y-54452588D01*
X153972075Y-54577925D01*
X154097412Y-54674099D01*
X154190779Y-54712772D01*
X153173436Y-55730115D01*
X153315960Y-55836807D01*
X153315961Y-55836808D01*
X153567042Y-55973908D01*
X153567041Y-55973908D01*
X153835104Y-56073890D01*
X154114637Y-56134699D01*
X154399999Y-56155109D01*
X154400001Y-56155109D01*
X154685362Y-56134699D01*
X154964895Y-56073890D01*
X155232958Y-55973908D01*
X155484047Y-55836803D01*
X155626561Y-55730116D01*
X155626562Y-55730115D01*
X154609220Y-54712772D01*
X154702588Y-54674099D01*
X154827925Y-54577925D01*
X154924099Y-54452589D01*
X154962773Y-54359220D01*
X155980115Y-55376562D01*
X155980116Y-55376561D01*
X156086803Y-55234047D01*
X156223908Y-54982958D01*
X156323890Y-54714895D01*
X156384699Y-54435362D01*
X156405109Y-54150001D01*
X156405109Y-54149998D01*
X156384699Y-53864637D01*
X156323890Y-53585104D01*
X156223908Y-53317041D01*
X156086808Y-53065961D01*
X156086807Y-53065960D01*
X155980115Y-52923436D01*
X154962772Y-53940779D01*
X154924099Y-53847412D01*
X154827925Y-53722075D01*
X154702588Y-53625901D01*
X154609219Y-53587226D01*
X155626562Y-52569883D01*
X155626561Y-52569882D01*
X155484046Y-52463196D01*
X155484038Y-52463191D01*
X155232957Y-52326091D01*
X155232958Y-52326091D01*
X154964895Y-52226109D01*
X154685362Y-52165300D01*
X154400001Y-52144891D01*
X154399999Y-52144891D01*
X154114637Y-52165300D01*
X153835104Y-52226109D01*
X153567041Y-52326091D01*
X153315961Y-52463191D01*
X153315953Y-52463196D01*
X153173437Y-52569882D01*
X153173436Y-52569883D01*
X154190780Y-53587226D01*
X154097412Y-53625901D01*
X153972075Y-53722075D01*
X153875901Y-53847411D01*
X153837226Y-53940779D01*
X152819883Y-52923436D01*
X152819882Y-52923437D01*
X152713196Y-53065953D01*
X152713191Y-53065961D01*
X152576091Y-53317041D01*
X152476109Y-53585104D01*
X152415300Y-53864637D01*
X152394891Y-54149998D01*
X152394891Y-54150001D01*
X144604500Y-54150001D01*
X144604499Y-52404934D01*
X144589734Y-52330699D01*
X144571068Y-52302765D01*
X144533484Y-52246515D01*
X144483019Y-52212796D01*
X144449301Y-52190266D01*
X144449299Y-52190265D01*
X144449296Y-52190264D01*
X144375069Y-52175500D01*
X142624936Y-52175500D01*
X142550698Y-52190266D01*
X142466515Y-52246515D01*
X142410266Y-52330699D01*
X142410264Y-52330703D01*
X142395500Y-52404928D01*
X142395500Y-53746500D01*
X142375815Y-53813539D01*
X142323011Y-53859294D01*
X142271500Y-53870500D01*
X126828500Y-53870500D01*
X126761461Y-53850815D01*
X126715706Y-53798011D01*
X126704500Y-53746500D01*
X126704499Y-52104936D01*
X126704499Y-52104934D01*
X126689734Y-52030699D01*
X126671068Y-52002764D01*
X126633484Y-51946515D01*
X126583019Y-51912796D01*
X126549301Y-51890266D01*
X126549299Y-51890265D01*
X126549296Y-51890264D01*
X126475069Y-51875500D01*
X124724936Y-51875500D01*
X124650698Y-51890266D01*
X124566515Y-51946515D01*
X124510266Y-52030699D01*
X124510264Y-52030703D01*
X124495500Y-52104928D01*
X124495500Y-52104931D01*
X124495501Y-53746500D01*
X124475816Y-53813539D01*
X124423013Y-53859294D01*
X124371501Y-53870500D01*
X123202220Y-53870500D01*
X123176775Y-53867861D01*
X123165901Y-53865581D01*
X123165897Y-53865581D01*
X123130260Y-53870023D01*
X123122584Y-53870500D01*
X123118557Y-53870500D01*
X123110798Y-53871794D01*
X123095280Y-53874383D01*
X123040222Y-53881246D01*
X123032608Y-53883513D01*
X123025073Y-53886100D01*
X122976289Y-53912500D01*
X122926434Y-53936872D01*
X122919969Y-53941487D01*
X122913685Y-53946379D01*
X122876119Y-53987186D01*
X119168576Y-57694728D01*
X119148725Y-57710850D01*
X119139419Y-57716930D01*
X119117359Y-57745272D01*
X119112281Y-57751024D01*
X119109424Y-57753881D01*
X119109420Y-57753885D01*
X119109419Y-57753887D01*
X119095705Y-57773093D01*
X119073992Y-57800990D01*
X119061623Y-57816883D01*
X119057849Y-57823857D01*
X119054345Y-57831023D01*
X119038520Y-57884182D01*
X119020500Y-57936670D01*
X119019195Y-57944487D01*
X119018207Y-57952413D01*
X119020500Y-58007824D01*
X119020499Y-59702672D01*
X119000814Y-59769712D01*
X118948010Y-59815466D01*
X118878852Y-59825410D01*
X118866824Y-59823069D01*
X118754972Y-59795500D01*
X118754971Y-59795500D01*
X118596029Y-59795500D01*
X118596028Y-59795500D01*
X118441708Y-59833536D01*
X118300969Y-59907401D01*
X118182006Y-60012794D01*
X118182000Y-60012801D01*
X118091714Y-60143602D01*
X118035350Y-60292218D01*
X118016193Y-60449999D01*
X118022191Y-60499401D01*
X118010730Y-60568325D01*
X117986776Y-60602028D01*
X117504475Y-61084329D01*
X117443152Y-61117814D01*
X117373460Y-61112830D01*
X117317527Y-61070958D01*
X117293110Y-61005494D01*
X117297947Y-60961272D01*
X117311478Y-60915820D01*
X117329500Y-60863327D01*
X117329500Y-60863324D01*
X117330801Y-60855532D01*
X117331791Y-60847588D01*
X117329500Y-60792189D01*
X117329500Y-60291440D01*
X117329499Y-59788537D01*
X117349183Y-59721502D01*
X117401987Y-59675747D01*
X117410139Y-59672369D01*
X117544267Y-59622342D01*
X117660404Y-59535404D01*
X117747342Y-59419267D01*
X117798040Y-59283342D01*
X117802142Y-59245186D01*
X117804499Y-59223271D01*
X117804499Y-59223264D01*
X117804500Y-59223255D01*
X117804499Y-56976746D01*
X117798040Y-56916658D01*
X117747342Y-56780733D01*
X117680231Y-56691082D01*
X117660404Y-56664595D01*
X117556594Y-56586886D01*
X117544267Y-56577658D01*
X117410164Y-56527639D01*
X117354233Y-56485769D01*
X117329816Y-56420304D01*
X117329500Y-56411459D01*
X117329500Y-56016261D01*
X117329474Y-56015646D01*
X117329475Y-55985402D01*
X117314708Y-55920701D01*
X117300728Y-55859445D01*
X117297511Y-55852765D01*
X117244676Y-55743040D01*
X117244675Y-55743039D01*
X117244675Y-55743038D01*
X117159788Y-55636581D01*
X117161318Y-55635360D01*
X117132468Y-55582526D01*
X117137452Y-55512834D01*
X117160827Y-55476462D01*
X117159857Y-55475689D01*
X117188684Y-55439526D01*
X117244747Y-55369196D01*
X117300790Y-55252759D01*
X117328725Y-55130236D01*
X117329514Y-55126775D01*
X117329515Y-55126766D01*
X117329500Y-55062159D01*
X117329500Y-54752220D01*
X117332139Y-54726775D01*
X117332801Y-54723611D01*
X117334419Y-54715900D01*
X117331755Y-54694531D01*
X117329977Y-54680260D01*
X117329500Y-54672584D01*
X117329500Y-54668560D01*
X117329498Y-54668547D01*
X117328315Y-54661460D01*
X117325616Y-54645284D01*
X117318752Y-54590217D01*
X117318750Y-54590213D01*
X117316484Y-54582598D01*
X117313901Y-54575075D01*
X117287502Y-54526294D01*
X117263126Y-54476432D01*
X117258530Y-54469994D01*
X117252986Y-54462870D01*
X117250927Y-54457651D01*
X117248837Y-54454848D01*
X117248725Y-54454641D01*
X117249561Y-54454188D01*
X117227347Y-54397874D01*
X117240918Y-54329335D01*
X117267305Y-54295078D01*
X117319732Y-54247285D01*
X117443088Y-54083935D01*
X117528380Y-53912645D01*
X117575883Y-53861408D01*
X117643545Y-53843987D01*
X117709886Y-53865912D01*
X117753841Y-53920224D01*
X117759155Y-53935823D01*
X117766567Y-53963485D01*
X117766570Y-53963492D01*
X117866399Y-54177578D01*
X118001894Y-54371082D01*
X118168917Y-54538105D01*
X118362421Y-54673600D01*
X118576507Y-54773429D01*
X118576516Y-54773433D01*
X118790000Y-54830634D01*
X118790000Y-53935501D01*
X118897685Y-53984680D01*
X119004237Y-54000000D01*
X119075763Y-54000000D01*
X119182315Y-53984680D01*
X119290000Y-53935501D01*
X119290000Y-54830634D01*
X119503483Y-54773433D01*
X119503492Y-54773429D01*
X119717578Y-54673600D01*
X119911082Y-54538105D01*
X120078105Y-54371082D01*
X120213600Y-54177578D01*
X120313429Y-53963492D01*
X120313432Y-53963486D01*
X120370636Y-53750000D01*
X119473686Y-53750000D01*
X119499493Y-53709844D01*
X119540000Y-53571889D01*
X119540000Y-53428111D01*
X119499493Y-53290156D01*
X119473686Y-53250000D01*
X120370636Y-53250000D01*
X120370635Y-53249999D01*
X120313432Y-53036513D01*
X120313429Y-53036507D01*
X120213600Y-52822422D01*
X120213599Y-52822420D01*
X120078113Y-52628926D01*
X120078108Y-52628920D01*
X119911082Y-52461894D01*
X119717578Y-52326399D01*
X119503492Y-52226570D01*
X119503486Y-52226567D01*
X119290000Y-52169364D01*
X119290000Y-53064498D01*
X119182315Y-53015320D01*
X119075763Y-53000000D01*
X119004237Y-53000000D01*
X118897685Y-53015320D01*
X118790000Y-53064498D01*
X118790000Y-52169364D01*
X118789999Y-52169364D01*
X118576513Y-52226567D01*
X118576507Y-52226570D01*
X118362422Y-52326399D01*
X118362420Y-52326400D01*
X118168926Y-52461886D01*
X118168920Y-52461891D01*
X118001891Y-52628920D01*
X118001886Y-52628926D01*
X117866400Y-52822420D01*
X117866399Y-52822422D01*
X117766570Y-53036507D01*
X117766564Y-53036522D01*
X117759154Y-53064177D01*
X117722788Y-53123837D01*
X117659941Y-53154365D01*
X117590566Y-53146070D01*
X117536688Y-53101583D01*
X117528380Y-53087354D01*
X117522252Y-53075048D01*
X117443088Y-52916065D01*
X117319732Y-52752715D01*
X117319730Y-52752712D01*
X117168462Y-52614814D01*
X117168460Y-52614812D01*
X116994430Y-52507057D01*
X116994424Y-52507054D01*
X116843993Y-52448777D01*
X116803556Y-52433112D01*
X116602347Y-52395500D01*
X116397653Y-52395500D01*
X116196444Y-52433112D01*
X116196441Y-52433112D01*
X116196441Y-52433113D01*
X116005575Y-52507054D01*
X116005569Y-52507057D01*
X115831539Y-52614812D01*
X115831537Y-52614814D01*
X115680269Y-52752712D01*
X115556912Y-52916064D01*
X115465673Y-53099295D01*
X115409654Y-53296183D01*
X115390768Y-53499999D01*
X115390768Y-53500000D01*
X115409654Y-53703816D01*
X115409654Y-53703818D01*
X115409655Y-53703821D01*
X115457079Y-53870500D01*
X115465673Y-53900704D01*
X115556912Y-54083935D01*
X115680269Y-54247287D01*
X115831537Y-54385185D01*
X115831539Y-54385187D01*
X116005569Y-54492942D01*
X116005575Y-54492945D01*
X116186733Y-54563126D01*
X116196444Y-54566888D01*
X116261704Y-54579086D01*
X116323984Y-54610754D01*
X116326600Y-54613294D01*
X116477844Y-54764538D01*
X116511329Y-54825861D01*
X116506345Y-54895553D01*
X116464473Y-54951486D01*
X116454825Y-54957348D01*
X116455065Y-54957730D01*
X116449176Y-54961428D01*
X116348139Y-55041991D01*
X116267573Y-55143008D01*
X116211506Y-55259420D01*
X116211505Y-55259423D01*
X116182751Y-55385395D01*
X116182751Y-55696245D01*
X116182765Y-55696608D01*
X116182760Y-55726769D01*
X116182761Y-55726780D01*
X116211489Y-55852761D01*
X116211491Y-55852765D01*
X116267544Y-55969203D01*
X116348108Y-56070244D01*
X116348112Y-56070247D01*
X116348113Y-56070248D01*
X116449112Y-56150798D01*
X116449139Y-56150819D01*
X116495693Y-56173237D01*
X116500299Y-56175455D01*
X116552159Y-56222277D01*
X116570499Y-56287175D01*
X116570500Y-56396603D01*
X116550816Y-56463643D01*
X116498012Y-56509398D01*
X116455027Y-56519961D01*
X116455047Y-56520146D01*
X116453673Y-56520293D01*
X116453131Y-56520427D01*
X116451739Y-56520501D01*
X116391655Y-56526960D01*
X116255738Y-56577655D01*
X116255730Y-56577660D01*
X116139595Y-56664595D01*
X116052660Y-56780730D01*
X116052658Y-56780733D01*
X116001960Y-56916658D01*
X116001959Y-56916662D01*
X115995500Y-56976728D01*
X115995500Y-59223251D01*
X115995501Y-59223257D01*
X116001960Y-59283344D01*
X116052655Y-59419261D01*
X116052656Y-59419264D01*
X116052658Y-59419267D01*
X116058363Y-59426888D01*
X116139595Y-59535404D01*
X116158005Y-59549185D01*
X116255733Y-59622342D01*
X116391658Y-59673040D01*
X116416837Y-59675747D01*
X116451723Y-59679498D01*
X116451729Y-59679498D01*
X116451745Y-59679500D01*
X116451760Y-59679499D01*
X116453101Y-59679572D01*
X116453405Y-59679679D01*
X116455048Y-59679856D01*
X116455006Y-59680243D01*
X116518998Y-59702798D01*
X116561877Y-59757963D01*
X116570500Y-59803396D01*
X116570500Y-60591442D01*
X116550815Y-60658481D01*
X116534181Y-60679123D01*
X116103577Y-61109727D01*
X116083727Y-61125848D01*
X116074419Y-61131929D01*
X116052359Y-61160272D01*
X116047281Y-61166024D01*
X116044424Y-61168881D01*
X116044420Y-61168885D01*
X116044419Y-61168887D01*
X116030705Y-61188093D01*
X116008992Y-61215990D01*
X115996623Y-61231883D01*
X115992849Y-61238857D01*
X115989345Y-61246023D01*
X115973520Y-61299182D01*
X115955499Y-61351674D01*
X115954192Y-61359507D01*
X115953207Y-61367408D01*
X115955500Y-61422824D01*
X115955500Y-61523499D01*
X115935815Y-61590538D01*
X115894450Y-61626380D01*
X115895854Y-61628481D01*
X115801514Y-61691516D01*
X115792880Y-61700151D01*
X115791536Y-61698807D01*
X115749484Y-61733948D01*
X115680159Y-61742652D01*
X115617133Y-61712494D01*
X115602004Y-61695035D01*
X115598485Y-61691516D01*
X115504147Y-61628481D01*
X115505901Y-61625855D01*
X115466640Y-61594213D01*
X115444579Y-61527918D01*
X115444500Y-61523499D01*
X115444500Y-61417220D01*
X115447139Y-61391775D01*
X115447801Y-61388611D01*
X115449419Y-61380900D01*
X115445757Y-61351521D01*
X115444977Y-61345260D01*
X115444500Y-61337584D01*
X115444500Y-61333560D01*
X115444498Y-61333547D01*
X115444496Y-61333537D01*
X115440616Y-61310284D01*
X115433752Y-61255217D01*
X115433750Y-61255213D01*
X115431484Y-61247598D01*
X115428901Y-61240075D01*
X115402502Y-61191294D01*
X115378126Y-61141432D01*
X115373541Y-61135009D01*
X115368620Y-61128686D01*
X115368619Y-61128684D01*
X115365538Y-61125848D01*
X115327814Y-61091120D01*
X114375819Y-60139124D01*
X114342334Y-60077801D01*
X114339500Y-60051443D01*
X114339500Y-59747513D01*
X114359185Y-59680474D01*
X114411989Y-59634719D01*
X114420167Y-59631331D01*
X114444264Y-59622343D01*
X114444263Y-59622343D01*
X114444267Y-59622342D01*
X114560404Y-59535404D01*
X114647342Y-59419267D01*
X114698040Y-59283342D01*
X114702142Y-59245186D01*
X114704499Y-59223271D01*
X114704499Y-59223264D01*
X114704500Y-59223255D01*
X114704499Y-56976746D01*
X114698040Y-56916658D01*
X114647342Y-56780733D01*
X114580231Y-56691082D01*
X114560404Y-56664595D01*
X114444266Y-56577657D01*
X114420165Y-56568668D01*
X114364232Y-56526797D01*
X114339816Y-56461332D01*
X114339500Y-56452487D01*
X114339500Y-56251387D01*
X114339525Y-56251301D01*
X114339525Y-56137878D01*
X114339525Y-56137875D01*
X114311874Y-56016740D01*
X114257959Y-55904797D01*
X114257958Y-55904796D01*
X114257958Y-55904795D01*
X114178767Y-55805506D01*
X114152354Y-55740821D01*
X114165106Y-55672125D01*
X114178754Y-55650884D01*
X114180521Y-55648667D01*
X114180523Y-55648666D01*
X114257992Y-55551502D01*
X114258316Y-55550830D01*
X114287981Y-55489202D01*
X114311891Y-55439531D01*
X114337927Y-55325337D01*
X114339443Y-55320015D01*
X114339516Y-55319580D01*
X114339512Y-55304834D01*
X114339500Y-55256240D01*
X114339500Y-55256175D01*
X114339500Y-54968557D01*
X114339500Y-54728498D01*
X114359185Y-54661460D01*
X114411989Y-54615705D01*
X114463500Y-54604499D01*
X114835064Y-54604499D01*
X114835066Y-54604499D01*
X114909301Y-54589734D01*
X114993484Y-54533484D01*
X115049734Y-54449301D01*
X115064500Y-54375067D01*
X115064499Y-52624934D01*
X115049734Y-52550699D01*
X115020571Y-52507054D01*
X114993484Y-52466515D01*
X114943019Y-52432796D01*
X114909301Y-52410266D01*
X114909299Y-52410265D01*
X114909296Y-52410264D01*
X114835069Y-52395500D01*
X113084936Y-52395500D01*
X113010698Y-52410266D01*
X112926515Y-52466515D01*
X112870266Y-52550699D01*
X112870264Y-52550703D01*
X112855500Y-52624928D01*
X112855500Y-54375063D01*
X111000500Y-54375063D01*
X111000500Y-49624500D01*
X111020185Y-49557461D01*
X111072989Y-49511706D01*
X111124500Y-49500500D01*
X159375500Y-49500500D01*
X159442539Y-49520185D01*
G37*
%TD.AperFunction*%
%TD*%
M02*
