%TF.GenerationSoftware,KiCad,Pcbnew,7.0.6*%
%TF.CreationDate,2024-04-09T21:05:34+03:00*%
%TF.ProjectId,ecu-emulator,6563752d-656d-4756-9c61-746f722e6b69,rev?*%
%TF.SameCoordinates,Original*%
%TF.FileFunction,Copper,L2,Bot*%
%TF.FilePolarity,Positive*%
%FSLAX46Y46*%
G04 Gerber Fmt 4.6, Leading zero omitted, Abs format (unit mm)*
G04 Created by KiCad (PCBNEW 7.0.6) date 2024-04-09 21:05:34*
%MOMM*%
%LPD*%
G01*
G04 APERTURE LIST*
%TA.AperFunction,ComponentPad*%
%ADD10R,3.000000X3.000000*%
%TD*%
%TA.AperFunction,ComponentPad*%
%ADD11C,3.000000*%
%TD*%
%TA.AperFunction,ComponentPad*%
%ADD12C,2.000000*%
%TD*%
%TA.AperFunction,ComponentPad*%
%ADD13R,1.700000X1.700000*%
%TD*%
%TA.AperFunction,ComponentPad*%
%ADD14O,1.700000X1.700000*%
%TD*%
%TA.AperFunction,ViaPad*%
%ADD15C,4.500000*%
%TD*%
%TA.AperFunction,ViaPad*%
%ADD16C,0.800000*%
%TD*%
%TA.AperFunction,Conductor*%
%ADD17C,0.500000*%
%TD*%
%TA.AperFunction,Conductor*%
%ADD18C,0.250000*%
%TD*%
G04 APERTURE END LIST*
D10*
%TO.P,OIL_TEMP1,1,1*%
%TO.N,3V3*%
X154450000Y-101900000D03*
D11*
%TO.P,OIL_TEMP1,2,2*%
%TO.N,ADC1*%
X154450000Y-96900000D03*
%TO.P,OIL_TEMP1,3,3*%
%TO.N,GND*%
X154450000Y-91900000D03*
%TD*%
D12*
%TO.P,LOW_BATT1,1,1*%
%TO.N,LOW_12VBAT_VOLTAGE*%
X113750000Y-97000000D03*
X120250000Y-97000000D03*
%TO.P,LOW_BATT1,2,2*%
%TO.N,GND*%
X113750000Y-101500000D03*
X120250000Y-101500000D03*
%TD*%
%TO.P,GEAR_SHIFT1,1,1*%
%TO.N,GEAR_SHIFT*%
X113850000Y-77700000D03*
X120350000Y-77700000D03*
%TO.P,GEAR_SHIFT1,2,2*%
%TO.N,GND*%
X113850000Y-82200000D03*
X120350000Y-82200000D03*
%TD*%
D10*
%TO.P,RPM1,1,1*%
%TO.N,3V3*%
X154400000Y-64150000D03*
D11*
%TO.P,RPM1,2,2*%
%TO.N,ADC0*%
X154400000Y-59150000D03*
%TO.P,RPM1,3,3*%
%TO.N,GND*%
X154400000Y-54150000D03*
%TD*%
D10*
%TO.P,COOLANT_TEMP1,1,1*%
%TO.N,3V3*%
X154450000Y-83100000D03*
D11*
%TO.P,COOLANT_TEMP1,2,2*%
%TO.N,ADC2*%
X154450000Y-78100000D03*
%TO.P,COOLANT_TEMP1,3,3*%
%TO.N,GND*%
X154450000Y-73100000D03*
%TD*%
D13*
%TO.P,J3,1,Pin_1*%
%TO.N,unconnected-(J3-Pin_1-Pad1)*%
X125600000Y-52980000D03*
D14*
%TO.P,J3,2,Pin_2*%
%TO.N,unconnected-(J3-Pin_2-Pad2)*%
X125600000Y-55520000D03*
%TO.P,J3,3,Pin_3*%
%TO.N,unconnected-(J3-Pin_3-Pad3)*%
X125600000Y-58060000D03*
%TO.P,J3,4,Pin_4*%
%TO.N,CAN_STATUS*%
X125600000Y-60600000D03*
%TO.P,J3,5,Pin_5*%
%TO.N,unconnected-(J3-Pin_5-Pad5)*%
X125600000Y-63140000D03*
%TO.P,J3,6,Pin_6*%
%TO.N,CAN_RX*%
X125600000Y-65680000D03*
%TO.P,J3,7,Pin_7*%
%TO.N,CAN_TX*%
X125600000Y-68220000D03*
%TO.P,J3,8,Pin_8*%
%TO.N,unconnected-(J3-Pin_8-Pad8)*%
X125600000Y-70760000D03*
%TO.P,J3,9,Pin_9*%
%TO.N,unconnected-(J3-Pin_9-Pad9)*%
X125600000Y-73300000D03*
%TO.P,J3,10,Pin_10*%
%TO.N,unconnected-(J3-Pin_10-Pad10)*%
X125600000Y-75840000D03*
%TO.P,J3,11,Pin_11*%
%TO.N,unconnected-(J3-Pin_11-Pad11)*%
X125600000Y-78380000D03*
%TO.P,J3,12,Pin_12*%
%TO.N,unconnected-(J3-Pin_12-Pad12)*%
X125600000Y-80920000D03*
%TO.P,J3,13,Pin_13*%
%TO.N,unconnected-(J3-Pin_13-Pad13)*%
X125600000Y-83460000D03*
%TO.P,J3,14,Pin_14*%
%TO.N,unconnected-(J3-Pin_14-Pad14)*%
X125600000Y-86000000D03*
%TO.P,J3,15,Pin_15*%
%TO.N,unconnected-(J3-Pin_15-Pad15)*%
X125600000Y-88540000D03*
%TO.P,J3,16,Pin_16*%
%TO.N,unconnected-(J3-Pin_16-Pad16)*%
X125600000Y-91080000D03*
%TO.P,J3,17,Pin_17*%
%TO.N,unconnected-(J3-Pin_17-Pad17)*%
X125600000Y-93620000D03*
%TO.P,J3,18,Pin_18*%
%TO.N,unconnected-(J3-Pin_18-Pad18)*%
X125600000Y-96160000D03*
%TO.P,J3,19,Pin_19*%
%TO.N,LOW_12VBAT_VOLTAGE*%
X125600000Y-98700000D03*
%TO.P,J3,20,Pin_20*%
%TO.N,LOW_OIL_PRESSURE*%
X125600000Y-101240000D03*
%TD*%
D13*
%TO.P,J2,1,Pin_1*%
%TO.N,5V*%
X143500000Y-53280000D03*
D14*
%TO.P,J2,2,Pin_2*%
%TO.N,GND*%
X143500000Y-55820000D03*
%TO.P,J2,3,Pin_3*%
%TO.N,unconnected-(J2-Pin_3-Pad3)*%
X143500000Y-58360000D03*
%TO.P,J2,4,Pin_4*%
%TO.N,unconnected-(J2-Pin_4-Pad4)*%
X143500000Y-60900000D03*
%TO.P,J2,5,Pin_5*%
%TO.N,3V3*%
X143500000Y-63440000D03*
%TO.P,J2,6,Pin_6*%
%TO.N,unconnected-(J2-Pin_6-Pad6)*%
X143500000Y-65980000D03*
%TO.P,J2,7,Pin_7*%
%TO.N,ADC0*%
X143500000Y-68520000D03*
%TO.P,J2,8,Pin_8*%
%TO.N,ADC1*%
X143500000Y-71060000D03*
%TO.P,J2,9,Pin_9*%
%TO.N,ADC2*%
X143500000Y-73600000D03*
%TO.P,J2,10,Pin_10*%
%TO.N,unconnected-(J2-Pin_10-Pad10)*%
X143500000Y-76140000D03*
%TO.P,J2,11,Pin_11*%
%TO.N,GEAR_SHIFT*%
X143500000Y-78680000D03*
%TO.P,J2,12,Pin_12*%
%TO.N,unconnected-(J2-Pin_12-Pad12)*%
X143500000Y-81220000D03*
%TO.P,J2,13,Pin_13*%
%TO.N,GND*%
X143500000Y-83760000D03*
%TO.P,J2,14,Pin_14*%
%TO.N,unconnected-(J2-Pin_14-Pad14)*%
X143500000Y-86300000D03*
%TO.P,J2,15,Pin_15*%
%TO.N,unconnected-(J2-Pin_15-Pad15)*%
X143500000Y-88840000D03*
%TO.P,J2,16,Pin_16*%
%TO.N,unconnected-(J2-Pin_16-Pad16)*%
X143500000Y-91380000D03*
%TO.P,J2,17,Pin_17*%
%TO.N,unconnected-(J2-Pin_17-Pad17)*%
X143500000Y-93920000D03*
%TO.P,J2,18,Pin_18*%
%TO.N,unconnected-(J2-Pin_18-Pad18)*%
X143500000Y-96460000D03*
%TO.P,J2,19,Pin_19*%
%TO.N,unconnected-(J2-Pin_19-Pad19)*%
X143500000Y-99000000D03*
%TO.P,J2,20,Pin_20*%
%TO.N,unconnected-(J2-Pin_20-Pad20)*%
X143500000Y-101540000D03*
%TD*%
D13*
%TO.P,J1,1,Pin_1*%
%TO.N,CAN_H*%
X113960000Y-53500000D03*
D14*
%TO.P,J1,2,Pin_2*%
%TO.N,CAN_L*%
X116500000Y-53500000D03*
%TO.P,J1,3,Pin_3*%
%TO.N,GND*%
X119040000Y-53500000D03*
%TD*%
D12*
%TO.P,LOW_OIL1,1,1*%
%TO.N,LOW_OIL_PRESSURE*%
X113800000Y-87600000D03*
X120300000Y-87600000D03*
%TO.P,LOW_OIL1,2,2*%
%TO.N,GND*%
X113800000Y-92100000D03*
X120300000Y-92100000D03*
%TD*%
D15*
%TO.N,GND*%
X139000000Y-67000000D03*
X133000000Y-99000000D03*
D16*
X121250000Y-61300000D03*
D15*
X133000000Y-59000000D03*
D16*
%TO.N,3V3*%
X147550000Y-64200000D03*
X150750000Y-64200000D03*
X118675500Y-60450000D03*
X120250000Y-59300000D03*
%TO.N,ADC1*%
X146400000Y-76300000D03*
X146350000Y-73050000D03*
%TO.N,CAN_STATUS*%
X122700000Y-61950000D03*
X121500000Y-67700000D03*
%TO.N,LOW_OIL_PRESSURE*%
X122850000Y-96750000D03*
X122862701Y-98837299D03*
%TD*%
D17*
%TO.N,3V3*%
X150750000Y-64200000D02*
X147550000Y-64200000D01*
D18*
X120250000Y-59300000D02*
X119825500Y-59300000D01*
X119825500Y-59300000D02*
X118675500Y-60450000D01*
%TO.N,ADC1*%
X146400000Y-73100000D02*
X146350000Y-73050000D01*
X146400000Y-76300000D02*
X146400000Y-73100000D01*
%TO.N,CAN_STATUS*%
X122700000Y-61950000D02*
X121500000Y-63150000D01*
X121500000Y-63150000D02*
X121500000Y-67700000D01*
%TO.N,LOW_OIL_PRESSURE*%
X122850000Y-96750000D02*
X122862701Y-96762701D01*
X122862701Y-96762701D02*
X122862701Y-98837299D01*
%TD*%
%TA.AperFunction,Conductor*%
%TO.N,GND*%
G36*
X159442539Y-49520185D02*
G01*
X159488294Y-49572989D01*
X159499500Y-49624500D01*
X159499500Y-107875500D01*
X159479815Y-107942539D01*
X159427011Y-107988294D01*
X159375500Y-107999500D01*
X111124500Y-107999500D01*
X111057461Y-107979815D01*
X111011706Y-107927011D01*
X111000500Y-107875500D01*
X111000500Y-103425063D01*
X152695500Y-103425063D01*
X152710266Y-103499301D01*
X152766515Y-103583484D01*
X152800234Y-103606014D01*
X152850699Y-103639734D01*
X152850702Y-103639734D01*
X152850703Y-103639735D01*
X152875666Y-103644700D01*
X152924933Y-103654500D01*
X155975066Y-103654499D01*
X156049301Y-103639734D01*
X156133484Y-103583484D01*
X156189734Y-103499301D01*
X156204500Y-103425067D01*
X156204499Y-100374934D01*
X156189734Y-100300699D01*
X156153891Y-100247057D01*
X156133484Y-100216515D01*
X156083019Y-100182796D01*
X156049301Y-100160266D01*
X156049299Y-100160265D01*
X156049296Y-100160264D01*
X155975069Y-100145500D01*
X152924936Y-100145500D01*
X152850698Y-100160266D01*
X152766515Y-100216515D01*
X152710266Y-100300699D01*
X152710264Y-100300703D01*
X152695500Y-100374928D01*
X152695500Y-103425063D01*
X111000500Y-103425063D01*
X111000500Y-101500005D01*
X112244858Y-101500005D01*
X112265385Y-101747729D01*
X112265387Y-101747738D01*
X112326412Y-101988717D01*
X112426266Y-102216364D01*
X112526564Y-102369882D01*
X113224070Y-101672375D01*
X113226884Y-101685915D01*
X113296442Y-101820156D01*
X113399638Y-101930652D01*
X113528819Y-102009209D01*
X113580002Y-102023549D01*
X112879942Y-102723609D01*
X112926768Y-102760055D01*
X112926770Y-102760056D01*
X113145385Y-102878364D01*
X113145396Y-102878369D01*
X113380506Y-102959083D01*
X113625707Y-103000000D01*
X113874293Y-103000000D01*
X114119493Y-102959083D01*
X114354603Y-102878369D01*
X114354614Y-102878364D01*
X114573228Y-102760057D01*
X114573231Y-102760055D01*
X114620056Y-102723609D01*
X113921568Y-102025121D01*
X114038458Y-101974349D01*
X114155739Y-101878934D01*
X114242928Y-101755415D01*
X114273354Y-101669802D01*
X114973434Y-102369882D01*
X115073731Y-102216369D01*
X115173587Y-101988717D01*
X115234612Y-101747738D01*
X115234614Y-101747729D01*
X115255141Y-101500005D01*
X118744858Y-101500005D01*
X118765385Y-101747729D01*
X118765387Y-101747738D01*
X118826412Y-101988717D01*
X118926266Y-102216364D01*
X119026564Y-102369882D01*
X119724070Y-101672376D01*
X119726884Y-101685915D01*
X119796442Y-101820156D01*
X119899638Y-101930652D01*
X120028819Y-102009209D01*
X120080002Y-102023549D01*
X119379942Y-102723609D01*
X119426768Y-102760055D01*
X119426770Y-102760056D01*
X119645385Y-102878364D01*
X119645396Y-102878369D01*
X119880506Y-102959083D01*
X120125707Y-103000000D01*
X120374293Y-103000000D01*
X120619493Y-102959083D01*
X120854603Y-102878369D01*
X120854614Y-102878364D01*
X121073228Y-102760057D01*
X121073231Y-102760055D01*
X121120056Y-102723609D01*
X120421568Y-102025121D01*
X120538458Y-101974349D01*
X120655739Y-101878934D01*
X120742928Y-101755415D01*
X120773355Y-101669801D01*
X121473434Y-102369882D01*
X121573731Y-102216369D01*
X121673587Y-101988717D01*
X121734612Y-101747738D01*
X121734614Y-101747729D01*
X121755141Y-101500005D01*
X121755141Y-101499994D01*
X121734614Y-101252270D01*
X121734612Y-101252261D01*
X121731507Y-101240000D01*
X124490768Y-101240000D01*
X124509654Y-101443816D01*
X124509654Y-101443818D01*
X124509655Y-101443821D01*
X124525641Y-101500005D01*
X124565673Y-101640704D01*
X124656912Y-101823935D01*
X124780269Y-101987287D01*
X124931537Y-102125185D01*
X124931539Y-102125187D01*
X125105569Y-102232942D01*
X125105575Y-102232945D01*
X125146010Y-102248609D01*
X125296444Y-102306888D01*
X125497653Y-102344500D01*
X125497656Y-102344500D01*
X125702344Y-102344500D01*
X125702347Y-102344500D01*
X125903556Y-102306888D01*
X126094427Y-102232944D01*
X126268462Y-102125186D01*
X126419732Y-101987285D01*
X126543088Y-101823935D01*
X126634328Y-101640701D01*
X126662980Y-101540000D01*
X142390768Y-101540000D01*
X142409654Y-101743816D01*
X142409654Y-101743818D01*
X142409655Y-101743821D01*
X142448098Y-101878934D01*
X142465673Y-101940704D01*
X142556912Y-102123935D01*
X142680269Y-102287287D01*
X142831537Y-102425185D01*
X142831539Y-102425187D01*
X143005569Y-102532942D01*
X143005575Y-102532945D01*
X143046010Y-102548609D01*
X143196444Y-102606888D01*
X143397653Y-102644500D01*
X143397656Y-102644500D01*
X143602344Y-102644500D01*
X143602347Y-102644500D01*
X143803556Y-102606888D01*
X143994427Y-102532944D01*
X144168462Y-102425186D01*
X144319732Y-102287285D01*
X144443088Y-102123935D01*
X144534328Y-101940701D01*
X144590345Y-101743821D01*
X144609232Y-101540000D01*
X144590345Y-101336179D01*
X144534328Y-101139299D01*
X144443088Y-100956065D01*
X144319732Y-100792715D01*
X144319730Y-100792712D01*
X144168462Y-100654814D01*
X144168460Y-100654812D01*
X143994430Y-100547057D01*
X143994424Y-100547054D01*
X143843993Y-100488777D01*
X143803556Y-100473112D01*
X143602347Y-100435500D01*
X143397653Y-100435500D01*
X143196444Y-100473112D01*
X143196441Y-100473112D01*
X143196441Y-100473113D01*
X143005575Y-100547054D01*
X143005569Y-100547057D01*
X142831539Y-100654812D01*
X142831537Y-100654814D01*
X142680269Y-100792712D01*
X142556912Y-100956064D01*
X142465673Y-101139295D01*
X142409654Y-101336183D01*
X142390768Y-101539999D01*
X142390768Y-101540000D01*
X126662980Y-101540000D01*
X126690345Y-101443821D01*
X126709232Y-101240000D01*
X126690345Y-101036179D01*
X126634328Y-100839299D01*
X126543088Y-100656065D01*
X126419732Y-100492715D01*
X126419730Y-100492712D01*
X126268462Y-100354814D01*
X126268460Y-100354812D01*
X126094430Y-100247057D01*
X126094424Y-100247054D01*
X125943993Y-100188777D01*
X125903556Y-100173112D01*
X125702347Y-100135500D01*
X125497653Y-100135500D01*
X125296444Y-100173112D01*
X125296441Y-100173112D01*
X125296441Y-100173113D01*
X125105575Y-100247054D01*
X125105569Y-100247057D01*
X124931539Y-100354812D01*
X124931537Y-100354814D01*
X124780269Y-100492712D01*
X124656912Y-100656064D01*
X124565673Y-100839295D01*
X124565671Y-100839299D01*
X124565672Y-100839299D01*
X124512651Y-101025651D01*
X124509654Y-101036183D01*
X124490768Y-101239999D01*
X124490768Y-101240000D01*
X121731507Y-101240000D01*
X121673587Y-101011282D01*
X121573731Y-100783630D01*
X121473434Y-100630116D01*
X120775928Y-101327621D01*
X120773116Y-101314085D01*
X120703558Y-101179844D01*
X120600362Y-101069348D01*
X120471181Y-100990791D01*
X120419997Y-100976450D01*
X121120057Y-100276390D01*
X121120056Y-100276389D01*
X121073229Y-100239943D01*
X120854614Y-100121635D01*
X120854603Y-100121630D01*
X120619493Y-100040916D01*
X120374293Y-100000000D01*
X120125707Y-100000000D01*
X119880506Y-100040916D01*
X119645396Y-100121630D01*
X119645390Y-100121632D01*
X119426761Y-100239949D01*
X119379942Y-100276388D01*
X119379942Y-100276390D01*
X120078431Y-100974878D01*
X119961542Y-101025651D01*
X119844261Y-101121066D01*
X119757072Y-101244585D01*
X119726645Y-101330197D01*
X119026564Y-100630116D01*
X118926267Y-100783632D01*
X118826412Y-101011282D01*
X118765387Y-101252261D01*
X118765385Y-101252270D01*
X118744858Y-101499994D01*
X118744858Y-101500005D01*
X115255141Y-101500005D01*
X115255141Y-101499994D01*
X115234614Y-101252270D01*
X115234612Y-101252261D01*
X115173587Y-101011282D01*
X115073731Y-100783630D01*
X114973434Y-100630116D01*
X114275928Y-101327621D01*
X114273116Y-101314085D01*
X114203558Y-101179844D01*
X114100362Y-101069348D01*
X113971181Y-100990791D01*
X113919997Y-100976450D01*
X114620057Y-100276390D01*
X114620056Y-100276389D01*
X114573229Y-100239943D01*
X114354614Y-100121635D01*
X114354603Y-100121630D01*
X114119493Y-100040916D01*
X113874293Y-100000000D01*
X113625707Y-100000000D01*
X113380506Y-100040916D01*
X113145396Y-100121630D01*
X113145390Y-100121632D01*
X112926761Y-100239949D01*
X112879942Y-100276388D01*
X112879942Y-100276390D01*
X113578431Y-100974878D01*
X113461542Y-101025651D01*
X113344261Y-101121066D01*
X113257072Y-101244585D01*
X113226645Y-101330197D01*
X112526564Y-100630116D01*
X112426267Y-100783632D01*
X112326412Y-101011282D01*
X112265387Y-101252261D01*
X112265385Y-101252270D01*
X112244858Y-101499994D01*
X112244858Y-101500005D01*
X111000500Y-101500005D01*
X111000500Y-97000002D01*
X112490708Y-97000002D01*
X112508842Y-97207287D01*
X112509839Y-97218674D01*
X112566653Y-97430703D01*
X112566654Y-97430706D01*
X112566655Y-97430708D01*
X112659419Y-97629642D01*
X112659423Y-97629650D01*
X112785322Y-97809452D01*
X112785327Y-97809458D01*
X112940541Y-97964672D01*
X112940547Y-97964677D01*
X113120349Y-98090576D01*
X113120351Y-98090577D01*
X113120354Y-98090579D01*
X113319297Y-98183347D01*
X113531326Y-98240161D01*
X113674823Y-98252715D01*
X113749998Y-98259292D01*
X113750000Y-98259292D01*
X113750002Y-98259292D01*
X113825177Y-98252715D01*
X113968674Y-98240161D01*
X114180703Y-98183347D01*
X114379646Y-98090579D01*
X114559457Y-97964674D01*
X114714674Y-97809457D01*
X114840579Y-97629646D01*
X114933347Y-97430703D01*
X114990161Y-97218674D01*
X115009292Y-97000002D01*
X118990708Y-97000002D01*
X119008842Y-97207287D01*
X119009839Y-97218674D01*
X119066653Y-97430703D01*
X119066654Y-97430706D01*
X119066655Y-97430708D01*
X119159419Y-97629642D01*
X119159423Y-97629650D01*
X119285322Y-97809452D01*
X119285327Y-97809458D01*
X119440541Y-97964672D01*
X119440547Y-97964677D01*
X119620349Y-98090576D01*
X119620351Y-98090577D01*
X119620354Y-98090579D01*
X119819297Y-98183347D01*
X120031326Y-98240161D01*
X120174823Y-98252715D01*
X120249998Y-98259292D01*
X120250000Y-98259292D01*
X120250002Y-98259292D01*
X120325177Y-98252715D01*
X120468674Y-98240161D01*
X120680703Y-98183347D01*
X120879646Y-98090579D01*
X121059457Y-97964674D01*
X121214674Y-97809457D01*
X121340579Y-97629646D01*
X121433347Y-97430703D01*
X121490161Y-97218674D01*
X121509292Y-97000000D01*
X121490161Y-96781326D01*
X121481767Y-96750000D01*
X122190693Y-96750000D01*
X122209850Y-96907781D01*
X122244824Y-96999997D01*
X122266213Y-97056395D01*
X122356502Y-97187201D01*
X122441429Y-97262440D01*
X122478554Y-97321627D01*
X122483200Y-97355253D01*
X122483200Y-98243295D01*
X122463515Y-98310334D01*
X122441429Y-98336109D01*
X122369204Y-98400096D01*
X122369201Y-98400100D01*
X122278915Y-98530901D01*
X122222551Y-98679517D01*
X122203394Y-98837298D01*
X122203394Y-98837299D01*
X122222551Y-98995080D01*
X122262609Y-99100701D01*
X122278914Y-99143694D01*
X122369203Y-99274500D01*
X122369205Y-99274502D01*
X122369207Y-99274504D01*
X122488170Y-99379897D01*
X122488172Y-99379898D01*
X122628908Y-99453762D01*
X122706068Y-99472780D01*
X122783229Y-99491799D01*
X122783230Y-99491799D01*
X122942173Y-99491799D01*
X122993612Y-99479119D01*
X123096494Y-99453762D01*
X123237230Y-99379898D01*
X123356199Y-99274500D01*
X123446488Y-99143694D01*
X123502850Y-98995081D01*
X123522008Y-98837299D01*
X123505337Y-98700000D01*
X124490768Y-98700000D01*
X124509654Y-98903816D01*
X124509654Y-98903818D01*
X124509655Y-98903821D01*
X124535621Y-98995081D01*
X124565673Y-99100704D01*
X124656912Y-99283935D01*
X124780269Y-99447287D01*
X124931537Y-99585185D01*
X124931539Y-99585187D01*
X125105569Y-99692942D01*
X125105575Y-99692945D01*
X125146010Y-99708609D01*
X125296444Y-99766888D01*
X125497653Y-99804500D01*
X125497656Y-99804500D01*
X125702344Y-99804500D01*
X125702347Y-99804500D01*
X125903556Y-99766888D01*
X126094427Y-99692944D01*
X126268462Y-99585186D01*
X126419732Y-99447285D01*
X126543088Y-99283935D01*
X126634328Y-99100701D01*
X126662980Y-99000000D01*
X142390768Y-99000000D01*
X142409654Y-99203816D01*
X142409654Y-99203818D01*
X142409655Y-99203821D01*
X142459753Y-99379897D01*
X142465673Y-99400704D01*
X142556912Y-99583935D01*
X142680269Y-99747287D01*
X142831537Y-99885185D01*
X142831539Y-99885187D01*
X143005569Y-99992942D01*
X143005575Y-99992945D01*
X143046010Y-100008609D01*
X143196444Y-100066888D01*
X143397653Y-100104500D01*
X143397656Y-100104500D01*
X143602344Y-100104500D01*
X143602347Y-100104500D01*
X143803556Y-100066888D01*
X143994427Y-99992944D01*
X144168462Y-99885186D01*
X144319732Y-99747285D01*
X144443088Y-99583935D01*
X144534328Y-99400701D01*
X144590345Y-99203821D01*
X144609232Y-99000000D01*
X144590345Y-98796179D01*
X144534328Y-98599299D01*
X144443088Y-98416065D01*
X144319732Y-98252715D01*
X144319730Y-98252712D01*
X144168462Y-98114814D01*
X144168460Y-98114812D01*
X143994430Y-98007057D01*
X143994424Y-98007054D01*
X143843993Y-97948777D01*
X143803556Y-97933112D01*
X143602347Y-97895500D01*
X143397653Y-97895500D01*
X143196444Y-97933112D01*
X143196441Y-97933112D01*
X143196441Y-97933113D01*
X143005575Y-98007054D01*
X143005569Y-98007057D01*
X142831539Y-98114812D01*
X142831537Y-98114814D01*
X142680269Y-98252712D01*
X142556912Y-98416064D01*
X142465673Y-98599295D01*
X142409654Y-98796183D01*
X142390768Y-98999999D01*
X142390768Y-99000000D01*
X126662980Y-99000000D01*
X126690345Y-98903821D01*
X126709232Y-98700000D01*
X126690345Y-98496179D01*
X126634328Y-98299299D01*
X126543088Y-98116065D01*
X126428763Y-97964674D01*
X126419730Y-97952712D01*
X126268462Y-97814814D01*
X126268460Y-97814812D01*
X126094430Y-97707057D01*
X126094424Y-97707054D01*
X125943993Y-97648777D01*
X125903556Y-97633112D01*
X125702347Y-97595500D01*
X125497653Y-97595500D01*
X125296444Y-97633112D01*
X125296441Y-97633112D01*
X125296441Y-97633113D01*
X125105575Y-97707054D01*
X125105569Y-97707057D01*
X124931539Y-97814812D01*
X124931537Y-97814814D01*
X124780269Y-97952712D01*
X124656912Y-98116064D01*
X124565673Y-98299295D01*
X124509654Y-98496183D01*
X124490768Y-98699999D01*
X124490768Y-98700000D01*
X123505337Y-98700000D01*
X123502850Y-98679517D01*
X123446488Y-98530904D01*
X123356199Y-98400098D01*
X123356195Y-98400095D01*
X123356193Y-98400092D01*
X123283973Y-98336109D01*
X123246847Y-98276919D01*
X123242201Y-98243295D01*
X123242201Y-97332749D01*
X123261886Y-97265710D01*
X123283972Y-97239935D01*
X123343498Y-97187201D01*
X123433787Y-97056395D01*
X123490149Y-96907782D01*
X123509307Y-96750000D01*
X123490149Y-96592218D01*
X123433787Y-96443605D01*
X123343498Y-96312799D01*
X123343495Y-96312796D01*
X123343493Y-96312794D01*
X123224530Y-96207401D01*
X123134215Y-96160000D01*
X124490768Y-96160000D01*
X124509654Y-96363816D01*
X124509654Y-96363818D01*
X124509655Y-96363821D01*
X124537020Y-96459999D01*
X124565673Y-96560704D01*
X124656912Y-96743935D01*
X124780269Y-96907287D01*
X124931537Y-97045185D01*
X124931539Y-97045187D01*
X125105569Y-97152942D01*
X125105575Y-97152945D01*
X125146010Y-97168609D01*
X125296444Y-97226888D01*
X125497653Y-97264500D01*
X125497656Y-97264500D01*
X125702344Y-97264500D01*
X125702347Y-97264500D01*
X125903556Y-97226888D01*
X126094427Y-97152944D01*
X126268462Y-97045186D01*
X126419732Y-96907285D01*
X126543088Y-96743935D01*
X126634328Y-96560701D01*
X126662980Y-96460000D01*
X142390768Y-96460000D01*
X142409654Y-96663816D01*
X142409654Y-96663818D01*
X142409655Y-96663821D01*
X142465672Y-96860701D01*
X142465673Y-96860704D01*
X142556912Y-97043935D01*
X142680269Y-97207287D01*
X142831537Y-97345185D01*
X142831539Y-97345187D01*
X143005569Y-97452942D01*
X143005575Y-97452945D01*
X143046010Y-97468609D01*
X143196444Y-97526888D01*
X143397653Y-97564500D01*
X143397656Y-97564500D01*
X143602344Y-97564500D01*
X143602347Y-97564500D01*
X143803556Y-97526888D01*
X143994427Y-97452944D01*
X144168462Y-97345186D01*
X144307239Y-97218674D01*
X144319730Y-97207287D01*
X144319732Y-97207285D01*
X144443088Y-97043935D01*
X144514757Y-96900004D01*
X152690580Y-96900004D01*
X152710229Y-97162218D01*
X152710230Y-97162223D01*
X152768742Y-97418584D01*
X152768744Y-97418593D01*
X152768746Y-97418598D01*
X152864817Y-97663384D01*
X152996299Y-97891117D01*
X153160254Y-98096710D01*
X153353020Y-98275570D01*
X153570290Y-98423702D01*
X153807212Y-98537798D01*
X154058492Y-98615308D01*
X154058493Y-98615308D01*
X154058496Y-98615309D01*
X154318510Y-98654499D01*
X154318515Y-98654499D01*
X154318518Y-98654500D01*
X154318519Y-98654500D01*
X154581481Y-98654500D01*
X154581482Y-98654500D01*
X154581489Y-98654499D01*
X154841503Y-98615309D01*
X154841504Y-98615308D01*
X154841508Y-98615308D01*
X155092788Y-98537798D01*
X155329710Y-98423702D01*
X155546980Y-98275570D01*
X155739746Y-98096710D01*
X155903701Y-97891117D01*
X156035183Y-97663384D01*
X156131254Y-97418598D01*
X156189769Y-97162228D01*
X156201926Y-97000000D01*
X156209420Y-96900004D01*
X156209420Y-96899995D01*
X156189770Y-96637781D01*
X156189769Y-96637776D01*
X156189769Y-96637772D01*
X156131254Y-96381402D01*
X156035183Y-96136616D01*
X155903701Y-95908883D01*
X155739746Y-95703290D01*
X155546980Y-95524430D01*
X155329710Y-95376298D01*
X155329707Y-95376297D01*
X155329705Y-95376295D01*
X155092788Y-95262202D01*
X154841509Y-95184692D01*
X154841503Y-95184690D01*
X154581489Y-95145500D01*
X154581482Y-95145500D01*
X154318518Y-95145500D01*
X154318510Y-95145500D01*
X154058496Y-95184690D01*
X154058490Y-95184692D01*
X153807211Y-95262202D01*
X153570294Y-95376295D01*
X153353019Y-95524430D01*
X153160256Y-95703288D01*
X153160254Y-95703290D01*
X152996299Y-95908883D01*
X152864817Y-96136615D01*
X152768748Y-96381396D01*
X152768742Y-96381415D01*
X152710230Y-96637776D01*
X152710229Y-96637781D01*
X152690580Y-96899995D01*
X152690580Y-96900004D01*
X144514757Y-96900004D01*
X144534328Y-96860701D01*
X144590345Y-96663821D01*
X144609232Y-96460000D01*
X144607712Y-96443602D01*
X144600925Y-96370354D01*
X144590345Y-96256179D01*
X144534328Y-96059299D01*
X144443088Y-95876065D01*
X144319732Y-95712715D01*
X144319730Y-95712712D01*
X144168462Y-95574814D01*
X144168460Y-95574812D01*
X143994430Y-95467057D01*
X143994424Y-95467054D01*
X143843993Y-95408777D01*
X143803556Y-95393112D01*
X143602347Y-95355500D01*
X143397653Y-95355500D01*
X143196444Y-95393112D01*
X143196441Y-95393112D01*
X143196441Y-95393113D01*
X143005575Y-95467054D01*
X143005569Y-95467057D01*
X142831539Y-95574812D01*
X142831537Y-95574814D01*
X142680269Y-95712712D01*
X142556912Y-95876064D01*
X142465673Y-96059295D01*
X142465671Y-96059299D01*
X142465672Y-96059299D01*
X142423534Y-96207401D01*
X142409654Y-96256183D01*
X142390768Y-96459999D01*
X142390768Y-96460000D01*
X126662980Y-96460000D01*
X126690345Y-96363821D01*
X126709232Y-96160000D01*
X126690345Y-95956179D01*
X126634328Y-95759299D01*
X126543088Y-95576065D01*
X126419732Y-95412715D01*
X126419730Y-95412712D01*
X126268462Y-95274814D01*
X126268460Y-95274812D01*
X126094430Y-95167057D01*
X126094424Y-95167054D01*
X125943993Y-95108777D01*
X125903556Y-95093112D01*
X125702347Y-95055500D01*
X125497653Y-95055500D01*
X125296444Y-95093112D01*
X125296441Y-95093112D01*
X125296441Y-95093113D01*
X125105575Y-95167054D01*
X125105569Y-95167057D01*
X124931539Y-95274812D01*
X124931537Y-95274814D01*
X124780269Y-95412712D01*
X124656912Y-95576064D01*
X124565673Y-95759295D01*
X124509654Y-95956183D01*
X124490768Y-96159999D01*
X124490768Y-96160000D01*
X123134215Y-96160000D01*
X123095961Y-96139923D01*
X123083793Y-96133537D01*
X123083792Y-96133536D01*
X123083791Y-96133536D01*
X122929472Y-96095500D01*
X122929471Y-96095500D01*
X122770529Y-96095500D01*
X122770528Y-96095500D01*
X122616208Y-96133536D01*
X122475469Y-96207401D01*
X122356506Y-96312794D01*
X122356500Y-96312801D01*
X122266214Y-96443602D01*
X122209850Y-96592218D01*
X122190693Y-96749999D01*
X122190693Y-96750000D01*
X121481767Y-96750000D01*
X121433347Y-96569297D01*
X121340579Y-96370354D01*
X121340577Y-96370351D01*
X121340576Y-96370349D01*
X121214677Y-96190547D01*
X121214672Y-96190541D01*
X121059458Y-96035327D01*
X121059452Y-96035322D01*
X120879650Y-95909423D01*
X120879642Y-95909419D01*
X120680708Y-95816655D01*
X120680706Y-95816654D01*
X120680703Y-95816653D01*
X120529885Y-95776240D01*
X120468675Y-95759839D01*
X120468668Y-95759838D01*
X120250002Y-95740708D01*
X120249998Y-95740708D01*
X120031331Y-95759838D01*
X120031324Y-95759839D01*
X119908902Y-95792642D01*
X119819297Y-95816653D01*
X119819295Y-95816653D01*
X119819291Y-95816655D01*
X119620357Y-95909419D01*
X119620349Y-95909423D01*
X119440547Y-96035322D01*
X119440541Y-96035327D01*
X119285327Y-96190541D01*
X119285322Y-96190547D01*
X119159423Y-96370349D01*
X119159419Y-96370357D01*
X119066655Y-96569291D01*
X119066653Y-96569295D01*
X119066653Y-96569297D01*
X119042642Y-96658902D01*
X119009839Y-96781324D01*
X119009838Y-96781331D01*
X118990708Y-96999997D01*
X118990708Y-97000002D01*
X115009292Y-97000002D01*
X115009292Y-97000000D01*
X114990161Y-96781326D01*
X114933347Y-96569297D01*
X114840579Y-96370354D01*
X114840577Y-96370351D01*
X114840576Y-96370349D01*
X114714677Y-96190547D01*
X114714672Y-96190541D01*
X114559458Y-96035327D01*
X114559452Y-96035322D01*
X114379650Y-95909423D01*
X114379642Y-95909419D01*
X114180708Y-95816655D01*
X114180706Y-95816654D01*
X114180703Y-95816653D01*
X114029885Y-95776240D01*
X113968675Y-95759839D01*
X113968668Y-95759838D01*
X113750002Y-95740708D01*
X113749998Y-95740708D01*
X113531331Y-95759838D01*
X113531324Y-95759839D01*
X113408902Y-95792642D01*
X113319297Y-95816653D01*
X113319295Y-95816653D01*
X113319291Y-95816655D01*
X113120357Y-95909419D01*
X113120349Y-95909423D01*
X112940547Y-96035322D01*
X112940541Y-96035327D01*
X112785327Y-96190541D01*
X112785322Y-96190547D01*
X112659423Y-96370349D01*
X112659419Y-96370357D01*
X112566655Y-96569291D01*
X112566653Y-96569295D01*
X112566653Y-96569297D01*
X112542642Y-96658902D01*
X112509839Y-96781324D01*
X112509838Y-96781331D01*
X112490708Y-96999997D01*
X112490708Y-97000002D01*
X111000500Y-97000002D01*
X111000500Y-93620000D01*
X124490768Y-93620000D01*
X124509654Y-93823816D01*
X124509654Y-93823818D01*
X124509655Y-93823821D01*
X124537020Y-93919999D01*
X124565673Y-94020704D01*
X124656912Y-94203935D01*
X124780269Y-94367287D01*
X124931537Y-94505185D01*
X124931539Y-94505187D01*
X125105569Y-94612942D01*
X125105575Y-94612945D01*
X125146010Y-94628609D01*
X125296444Y-94686888D01*
X125497653Y-94724500D01*
X125497656Y-94724500D01*
X125702344Y-94724500D01*
X125702347Y-94724500D01*
X125903556Y-94686888D01*
X126094427Y-94612944D01*
X126268462Y-94505186D01*
X126419732Y-94367285D01*
X126543088Y-94203935D01*
X126634328Y-94020701D01*
X126662980Y-93920000D01*
X142390768Y-93920000D01*
X142409654Y-94123816D01*
X142409654Y-94123818D01*
X142409655Y-94123821D01*
X142465672Y-94320701D01*
X142465673Y-94320704D01*
X142556912Y-94503935D01*
X142680269Y-94667287D01*
X142831537Y-94805185D01*
X142831539Y-94805187D01*
X143005569Y-94912942D01*
X143005575Y-94912945D01*
X143046010Y-94928609D01*
X143196444Y-94986888D01*
X143397653Y-95024500D01*
X143397656Y-95024500D01*
X143602344Y-95024500D01*
X143602347Y-95024500D01*
X143803556Y-94986888D01*
X143994427Y-94912944D01*
X144168462Y-94805186D01*
X144319732Y-94667285D01*
X144443088Y-94503935D01*
X144534328Y-94320701D01*
X144590345Y-94123821D01*
X144609232Y-93920000D01*
X144590345Y-93716179D01*
X144534328Y-93519299D01*
X144443088Y-93336065D01*
X144319732Y-93172715D01*
X144319730Y-93172712D01*
X144168462Y-93034814D01*
X144168460Y-93034812D01*
X143994430Y-92927057D01*
X143994424Y-92927054D01*
X143843993Y-92868777D01*
X143803556Y-92853112D01*
X143602347Y-92815500D01*
X143397653Y-92815500D01*
X143196444Y-92853112D01*
X143196441Y-92853112D01*
X143196441Y-92853113D01*
X143005575Y-92927054D01*
X143005569Y-92927057D01*
X142831539Y-93034812D01*
X142831537Y-93034814D01*
X142680269Y-93172712D01*
X142556912Y-93336064D01*
X142465673Y-93519295D01*
X142409654Y-93716183D01*
X142390768Y-93919999D01*
X142390768Y-93920000D01*
X126662980Y-93920000D01*
X126690345Y-93823821D01*
X126709232Y-93620000D01*
X126690345Y-93416179D01*
X126634328Y-93219299D01*
X126543088Y-93036065D01*
X126419732Y-92872715D01*
X126419730Y-92872712D01*
X126268462Y-92734814D01*
X126268460Y-92734812D01*
X126094430Y-92627057D01*
X126094424Y-92627054D01*
X125943993Y-92568777D01*
X125903556Y-92553112D01*
X125702347Y-92515500D01*
X125497653Y-92515500D01*
X125296444Y-92553112D01*
X125296441Y-92553112D01*
X125296441Y-92553113D01*
X125105575Y-92627054D01*
X125105569Y-92627057D01*
X124931539Y-92734812D01*
X124931537Y-92734814D01*
X124780269Y-92872712D01*
X124656912Y-93036064D01*
X124565673Y-93219295D01*
X124509654Y-93416183D01*
X124490768Y-93619999D01*
X124490768Y-93620000D01*
X111000500Y-93620000D01*
X111000500Y-92100005D01*
X112294858Y-92100005D01*
X112315385Y-92347729D01*
X112315387Y-92347738D01*
X112376412Y-92588717D01*
X112476266Y-92816364D01*
X112576564Y-92969882D01*
X113274070Y-92272376D01*
X113276884Y-92285915D01*
X113346442Y-92420156D01*
X113449638Y-92530652D01*
X113578819Y-92609209D01*
X113630002Y-92623549D01*
X112929942Y-93323609D01*
X112976768Y-93360055D01*
X112976770Y-93360056D01*
X113195385Y-93478364D01*
X113195396Y-93478369D01*
X113430506Y-93559083D01*
X113675707Y-93600000D01*
X113924293Y-93600000D01*
X114169493Y-93559083D01*
X114404603Y-93478369D01*
X114404614Y-93478364D01*
X114623228Y-93360057D01*
X114623231Y-93360055D01*
X114670056Y-93323609D01*
X113971568Y-92625121D01*
X114088458Y-92574349D01*
X114205739Y-92478934D01*
X114292928Y-92355415D01*
X114323354Y-92269802D01*
X115023434Y-92969882D01*
X115123731Y-92816369D01*
X115223587Y-92588717D01*
X115284612Y-92347738D01*
X115284614Y-92347729D01*
X115305141Y-92100005D01*
X118794858Y-92100005D01*
X118815385Y-92347729D01*
X118815387Y-92347738D01*
X118876412Y-92588717D01*
X118976266Y-92816364D01*
X119076564Y-92969882D01*
X119774070Y-92272376D01*
X119776884Y-92285915D01*
X119846442Y-92420156D01*
X119949638Y-92530652D01*
X120078819Y-92609209D01*
X120130002Y-92623549D01*
X119429942Y-93323609D01*
X119476768Y-93360055D01*
X119476770Y-93360056D01*
X119695385Y-93478364D01*
X119695396Y-93478369D01*
X119930506Y-93559083D01*
X120175707Y-93600000D01*
X120424293Y-93600000D01*
X120669493Y-93559083D01*
X120904603Y-93478369D01*
X120904614Y-93478364D01*
X121123228Y-93360057D01*
X121123231Y-93360055D01*
X121170056Y-93323609D01*
X120471568Y-92625121D01*
X120588458Y-92574349D01*
X120705739Y-92478934D01*
X120792928Y-92355415D01*
X120823354Y-92269802D01*
X121523434Y-92969882D01*
X121623731Y-92816369D01*
X121723587Y-92588717D01*
X121784612Y-92347738D01*
X121784614Y-92347729D01*
X121805141Y-92100005D01*
X121805141Y-92099994D01*
X121784614Y-91852270D01*
X121784612Y-91852261D01*
X121723587Y-91611282D01*
X121623731Y-91383630D01*
X121523434Y-91230116D01*
X120825928Y-91927621D01*
X120823116Y-91914085D01*
X120753558Y-91779844D01*
X120650362Y-91669348D01*
X120521181Y-91590791D01*
X120469997Y-91576450D01*
X120966447Y-91080000D01*
X124490768Y-91080000D01*
X124509654Y-91283816D01*
X124509654Y-91283818D01*
X124509655Y-91283821D01*
X124535854Y-91375901D01*
X124565673Y-91480704D01*
X124656912Y-91663935D01*
X124780269Y-91827287D01*
X124931537Y-91965185D01*
X124931539Y-91965187D01*
X125105569Y-92072942D01*
X125105575Y-92072945D01*
X125146010Y-92088609D01*
X125296444Y-92146888D01*
X125497653Y-92184500D01*
X125497656Y-92184500D01*
X125702344Y-92184500D01*
X125702347Y-92184500D01*
X125903556Y-92146888D01*
X126094427Y-92072944D01*
X126268462Y-91965186D01*
X126419732Y-91827285D01*
X126543088Y-91663935D01*
X126634328Y-91480701D01*
X126662980Y-91380000D01*
X142390768Y-91380000D01*
X142409654Y-91583816D01*
X142409654Y-91583818D01*
X142409655Y-91583821D01*
X142455050Y-91743369D01*
X142465673Y-91780704D01*
X142556912Y-91963935D01*
X142680269Y-92127287D01*
X142831537Y-92265185D01*
X142831539Y-92265187D01*
X143005569Y-92372942D01*
X143005575Y-92372945D01*
X143046010Y-92388609D01*
X143196444Y-92446888D01*
X143397653Y-92484500D01*
X143397656Y-92484500D01*
X143602344Y-92484500D01*
X143602347Y-92484500D01*
X143803556Y-92446888D01*
X143994427Y-92372944D01*
X144168462Y-92265186D01*
X144319732Y-92127285D01*
X144443088Y-91963935D01*
X144474923Y-91900001D01*
X152444891Y-91900001D01*
X152465300Y-92185362D01*
X152526109Y-92464895D01*
X152626091Y-92732958D01*
X152763191Y-92984038D01*
X152763196Y-92984046D01*
X152869882Y-93126561D01*
X152869883Y-93126562D01*
X153887226Y-92109218D01*
X153925901Y-92202588D01*
X154022075Y-92327925D01*
X154147412Y-92424099D01*
X154240779Y-92462772D01*
X153223436Y-93480115D01*
X153365960Y-93586807D01*
X153365961Y-93586808D01*
X153617042Y-93723908D01*
X153617041Y-93723908D01*
X153885104Y-93823890D01*
X154164637Y-93884699D01*
X154449999Y-93905109D01*
X154450001Y-93905109D01*
X154735362Y-93884699D01*
X155014895Y-93823890D01*
X155282958Y-93723908D01*
X155534047Y-93586803D01*
X155676561Y-93480116D01*
X155676562Y-93480115D01*
X154659220Y-92462772D01*
X154752588Y-92424099D01*
X154877925Y-92327925D01*
X154974099Y-92202589D01*
X155012773Y-92109220D01*
X156030115Y-93126562D01*
X156030116Y-93126561D01*
X156136803Y-92984047D01*
X156273908Y-92732958D01*
X156373890Y-92464895D01*
X156434699Y-92185362D01*
X156455109Y-91900001D01*
X156455109Y-91899998D01*
X156434699Y-91614637D01*
X156373890Y-91335104D01*
X156273908Y-91067041D01*
X156136808Y-90815961D01*
X156136807Y-90815960D01*
X156030115Y-90673436D01*
X155012772Y-91690778D01*
X154974099Y-91597412D01*
X154877925Y-91472075D01*
X154752588Y-91375901D01*
X154659219Y-91337226D01*
X155676562Y-90319883D01*
X155676561Y-90319882D01*
X155534046Y-90213196D01*
X155534038Y-90213191D01*
X155282957Y-90076091D01*
X155282958Y-90076091D01*
X155014895Y-89976109D01*
X154735362Y-89915300D01*
X154450001Y-89894891D01*
X154449999Y-89894891D01*
X154164637Y-89915300D01*
X153885104Y-89976109D01*
X153617041Y-90076091D01*
X153365961Y-90213191D01*
X153365953Y-90213196D01*
X153223437Y-90319882D01*
X153223436Y-90319883D01*
X154240780Y-91337226D01*
X154147412Y-91375901D01*
X154022075Y-91472075D01*
X153925901Y-91597411D01*
X153887226Y-91690779D01*
X152869882Y-90673436D01*
X152763196Y-90815953D01*
X152763191Y-90815961D01*
X152626091Y-91067041D01*
X152526109Y-91335104D01*
X152465300Y-91614637D01*
X152444891Y-91899998D01*
X152444891Y-91900001D01*
X144474923Y-91900001D01*
X144534328Y-91780701D01*
X144590345Y-91583821D01*
X144609232Y-91380000D01*
X144590345Y-91176179D01*
X144534328Y-90979299D01*
X144443088Y-90796065D01*
X144319732Y-90632715D01*
X144319730Y-90632712D01*
X144168462Y-90494814D01*
X144168460Y-90494812D01*
X143994430Y-90387057D01*
X143994424Y-90387054D01*
X143821031Y-90319882D01*
X143803556Y-90313112D01*
X143602347Y-90275500D01*
X143397653Y-90275500D01*
X143196444Y-90313112D01*
X143196441Y-90313112D01*
X143196441Y-90313113D01*
X143005575Y-90387054D01*
X143005569Y-90387057D01*
X142831539Y-90494812D01*
X142831537Y-90494814D01*
X142680269Y-90632712D01*
X142556912Y-90796064D01*
X142465673Y-90979295D01*
X142409654Y-91176183D01*
X142390768Y-91379999D01*
X142390768Y-91380000D01*
X126662980Y-91380000D01*
X126690345Y-91283821D01*
X126709232Y-91080000D01*
X126690345Y-90876179D01*
X126634328Y-90679299D01*
X126543088Y-90496065D01*
X126419732Y-90332715D01*
X126419730Y-90332712D01*
X126268462Y-90194814D01*
X126268460Y-90194812D01*
X126094430Y-90087057D01*
X126094424Y-90087054D01*
X125943993Y-90028777D01*
X125903556Y-90013112D01*
X125702347Y-89975500D01*
X125497653Y-89975500D01*
X125296444Y-90013112D01*
X125296441Y-90013112D01*
X125296441Y-90013113D01*
X125105575Y-90087054D01*
X125105569Y-90087057D01*
X124931539Y-90194812D01*
X124931537Y-90194814D01*
X124780269Y-90332712D01*
X124656912Y-90496064D01*
X124565673Y-90679295D01*
X124509654Y-90876183D01*
X124490768Y-91079999D01*
X124490768Y-91080000D01*
X120966447Y-91080000D01*
X121170057Y-90876390D01*
X121170056Y-90876389D01*
X121123229Y-90839943D01*
X120904614Y-90721635D01*
X120904603Y-90721630D01*
X120669493Y-90640916D01*
X120424293Y-90600000D01*
X120175707Y-90600000D01*
X119930506Y-90640916D01*
X119695396Y-90721630D01*
X119695390Y-90721632D01*
X119476761Y-90839949D01*
X119429942Y-90876388D01*
X119429942Y-90876390D01*
X120128431Y-91574878D01*
X120011542Y-91625651D01*
X119894261Y-91721066D01*
X119807072Y-91844585D01*
X119776645Y-91930197D01*
X119076564Y-91230116D01*
X118976267Y-91383632D01*
X118876412Y-91611282D01*
X118815387Y-91852261D01*
X118815385Y-91852270D01*
X118794858Y-92099994D01*
X118794858Y-92100005D01*
X115305141Y-92100005D01*
X115305141Y-92099994D01*
X115284614Y-91852270D01*
X115284612Y-91852261D01*
X115223587Y-91611282D01*
X115123731Y-91383630D01*
X115023434Y-91230116D01*
X114325929Y-91927622D01*
X114323116Y-91914085D01*
X114253558Y-91779844D01*
X114150362Y-91669348D01*
X114021181Y-91590791D01*
X113969996Y-91576449D01*
X114670056Y-90876389D01*
X114623229Y-90839943D01*
X114404614Y-90721635D01*
X114404603Y-90721630D01*
X114169493Y-90640916D01*
X113924293Y-90600000D01*
X113675707Y-90600000D01*
X113430506Y-90640916D01*
X113195396Y-90721630D01*
X113195390Y-90721632D01*
X112976761Y-90839949D01*
X112929942Y-90876388D01*
X112929942Y-90876390D01*
X113628430Y-91574879D01*
X113511542Y-91625651D01*
X113394261Y-91721066D01*
X113307072Y-91844585D01*
X113276645Y-91930197D01*
X112576564Y-91230116D01*
X112476267Y-91383632D01*
X112376412Y-91611282D01*
X112315387Y-91852261D01*
X112315385Y-91852270D01*
X112294858Y-92099994D01*
X112294858Y-92100005D01*
X111000500Y-92100005D01*
X111000500Y-87600002D01*
X112540708Y-87600002D01*
X112559838Y-87818668D01*
X112559839Y-87818675D01*
X112567444Y-87847056D01*
X112616653Y-88030703D01*
X112616654Y-88030706D01*
X112616655Y-88030708D01*
X112709419Y-88229642D01*
X112709423Y-88229650D01*
X112835322Y-88409452D01*
X112835327Y-88409458D01*
X112990541Y-88564672D01*
X112990547Y-88564677D01*
X113170349Y-88690576D01*
X113170351Y-88690577D01*
X113170354Y-88690579D01*
X113369297Y-88783347D01*
X113581326Y-88840161D01*
X113737521Y-88853826D01*
X113799998Y-88859292D01*
X113800000Y-88859292D01*
X113800002Y-88859292D01*
X113854668Y-88854509D01*
X114018674Y-88840161D01*
X114230703Y-88783347D01*
X114429646Y-88690579D01*
X114609457Y-88564674D01*
X114764674Y-88409457D01*
X114890579Y-88229646D01*
X114983347Y-88030703D01*
X115040161Y-87818674D01*
X115059292Y-87600002D01*
X119040708Y-87600002D01*
X119059838Y-87818668D01*
X119059839Y-87818675D01*
X119067444Y-87847056D01*
X119116653Y-88030703D01*
X119116654Y-88030706D01*
X119116655Y-88030708D01*
X119209419Y-88229642D01*
X119209423Y-88229650D01*
X119335322Y-88409452D01*
X119335327Y-88409458D01*
X119490541Y-88564672D01*
X119490547Y-88564677D01*
X119670349Y-88690576D01*
X119670351Y-88690577D01*
X119670354Y-88690579D01*
X119869297Y-88783347D01*
X120081326Y-88840161D01*
X120237521Y-88853826D01*
X120299998Y-88859292D01*
X120300000Y-88859292D01*
X120300002Y-88859292D01*
X120354668Y-88854509D01*
X120518674Y-88840161D01*
X120730703Y-88783347D01*
X120929646Y-88690579D01*
X121109457Y-88564674D01*
X121134131Y-88540000D01*
X124490768Y-88540000D01*
X124509654Y-88743816D01*
X124509654Y-88743818D01*
X124509655Y-88743821D01*
X124520901Y-88783347D01*
X124565673Y-88940704D01*
X124656912Y-89123935D01*
X124780269Y-89287287D01*
X124931537Y-89425185D01*
X124931539Y-89425187D01*
X125105569Y-89532942D01*
X125105575Y-89532945D01*
X125146010Y-89548609D01*
X125296444Y-89606888D01*
X125497653Y-89644500D01*
X125497656Y-89644500D01*
X125702344Y-89644500D01*
X125702347Y-89644500D01*
X125903556Y-89606888D01*
X126094427Y-89532944D01*
X126268462Y-89425186D01*
X126419732Y-89287285D01*
X126543088Y-89123935D01*
X126634328Y-88940701D01*
X126662980Y-88840000D01*
X142390768Y-88840000D01*
X142409654Y-89043816D01*
X142409654Y-89043818D01*
X142409655Y-89043821D01*
X142465672Y-89240701D01*
X142465673Y-89240704D01*
X142556912Y-89423935D01*
X142680269Y-89587287D01*
X142831537Y-89725185D01*
X142831539Y-89725187D01*
X143005569Y-89832942D01*
X143005575Y-89832945D01*
X143046010Y-89848609D01*
X143196444Y-89906888D01*
X143397653Y-89944500D01*
X143397656Y-89944500D01*
X143602344Y-89944500D01*
X143602347Y-89944500D01*
X143803556Y-89906888D01*
X143994427Y-89832944D01*
X144168462Y-89725186D01*
X144319732Y-89587285D01*
X144443088Y-89423935D01*
X144534328Y-89240701D01*
X144590345Y-89043821D01*
X144609232Y-88840000D01*
X144590345Y-88636179D01*
X144534328Y-88439299D01*
X144443088Y-88256065D01*
X144319732Y-88092715D01*
X144319730Y-88092712D01*
X144168462Y-87954814D01*
X144168460Y-87954812D01*
X143994430Y-87847057D01*
X143994424Y-87847054D01*
X143843993Y-87788777D01*
X143803556Y-87773112D01*
X143602347Y-87735500D01*
X143397653Y-87735500D01*
X143196444Y-87773112D01*
X143196441Y-87773112D01*
X143196441Y-87773113D01*
X143005575Y-87847054D01*
X143005569Y-87847057D01*
X142831539Y-87954812D01*
X142831537Y-87954814D01*
X142680269Y-88092712D01*
X142556912Y-88256064D01*
X142465673Y-88439295D01*
X142409654Y-88636183D01*
X142390768Y-88839999D01*
X142390768Y-88840000D01*
X126662980Y-88840000D01*
X126690345Y-88743821D01*
X126709232Y-88540000D01*
X126690345Y-88336179D01*
X126634328Y-88139299D01*
X126543088Y-87956065D01*
X126419732Y-87792715D01*
X126419730Y-87792712D01*
X126268462Y-87654814D01*
X126268460Y-87654812D01*
X126094430Y-87547057D01*
X126094424Y-87547054D01*
X125943993Y-87488777D01*
X125903556Y-87473112D01*
X125702347Y-87435500D01*
X125497653Y-87435500D01*
X125296444Y-87473112D01*
X125296441Y-87473112D01*
X125296441Y-87473113D01*
X125105575Y-87547054D01*
X125105569Y-87547057D01*
X124931539Y-87654812D01*
X124931537Y-87654814D01*
X124780269Y-87792712D01*
X124656912Y-87956064D01*
X124565673Y-88139295D01*
X124509654Y-88336183D01*
X124490768Y-88539999D01*
X124490768Y-88540000D01*
X121134131Y-88540000D01*
X121264674Y-88409457D01*
X121390579Y-88229646D01*
X121483347Y-88030703D01*
X121540161Y-87818674D01*
X121559292Y-87600000D01*
X121540161Y-87381326D01*
X121483347Y-87169297D01*
X121390579Y-86970354D01*
X121390577Y-86970351D01*
X121390576Y-86970349D01*
X121264677Y-86790547D01*
X121264672Y-86790541D01*
X121109458Y-86635327D01*
X121109452Y-86635322D01*
X120929650Y-86509423D01*
X120929642Y-86509419D01*
X120730708Y-86416655D01*
X120730706Y-86416654D01*
X120730703Y-86416653D01*
X120579885Y-86376240D01*
X120518675Y-86359839D01*
X120518668Y-86359838D01*
X120300002Y-86340708D01*
X120299998Y-86340708D01*
X120081331Y-86359838D01*
X120081324Y-86359839D01*
X119958902Y-86392642D01*
X119869297Y-86416653D01*
X119869295Y-86416653D01*
X119869291Y-86416655D01*
X119670357Y-86509419D01*
X119670349Y-86509423D01*
X119490547Y-86635322D01*
X119490541Y-86635327D01*
X119335327Y-86790541D01*
X119335322Y-86790547D01*
X119209423Y-86970349D01*
X119209419Y-86970357D01*
X119116655Y-87169291D01*
X119116653Y-87169295D01*
X119116653Y-87169297D01*
X119092642Y-87258902D01*
X119059839Y-87381324D01*
X119059838Y-87381331D01*
X119040708Y-87599997D01*
X119040708Y-87600002D01*
X115059292Y-87600002D01*
X115059292Y-87600000D01*
X115040161Y-87381326D01*
X114983347Y-87169297D01*
X114890579Y-86970354D01*
X114890577Y-86970351D01*
X114890576Y-86970349D01*
X114764677Y-86790547D01*
X114764672Y-86790541D01*
X114609458Y-86635327D01*
X114609452Y-86635322D01*
X114429650Y-86509423D01*
X114429642Y-86509419D01*
X114230708Y-86416655D01*
X114230706Y-86416654D01*
X114230703Y-86416653D01*
X114079885Y-86376240D01*
X114018675Y-86359839D01*
X114018668Y-86359838D01*
X113800002Y-86340708D01*
X113799998Y-86340708D01*
X113581331Y-86359838D01*
X113581324Y-86359839D01*
X113458902Y-86392642D01*
X113369297Y-86416653D01*
X113369295Y-86416653D01*
X113369291Y-86416655D01*
X113170357Y-86509419D01*
X113170349Y-86509423D01*
X112990547Y-86635322D01*
X112990541Y-86635327D01*
X112835327Y-86790541D01*
X112835322Y-86790547D01*
X112709423Y-86970349D01*
X112709419Y-86970357D01*
X112616655Y-87169291D01*
X112616653Y-87169295D01*
X112616653Y-87169297D01*
X112592642Y-87258902D01*
X112559839Y-87381324D01*
X112559838Y-87381331D01*
X112540708Y-87599997D01*
X112540708Y-87600002D01*
X111000500Y-87600002D01*
X111000500Y-86000000D01*
X124490768Y-86000000D01*
X124509654Y-86203816D01*
X124565673Y-86400704D01*
X124656912Y-86583935D01*
X124780269Y-86747287D01*
X124931537Y-86885185D01*
X124931539Y-86885187D01*
X125105569Y-86992942D01*
X125105575Y-86992945D01*
X125146010Y-87008609D01*
X125296444Y-87066888D01*
X125497653Y-87104500D01*
X125497656Y-87104500D01*
X125702344Y-87104500D01*
X125702347Y-87104500D01*
X125903556Y-87066888D01*
X126094427Y-86992944D01*
X126268462Y-86885186D01*
X126419732Y-86747285D01*
X126543088Y-86583935D01*
X126634328Y-86400701D01*
X126690345Y-86203821D01*
X126709232Y-86000000D01*
X126690345Y-85796179D01*
X126634328Y-85599299D01*
X126543088Y-85416065D01*
X126419732Y-85252715D01*
X126419730Y-85252712D01*
X126268462Y-85114814D01*
X126268460Y-85114812D01*
X126094430Y-85007057D01*
X126094424Y-85007054D01*
X125943993Y-84948777D01*
X125903556Y-84933112D01*
X125702347Y-84895500D01*
X125497653Y-84895500D01*
X125296444Y-84933112D01*
X125296441Y-84933112D01*
X125296441Y-84933113D01*
X125105575Y-85007054D01*
X125105569Y-85007057D01*
X124931539Y-85114812D01*
X124931537Y-85114814D01*
X124780269Y-85252712D01*
X124656912Y-85416064D01*
X124565673Y-85599295D01*
X124509654Y-85796183D01*
X124490768Y-85999999D01*
X124490768Y-86000000D01*
X111000500Y-86000000D01*
X111000500Y-82200005D01*
X112344858Y-82200005D01*
X112365385Y-82447729D01*
X112365387Y-82447738D01*
X112426412Y-82688717D01*
X112526266Y-82916364D01*
X112626564Y-83069882D01*
X113324070Y-82372375D01*
X113326884Y-82385915D01*
X113396442Y-82520156D01*
X113499638Y-82630652D01*
X113628819Y-82709209D01*
X113680002Y-82723549D01*
X112979942Y-83423609D01*
X113026768Y-83460055D01*
X113026770Y-83460056D01*
X113245385Y-83578364D01*
X113245396Y-83578369D01*
X113480506Y-83659083D01*
X113725707Y-83700000D01*
X113974293Y-83700000D01*
X114219493Y-83659083D01*
X114454603Y-83578369D01*
X114454614Y-83578364D01*
X114673228Y-83460057D01*
X114673231Y-83460055D01*
X114720056Y-83423609D01*
X114021568Y-82725121D01*
X114138458Y-82674349D01*
X114255739Y-82578934D01*
X114342928Y-82455415D01*
X114373354Y-82369802D01*
X115073434Y-83069882D01*
X115173731Y-82916369D01*
X115273587Y-82688717D01*
X115334612Y-82447738D01*
X115334614Y-82447729D01*
X115355141Y-82200005D01*
X118844858Y-82200005D01*
X118865385Y-82447729D01*
X118865387Y-82447738D01*
X118926412Y-82688717D01*
X119026266Y-82916364D01*
X119126564Y-83069882D01*
X119824070Y-82372376D01*
X119826884Y-82385915D01*
X119896442Y-82520156D01*
X119999638Y-82630652D01*
X120128819Y-82709209D01*
X120180002Y-82723549D01*
X119479942Y-83423609D01*
X119526768Y-83460055D01*
X119526770Y-83460056D01*
X119745385Y-83578364D01*
X119745396Y-83578369D01*
X119980506Y-83659083D01*
X120225707Y-83700000D01*
X120474293Y-83700000D01*
X120719493Y-83659083D01*
X120954603Y-83578369D01*
X120954614Y-83578364D01*
X121173228Y-83460057D01*
X121173231Y-83460055D01*
X121173302Y-83460000D01*
X124490768Y-83460000D01*
X124509654Y-83663816D01*
X124565673Y-83860704D01*
X124656912Y-84043935D01*
X124780269Y-84207287D01*
X124931537Y-84345185D01*
X124931539Y-84345187D01*
X125105569Y-84452942D01*
X125105575Y-84452945D01*
X125146010Y-84468609D01*
X125296444Y-84526888D01*
X125497653Y-84564500D01*
X125497656Y-84564500D01*
X125702344Y-84564500D01*
X125702347Y-84564500D01*
X125903556Y-84526888D01*
X126094427Y-84452944D01*
X126268462Y-84345186D01*
X126419732Y-84207285D01*
X126543088Y-84043935D01*
X126559986Y-84010000D01*
X142169364Y-84010000D01*
X142226567Y-84223486D01*
X142226570Y-84223492D01*
X142326399Y-84437578D01*
X142461894Y-84631082D01*
X142628917Y-84798105D01*
X142822421Y-84933600D01*
X143036507Y-85033429D01*
X143036516Y-85033433D01*
X143069037Y-85042147D01*
X143128698Y-85078512D01*
X143159227Y-85141358D01*
X143150933Y-85210734D01*
X143106448Y-85264612D01*
X143081739Y-85277548D01*
X143005581Y-85307052D01*
X143005569Y-85307057D01*
X142831539Y-85414812D01*
X142831537Y-85414814D01*
X142680269Y-85552712D01*
X142556912Y-85716064D01*
X142465673Y-85899295D01*
X142409654Y-86096183D01*
X142390768Y-86299999D01*
X142390768Y-86300000D01*
X142409654Y-86503816D01*
X142409654Y-86503818D01*
X142409655Y-86503821D01*
X142447072Y-86635327D01*
X142465673Y-86700704D01*
X142556912Y-86883935D01*
X142680269Y-87047287D01*
X142831537Y-87185185D01*
X142831539Y-87185187D01*
X143005569Y-87292942D01*
X143005575Y-87292945D01*
X143046010Y-87308609D01*
X143196444Y-87366888D01*
X143397653Y-87404500D01*
X143397656Y-87404500D01*
X143602344Y-87404500D01*
X143602347Y-87404500D01*
X143803556Y-87366888D01*
X143994427Y-87292944D01*
X144168462Y-87185186D01*
X144319732Y-87047285D01*
X144443088Y-86883935D01*
X144534328Y-86700701D01*
X144590345Y-86503821D01*
X144609232Y-86300000D01*
X144590345Y-86096179D01*
X144534328Y-85899299D01*
X144443088Y-85716065D01*
X144319732Y-85552715D01*
X144319730Y-85552712D01*
X144168462Y-85414814D01*
X144168460Y-85414812D01*
X143994430Y-85307057D01*
X143994424Y-85307054D01*
X143918261Y-85277549D01*
X143862859Y-85234976D01*
X143839269Y-85169209D01*
X143854980Y-85101129D01*
X143905004Y-85052350D01*
X143930963Y-85042147D01*
X143963481Y-85033434D01*
X143963492Y-85033429D01*
X144177578Y-84933600D01*
X144371082Y-84798105D01*
X144538105Y-84631082D01*
X144542320Y-84625063D01*
X152695500Y-84625063D01*
X152710266Y-84699301D01*
X152766515Y-84783484D01*
X152800234Y-84806014D01*
X152850699Y-84839734D01*
X152850702Y-84839734D01*
X152850703Y-84839735D01*
X152875666Y-84844700D01*
X152924933Y-84854500D01*
X155975066Y-84854499D01*
X156049301Y-84839734D01*
X156133484Y-84783484D01*
X156189734Y-84699301D01*
X156204500Y-84625067D01*
X156204499Y-81574934D01*
X156189734Y-81500699D01*
X156171068Y-81472765D01*
X156133484Y-81416515D01*
X156083019Y-81382796D01*
X156049301Y-81360266D01*
X156049299Y-81360265D01*
X156049296Y-81360264D01*
X155975069Y-81345500D01*
X152924936Y-81345500D01*
X152850698Y-81360266D01*
X152766515Y-81416515D01*
X152710266Y-81500699D01*
X152710264Y-81500703D01*
X152695500Y-81574928D01*
X152695500Y-84625063D01*
X144542320Y-84625063D01*
X144673600Y-84437578D01*
X144773429Y-84223492D01*
X144773432Y-84223486D01*
X144830636Y-84010000D01*
X143933686Y-84010000D01*
X143959493Y-83969844D01*
X144000000Y-83831889D01*
X144000000Y-83688111D01*
X143959493Y-83550156D01*
X143933686Y-83510000D01*
X144830636Y-83510000D01*
X144830635Y-83509999D01*
X144773432Y-83296513D01*
X144773429Y-83296507D01*
X144673600Y-83082422D01*
X144673599Y-83082420D01*
X144538113Y-82888926D01*
X144538108Y-82888920D01*
X144371082Y-82721894D01*
X144177578Y-82586399D01*
X143963492Y-82486570D01*
X143963477Y-82486564D01*
X143930960Y-82477851D01*
X143871300Y-82441486D01*
X143840772Y-82378638D01*
X143849067Y-82309263D01*
X143893553Y-82255386D01*
X143918257Y-82242452D01*
X143994427Y-82212944D01*
X144168462Y-82105186D01*
X144319732Y-81967285D01*
X144443088Y-81803935D01*
X144534328Y-81620701D01*
X144590345Y-81423821D01*
X144609232Y-81220000D01*
X144590345Y-81016179D01*
X144534328Y-80819299D01*
X144443088Y-80636065D01*
X144319732Y-80472715D01*
X144319730Y-80472712D01*
X144168462Y-80334814D01*
X144168460Y-80334812D01*
X143994430Y-80227057D01*
X143994424Y-80227054D01*
X143843993Y-80168777D01*
X143803556Y-80153112D01*
X143602347Y-80115500D01*
X143397653Y-80115500D01*
X143196444Y-80153112D01*
X143196441Y-80153112D01*
X143196441Y-80153113D01*
X143005575Y-80227054D01*
X143005569Y-80227057D01*
X142831539Y-80334812D01*
X142831537Y-80334814D01*
X142680269Y-80472712D01*
X142556912Y-80636064D01*
X142465673Y-80819295D01*
X142465671Y-80819299D01*
X142465672Y-80819299D01*
X142420977Y-80976388D01*
X142409654Y-81016183D01*
X142390768Y-81219999D01*
X142390768Y-81220000D01*
X142409654Y-81423816D01*
X142409654Y-81423818D01*
X142409655Y-81423821D01*
X142452649Y-81574928D01*
X142465673Y-81620704D01*
X142556912Y-81803935D01*
X142680269Y-81967287D01*
X142831537Y-82105185D01*
X142831539Y-82105187D01*
X143005569Y-82212942D01*
X143005571Y-82212943D01*
X143005573Y-82212944D01*
X143005576Y-82212945D01*
X143005578Y-82212946D01*
X143081737Y-82242450D01*
X143137139Y-82285023D01*
X143160730Y-82350789D01*
X143145019Y-82418870D01*
X143094996Y-82467649D01*
X143069040Y-82477851D01*
X143036519Y-82486565D01*
X143036507Y-82486570D01*
X142822422Y-82586399D01*
X142822420Y-82586400D01*
X142628926Y-82721886D01*
X142628920Y-82721891D01*
X142461891Y-82888920D01*
X142461886Y-82888926D01*
X142326400Y-83082420D01*
X142326399Y-83082422D01*
X142226570Y-83296507D01*
X142226567Y-83296513D01*
X142169364Y-83509999D01*
X142169364Y-83510000D01*
X143066314Y-83510000D01*
X143040507Y-83550156D01*
X143000000Y-83688111D01*
X143000000Y-83831889D01*
X143040507Y-83969844D01*
X143066314Y-84010000D01*
X142169364Y-84010000D01*
X126559986Y-84010000D01*
X126634328Y-83860701D01*
X126690345Y-83663821D01*
X126709232Y-83460000D01*
X126690345Y-83256179D01*
X126634328Y-83059299D01*
X126543088Y-82876065D01*
X126426664Y-82721894D01*
X126419730Y-82712712D01*
X126268462Y-82574814D01*
X126268460Y-82574812D01*
X126094430Y-82467057D01*
X126094424Y-82467054D01*
X125943993Y-82408777D01*
X125903556Y-82393112D01*
X125702347Y-82355500D01*
X125497653Y-82355500D01*
X125296444Y-82393112D01*
X125296441Y-82393112D01*
X125296441Y-82393113D01*
X125105575Y-82467054D01*
X125105569Y-82467057D01*
X124931539Y-82574812D01*
X124931537Y-82574814D01*
X124780269Y-82712712D01*
X124656912Y-82876064D01*
X124565673Y-83059295D01*
X124509654Y-83256183D01*
X124490768Y-83459999D01*
X124490768Y-83460000D01*
X121173302Y-83460000D01*
X121220056Y-83423609D01*
X120521568Y-82725121D01*
X120638458Y-82674349D01*
X120755739Y-82578934D01*
X120842928Y-82455415D01*
X120873354Y-82369802D01*
X121573434Y-83069882D01*
X121673731Y-82916369D01*
X121773587Y-82688717D01*
X121834612Y-82447738D01*
X121834614Y-82447729D01*
X121855141Y-82200005D01*
X121855141Y-82199994D01*
X121834614Y-81952270D01*
X121834612Y-81952261D01*
X121773587Y-81711282D01*
X121673731Y-81483630D01*
X121573434Y-81330116D01*
X120875929Y-82027622D01*
X120873116Y-82014085D01*
X120803558Y-81879844D01*
X120700362Y-81769348D01*
X120571181Y-81690791D01*
X120519996Y-81676449D01*
X121220056Y-80976389D01*
X121173229Y-80939943D01*
X121136377Y-80920000D01*
X124490768Y-80920000D01*
X124509654Y-81123816D01*
X124565673Y-81320704D01*
X124656912Y-81503935D01*
X124780269Y-81667287D01*
X124931537Y-81805185D01*
X124931539Y-81805187D01*
X125105569Y-81912942D01*
X125105575Y-81912945D01*
X125146010Y-81928609D01*
X125296444Y-81986888D01*
X125497653Y-82024500D01*
X125497656Y-82024500D01*
X125702344Y-82024500D01*
X125702347Y-82024500D01*
X125903556Y-81986888D01*
X126094427Y-81912944D01*
X126268462Y-81805186D01*
X126419732Y-81667285D01*
X126543088Y-81503935D01*
X126634328Y-81320701D01*
X126690345Y-81123821D01*
X126709232Y-80920000D01*
X126690345Y-80716179D01*
X126634328Y-80519299D01*
X126543088Y-80336065D01*
X126419732Y-80172715D01*
X126419730Y-80172712D01*
X126268462Y-80034814D01*
X126268460Y-80034812D01*
X126094430Y-79927057D01*
X126094424Y-79927054D01*
X125943993Y-79868777D01*
X125903556Y-79853112D01*
X125702347Y-79815500D01*
X125497653Y-79815500D01*
X125296444Y-79853112D01*
X125296441Y-79853112D01*
X125296441Y-79853113D01*
X125105575Y-79927054D01*
X125105569Y-79927057D01*
X124931539Y-80034812D01*
X124931537Y-80034814D01*
X124780269Y-80172712D01*
X124656912Y-80336064D01*
X124565673Y-80519295D01*
X124509654Y-80716183D01*
X124490768Y-80919999D01*
X124490768Y-80920000D01*
X121136377Y-80920000D01*
X120954614Y-80821635D01*
X120954603Y-80821630D01*
X120719493Y-80740916D01*
X120474293Y-80700000D01*
X120225707Y-80700000D01*
X119980506Y-80740916D01*
X119745396Y-80821630D01*
X119745390Y-80821632D01*
X119526761Y-80939949D01*
X119479942Y-80976388D01*
X119479942Y-80976390D01*
X120178430Y-81674879D01*
X120061542Y-81725651D01*
X119944261Y-81821066D01*
X119857072Y-81944585D01*
X119826645Y-82030197D01*
X119126564Y-81330116D01*
X119026267Y-81483632D01*
X118926412Y-81711282D01*
X118865387Y-81952261D01*
X118865385Y-81952270D01*
X118844858Y-82199994D01*
X118844858Y-82200005D01*
X115355141Y-82200005D01*
X115355141Y-82199994D01*
X115334614Y-81952270D01*
X115334612Y-81952261D01*
X115273587Y-81711282D01*
X115173731Y-81483630D01*
X115073434Y-81330116D01*
X114375929Y-82027622D01*
X114373116Y-82014085D01*
X114303558Y-81879844D01*
X114200362Y-81769348D01*
X114071181Y-81690791D01*
X114019996Y-81676449D01*
X114720056Y-80976389D01*
X114673229Y-80939943D01*
X114454614Y-80821635D01*
X114454603Y-80821630D01*
X114219493Y-80740916D01*
X113974293Y-80700000D01*
X113725707Y-80700000D01*
X113480506Y-80740916D01*
X113245396Y-80821630D01*
X113245390Y-80821632D01*
X113026761Y-80939949D01*
X112979942Y-80976388D01*
X112979942Y-80976390D01*
X113678430Y-81674879D01*
X113561542Y-81725651D01*
X113444261Y-81821066D01*
X113357072Y-81944585D01*
X113326645Y-82030197D01*
X112626563Y-81330116D01*
X112526267Y-81483632D01*
X112426412Y-81711282D01*
X112365387Y-81952261D01*
X112365385Y-81952270D01*
X112344858Y-82199994D01*
X112344858Y-82200005D01*
X111000500Y-82200005D01*
X111000500Y-77700002D01*
X112590708Y-77700002D01*
X112609838Y-77918668D01*
X112609839Y-77918675D01*
X112613601Y-77932715D01*
X112666653Y-78130703D01*
X112666654Y-78130706D01*
X112666655Y-78130708D01*
X112759419Y-78329642D01*
X112759423Y-78329650D01*
X112885322Y-78509452D01*
X112885327Y-78509458D01*
X113040541Y-78664672D01*
X113040547Y-78664677D01*
X113220349Y-78790576D01*
X113220351Y-78790577D01*
X113220354Y-78790579D01*
X113419297Y-78883347D01*
X113631326Y-78940161D01*
X113787521Y-78953825D01*
X113849998Y-78959292D01*
X113850000Y-78959292D01*
X113850002Y-78959292D01*
X113904668Y-78954509D01*
X114068674Y-78940161D01*
X114280703Y-78883347D01*
X114479646Y-78790579D01*
X114659457Y-78664674D01*
X114814674Y-78509457D01*
X114940579Y-78329646D01*
X115033347Y-78130703D01*
X115090161Y-77918674D01*
X115109292Y-77700002D01*
X119090708Y-77700002D01*
X119109838Y-77918668D01*
X119109839Y-77918675D01*
X119113601Y-77932715D01*
X119166653Y-78130703D01*
X119166654Y-78130706D01*
X119166655Y-78130708D01*
X119259419Y-78329642D01*
X119259423Y-78329650D01*
X119385322Y-78509452D01*
X119385327Y-78509458D01*
X119540541Y-78664672D01*
X119540547Y-78664677D01*
X119720349Y-78790576D01*
X119720351Y-78790577D01*
X119720354Y-78790579D01*
X119919297Y-78883347D01*
X120131326Y-78940161D01*
X120287521Y-78953826D01*
X120349998Y-78959292D01*
X120350000Y-78959292D01*
X120350002Y-78959292D01*
X120404668Y-78954509D01*
X120568674Y-78940161D01*
X120780703Y-78883347D01*
X120979646Y-78790579D01*
X121159457Y-78664674D01*
X121314674Y-78509457D01*
X121405321Y-78380000D01*
X124490768Y-78380000D01*
X124509654Y-78583816D01*
X124509654Y-78583818D01*
X124509655Y-78583821D01*
X124537020Y-78679999D01*
X124565673Y-78780704D01*
X124656912Y-78963935D01*
X124780269Y-79127287D01*
X124931537Y-79265185D01*
X124931539Y-79265187D01*
X125105569Y-79372942D01*
X125105575Y-79372945D01*
X125146010Y-79388609D01*
X125296444Y-79446888D01*
X125497653Y-79484500D01*
X125497656Y-79484500D01*
X125702344Y-79484500D01*
X125702347Y-79484500D01*
X125903556Y-79446888D01*
X126094427Y-79372944D01*
X126268462Y-79265186D01*
X126419732Y-79127285D01*
X126543088Y-78963935D01*
X126634328Y-78780701D01*
X126662980Y-78680000D01*
X142390768Y-78680000D01*
X142409654Y-78883816D01*
X142409654Y-78883818D01*
X142409655Y-78883821D01*
X142465672Y-79080701D01*
X142465673Y-79080704D01*
X142556912Y-79263935D01*
X142680269Y-79427287D01*
X142831537Y-79565185D01*
X142831539Y-79565187D01*
X143005569Y-79672942D01*
X143005575Y-79672945D01*
X143046010Y-79688609D01*
X143196444Y-79746888D01*
X143397653Y-79784500D01*
X143397656Y-79784500D01*
X143602344Y-79784500D01*
X143602347Y-79784500D01*
X143803556Y-79746888D01*
X143994427Y-79672944D01*
X144168462Y-79565186D01*
X144319732Y-79427285D01*
X144443088Y-79263935D01*
X144534328Y-79080701D01*
X144590345Y-78883821D01*
X144609232Y-78680000D01*
X144590345Y-78476179D01*
X144534328Y-78279299D01*
X144445049Y-78100004D01*
X152690580Y-78100004D01*
X152710229Y-78362218D01*
X152710230Y-78362223D01*
X152768742Y-78618584D01*
X152768744Y-78618593D01*
X152768746Y-78618598D01*
X152864817Y-78863384D01*
X152996299Y-79091117D01*
X153160254Y-79296710D01*
X153353020Y-79475570D01*
X153570290Y-79623702D01*
X153807212Y-79737798D01*
X154058492Y-79815308D01*
X154058493Y-79815308D01*
X154058496Y-79815309D01*
X154318510Y-79854499D01*
X154318515Y-79854499D01*
X154318518Y-79854500D01*
X154318519Y-79854500D01*
X154581481Y-79854500D01*
X154581482Y-79854500D01*
X154581489Y-79854499D01*
X154841503Y-79815309D01*
X154841504Y-79815308D01*
X154841508Y-79815308D01*
X155092788Y-79737798D01*
X155329710Y-79623702D01*
X155546980Y-79475570D01*
X155739746Y-79296710D01*
X155903701Y-79091117D01*
X156035183Y-78863384D01*
X156131254Y-78618598D01*
X156189769Y-78362228D01*
X156189770Y-78362218D01*
X156209420Y-78100004D01*
X156209420Y-78099995D01*
X156189770Y-77837781D01*
X156189769Y-77837776D01*
X156189769Y-77837772D01*
X156131254Y-77581402D01*
X156035183Y-77336616D01*
X155903701Y-77108883D01*
X155739746Y-76903290D01*
X155546980Y-76724430D01*
X155329710Y-76576298D01*
X155329707Y-76576297D01*
X155329705Y-76576295D01*
X155092788Y-76462202D01*
X154841509Y-76384692D01*
X154841503Y-76384690D01*
X154581489Y-76345500D01*
X154581482Y-76345500D01*
X154318518Y-76345500D01*
X154318510Y-76345500D01*
X154058496Y-76384690D01*
X154058490Y-76384692D01*
X153807211Y-76462202D01*
X153570294Y-76576295D01*
X153353019Y-76724430D01*
X153160256Y-76903288D01*
X153160254Y-76903290D01*
X152996299Y-77108883D01*
X152864817Y-77336615D01*
X152768748Y-77581396D01*
X152768742Y-77581415D01*
X152710230Y-77837776D01*
X152710229Y-77837781D01*
X152690580Y-78099995D01*
X152690580Y-78100004D01*
X144445049Y-78100004D01*
X144443088Y-78096065D01*
X144319732Y-77932715D01*
X144319730Y-77932712D01*
X144168462Y-77794814D01*
X144168460Y-77794812D01*
X143994430Y-77687057D01*
X143994424Y-77687054D01*
X143843993Y-77628777D01*
X143803556Y-77613112D01*
X143602347Y-77575500D01*
X143397653Y-77575500D01*
X143196444Y-77613112D01*
X143196441Y-77613112D01*
X143196441Y-77613113D01*
X143005575Y-77687054D01*
X143005569Y-77687057D01*
X142831539Y-77794812D01*
X142831537Y-77794814D01*
X142680269Y-77932712D01*
X142556912Y-78096064D01*
X142465673Y-78279295D01*
X142409654Y-78476183D01*
X142390768Y-78679999D01*
X142390768Y-78680000D01*
X126662980Y-78680000D01*
X126690345Y-78583821D01*
X126709232Y-78380000D01*
X126690345Y-78176179D01*
X126634328Y-77979299D01*
X126543088Y-77796065D01*
X126419732Y-77632715D01*
X126419730Y-77632712D01*
X126268462Y-77494814D01*
X126268460Y-77494812D01*
X126094430Y-77387057D01*
X126094424Y-77387054D01*
X125943993Y-77328777D01*
X125903556Y-77313112D01*
X125702347Y-77275500D01*
X125497653Y-77275500D01*
X125296444Y-77313112D01*
X125296441Y-77313112D01*
X125296441Y-77313113D01*
X125105575Y-77387054D01*
X125105569Y-77387057D01*
X124931539Y-77494812D01*
X124931537Y-77494814D01*
X124780269Y-77632712D01*
X124656912Y-77796064D01*
X124565673Y-77979295D01*
X124509654Y-78176183D01*
X124490768Y-78379999D01*
X124490768Y-78380000D01*
X121405321Y-78380000D01*
X121440579Y-78329646D01*
X121533347Y-78130703D01*
X121590161Y-77918674D01*
X121609292Y-77700000D01*
X121608159Y-77687054D01*
X121591341Y-77494814D01*
X121590161Y-77481326D01*
X121533347Y-77269297D01*
X121440579Y-77070354D01*
X121440577Y-77070351D01*
X121440576Y-77070349D01*
X121314677Y-76890547D01*
X121314672Y-76890541D01*
X121159458Y-76735327D01*
X121159452Y-76735322D01*
X120979650Y-76609423D01*
X120979642Y-76609419D01*
X120780708Y-76516655D01*
X120780706Y-76516654D01*
X120780703Y-76516653D01*
X120629885Y-76476240D01*
X120568675Y-76459839D01*
X120568668Y-76459838D01*
X120350002Y-76440708D01*
X120349998Y-76440708D01*
X120131331Y-76459838D01*
X120131324Y-76459839D01*
X120008902Y-76492642D01*
X119919297Y-76516653D01*
X119919295Y-76516653D01*
X119919291Y-76516655D01*
X119720357Y-76609419D01*
X119720349Y-76609423D01*
X119540547Y-76735322D01*
X119540541Y-76735327D01*
X119385327Y-76890541D01*
X119385322Y-76890547D01*
X119259423Y-77070349D01*
X119259419Y-77070357D01*
X119166655Y-77269291D01*
X119166653Y-77269295D01*
X119166653Y-77269297D01*
X119148615Y-77336615D01*
X119109839Y-77481324D01*
X119109838Y-77481331D01*
X119090708Y-77699997D01*
X119090708Y-77700002D01*
X115109292Y-77700002D01*
X115109292Y-77700000D01*
X115108159Y-77687054D01*
X115091341Y-77494814D01*
X115090161Y-77481326D01*
X115033347Y-77269297D01*
X114940579Y-77070354D01*
X114940577Y-77070351D01*
X114940576Y-77070349D01*
X114814677Y-76890547D01*
X114814672Y-76890541D01*
X114659458Y-76735327D01*
X114659452Y-76735322D01*
X114479650Y-76609423D01*
X114479642Y-76609419D01*
X114280708Y-76516655D01*
X114280706Y-76516654D01*
X114280703Y-76516653D01*
X114129885Y-76476240D01*
X114068675Y-76459839D01*
X114068668Y-76459838D01*
X113850002Y-76440708D01*
X113849998Y-76440708D01*
X113631331Y-76459838D01*
X113631324Y-76459839D01*
X113508902Y-76492642D01*
X113419297Y-76516653D01*
X113419295Y-76516653D01*
X113419291Y-76516655D01*
X113220357Y-76609419D01*
X113220349Y-76609423D01*
X113040547Y-76735322D01*
X113040541Y-76735327D01*
X112885327Y-76890541D01*
X112885322Y-76890547D01*
X112759423Y-77070349D01*
X112759419Y-77070357D01*
X112666655Y-77269291D01*
X112666653Y-77269295D01*
X112666653Y-77269297D01*
X112648615Y-77336615D01*
X112609839Y-77481324D01*
X112609838Y-77481331D01*
X112590708Y-77699997D01*
X112590708Y-77700002D01*
X111000500Y-77700002D01*
X111000500Y-75840000D01*
X124490768Y-75840000D01*
X124509654Y-76043816D01*
X124509654Y-76043818D01*
X124509655Y-76043821D01*
X124565672Y-76240701D01*
X124565673Y-76240704D01*
X124656912Y-76423935D01*
X124780269Y-76587287D01*
X124931537Y-76725185D01*
X124931539Y-76725187D01*
X125105569Y-76832942D01*
X125105575Y-76832945D01*
X125130493Y-76842598D01*
X125296444Y-76906888D01*
X125497653Y-76944500D01*
X125497656Y-76944500D01*
X125702344Y-76944500D01*
X125702347Y-76944500D01*
X125903556Y-76906888D01*
X126094427Y-76832944D01*
X126268462Y-76725186D01*
X126419732Y-76587285D01*
X126543088Y-76423935D01*
X126634328Y-76240701D01*
X126662980Y-76140000D01*
X142390768Y-76140000D01*
X142409654Y-76343816D01*
X142409654Y-76343818D01*
X142409655Y-76343821D01*
X142465672Y-76540701D01*
X142465673Y-76540704D01*
X142556912Y-76723935D01*
X142680269Y-76887287D01*
X142831537Y-77025185D01*
X142831539Y-77025187D01*
X143005569Y-77132942D01*
X143005575Y-77132945D01*
X143046010Y-77148609D01*
X143196444Y-77206888D01*
X143397653Y-77244500D01*
X143397656Y-77244500D01*
X143602344Y-77244500D01*
X143602347Y-77244500D01*
X143803556Y-77206888D01*
X143994427Y-77132944D01*
X144168462Y-77025186D01*
X144316158Y-76890543D01*
X144319730Y-76887287D01*
X144353477Y-76842599D01*
X144443088Y-76723935D01*
X144534328Y-76540701D01*
X144590345Y-76343821D01*
X144609232Y-76140000D01*
X144590345Y-75936179D01*
X144534328Y-75739299D01*
X144443088Y-75556065D01*
X144319732Y-75392715D01*
X144319730Y-75392712D01*
X144168462Y-75254814D01*
X144168460Y-75254812D01*
X143994430Y-75147057D01*
X143994424Y-75147054D01*
X143833465Y-75084699D01*
X143803556Y-75073112D01*
X143602347Y-75035500D01*
X143397653Y-75035500D01*
X143196444Y-75073112D01*
X143196441Y-75073112D01*
X143196441Y-75073113D01*
X143005575Y-75147054D01*
X143005569Y-75147057D01*
X142831539Y-75254812D01*
X142831537Y-75254814D01*
X142680269Y-75392712D01*
X142556912Y-75556064D01*
X142465673Y-75739295D01*
X142409654Y-75936183D01*
X142390768Y-76139999D01*
X142390768Y-76140000D01*
X126662980Y-76140000D01*
X126690345Y-76043821D01*
X126709232Y-75840000D01*
X126690345Y-75636179D01*
X126634328Y-75439299D01*
X126543088Y-75256065D01*
X126460767Y-75147054D01*
X126419730Y-75092712D01*
X126268462Y-74954814D01*
X126268460Y-74954812D01*
X126094430Y-74847057D01*
X126094424Y-74847054D01*
X125938896Y-74786803D01*
X125903556Y-74773112D01*
X125702347Y-74735500D01*
X125497653Y-74735500D01*
X125296444Y-74773112D01*
X125296441Y-74773112D01*
X125296441Y-74773113D01*
X125105575Y-74847054D01*
X125105569Y-74847057D01*
X124931539Y-74954812D01*
X124931537Y-74954814D01*
X124780269Y-75092712D01*
X124656912Y-75256064D01*
X124565673Y-75439295D01*
X124509654Y-75636183D01*
X124490768Y-75839999D01*
X124490768Y-75840000D01*
X111000500Y-75840000D01*
X111000500Y-73300000D01*
X124490768Y-73300000D01*
X124509654Y-73503816D01*
X124509654Y-73503818D01*
X124509655Y-73503821D01*
X124562143Y-73688298D01*
X124565673Y-73700704D01*
X124656912Y-73883935D01*
X124780269Y-74047287D01*
X124920176Y-74174828D01*
X124930287Y-74184046D01*
X124931537Y-74185185D01*
X124931539Y-74185187D01*
X125105569Y-74292942D01*
X125105575Y-74292945D01*
X125146010Y-74308609D01*
X125296444Y-74366888D01*
X125497653Y-74404500D01*
X125497656Y-74404500D01*
X125702344Y-74404500D01*
X125702347Y-74404500D01*
X125903556Y-74366888D01*
X126094427Y-74292944D01*
X126268462Y-74185186D01*
X126419732Y-74047285D01*
X126543088Y-73883935D01*
X126634328Y-73700701D01*
X126662980Y-73600000D01*
X142390768Y-73600000D01*
X142409654Y-73803816D01*
X142409654Y-73803818D01*
X142409655Y-73803821D01*
X142446398Y-73932958D01*
X142465673Y-74000704D01*
X142556912Y-74183935D01*
X142680269Y-74347287D01*
X142831537Y-74485185D01*
X142831539Y-74485187D01*
X143005569Y-74592942D01*
X143005575Y-74592945D01*
X143046010Y-74608609D01*
X143196444Y-74666888D01*
X143397653Y-74704500D01*
X143397656Y-74704500D01*
X143602344Y-74704500D01*
X143602347Y-74704500D01*
X143803556Y-74666888D01*
X143994427Y-74592944D01*
X144168462Y-74485186D01*
X144319732Y-74347285D01*
X144443088Y-74183935D01*
X144534328Y-74000701D01*
X144590345Y-73803821D01*
X144609232Y-73600000D01*
X144608813Y-73595483D01*
X144600604Y-73506890D01*
X144590345Y-73396179D01*
X144534328Y-73199299D01*
X144459986Y-73050000D01*
X145690693Y-73050000D01*
X145709850Y-73207781D01*
X145766214Y-73356397D01*
X145798098Y-73402588D01*
X145856502Y-73487201D01*
X145856504Y-73487203D01*
X145856506Y-73487205D01*
X145875256Y-73503816D01*
X145975471Y-73592599D01*
X145975472Y-73592599D01*
X145978727Y-73595483D01*
X146015854Y-73654672D01*
X146020500Y-73688298D01*
X146020500Y-75705996D01*
X146000815Y-75773035D01*
X145978728Y-75798810D01*
X145906507Y-75862793D01*
X145906500Y-75862801D01*
X145816214Y-75993602D01*
X145759850Y-76142218D01*
X145740693Y-76299999D01*
X145740693Y-76300000D01*
X145759850Y-76457781D01*
X145760631Y-76459839D01*
X145808965Y-76587285D01*
X145816214Y-76606397D01*
X145818303Y-76609423D01*
X145906502Y-76737201D01*
X145906504Y-76737203D01*
X145906506Y-76737205D01*
X146025469Y-76842598D01*
X146025471Y-76842599D01*
X146166207Y-76916463D01*
X146243367Y-76935481D01*
X146320528Y-76954500D01*
X146320529Y-76954500D01*
X146479472Y-76954500D01*
X146530911Y-76941820D01*
X146633793Y-76916463D01*
X146774529Y-76842599D01*
X146893498Y-76737201D01*
X146983787Y-76606395D01*
X147040149Y-76457782D01*
X147059307Y-76300000D01*
X147040149Y-76142218D01*
X146983787Y-75993605D01*
X146893498Y-75862799D01*
X146893494Y-75862796D01*
X146893492Y-75862793D01*
X146821272Y-75798810D01*
X146784146Y-75739620D01*
X146779500Y-75705996D01*
X146779500Y-73599706D01*
X146799185Y-73532667D01*
X146821271Y-73506892D01*
X146843498Y-73487201D01*
X146933787Y-73356395D01*
X146990149Y-73207782D01*
X147003236Y-73100001D01*
X152444891Y-73100001D01*
X152465300Y-73385362D01*
X152526109Y-73664895D01*
X152626091Y-73932958D01*
X152763191Y-74184038D01*
X152763196Y-74184046D01*
X152869882Y-74326561D01*
X152869883Y-74326562D01*
X153887226Y-73309218D01*
X153925901Y-73402588D01*
X154022075Y-73527925D01*
X154147412Y-73624099D01*
X154240779Y-73662772D01*
X153223436Y-74680115D01*
X153365960Y-74786807D01*
X153365961Y-74786808D01*
X153617042Y-74923908D01*
X153617041Y-74923908D01*
X153885104Y-75023890D01*
X154164637Y-75084699D01*
X154449999Y-75105109D01*
X154450001Y-75105109D01*
X154735362Y-75084699D01*
X155014895Y-75023890D01*
X155282958Y-74923908D01*
X155534047Y-74786803D01*
X155676561Y-74680116D01*
X155676562Y-74680115D01*
X154659220Y-73662772D01*
X154752588Y-73624099D01*
X154877925Y-73527925D01*
X154974099Y-73402589D01*
X155012773Y-73309220D01*
X156030115Y-74326562D01*
X156030116Y-74326561D01*
X156136803Y-74184047D01*
X156273908Y-73932958D01*
X156373890Y-73664895D01*
X156434699Y-73385362D01*
X156455109Y-73100001D01*
X156455109Y-73099998D01*
X156434699Y-72814637D01*
X156373890Y-72535104D01*
X156273908Y-72267041D01*
X156136808Y-72015961D01*
X156136807Y-72015960D01*
X156030115Y-71873436D01*
X155012772Y-72890778D01*
X154974099Y-72797412D01*
X154877925Y-72672075D01*
X154752588Y-72575901D01*
X154659219Y-72537226D01*
X155676562Y-71519883D01*
X155676561Y-71519882D01*
X155534046Y-71413196D01*
X155534038Y-71413191D01*
X155282957Y-71276091D01*
X155282958Y-71276091D01*
X155014895Y-71176109D01*
X154735362Y-71115300D01*
X154450001Y-71094891D01*
X154449999Y-71094891D01*
X154164637Y-71115300D01*
X153885104Y-71176109D01*
X153617041Y-71276091D01*
X153365961Y-71413191D01*
X153365953Y-71413196D01*
X153223437Y-71519882D01*
X153223436Y-71519883D01*
X154240780Y-72537226D01*
X154147412Y-72575901D01*
X154022075Y-72672075D01*
X153925901Y-72797411D01*
X153887226Y-72890779D01*
X152869882Y-71873436D01*
X152763196Y-72015953D01*
X152763191Y-72015961D01*
X152626091Y-72267041D01*
X152526109Y-72535104D01*
X152465300Y-72814637D01*
X152444891Y-73099998D01*
X152444891Y-73100001D01*
X147003236Y-73100001D01*
X147009307Y-73050000D01*
X147005186Y-73016064D01*
X146990149Y-72892218D01*
X146934864Y-72746446D01*
X146933787Y-72743605D01*
X146843498Y-72612799D01*
X146843495Y-72612796D01*
X146843493Y-72612794D01*
X146724530Y-72507401D01*
X146583791Y-72433536D01*
X146429472Y-72395500D01*
X146429471Y-72395500D01*
X146270529Y-72395500D01*
X146270528Y-72395500D01*
X146116208Y-72433536D01*
X145975469Y-72507401D01*
X145856506Y-72612794D01*
X145856500Y-72612801D01*
X145766214Y-72743602D01*
X145709850Y-72892218D01*
X145690693Y-73049999D01*
X145690693Y-73050000D01*
X144459986Y-73050000D01*
X144443088Y-73016065D01*
X144319732Y-72852715D01*
X144319730Y-72852712D01*
X144168462Y-72714814D01*
X144168460Y-72714812D01*
X143994430Y-72607057D01*
X143994424Y-72607054D01*
X143843993Y-72548777D01*
X143803556Y-72533112D01*
X143602347Y-72495500D01*
X143397653Y-72495500D01*
X143196444Y-72533112D01*
X143196441Y-72533112D01*
X143196441Y-72533113D01*
X143005575Y-72607054D01*
X143005569Y-72607057D01*
X142831539Y-72714812D01*
X142831537Y-72714814D01*
X142680269Y-72852712D01*
X142556912Y-73016064D01*
X142465673Y-73199295D01*
X142465671Y-73199299D01*
X142465672Y-73199299D01*
X142420975Y-73356395D01*
X142409654Y-73396183D01*
X142390768Y-73599999D01*
X142390768Y-73600000D01*
X126662980Y-73600000D01*
X126690345Y-73503821D01*
X126709232Y-73300000D01*
X126690345Y-73096179D01*
X126634328Y-72899299D01*
X126543088Y-72716065D01*
X126465105Y-72612799D01*
X126419730Y-72552712D01*
X126268462Y-72414814D01*
X126268460Y-72414812D01*
X126094430Y-72307057D01*
X126094424Y-72307054D01*
X125943993Y-72248777D01*
X125903556Y-72233112D01*
X125702347Y-72195500D01*
X125497653Y-72195500D01*
X125296444Y-72233112D01*
X125296441Y-72233112D01*
X125296441Y-72233113D01*
X125105575Y-72307054D01*
X125105569Y-72307057D01*
X124931539Y-72414812D01*
X124931537Y-72414814D01*
X124780269Y-72552712D01*
X124656912Y-72716064D01*
X124565673Y-72899295D01*
X124509654Y-73096183D01*
X124490768Y-73299999D01*
X124490768Y-73300000D01*
X111000500Y-73300000D01*
X111000500Y-70760000D01*
X124490768Y-70760000D01*
X124509654Y-70963816D01*
X124509654Y-70963818D01*
X124509655Y-70963821D01*
X124565672Y-71160701D01*
X124565673Y-71160704D01*
X124656912Y-71343935D01*
X124780269Y-71507287D01*
X124931537Y-71645185D01*
X124931539Y-71645187D01*
X125105569Y-71752942D01*
X125105575Y-71752945D01*
X125146010Y-71768609D01*
X125296444Y-71826888D01*
X125497653Y-71864500D01*
X125497656Y-71864500D01*
X125702344Y-71864500D01*
X125702347Y-71864500D01*
X125903556Y-71826888D01*
X126094427Y-71752944D01*
X126268462Y-71645186D01*
X126419732Y-71507285D01*
X126543088Y-71343935D01*
X126634328Y-71160701D01*
X126662980Y-71060000D01*
X142390768Y-71060000D01*
X142409654Y-71263816D01*
X142409654Y-71263818D01*
X142409655Y-71263821D01*
X142452154Y-71413191D01*
X142465673Y-71460704D01*
X142556912Y-71643935D01*
X142680269Y-71807287D01*
X142831537Y-71945185D01*
X142831539Y-71945187D01*
X143005569Y-72052942D01*
X143005575Y-72052945D01*
X143046010Y-72068609D01*
X143196444Y-72126888D01*
X143397653Y-72164500D01*
X143397656Y-72164500D01*
X143602344Y-72164500D01*
X143602347Y-72164500D01*
X143803556Y-72126888D01*
X143994427Y-72052944D01*
X144168462Y-71945186D01*
X144319732Y-71807285D01*
X144443088Y-71643935D01*
X144534328Y-71460701D01*
X144590345Y-71263821D01*
X144609232Y-71060000D01*
X144590345Y-70856179D01*
X144534328Y-70659299D01*
X144443088Y-70476065D01*
X144319732Y-70312715D01*
X144319730Y-70312712D01*
X144168462Y-70174814D01*
X144168460Y-70174812D01*
X143994430Y-70067057D01*
X143994424Y-70067054D01*
X143843993Y-70008777D01*
X143803556Y-69993112D01*
X143602347Y-69955500D01*
X143397653Y-69955500D01*
X143196444Y-69993112D01*
X143196441Y-69993112D01*
X143196441Y-69993113D01*
X143005575Y-70067054D01*
X143005569Y-70067057D01*
X142831539Y-70174812D01*
X142831537Y-70174814D01*
X142680269Y-70312712D01*
X142556912Y-70476064D01*
X142465673Y-70659295D01*
X142409654Y-70856183D01*
X142390768Y-71059999D01*
X142390768Y-71060000D01*
X126662980Y-71060000D01*
X126690345Y-70963821D01*
X126709232Y-70760000D01*
X126690345Y-70556179D01*
X126634328Y-70359299D01*
X126543088Y-70176065D01*
X126419732Y-70012715D01*
X126419730Y-70012712D01*
X126268462Y-69874814D01*
X126268460Y-69874812D01*
X126094430Y-69767057D01*
X126094424Y-69767054D01*
X125943993Y-69708777D01*
X125903556Y-69693112D01*
X125702347Y-69655500D01*
X125497653Y-69655500D01*
X125296444Y-69693112D01*
X125296441Y-69693112D01*
X125296441Y-69693113D01*
X125105575Y-69767054D01*
X125105569Y-69767057D01*
X124931539Y-69874812D01*
X124931537Y-69874814D01*
X124780269Y-70012712D01*
X124656912Y-70176064D01*
X124565673Y-70359295D01*
X124509654Y-70556183D01*
X124490768Y-70759999D01*
X124490768Y-70760000D01*
X111000500Y-70760000D01*
X111000500Y-67700000D01*
X120840693Y-67700000D01*
X120859850Y-67857781D01*
X120889540Y-67936064D01*
X120916213Y-68006395D01*
X121006502Y-68137201D01*
X121006504Y-68137203D01*
X121006506Y-68137205D01*
X121125469Y-68242598D01*
X121125471Y-68242599D01*
X121266207Y-68316463D01*
X121343368Y-68335481D01*
X121420528Y-68354500D01*
X121420529Y-68354500D01*
X121579472Y-68354500D01*
X121630911Y-68341820D01*
X121733793Y-68316463D01*
X121874529Y-68242599D01*
X121900038Y-68220000D01*
X124490768Y-68220000D01*
X124509654Y-68423816D01*
X124565673Y-68620704D01*
X124656912Y-68803935D01*
X124780269Y-68967287D01*
X124931537Y-69105185D01*
X124931539Y-69105187D01*
X125105569Y-69212942D01*
X125105575Y-69212945D01*
X125146010Y-69228609D01*
X125296444Y-69286888D01*
X125497653Y-69324500D01*
X125497656Y-69324500D01*
X125702344Y-69324500D01*
X125702347Y-69324500D01*
X125903556Y-69286888D01*
X126094427Y-69212944D01*
X126268462Y-69105186D01*
X126419732Y-68967285D01*
X126543088Y-68803935D01*
X126634328Y-68620701D01*
X126662980Y-68520000D01*
X142390768Y-68520000D01*
X142409654Y-68723816D01*
X142409654Y-68723818D01*
X142409655Y-68723821D01*
X142465672Y-68920701D01*
X142465673Y-68920704D01*
X142556912Y-69103935D01*
X142680269Y-69267287D01*
X142831537Y-69405185D01*
X142831539Y-69405187D01*
X143005569Y-69512942D01*
X143005575Y-69512945D01*
X143046010Y-69528609D01*
X143196444Y-69586888D01*
X143397653Y-69624500D01*
X143397656Y-69624500D01*
X143602344Y-69624500D01*
X143602347Y-69624500D01*
X143803556Y-69586888D01*
X143994427Y-69512944D01*
X144168462Y-69405186D01*
X144319732Y-69267285D01*
X144443088Y-69103935D01*
X144534328Y-68920701D01*
X144590345Y-68723821D01*
X144609232Y-68520000D01*
X144590345Y-68316179D01*
X144534328Y-68119299D01*
X144443088Y-67936065D01*
X144319732Y-67772715D01*
X144319730Y-67772712D01*
X144168462Y-67634814D01*
X144168460Y-67634812D01*
X143994430Y-67527057D01*
X143994424Y-67527054D01*
X143843993Y-67468777D01*
X143803556Y-67453112D01*
X143602347Y-67415500D01*
X143397653Y-67415500D01*
X143196444Y-67453112D01*
X143196441Y-67453112D01*
X143196441Y-67453113D01*
X143005575Y-67527054D01*
X143005569Y-67527057D01*
X142831539Y-67634812D01*
X142831537Y-67634814D01*
X142680269Y-67772712D01*
X142556912Y-67936064D01*
X142465673Y-68119295D01*
X142409654Y-68316183D01*
X142390768Y-68519999D01*
X142390768Y-68520000D01*
X126662980Y-68520000D01*
X126690345Y-68423821D01*
X126709232Y-68220000D01*
X126690345Y-68016179D01*
X126634328Y-67819299D01*
X126543088Y-67636065D01*
X126419732Y-67472715D01*
X126419730Y-67472712D01*
X126268462Y-67334814D01*
X126268460Y-67334812D01*
X126094430Y-67227057D01*
X126094424Y-67227054D01*
X125943993Y-67168777D01*
X125903556Y-67153112D01*
X125702347Y-67115500D01*
X125497653Y-67115500D01*
X125296444Y-67153112D01*
X125296441Y-67153112D01*
X125296441Y-67153113D01*
X125105575Y-67227054D01*
X125105569Y-67227057D01*
X124931539Y-67334812D01*
X124931537Y-67334814D01*
X124780269Y-67472712D01*
X124656912Y-67636064D01*
X124565673Y-67819295D01*
X124509654Y-68016183D01*
X124490768Y-68219999D01*
X124490768Y-68220000D01*
X121900038Y-68220000D01*
X121993498Y-68137201D01*
X122083787Y-68006395D01*
X122140149Y-67857782D01*
X122159307Y-67700000D01*
X122140149Y-67542218D01*
X122083787Y-67393605D01*
X121993498Y-67262799D01*
X121993494Y-67262796D01*
X121993492Y-67262793D01*
X121921272Y-67198810D01*
X121884146Y-67139620D01*
X121879500Y-67105996D01*
X121879500Y-65680000D01*
X124490768Y-65680000D01*
X124509654Y-65883816D01*
X124509654Y-65883818D01*
X124509655Y-65883821D01*
X124515539Y-65904500D01*
X124565673Y-66080704D01*
X124656912Y-66263935D01*
X124780269Y-66427287D01*
X124931537Y-66565185D01*
X124931539Y-66565187D01*
X125105569Y-66672942D01*
X125105575Y-66672945D01*
X125146010Y-66688609D01*
X125296444Y-66746888D01*
X125497653Y-66784500D01*
X125497656Y-66784500D01*
X125702344Y-66784500D01*
X125702347Y-66784500D01*
X125903556Y-66746888D01*
X126094427Y-66672944D01*
X126268462Y-66565186D01*
X126419732Y-66427285D01*
X126543088Y-66263935D01*
X126634328Y-66080701D01*
X126662980Y-65980000D01*
X142390768Y-65980000D01*
X142409654Y-66183816D01*
X142409654Y-66183818D01*
X142409655Y-66183821D01*
X142465672Y-66380701D01*
X142465673Y-66380704D01*
X142556912Y-66563935D01*
X142680269Y-66727287D01*
X142831537Y-66865185D01*
X142831539Y-66865187D01*
X143005569Y-66972942D01*
X143005575Y-66972945D01*
X143046010Y-66988609D01*
X143196444Y-67046888D01*
X143397653Y-67084500D01*
X143397656Y-67084500D01*
X143602344Y-67084500D01*
X143602347Y-67084500D01*
X143803556Y-67046888D01*
X143994427Y-66972944D01*
X144168462Y-66865186D01*
X144319732Y-66727285D01*
X144443088Y-66563935D01*
X144534328Y-66380701D01*
X144590345Y-66183821D01*
X144609232Y-65980000D01*
X144590345Y-65776179D01*
X144561575Y-65675063D01*
X152645500Y-65675063D01*
X152660266Y-65749301D01*
X152716515Y-65833484D01*
X152750234Y-65856014D01*
X152800699Y-65889734D01*
X152800702Y-65889734D01*
X152800703Y-65889735D01*
X152825666Y-65894700D01*
X152874933Y-65904500D01*
X155925066Y-65904499D01*
X155999301Y-65889734D01*
X156083484Y-65833484D01*
X156139734Y-65749301D01*
X156154500Y-65675067D01*
X156154499Y-62624934D01*
X156139734Y-62550699D01*
X156121068Y-62522765D01*
X156083484Y-62466515D01*
X156033019Y-62432796D01*
X155999301Y-62410266D01*
X155999299Y-62410265D01*
X155999296Y-62410264D01*
X155925069Y-62395500D01*
X152874936Y-62395500D01*
X152800698Y-62410266D01*
X152716515Y-62466515D01*
X152660266Y-62550699D01*
X152660264Y-62550703D01*
X152645500Y-62624928D01*
X152645500Y-65675063D01*
X144561575Y-65675063D01*
X144534328Y-65579299D01*
X144443088Y-65396065D01*
X144319732Y-65232715D01*
X144319730Y-65232712D01*
X144168462Y-65094814D01*
X144168460Y-65094812D01*
X143994430Y-64987057D01*
X143994424Y-64987054D01*
X143843993Y-64928777D01*
X143803556Y-64913112D01*
X143602347Y-64875500D01*
X143397653Y-64875500D01*
X143196444Y-64913112D01*
X143196441Y-64913112D01*
X143196441Y-64913113D01*
X143005575Y-64987054D01*
X143005569Y-64987057D01*
X142831539Y-65094812D01*
X142831537Y-65094814D01*
X142680269Y-65232712D01*
X142556912Y-65396064D01*
X142465673Y-65579295D01*
X142465671Y-65579299D01*
X142465672Y-65579299D01*
X142417303Y-65749301D01*
X142409654Y-65776183D01*
X142390768Y-65979999D01*
X142390768Y-65980000D01*
X126662980Y-65980000D01*
X126690345Y-65883821D01*
X126709232Y-65680000D01*
X126690345Y-65476179D01*
X126634328Y-65279299D01*
X126543088Y-65096065D01*
X126419732Y-64932715D01*
X126419730Y-64932712D01*
X126268462Y-64794814D01*
X126268460Y-64794812D01*
X126094430Y-64687057D01*
X126094424Y-64687054D01*
X125943993Y-64628777D01*
X125903556Y-64613112D01*
X125702347Y-64575500D01*
X125497653Y-64575500D01*
X125296444Y-64613112D01*
X125296441Y-64613112D01*
X125296441Y-64613113D01*
X125105575Y-64687054D01*
X125105569Y-64687057D01*
X124931539Y-64794812D01*
X124931537Y-64794814D01*
X124780269Y-64932712D01*
X124656912Y-65096064D01*
X124565673Y-65279295D01*
X124509654Y-65476183D01*
X124490768Y-65679999D01*
X124490768Y-65680000D01*
X121879500Y-65680000D01*
X121879500Y-63358554D01*
X121899185Y-63291515D01*
X121915814Y-63270878D01*
X122046692Y-63140000D01*
X124490768Y-63140000D01*
X124509654Y-63343816D01*
X124565673Y-63540704D01*
X124656912Y-63723935D01*
X124780269Y-63887287D01*
X124931537Y-64025185D01*
X124931539Y-64025187D01*
X125105569Y-64132942D01*
X125105575Y-64132945D01*
X125146010Y-64148609D01*
X125296444Y-64206888D01*
X125497653Y-64244500D01*
X125497656Y-64244500D01*
X125702344Y-64244500D01*
X125702347Y-64244500D01*
X125903556Y-64206888D01*
X126094427Y-64132944D01*
X126268462Y-64025186D01*
X126419732Y-63887285D01*
X126543088Y-63723935D01*
X126634328Y-63540701D01*
X126662980Y-63440000D01*
X142390768Y-63440000D01*
X142409654Y-63643816D01*
X142409654Y-63643818D01*
X142409655Y-63643821D01*
X142443506Y-63762794D01*
X142465673Y-63840704D01*
X142556912Y-64023935D01*
X142680269Y-64187287D01*
X142831537Y-64325185D01*
X142831539Y-64325187D01*
X143005569Y-64432942D01*
X143005575Y-64432945D01*
X143046010Y-64448609D01*
X143196444Y-64506888D01*
X143397653Y-64544500D01*
X143397656Y-64544500D01*
X143602344Y-64544500D01*
X143602347Y-64544500D01*
X143803556Y-64506888D01*
X143994427Y-64432944D01*
X144168462Y-64325186D01*
X144305784Y-64200000D01*
X146890693Y-64200000D01*
X146909850Y-64357781D01*
X146938356Y-64432942D01*
X146966213Y-64506395D01*
X147056502Y-64637201D01*
X147056504Y-64637203D01*
X147056506Y-64637205D01*
X147175469Y-64742598D01*
X147175471Y-64742599D01*
X147316207Y-64816463D01*
X147393368Y-64835481D01*
X147470528Y-64854500D01*
X147470529Y-64854500D01*
X147629472Y-64854500D01*
X147680911Y-64841821D01*
X147783793Y-64816463D01*
X147924529Y-64742599D01*
X147925995Y-64741299D01*
X147932335Y-64735684D01*
X147995568Y-64705963D01*
X148014561Y-64704500D01*
X150285439Y-64704500D01*
X150352478Y-64724185D01*
X150367665Y-64735684D01*
X150375469Y-64742598D01*
X150375471Y-64742599D01*
X150516207Y-64816463D01*
X150593368Y-64835481D01*
X150670528Y-64854500D01*
X150670529Y-64854500D01*
X150829472Y-64854500D01*
X150880911Y-64841821D01*
X150983793Y-64816463D01*
X151124529Y-64742599D01*
X151243498Y-64637201D01*
X151333787Y-64506395D01*
X151390149Y-64357782D01*
X151409307Y-64200000D01*
X151390149Y-64042218D01*
X151333787Y-63893605D01*
X151243498Y-63762799D01*
X151243495Y-63762796D01*
X151243493Y-63762794D01*
X151124530Y-63657401D01*
X150983791Y-63583536D01*
X150829472Y-63545500D01*
X150829471Y-63545500D01*
X150670529Y-63545500D01*
X150670528Y-63545500D01*
X150516208Y-63583536D01*
X150375469Y-63657401D01*
X150367665Y-63664316D01*
X150304432Y-63694037D01*
X150285439Y-63695500D01*
X148014561Y-63695500D01*
X147947522Y-63675815D01*
X147932335Y-63664316D01*
X147924530Y-63657401D01*
X147783791Y-63583536D01*
X147629472Y-63545500D01*
X147629471Y-63545500D01*
X147470529Y-63545500D01*
X147470528Y-63545500D01*
X147316208Y-63583536D01*
X147175469Y-63657401D01*
X147056506Y-63762794D01*
X147056500Y-63762801D01*
X146966214Y-63893602D01*
X146909850Y-64042218D01*
X146890693Y-64199999D01*
X146890693Y-64200000D01*
X144305784Y-64200000D01*
X144319732Y-64187285D01*
X144443088Y-64023935D01*
X144534328Y-63840701D01*
X144590345Y-63643821D01*
X144609232Y-63440000D01*
X144590345Y-63236179D01*
X144534328Y-63039299D01*
X144443088Y-62856065D01*
X144319732Y-62692715D01*
X144319730Y-62692712D01*
X144168462Y-62554814D01*
X144168460Y-62554812D01*
X143994430Y-62447057D01*
X143994424Y-62447054D01*
X143839916Y-62387198D01*
X143803556Y-62373112D01*
X143602347Y-62335500D01*
X143397653Y-62335500D01*
X143196444Y-62373112D01*
X143196441Y-62373112D01*
X143196441Y-62373113D01*
X143005575Y-62447054D01*
X143005569Y-62447057D01*
X142831539Y-62554812D01*
X142831537Y-62554814D01*
X142680269Y-62692712D01*
X142556912Y-62856064D01*
X142465673Y-63039295D01*
X142409654Y-63236183D01*
X142390768Y-63439999D01*
X142390768Y-63440000D01*
X126662980Y-63440000D01*
X126690345Y-63343821D01*
X126709232Y-63140000D01*
X126690345Y-62936179D01*
X126634328Y-62739299D01*
X126543088Y-62556065D01*
X126432986Y-62410266D01*
X126419730Y-62392712D01*
X126268462Y-62254814D01*
X126268460Y-62254812D01*
X126094430Y-62147057D01*
X126094424Y-62147054D01*
X125943993Y-62088777D01*
X125903556Y-62073112D01*
X125702347Y-62035500D01*
X125497653Y-62035500D01*
X125296444Y-62073112D01*
X125296441Y-62073112D01*
X125296441Y-62073113D01*
X125105575Y-62147054D01*
X125105569Y-62147057D01*
X124931539Y-62254812D01*
X124931537Y-62254814D01*
X124780269Y-62392712D01*
X124656912Y-62556064D01*
X124565673Y-62739295D01*
X124565671Y-62739299D01*
X124565672Y-62739299D01*
X124519658Y-62901024D01*
X124509654Y-62936183D01*
X124490768Y-63139999D01*
X124490768Y-63140000D01*
X122046692Y-63140000D01*
X122545873Y-62640818D01*
X122607197Y-62607334D01*
X122633555Y-62604500D01*
X122779472Y-62604500D01*
X122830911Y-62591820D01*
X122933793Y-62566463D01*
X123074529Y-62492599D01*
X123193498Y-62387201D01*
X123283787Y-62256395D01*
X123340149Y-62107782D01*
X123359307Y-61950000D01*
X123340149Y-61792218D01*
X123283787Y-61643605D01*
X123193498Y-61512799D01*
X123193495Y-61512796D01*
X123193493Y-61512794D01*
X123074530Y-61407401D01*
X122933791Y-61333536D01*
X122779472Y-61295500D01*
X122779471Y-61295500D01*
X122620529Y-61295500D01*
X122620528Y-61295500D01*
X122466208Y-61333536D01*
X122325469Y-61407401D01*
X122206506Y-61512794D01*
X122206500Y-61512801D01*
X122116214Y-61643602D01*
X122059850Y-61792218D01*
X122040693Y-61949999D01*
X122040693Y-61950000D01*
X122046691Y-61999401D01*
X122035230Y-62068325D01*
X122011276Y-62102028D01*
X121268577Y-62844727D01*
X121248727Y-62860848D01*
X121239419Y-62866929D01*
X121217359Y-62895272D01*
X121212281Y-62901024D01*
X121209424Y-62903881D01*
X121209420Y-62903885D01*
X121209419Y-62903887D01*
X121195705Y-62923093D01*
X121173992Y-62950990D01*
X121161623Y-62966883D01*
X121157849Y-62973857D01*
X121154345Y-62981023D01*
X121138520Y-63034182D01*
X121120500Y-63086670D01*
X121119195Y-63094487D01*
X121118207Y-63102413D01*
X121120500Y-63157824D01*
X121120500Y-67105996D01*
X121100815Y-67173035D01*
X121078728Y-67198810D01*
X121006507Y-67262793D01*
X121006500Y-67262801D01*
X120916214Y-67393602D01*
X120859850Y-67542218D01*
X120840693Y-67699999D01*
X120840693Y-67700000D01*
X111000500Y-67700000D01*
X111000500Y-60450000D01*
X118016193Y-60450000D01*
X118035350Y-60607781D01*
X118060351Y-60673702D01*
X118091713Y-60756395D01*
X118182002Y-60887201D01*
X118182004Y-60887203D01*
X118182006Y-60887205D01*
X118300969Y-60992598D01*
X118300971Y-60992599D01*
X118441707Y-61066463D01*
X118518867Y-61085481D01*
X118596028Y-61104500D01*
X118596029Y-61104500D01*
X118754972Y-61104500D01*
X118806411Y-61091820D01*
X118909293Y-61066463D01*
X119050029Y-60992599D01*
X119168998Y-60887201D01*
X119259287Y-60756395D01*
X119315649Y-60607782D01*
X119316594Y-60600000D01*
X124490768Y-60600000D01*
X124509654Y-60803816D01*
X124509654Y-60803818D01*
X124509655Y-60803821D01*
X124538301Y-60904500D01*
X124565673Y-61000704D01*
X124656912Y-61183935D01*
X124780269Y-61347287D01*
X124931537Y-61485185D01*
X124931539Y-61485187D01*
X125105569Y-61592942D01*
X125105575Y-61592945D01*
X125146010Y-61608609D01*
X125296444Y-61666888D01*
X125497653Y-61704500D01*
X125497656Y-61704500D01*
X125702344Y-61704500D01*
X125702347Y-61704500D01*
X125903556Y-61666888D01*
X126094427Y-61592944D01*
X126268462Y-61485186D01*
X126419732Y-61347285D01*
X126543088Y-61183935D01*
X126634328Y-61000701D01*
X126662980Y-60900000D01*
X142390768Y-60900000D01*
X142409654Y-61103816D01*
X142409654Y-61103818D01*
X142409655Y-61103821D01*
X142464192Y-61295500D01*
X142465673Y-61300704D01*
X142556912Y-61483935D01*
X142680269Y-61647287D01*
X142831537Y-61785185D01*
X142831539Y-61785187D01*
X143005569Y-61892942D01*
X143005575Y-61892945D01*
X143046010Y-61908609D01*
X143196444Y-61966888D01*
X143397653Y-62004500D01*
X143397656Y-62004500D01*
X143602344Y-62004500D01*
X143602347Y-62004500D01*
X143803556Y-61966888D01*
X143994427Y-61892944D01*
X144168462Y-61785186D01*
X144319732Y-61647285D01*
X144443088Y-61483935D01*
X144534328Y-61300701D01*
X144590345Y-61103821D01*
X144609232Y-60900000D01*
X144590345Y-60696179D01*
X144534328Y-60499299D01*
X144443088Y-60316065D01*
X144319732Y-60152715D01*
X144319730Y-60152712D01*
X144168462Y-60014814D01*
X144168460Y-60014812D01*
X143994430Y-59907057D01*
X143994424Y-59907054D01*
X143843993Y-59848777D01*
X143803556Y-59833112D01*
X143602347Y-59795500D01*
X143397653Y-59795500D01*
X143196444Y-59833112D01*
X143196441Y-59833112D01*
X143196441Y-59833113D01*
X143005575Y-59907054D01*
X143005569Y-59907057D01*
X142831539Y-60014812D01*
X142831537Y-60014814D01*
X142680269Y-60152712D01*
X142556912Y-60316064D01*
X142465673Y-60499295D01*
X142409654Y-60696183D01*
X142390768Y-60899999D01*
X142390768Y-60900000D01*
X126662980Y-60900000D01*
X126690345Y-60803821D01*
X126709232Y-60600000D01*
X126690345Y-60396179D01*
X126634328Y-60199299D01*
X126543088Y-60016065D01*
X126419732Y-59852715D01*
X126419730Y-59852712D01*
X126268462Y-59714814D01*
X126268460Y-59714812D01*
X126094430Y-59607057D01*
X126094424Y-59607054D01*
X125943993Y-59548777D01*
X125903556Y-59533112D01*
X125702347Y-59495500D01*
X125497653Y-59495500D01*
X125296444Y-59533112D01*
X125296441Y-59533112D01*
X125296441Y-59533113D01*
X125105575Y-59607054D01*
X125105569Y-59607057D01*
X124931539Y-59714812D01*
X124931537Y-59714814D01*
X124780269Y-59852712D01*
X124656912Y-60016064D01*
X124565673Y-60199295D01*
X124509654Y-60396183D01*
X124490768Y-60599999D01*
X124490768Y-60600000D01*
X119316594Y-60600000D01*
X119334807Y-60450000D01*
X119328808Y-60400595D01*
X119340268Y-60331674D01*
X119364220Y-60297972D01*
X119774311Y-59887881D01*
X119835632Y-59854398D01*
X119905324Y-59859382D01*
X119919614Y-59865767D01*
X119998285Y-59907057D01*
X120016207Y-59916463D01*
X120016206Y-59916463D01*
X120170528Y-59954500D01*
X120170529Y-59954500D01*
X120329472Y-59954500D01*
X120380911Y-59941820D01*
X120483793Y-59916463D01*
X120624529Y-59842599D01*
X120743498Y-59737201D01*
X120833787Y-59606395D01*
X120890149Y-59457782D01*
X120909307Y-59300000D01*
X120890149Y-59142218D01*
X120833787Y-58993605D01*
X120743498Y-58862799D01*
X120743495Y-58862796D01*
X120743493Y-58862794D01*
X120624530Y-58757401D01*
X120483791Y-58683536D01*
X120329472Y-58645500D01*
X120329471Y-58645500D01*
X120170529Y-58645500D01*
X120170528Y-58645500D01*
X120016208Y-58683536D01*
X119875469Y-58757401D01*
X119756506Y-58862794D01*
X119756501Y-58862800D01*
X119725972Y-58907028D01*
X119682943Y-58945640D01*
X119651791Y-58962499D01*
X119601934Y-58986872D01*
X119595469Y-58991487D01*
X119589185Y-58996379D01*
X119551619Y-59037186D01*
X118829624Y-59759181D01*
X118768301Y-59792666D01*
X118741943Y-59795500D01*
X118596028Y-59795500D01*
X118441708Y-59833536D01*
X118300969Y-59907401D01*
X118182006Y-60012794D01*
X118182000Y-60012801D01*
X118091714Y-60143602D01*
X118035350Y-60292218D01*
X118016193Y-60449999D01*
X118016193Y-60450000D01*
X111000500Y-60450000D01*
X111000500Y-58060000D01*
X124490768Y-58060000D01*
X124509654Y-58263816D01*
X124565673Y-58460704D01*
X124656912Y-58643935D01*
X124780269Y-58807287D01*
X124931537Y-58945185D01*
X124931539Y-58945187D01*
X125105569Y-59052942D01*
X125105575Y-59052945D01*
X125146010Y-59068609D01*
X125296444Y-59126888D01*
X125497653Y-59164500D01*
X125497656Y-59164500D01*
X125702344Y-59164500D01*
X125702347Y-59164500D01*
X125903556Y-59126888D01*
X126094427Y-59052944D01*
X126268462Y-58945186D01*
X126419732Y-58807285D01*
X126543088Y-58643935D01*
X126634328Y-58460701D01*
X126690345Y-58263821D01*
X126709232Y-58060000D01*
X126690345Y-57856179D01*
X126634328Y-57659299D01*
X126543088Y-57476065D01*
X126419732Y-57312715D01*
X126419730Y-57312712D01*
X126268462Y-57174814D01*
X126268460Y-57174812D01*
X126094430Y-57067057D01*
X126094424Y-57067054D01*
X125943993Y-57008777D01*
X125903556Y-56993112D01*
X125702347Y-56955500D01*
X125497653Y-56955500D01*
X125296444Y-56993112D01*
X125296441Y-56993112D01*
X125296441Y-56993113D01*
X125105575Y-57067054D01*
X125105569Y-57067057D01*
X124931539Y-57174812D01*
X124931537Y-57174814D01*
X124780269Y-57312712D01*
X124656912Y-57476064D01*
X124565673Y-57659295D01*
X124509654Y-57856183D01*
X124490768Y-58059999D01*
X124490768Y-58060000D01*
X111000500Y-58060000D01*
X111000500Y-55520000D01*
X124490768Y-55520000D01*
X124509654Y-55723816D01*
X124509654Y-55723818D01*
X124509655Y-55723821D01*
X124557474Y-55891889D01*
X124565673Y-55920704D01*
X124656912Y-56103935D01*
X124780269Y-56267287D01*
X124931537Y-56405185D01*
X124931539Y-56405187D01*
X125105569Y-56512942D01*
X125105575Y-56512945D01*
X125146010Y-56528609D01*
X125296444Y-56586888D01*
X125497653Y-56624500D01*
X125497656Y-56624500D01*
X125702344Y-56624500D01*
X125702347Y-56624500D01*
X125903556Y-56586888D01*
X126094427Y-56512944D01*
X126268462Y-56405186D01*
X126419732Y-56267285D01*
X126543088Y-56103935D01*
X126559986Y-56070000D01*
X142169364Y-56070000D01*
X142226567Y-56283486D01*
X142226570Y-56283492D01*
X142326399Y-56497578D01*
X142461894Y-56691082D01*
X142628917Y-56858105D01*
X142822421Y-56993600D01*
X143036507Y-57093429D01*
X143036516Y-57093433D01*
X143069037Y-57102147D01*
X143128698Y-57138512D01*
X143159227Y-57201358D01*
X143150933Y-57270734D01*
X143106448Y-57324612D01*
X143081739Y-57337548D01*
X143005581Y-57367052D01*
X143005569Y-57367057D01*
X142831539Y-57474812D01*
X142831537Y-57474814D01*
X142680269Y-57612712D01*
X142556912Y-57776064D01*
X142465673Y-57959295D01*
X142409654Y-58156183D01*
X142390768Y-58359999D01*
X142390768Y-58360000D01*
X142409654Y-58563816D01*
X142409654Y-58563818D01*
X142409655Y-58563821D01*
X142432895Y-58645500D01*
X142465673Y-58760704D01*
X142556912Y-58943935D01*
X142680269Y-59107287D01*
X142831537Y-59245185D01*
X142831539Y-59245187D01*
X143005569Y-59352942D01*
X143005575Y-59352945D01*
X143046010Y-59368609D01*
X143196444Y-59426888D01*
X143397653Y-59464500D01*
X143397656Y-59464500D01*
X143602344Y-59464500D01*
X143602347Y-59464500D01*
X143803556Y-59426888D01*
X143994427Y-59352944D01*
X144168462Y-59245186D01*
X144272872Y-59150004D01*
X152640580Y-59150004D01*
X152660229Y-59412218D01*
X152660230Y-59412223D01*
X152718742Y-59668584D01*
X152718744Y-59668593D01*
X152718746Y-59668598D01*
X152814817Y-59913384D01*
X152946299Y-60141117D01*
X153110254Y-60346710D01*
X153303020Y-60525570D01*
X153520290Y-60673702D01*
X153757212Y-60787798D01*
X154008492Y-60865308D01*
X154008493Y-60865308D01*
X154008496Y-60865309D01*
X154268510Y-60904499D01*
X154268515Y-60904499D01*
X154268518Y-60904500D01*
X154268519Y-60904500D01*
X154531481Y-60904500D01*
X154531482Y-60904500D01*
X154531489Y-60904499D01*
X154791503Y-60865309D01*
X154791504Y-60865308D01*
X154791508Y-60865308D01*
X155042788Y-60787798D01*
X155279710Y-60673702D01*
X155496980Y-60525570D01*
X155689746Y-60346710D01*
X155853701Y-60141117D01*
X155985183Y-59913384D01*
X156081254Y-59668598D01*
X156139769Y-59412228D01*
X156148179Y-59300000D01*
X156159420Y-59150004D01*
X156159420Y-59149995D01*
X156139770Y-58887781D01*
X156139769Y-58887776D01*
X156139769Y-58887772D01*
X156081254Y-58631402D01*
X155985183Y-58386616D01*
X155853701Y-58158883D01*
X155689746Y-57953290D01*
X155496980Y-57774430D01*
X155279710Y-57626298D01*
X155279707Y-57626297D01*
X155279705Y-57626295D01*
X155042788Y-57512202D01*
X154791509Y-57434692D01*
X154791503Y-57434690D01*
X154531489Y-57395500D01*
X154531482Y-57395500D01*
X154268518Y-57395500D01*
X154268510Y-57395500D01*
X154008496Y-57434690D01*
X154008490Y-57434692D01*
X153757211Y-57512202D01*
X153520294Y-57626295D01*
X153303019Y-57774430D01*
X153110256Y-57953288D01*
X153110254Y-57953290D01*
X152946299Y-58158883D01*
X152814817Y-58386615D01*
X152718748Y-58631396D01*
X152718742Y-58631415D01*
X152660230Y-58887776D01*
X152660229Y-58887781D01*
X152640580Y-59149995D01*
X152640580Y-59150004D01*
X144272872Y-59150004D01*
X144319732Y-59107285D01*
X144443088Y-58943935D01*
X144534328Y-58760701D01*
X144590345Y-58563821D01*
X144609232Y-58360000D01*
X144590345Y-58156179D01*
X144534328Y-57959299D01*
X144443088Y-57776065D01*
X144354908Y-57659295D01*
X144319730Y-57612712D01*
X144168462Y-57474814D01*
X144168460Y-57474812D01*
X143994430Y-57367057D01*
X143994424Y-57367054D01*
X143918261Y-57337549D01*
X143862859Y-57294976D01*
X143839269Y-57229209D01*
X143854980Y-57161129D01*
X143905004Y-57112350D01*
X143930963Y-57102147D01*
X143963481Y-57093434D01*
X143963492Y-57093429D01*
X144177578Y-56993600D01*
X144371082Y-56858105D01*
X144538105Y-56691082D01*
X144673600Y-56497578D01*
X144773429Y-56283492D01*
X144773432Y-56283486D01*
X144830636Y-56070000D01*
X143933686Y-56070000D01*
X143959493Y-56029844D01*
X144000000Y-55891889D01*
X144000000Y-55748111D01*
X143959493Y-55610156D01*
X143933686Y-55570000D01*
X144830636Y-55570000D01*
X144830635Y-55569999D01*
X144773432Y-55356513D01*
X144773429Y-55356507D01*
X144673600Y-55142422D01*
X144673599Y-55142420D01*
X144538113Y-54948926D01*
X144538108Y-54948920D01*
X144371082Y-54781894D01*
X144177578Y-54646399D01*
X144122853Y-54620881D01*
X144070414Y-54574709D01*
X144051262Y-54507515D01*
X144071478Y-54440634D01*
X144124643Y-54395299D01*
X144175257Y-54384499D01*
X144375066Y-54384499D01*
X144449301Y-54369734D01*
X144533484Y-54313484D01*
X144589734Y-54229301D01*
X144604500Y-54155067D01*
X144604500Y-54150001D01*
X152394891Y-54150001D01*
X152415300Y-54435362D01*
X152476109Y-54714895D01*
X152576091Y-54982958D01*
X152713191Y-55234038D01*
X152713196Y-55234046D01*
X152819882Y-55376561D01*
X152819883Y-55376562D01*
X153837226Y-54359219D01*
X153875901Y-54452588D01*
X153972075Y-54577925D01*
X154097412Y-54674099D01*
X154190779Y-54712772D01*
X153173436Y-55730115D01*
X153315960Y-55836807D01*
X153315961Y-55836808D01*
X153567042Y-55973908D01*
X153567041Y-55973908D01*
X153835104Y-56073890D01*
X154114637Y-56134699D01*
X154399999Y-56155109D01*
X154400001Y-56155109D01*
X154685362Y-56134699D01*
X154964895Y-56073890D01*
X155232958Y-55973908D01*
X155484047Y-55836803D01*
X155626561Y-55730116D01*
X155626562Y-55730115D01*
X154609220Y-54712772D01*
X154702588Y-54674099D01*
X154827925Y-54577925D01*
X154924099Y-54452589D01*
X154962773Y-54359220D01*
X155980115Y-55376562D01*
X155980116Y-55376561D01*
X156086803Y-55234047D01*
X156223908Y-54982958D01*
X156323890Y-54714895D01*
X156384699Y-54435362D01*
X156405109Y-54150001D01*
X156405109Y-54149998D01*
X156384699Y-53864637D01*
X156323890Y-53585104D01*
X156223908Y-53317041D01*
X156086808Y-53065961D01*
X156086807Y-53065960D01*
X155980115Y-52923436D01*
X154962772Y-53940779D01*
X154924099Y-53847412D01*
X154827925Y-53722075D01*
X154702588Y-53625901D01*
X154609219Y-53587226D01*
X155626562Y-52569883D01*
X155626561Y-52569882D01*
X155484046Y-52463196D01*
X155484038Y-52463191D01*
X155232957Y-52326091D01*
X155232958Y-52326091D01*
X154964895Y-52226109D01*
X154685362Y-52165300D01*
X154400001Y-52144891D01*
X154399999Y-52144891D01*
X154114637Y-52165300D01*
X153835104Y-52226109D01*
X153567041Y-52326091D01*
X153315961Y-52463191D01*
X153315953Y-52463196D01*
X153173437Y-52569882D01*
X153173436Y-52569883D01*
X154190780Y-53587226D01*
X154097412Y-53625901D01*
X153972075Y-53722075D01*
X153875901Y-53847411D01*
X153837226Y-53940779D01*
X152819883Y-52923436D01*
X152819882Y-52923437D01*
X152713196Y-53065953D01*
X152713191Y-53065961D01*
X152576091Y-53317041D01*
X152476109Y-53585104D01*
X152415300Y-53864637D01*
X152394891Y-54149998D01*
X152394891Y-54150001D01*
X144604500Y-54150001D01*
X144604499Y-52404934D01*
X144589734Y-52330699D01*
X144571068Y-52302765D01*
X144533484Y-52246515D01*
X144483019Y-52212796D01*
X144449301Y-52190266D01*
X144449299Y-52190265D01*
X144449296Y-52190264D01*
X144375069Y-52175500D01*
X142624936Y-52175500D01*
X142550698Y-52190266D01*
X142466515Y-52246515D01*
X142410266Y-52330699D01*
X142410264Y-52330703D01*
X142395500Y-52404928D01*
X142395500Y-54155063D01*
X142410266Y-54229301D01*
X142466515Y-54313484D01*
X142500234Y-54336014D01*
X142550699Y-54369734D01*
X142550702Y-54369734D01*
X142550703Y-54369735D01*
X142575666Y-54374700D01*
X142624933Y-54384500D01*
X142824742Y-54384499D01*
X142891779Y-54404183D01*
X142937534Y-54456987D01*
X142947478Y-54526145D01*
X142918453Y-54589701D01*
X142877146Y-54620880D01*
X142822427Y-54646396D01*
X142822420Y-54646400D01*
X142628926Y-54781886D01*
X142628920Y-54781891D01*
X142461891Y-54948920D01*
X142461886Y-54948926D01*
X142326400Y-55142420D01*
X142326399Y-55142422D01*
X142226570Y-55356507D01*
X142226567Y-55356513D01*
X142169364Y-55569999D01*
X142169364Y-55570000D01*
X143066314Y-55570000D01*
X143040507Y-55610156D01*
X143000000Y-55748111D01*
X143000000Y-55891889D01*
X143040507Y-56029844D01*
X143066314Y-56070000D01*
X142169364Y-56070000D01*
X126559986Y-56070000D01*
X126634328Y-55920701D01*
X126690345Y-55723821D01*
X126709232Y-55520000D01*
X126690345Y-55316179D01*
X126634328Y-55119299D01*
X126543088Y-54936065D01*
X126426664Y-54781894D01*
X126419730Y-54772712D01*
X126268462Y-54634814D01*
X126268460Y-54634812D01*
X126094430Y-54527057D01*
X126094424Y-54527054D01*
X125943993Y-54468777D01*
X125903556Y-54453112D01*
X125702347Y-54415500D01*
X125497653Y-54415500D01*
X125296444Y-54453112D01*
X125296441Y-54453112D01*
X125296441Y-54453113D01*
X125105575Y-54527054D01*
X125105569Y-54527057D01*
X124931539Y-54634812D01*
X124931537Y-54634814D01*
X124780269Y-54772712D01*
X124656912Y-54936064D01*
X124565673Y-55119295D01*
X124559093Y-55142422D01*
X124533024Y-55234047D01*
X124509654Y-55316183D01*
X124490768Y-55519999D01*
X124490768Y-55520000D01*
X111000500Y-55520000D01*
X111000500Y-54375063D01*
X112855500Y-54375063D01*
X112870266Y-54449301D01*
X112926515Y-54533484D01*
X112960234Y-54556014D01*
X113010699Y-54589734D01*
X113010702Y-54589734D01*
X113010703Y-54589735D01*
X113035666Y-54594700D01*
X113084933Y-54604500D01*
X114835066Y-54604499D01*
X114909301Y-54589734D01*
X114993484Y-54533484D01*
X115049734Y-54449301D01*
X115064500Y-54375067D01*
X115064499Y-53500000D01*
X115390768Y-53500000D01*
X115409654Y-53703816D01*
X115465673Y-53900704D01*
X115556912Y-54083935D01*
X115680269Y-54247287D01*
X115814587Y-54369733D01*
X115830785Y-54384500D01*
X115831537Y-54385185D01*
X115831539Y-54385187D01*
X116005569Y-54492942D01*
X116005575Y-54492945D01*
X116032958Y-54503553D01*
X116196444Y-54566888D01*
X116397653Y-54604500D01*
X116397656Y-54604500D01*
X116602344Y-54604500D01*
X116602347Y-54604500D01*
X116803556Y-54566888D01*
X116994427Y-54492944D01*
X117168462Y-54385186D01*
X117319732Y-54247285D01*
X117443088Y-54083935D01*
X117528380Y-53912645D01*
X117575883Y-53861408D01*
X117643545Y-53843987D01*
X117709886Y-53865912D01*
X117753841Y-53920224D01*
X117759155Y-53935823D01*
X117766567Y-53963485D01*
X117766570Y-53963492D01*
X117866399Y-54177578D01*
X118001894Y-54371082D01*
X118168917Y-54538105D01*
X118362421Y-54673600D01*
X118576507Y-54773429D01*
X118576516Y-54773433D01*
X118790000Y-54830634D01*
X118790000Y-53935501D01*
X118897685Y-53984680D01*
X119004237Y-54000000D01*
X119075763Y-54000000D01*
X119182315Y-53984680D01*
X119290000Y-53935501D01*
X119290000Y-54830634D01*
X119503483Y-54773433D01*
X119503492Y-54773429D01*
X119717578Y-54673600D01*
X119911082Y-54538105D01*
X120078105Y-54371082D01*
X120213600Y-54177578D01*
X120313429Y-53963492D01*
X120313432Y-53963486D01*
X120342484Y-53855063D01*
X124495500Y-53855063D01*
X124510266Y-53929301D01*
X124566515Y-54013484D01*
X124600234Y-54036014D01*
X124650699Y-54069734D01*
X124650702Y-54069734D01*
X124650703Y-54069735D01*
X124675666Y-54074700D01*
X124724933Y-54084500D01*
X126475066Y-54084499D01*
X126549301Y-54069734D01*
X126633484Y-54013484D01*
X126689734Y-53929301D01*
X126704500Y-53855067D01*
X126704499Y-52104934D01*
X126689734Y-52030699D01*
X126671068Y-52002764D01*
X126633484Y-51946515D01*
X126583019Y-51912796D01*
X126549301Y-51890266D01*
X126549299Y-51890265D01*
X126549296Y-51890264D01*
X126475069Y-51875500D01*
X124724936Y-51875500D01*
X124650698Y-51890266D01*
X124566515Y-51946515D01*
X124510266Y-52030699D01*
X124510264Y-52030703D01*
X124495500Y-52104928D01*
X124495500Y-53855063D01*
X120342484Y-53855063D01*
X120370636Y-53750000D01*
X119473686Y-53750000D01*
X119499493Y-53709844D01*
X119540000Y-53571889D01*
X119540000Y-53428111D01*
X119499493Y-53290156D01*
X119473686Y-53250000D01*
X120370636Y-53250000D01*
X120370635Y-53249999D01*
X120313432Y-53036513D01*
X120313429Y-53036507D01*
X120213600Y-52822422D01*
X120213599Y-52822420D01*
X120078113Y-52628926D01*
X120078108Y-52628920D01*
X119911082Y-52461894D01*
X119717578Y-52326399D01*
X119503492Y-52226570D01*
X119503486Y-52226567D01*
X119290000Y-52169364D01*
X119290000Y-53064498D01*
X119182315Y-53015320D01*
X119075763Y-53000000D01*
X119004237Y-53000000D01*
X118897685Y-53015320D01*
X118790000Y-53064498D01*
X118790000Y-52169364D01*
X118789999Y-52169364D01*
X118576513Y-52226567D01*
X118576507Y-52226570D01*
X118362422Y-52326399D01*
X118362420Y-52326400D01*
X118168926Y-52461886D01*
X118168920Y-52461891D01*
X118001891Y-52628920D01*
X118001886Y-52628926D01*
X117866400Y-52822420D01*
X117866399Y-52822422D01*
X117766570Y-53036507D01*
X117766564Y-53036522D01*
X117759154Y-53064177D01*
X117722788Y-53123837D01*
X117659941Y-53154365D01*
X117590566Y-53146070D01*
X117536688Y-53101583D01*
X117528380Y-53087354D01*
X117522252Y-53075048D01*
X117443088Y-52916065D01*
X117319732Y-52752715D01*
X117319730Y-52752712D01*
X117168462Y-52614814D01*
X117168460Y-52614812D01*
X116994430Y-52507057D01*
X116994424Y-52507054D01*
X116843993Y-52448777D01*
X116803556Y-52433112D01*
X116602347Y-52395500D01*
X116397653Y-52395500D01*
X116196444Y-52433112D01*
X116196441Y-52433112D01*
X116196441Y-52433113D01*
X116005575Y-52507054D01*
X116005569Y-52507057D01*
X115831539Y-52614812D01*
X115831537Y-52614814D01*
X115680269Y-52752712D01*
X115556912Y-52916064D01*
X115465673Y-53099295D01*
X115409654Y-53296183D01*
X115390768Y-53499999D01*
X115390768Y-53500000D01*
X115064499Y-53500000D01*
X115064499Y-52624934D01*
X115049734Y-52550699D01*
X115020571Y-52507054D01*
X114993484Y-52466515D01*
X114943019Y-52432796D01*
X114909301Y-52410266D01*
X114909299Y-52410265D01*
X114909296Y-52410264D01*
X114835069Y-52395500D01*
X113084936Y-52395500D01*
X113010698Y-52410266D01*
X112926515Y-52466515D01*
X112870266Y-52550699D01*
X112870264Y-52550703D01*
X112855500Y-52624928D01*
X112855500Y-54375063D01*
X111000500Y-54375063D01*
X111000500Y-49624500D01*
X111020185Y-49557461D01*
X111072989Y-49511706D01*
X111124500Y-49500500D01*
X159375500Y-49500500D01*
X159442539Y-49520185D01*
G37*
%TD.AperFunction*%
%TD*%
M02*
