%TF.GenerationSoftware,KiCad,Pcbnew,7.0.6*%
%TF.CreationDate,2024-04-09T21:05:34+03:00*%
%TF.ProjectId,ecu-emulator,6563752d-656d-4756-9c61-746f722e6b69,rev?*%
%TF.SameCoordinates,Original*%
%TF.FileFunction,Legend,Bot*%
%TF.FilePolarity,Positive*%
%FSLAX46Y46*%
G04 Gerber Fmt 4.6, Leading zero omitted, Abs format (unit mm)*
G04 Created by KiCad (PCBNEW 7.0.6) date 2024-04-09 21:05:34*
%MOMM*%
%LPD*%
G01*
G04 APERTURE LIST*
%ADD10C,0.300000*%
G04 APERTURE END LIST*
D10*
X119935828Y-64054510D02*
X118435828Y-64054510D01*
X118435828Y-64054510D02*
X118435828Y-64411653D01*
X118435828Y-64411653D02*
X118507257Y-64625939D01*
X118507257Y-64625939D02*
X118650114Y-64768796D01*
X118650114Y-64768796D02*
X118792971Y-64840225D01*
X118792971Y-64840225D02*
X119078685Y-64911653D01*
X119078685Y-64911653D02*
X119292971Y-64911653D01*
X119292971Y-64911653D02*
X119578685Y-64840225D01*
X119578685Y-64840225D02*
X119721542Y-64768796D01*
X119721542Y-64768796D02*
X119864400Y-64625939D01*
X119864400Y-64625939D02*
X119935828Y-64411653D01*
X119935828Y-64411653D02*
X119935828Y-64054510D01*
X119935828Y-66411653D02*
X119221542Y-65911653D01*
X119935828Y-65554510D02*
X118435828Y-65554510D01*
X118435828Y-65554510D02*
X118435828Y-66125939D01*
X118435828Y-66125939D02*
X118507257Y-66268796D01*
X118507257Y-66268796D02*
X118578685Y-66340225D01*
X118578685Y-66340225D02*
X118721542Y-66411653D01*
X118721542Y-66411653D02*
X118935828Y-66411653D01*
X118935828Y-66411653D02*
X119078685Y-66340225D01*
X119078685Y-66340225D02*
X119150114Y-66268796D01*
X119150114Y-66268796D02*
X119221542Y-66125939D01*
X119221542Y-66125939D02*
X119221542Y-65554510D01*
X119364400Y-67054510D02*
X119364400Y-68197368D01*
X118435828Y-69197368D02*
X118435828Y-69340225D01*
X118435828Y-69340225D02*
X118507257Y-69483082D01*
X118507257Y-69483082D02*
X118578685Y-69554511D01*
X118578685Y-69554511D02*
X118721542Y-69625939D01*
X118721542Y-69625939D02*
X119007257Y-69697368D01*
X119007257Y-69697368D02*
X119364400Y-69697368D01*
X119364400Y-69697368D02*
X119650114Y-69625939D01*
X119650114Y-69625939D02*
X119792971Y-69554511D01*
X119792971Y-69554511D02*
X119864400Y-69483082D01*
X119864400Y-69483082D02*
X119935828Y-69340225D01*
X119935828Y-69340225D02*
X119935828Y-69197368D01*
X119935828Y-69197368D02*
X119864400Y-69054511D01*
X119864400Y-69054511D02*
X119792971Y-68983082D01*
X119792971Y-68983082D02*
X119650114Y-68911653D01*
X119650114Y-68911653D02*
X119364400Y-68840225D01*
X119364400Y-68840225D02*
X119007257Y-68840225D01*
X119007257Y-68840225D02*
X118721542Y-68911653D01*
X118721542Y-68911653D02*
X118578685Y-68983082D01*
X118578685Y-68983082D02*
X118507257Y-69054511D01*
X118507257Y-69054511D02*
X118435828Y-69197368D01*
X118435828Y-71054510D02*
X118435828Y-70340224D01*
X118435828Y-70340224D02*
X119150114Y-70268796D01*
X119150114Y-70268796D02*
X119078685Y-70340224D01*
X119078685Y-70340224D02*
X119007257Y-70483082D01*
X119007257Y-70483082D02*
X119007257Y-70840224D01*
X119007257Y-70840224D02*
X119078685Y-70983082D01*
X119078685Y-70983082D02*
X119150114Y-71054510D01*
X119150114Y-71054510D02*
X119292971Y-71125939D01*
X119292971Y-71125939D02*
X119650114Y-71125939D01*
X119650114Y-71125939D02*
X119792971Y-71054510D01*
X119792971Y-71054510D02*
X119864400Y-70983082D01*
X119864400Y-70983082D02*
X119935828Y-70840224D01*
X119935828Y-70840224D02*
X119935828Y-70483082D01*
X119935828Y-70483082D02*
X119864400Y-70340224D01*
X119864400Y-70340224D02*
X119792971Y-70268796D01*
X121565114Y-64054510D02*
X121565114Y-64554510D01*
X122350828Y-64768796D02*
X122350828Y-64054510D01*
X122350828Y-64054510D02*
X120850828Y-64054510D01*
X120850828Y-64054510D02*
X120850828Y-64768796D01*
X122207971Y-66268796D02*
X122279400Y-66197368D01*
X122279400Y-66197368D02*
X122350828Y-65983082D01*
X122350828Y-65983082D02*
X122350828Y-65840225D01*
X122350828Y-65840225D02*
X122279400Y-65625939D01*
X122279400Y-65625939D02*
X122136542Y-65483082D01*
X122136542Y-65483082D02*
X121993685Y-65411653D01*
X121993685Y-65411653D02*
X121707971Y-65340225D01*
X121707971Y-65340225D02*
X121493685Y-65340225D01*
X121493685Y-65340225D02*
X121207971Y-65411653D01*
X121207971Y-65411653D02*
X121065114Y-65483082D01*
X121065114Y-65483082D02*
X120922257Y-65625939D01*
X120922257Y-65625939D02*
X120850828Y-65840225D01*
X120850828Y-65840225D02*
X120850828Y-65983082D01*
X120850828Y-65983082D02*
X120922257Y-66197368D01*
X120922257Y-66197368D02*
X120993685Y-66268796D01*
X120850828Y-66911653D02*
X122065114Y-66911653D01*
X122065114Y-66911653D02*
X122207971Y-66983082D01*
X122207971Y-66983082D02*
X122279400Y-67054511D01*
X122279400Y-67054511D02*
X122350828Y-67197368D01*
X122350828Y-67197368D02*
X122350828Y-67483082D01*
X122350828Y-67483082D02*
X122279400Y-67625939D01*
X122279400Y-67625939D02*
X122207971Y-67697368D01*
X122207971Y-67697368D02*
X122065114Y-67768796D01*
X122065114Y-67768796D02*
X120850828Y-67768796D01*
X121779400Y-68483082D02*
X121779400Y-69625940D01*
X121565114Y-70340225D02*
X121565114Y-70840225D01*
X122350828Y-71054511D02*
X122350828Y-70340225D01*
X122350828Y-70340225D02*
X120850828Y-70340225D01*
X120850828Y-70340225D02*
X120850828Y-71054511D01*
X122350828Y-71697368D02*
X120850828Y-71697368D01*
X120850828Y-71697368D02*
X121922257Y-72197368D01*
X121922257Y-72197368D02*
X120850828Y-72697368D01*
X120850828Y-72697368D02*
X122350828Y-72697368D01*
X120850828Y-73411654D02*
X122065114Y-73411654D01*
X122065114Y-73411654D02*
X122207971Y-73483083D01*
X122207971Y-73483083D02*
X122279400Y-73554512D01*
X122279400Y-73554512D02*
X122350828Y-73697369D01*
X122350828Y-73697369D02*
X122350828Y-73983083D01*
X122350828Y-73983083D02*
X122279400Y-74125940D01*
X122279400Y-74125940D02*
X122207971Y-74197369D01*
X122207971Y-74197369D02*
X122065114Y-74268797D01*
X122065114Y-74268797D02*
X120850828Y-74268797D01*
X122350828Y-75697369D02*
X122350828Y-74983083D01*
X122350828Y-74983083D02*
X120850828Y-74983083D01*
X121922257Y-76125941D02*
X121922257Y-76840227D01*
X122350828Y-75983084D02*
X120850828Y-76483084D01*
X120850828Y-76483084D02*
X122350828Y-76983084D01*
X120850828Y-77268798D02*
X120850828Y-78125941D01*
X122350828Y-77697369D02*
X120850828Y-77697369D01*
X120850828Y-78911655D02*
X120850828Y-79197369D01*
X120850828Y-79197369D02*
X120922257Y-79340226D01*
X120922257Y-79340226D02*
X121065114Y-79483083D01*
X121065114Y-79483083D02*
X121350828Y-79554512D01*
X121350828Y-79554512D02*
X121850828Y-79554512D01*
X121850828Y-79554512D02*
X122136542Y-79483083D01*
X122136542Y-79483083D02*
X122279400Y-79340226D01*
X122279400Y-79340226D02*
X122350828Y-79197369D01*
X122350828Y-79197369D02*
X122350828Y-78911655D01*
X122350828Y-78911655D02*
X122279400Y-78768798D01*
X122279400Y-78768798D02*
X122136542Y-78625940D01*
X122136542Y-78625940D02*
X121850828Y-78554512D01*
X121850828Y-78554512D02*
X121350828Y-78554512D01*
X121350828Y-78554512D02*
X121065114Y-78625940D01*
X121065114Y-78625940D02*
X120922257Y-78768798D01*
X120922257Y-78768798D02*
X120850828Y-78911655D01*
X122350828Y-81054512D02*
X121636542Y-80554512D01*
X122350828Y-80197369D02*
X120850828Y-80197369D01*
X120850828Y-80197369D02*
X120850828Y-80768798D01*
X120850828Y-80768798D02*
X120922257Y-80911655D01*
X120922257Y-80911655D02*
X120993685Y-80983084D01*
X120993685Y-80983084D02*
X121136542Y-81054512D01*
X121136542Y-81054512D02*
X121350828Y-81054512D01*
X121350828Y-81054512D02*
X121493685Y-80983084D01*
X121493685Y-80983084D02*
X121565114Y-80911655D01*
X121565114Y-80911655D02*
X121636542Y-80768798D01*
X121636542Y-80768798D02*
X121636542Y-80197369D01*
X120850828Y-82625941D02*
X120850828Y-83483084D01*
X122350828Y-83054512D02*
X120850828Y-83054512D01*
X121565114Y-83983083D02*
X121565114Y-84483083D01*
X122350828Y-84697369D02*
X122350828Y-83983083D01*
X122350828Y-83983083D02*
X120850828Y-83983083D01*
X120850828Y-83983083D02*
X120850828Y-84697369D01*
X122279400Y-85268798D02*
X122350828Y-85483084D01*
X122350828Y-85483084D02*
X122350828Y-85840226D01*
X122350828Y-85840226D02*
X122279400Y-85983084D01*
X122279400Y-85983084D02*
X122207971Y-86054512D01*
X122207971Y-86054512D02*
X122065114Y-86125941D01*
X122065114Y-86125941D02*
X121922257Y-86125941D01*
X121922257Y-86125941D02*
X121779400Y-86054512D01*
X121779400Y-86054512D02*
X121707971Y-85983084D01*
X121707971Y-85983084D02*
X121636542Y-85840226D01*
X121636542Y-85840226D02*
X121565114Y-85554512D01*
X121565114Y-85554512D02*
X121493685Y-85411655D01*
X121493685Y-85411655D02*
X121422257Y-85340226D01*
X121422257Y-85340226D02*
X121279400Y-85268798D01*
X121279400Y-85268798D02*
X121136542Y-85268798D01*
X121136542Y-85268798D02*
X120993685Y-85340226D01*
X120993685Y-85340226D02*
X120922257Y-85411655D01*
X120922257Y-85411655D02*
X120850828Y-85554512D01*
X120850828Y-85554512D02*
X120850828Y-85911655D01*
X120850828Y-85911655D02*
X120922257Y-86125941D01*
X120850828Y-86554512D02*
X120850828Y-87411655D01*
X122350828Y-86983083D02*
X120850828Y-86983083D01*
X121565114Y-89554511D02*
X121636542Y-89768797D01*
X121636542Y-89768797D02*
X121707971Y-89840226D01*
X121707971Y-89840226D02*
X121850828Y-89911654D01*
X121850828Y-89911654D02*
X122065114Y-89911654D01*
X122065114Y-89911654D02*
X122207971Y-89840226D01*
X122207971Y-89840226D02*
X122279400Y-89768797D01*
X122279400Y-89768797D02*
X122350828Y-89625940D01*
X122350828Y-89625940D02*
X122350828Y-89054511D01*
X122350828Y-89054511D02*
X120850828Y-89054511D01*
X120850828Y-89054511D02*
X120850828Y-89554511D01*
X120850828Y-89554511D02*
X120922257Y-89697369D01*
X120922257Y-89697369D02*
X120993685Y-89768797D01*
X120993685Y-89768797D02*
X121136542Y-89840226D01*
X121136542Y-89840226D02*
X121279400Y-89840226D01*
X121279400Y-89840226D02*
X121422257Y-89768797D01*
X121422257Y-89768797D02*
X121493685Y-89697369D01*
X121493685Y-89697369D02*
X121565114Y-89554511D01*
X121565114Y-89554511D02*
X121565114Y-89054511D01*
X120850828Y-90840226D02*
X120850828Y-91125940D01*
X120850828Y-91125940D02*
X120922257Y-91268797D01*
X120922257Y-91268797D02*
X121065114Y-91411654D01*
X121065114Y-91411654D02*
X121350828Y-91483083D01*
X121350828Y-91483083D02*
X121850828Y-91483083D01*
X121850828Y-91483083D02*
X122136542Y-91411654D01*
X122136542Y-91411654D02*
X122279400Y-91268797D01*
X122279400Y-91268797D02*
X122350828Y-91125940D01*
X122350828Y-91125940D02*
X122350828Y-90840226D01*
X122350828Y-90840226D02*
X122279400Y-90697369D01*
X122279400Y-90697369D02*
X122136542Y-90554511D01*
X122136542Y-90554511D02*
X121850828Y-90483083D01*
X121850828Y-90483083D02*
X121350828Y-90483083D01*
X121350828Y-90483083D02*
X121065114Y-90554511D01*
X121065114Y-90554511D02*
X120922257Y-90697369D01*
X120922257Y-90697369D02*
X120850828Y-90840226D01*
X121922257Y-92054512D02*
X121922257Y-92768798D01*
X122350828Y-91911655D02*
X120850828Y-92411655D01*
X120850828Y-92411655D02*
X122350828Y-92911655D01*
X122350828Y-94268797D02*
X121636542Y-93768797D01*
X122350828Y-93411654D02*
X120850828Y-93411654D01*
X120850828Y-93411654D02*
X120850828Y-93983083D01*
X120850828Y-93983083D02*
X120922257Y-94125940D01*
X120922257Y-94125940D02*
X120993685Y-94197369D01*
X120993685Y-94197369D02*
X121136542Y-94268797D01*
X121136542Y-94268797D02*
X121350828Y-94268797D01*
X121350828Y-94268797D02*
X121493685Y-94197369D01*
X121493685Y-94197369D02*
X121565114Y-94125940D01*
X121565114Y-94125940D02*
X121636542Y-93983083D01*
X121636542Y-93983083D02*
X121636542Y-93411654D01*
X122350828Y-94911654D02*
X120850828Y-94911654D01*
X120850828Y-94911654D02*
X120850828Y-95268797D01*
X120850828Y-95268797D02*
X120922257Y-95483083D01*
X120922257Y-95483083D02*
X121065114Y-95625940D01*
X121065114Y-95625940D02*
X121207971Y-95697369D01*
X121207971Y-95697369D02*
X121493685Y-95768797D01*
X121493685Y-95768797D02*
X121707971Y-95768797D01*
X121707971Y-95768797D02*
X121993685Y-95697369D01*
X121993685Y-95697369D02*
X122136542Y-95625940D01*
X122136542Y-95625940D02*
X122279400Y-95483083D01*
X122279400Y-95483083D02*
X122350828Y-95268797D01*
X122350828Y-95268797D02*
X122350828Y-94911654D01*
%TO.C,*%
G36*
X136122187Y-71050533D02*
G01*
X136122187Y-71556928D01*
X135946703Y-71556928D01*
X135771220Y-71556928D01*
X135771220Y-71241058D01*
X135771220Y-70925187D01*
X134728346Y-70925187D01*
X133685472Y-70925187D01*
X133685472Y-70734662D01*
X133685472Y-70544137D01*
X134903829Y-70544137D01*
X136122187Y-70544137D01*
X136122187Y-71050533D01*
G37*
G36*
X134036439Y-75106711D02*
G01*
X134036439Y-75307264D01*
X135079313Y-75307264D01*
X136122187Y-75307264D01*
X136122187Y-75497789D01*
X136122187Y-75688314D01*
X135079313Y-75688314D01*
X134036439Y-75688314D01*
X134036439Y-75888867D01*
X134036439Y-76089419D01*
X133860955Y-76089419D01*
X133685472Y-76089419D01*
X133685472Y-75497789D01*
X133685472Y-74906158D01*
X133860955Y-74906158D01*
X134036439Y-74906158D01*
X134036439Y-75106711D01*
G37*
G36*
X134036439Y-81945558D02*
G01*
X134036439Y-82146111D01*
X135079313Y-82146111D01*
X136122187Y-82146111D01*
X136122187Y-82336636D01*
X136122187Y-82527161D01*
X135079313Y-82527161D01*
X134036439Y-82527161D01*
X134036439Y-82727714D01*
X134036439Y-82928267D01*
X133860955Y-82928267D01*
X133685472Y-82928267D01*
X133685472Y-82336636D01*
X133685472Y-81745006D01*
X133860955Y-81745006D01*
X134036439Y-81745006D01*
X134036439Y-81945558D01*
G37*
G36*
X134036439Y-83780616D02*
G01*
X134036439Y-83981168D01*
X135079313Y-83981168D01*
X136122187Y-83981168D01*
X136122187Y-84171693D01*
X136122187Y-84362218D01*
X135079313Y-84362218D01*
X134036439Y-84362218D01*
X134036439Y-84562771D01*
X134036439Y-84763324D01*
X133860955Y-84763324D01*
X133685472Y-84763324D01*
X133685472Y-84171693D01*
X133685472Y-83580063D01*
X133860955Y-83580063D01*
X134036439Y-83580063D01*
X134036439Y-83780616D01*
G37*
G36*
X136122187Y-63464627D02*
G01*
X136122187Y-63655152D01*
X135590722Y-63655152D01*
X135059258Y-63655152D01*
X135059258Y-63905843D01*
X135059258Y-64156534D01*
X134883774Y-64156534D01*
X134708291Y-64156534D01*
X134708291Y-63905843D01*
X134708291Y-63655152D01*
X134372365Y-63655152D01*
X134036439Y-63655152D01*
X134036439Y-63971022D01*
X134036439Y-64286893D01*
X133860955Y-64286893D01*
X133685472Y-64286893D01*
X133685472Y-63780497D01*
X133685472Y-63274102D01*
X134903829Y-63274102D01*
X136122187Y-63274102D01*
X136122187Y-63464627D01*
G37*
G36*
X136122187Y-79619147D02*
G01*
X136122187Y-80140584D01*
X135946703Y-80140584D01*
X135771220Y-80140584D01*
X135771220Y-79809672D01*
X135771220Y-79478760D01*
X135400197Y-79478760D01*
X135029175Y-79478760D01*
X135029175Y-79744492D01*
X135029175Y-80010225D01*
X134853691Y-80010225D01*
X134678208Y-80010225D01*
X134678208Y-79744492D01*
X134678208Y-79478760D01*
X134357323Y-79478760D01*
X134036439Y-79478760D01*
X134036439Y-79809672D01*
X134036439Y-80140584D01*
X133860955Y-80140584D01*
X133685472Y-80140584D01*
X133685472Y-79619147D01*
X133685472Y-79097710D01*
X134903829Y-79097710D01*
X136122187Y-79097710D01*
X136122187Y-79619147D01*
G37*
G36*
X136122187Y-85465258D02*
G01*
X136122187Y-85986695D01*
X135946703Y-85986695D01*
X135771220Y-85986695D01*
X135771220Y-85655783D01*
X135771220Y-85324871D01*
X135400197Y-85324871D01*
X135029175Y-85324871D01*
X135029175Y-85590604D01*
X135029175Y-85856336D01*
X134853691Y-85856336D01*
X134678208Y-85856336D01*
X134678208Y-85590604D01*
X134678208Y-85324871D01*
X134357323Y-85324871D01*
X134036439Y-85324871D01*
X134036439Y-85655783D01*
X134036439Y-85986695D01*
X133860955Y-85986695D01*
X133685472Y-85986695D01*
X133685472Y-85465258D01*
X133685472Y-84943821D01*
X134903829Y-84943821D01*
X136122187Y-84943821D01*
X136122187Y-85465258D01*
G37*
G36*
X136122187Y-80531662D02*
G01*
X136122187Y-80702132D01*
X135232234Y-80702923D01*
X135105377Y-80703094D01*
X134979998Y-80703382D01*
X134862123Y-80703773D01*
X134753146Y-80704256D01*
X134654461Y-80704822D01*
X134567465Y-80705459D01*
X134493550Y-80706159D01*
X134434112Y-80706910D01*
X134390545Y-80707702D01*
X134364245Y-80708525D01*
X134356604Y-80709369D01*
X134368225Y-80712675D01*
X134397857Y-80720652D01*
X134444101Y-80732933D01*
X134505556Y-80749152D01*
X134580823Y-80768940D01*
X134668501Y-80791931D01*
X134767189Y-80817757D01*
X134875489Y-80846052D01*
X134991999Y-80876448D01*
X135115320Y-80908578D01*
X135244050Y-80942075D01*
X136117173Y-81169127D01*
X136119892Y-81366818D01*
X136122611Y-81564508D01*
X134904041Y-81564508D01*
X133685472Y-81564508D01*
X133685472Y-81394038D01*
X133685472Y-81223569D01*
X134414147Y-81223569D01*
X134522554Y-81223522D01*
X134635805Y-81223371D01*
X134741503Y-81223122D01*
X134838085Y-81222785D01*
X134923990Y-81222370D01*
X134997654Y-81221884D01*
X135057514Y-81221337D01*
X135102008Y-81220737D01*
X135129572Y-81220095D01*
X135138643Y-81219418D01*
X135130244Y-81216805D01*
X135103827Y-81209541D01*
X135060910Y-81198070D01*
X135003027Y-81182793D01*
X134931715Y-81164112D01*
X134848512Y-81142428D01*
X134754954Y-81118143D01*
X134652578Y-81091657D01*
X134542920Y-81063373D01*
X134427517Y-81033691D01*
X134324767Y-81007290D01*
X134213682Y-80978724D01*
X134109422Y-80951887D01*
X134013562Y-80927188D01*
X133927678Y-80905032D01*
X133853345Y-80885827D01*
X133792137Y-80869978D01*
X133745631Y-80857894D01*
X133715400Y-80849979D01*
X133703020Y-80846641D01*
X133698900Y-80844686D01*
X133694311Y-80838940D01*
X133690897Y-80827504D01*
X133688487Y-80807984D01*
X133686911Y-80777986D01*
X133685997Y-80735115D01*
X133685575Y-80676978D01*
X133685472Y-80601180D01*
X133685472Y-80361192D01*
X134903829Y-80361192D01*
X136122187Y-80361192D01*
X136122187Y-80531662D01*
G37*
G36*
X134700770Y-69132473D02*
G01*
X135716068Y-69135254D01*
X135786261Y-69158777D01*
X135813171Y-69168266D01*
X135891091Y-69203059D01*
X135956300Y-69245704D01*
X136014200Y-69299536D01*
X136064659Y-69363370D01*
X136107691Y-69444941D01*
X136135973Y-69538215D01*
X136137329Y-69544908D01*
X136144190Y-69591169D01*
X136149173Y-69645253D01*
X136151278Y-69696802D01*
X136150371Y-69744320D01*
X136137172Y-69854616D01*
X136108428Y-69952656D01*
X136064225Y-70038198D01*
X136004647Y-70111001D01*
X135975154Y-70138361D01*
X135914340Y-70183350D01*
X135846174Y-70218013D01*
X135764446Y-70245836D01*
X135761277Y-70246729D01*
X135748383Y-70250252D01*
X135735446Y-70253368D01*
X135721216Y-70256105D01*
X135704441Y-70258493D01*
X135683871Y-70260561D01*
X135658255Y-70262338D01*
X135626343Y-70263853D01*
X135586883Y-70265136D01*
X135538624Y-70266216D01*
X135480317Y-70267122D01*
X135410710Y-70267883D01*
X135328552Y-70268529D01*
X135232593Y-70269089D01*
X135121582Y-70269592D01*
X134994268Y-70270067D01*
X134849400Y-70270544D01*
X134685728Y-70271052D01*
X133685472Y-70274123D01*
X133685472Y-70088246D01*
X133685472Y-69902369D01*
X134647631Y-69902369D01*
X134833413Y-69902265D01*
X135000742Y-69901950D01*
X135148572Y-69901420D01*
X135277179Y-69900672D01*
X135386842Y-69899704D01*
X135477838Y-69898512D01*
X135550445Y-69897093D01*
X135604942Y-69895445D01*
X135641606Y-69893564D01*
X135660715Y-69891447D01*
X135681063Y-69886209D01*
X135733653Y-69861292D01*
X135771230Y-69823082D01*
X135793783Y-69771590D01*
X135801303Y-69706830D01*
X135800507Y-69684303D01*
X135788094Y-69623858D01*
X135760652Y-69576686D01*
X135718189Y-69542800D01*
X135660715Y-69522212D01*
X135641793Y-69520109D01*
X135605248Y-69518226D01*
X135550872Y-69516576D01*
X135478388Y-69515156D01*
X135387516Y-69513962D01*
X135277980Y-69512993D01*
X135149501Y-69512244D01*
X135001802Y-69511712D01*
X134834605Y-69511396D01*
X134647631Y-69511291D01*
X133685472Y-69511291D01*
X133685472Y-69320491D01*
X133685472Y-69129691D01*
X134700770Y-69132473D01*
G37*
G36*
X134700770Y-76272149D02*
G01*
X135716068Y-76274931D01*
X135786261Y-76298454D01*
X135813171Y-76307942D01*
X135891091Y-76342736D01*
X135956300Y-76385380D01*
X136014200Y-76439212D01*
X136064659Y-76503047D01*
X136107691Y-76584617D01*
X136135973Y-76677891D01*
X136137329Y-76684584D01*
X136144190Y-76730845D01*
X136149173Y-76784929D01*
X136151278Y-76836478D01*
X136150371Y-76883996D01*
X136137172Y-76994293D01*
X136108428Y-77092332D01*
X136064225Y-77177874D01*
X136004647Y-77250677D01*
X135975154Y-77278037D01*
X135914340Y-77323027D01*
X135846174Y-77357689D01*
X135764446Y-77385512D01*
X135761277Y-77386405D01*
X135748383Y-77389929D01*
X135735446Y-77393044D01*
X135721216Y-77395781D01*
X135704441Y-77398169D01*
X135683871Y-77400237D01*
X135658255Y-77402014D01*
X135626343Y-77403529D01*
X135586883Y-77404812D01*
X135538624Y-77405892D01*
X135480317Y-77406798D01*
X135410710Y-77407560D01*
X135328552Y-77408206D01*
X135232593Y-77408766D01*
X135121582Y-77409268D01*
X134994268Y-77409744D01*
X134849400Y-77410221D01*
X134685728Y-77410728D01*
X133685472Y-77413800D01*
X133685472Y-77227922D01*
X133685472Y-77042045D01*
X134647631Y-77042045D01*
X134833413Y-77041941D01*
X135000742Y-77041626D01*
X135148572Y-77041096D01*
X135277179Y-77040349D01*
X135386842Y-77039380D01*
X135477838Y-77038188D01*
X135550445Y-77036770D01*
X135604942Y-77035121D01*
X135641606Y-77033240D01*
X135660715Y-77031123D01*
X135681063Y-77025885D01*
X135733653Y-77000968D01*
X135771230Y-76962758D01*
X135793783Y-76911266D01*
X135801303Y-76846506D01*
X135800507Y-76823979D01*
X135788094Y-76763534D01*
X135760652Y-76716363D01*
X135718189Y-76682476D01*
X135660715Y-76661888D01*
X135641793Y-76659785D01*
X135605248Y-76657902D01*
X135550872Y-76656252D01*
X135478388Y-76654832D01*
X135387516Y-76653639D01*
X135277980Y-76652669D01*
X135149501Y-76651920D01*
X135001802Y-76651388D01*
X134834605Y-76651072D01*
X134647631Y-76650967D01*
X133685472Y-76650967D01*
X133685472Y-76460167D01*
X133685472Y-76269367D01*
X134700770Y-76272149D01*
G37*
G36*
X134036439Y-77683813D02*
G01*
X134903829Y-77683813D01*
X136122187Y-77683813D01*
X136122187Y-78018857D01*
X136122013Y-78107320D01*
X136121320Y-78194035D01*
X136120024Y-78264797D01*
X136118045Y-78321816D01*
X136115304Y-78367299D01*
X136111720Y-78403457D01*
X136107212Y-78432497D01*
X136088094Y-78507140D01*
X136048958Y-78596569D01*
X135994551Y-78673010D01*
X135924936Y-78736398D01*
X135840177Y-78786664D01*
X135740335Y-78823741D01*
X135740143Y-78823795D01*
X135727098Y-78827183D01*
X135712590Y-78830125D01*
X135695190Y-78832653D01*
X135673467Y-78834796D01*
X135645991Y-78836588D01*
X135611331Y-78838058D01*
X135568058Y-78839238D01*
X135514741Y-78840160D01*
X135449950Y-78840854D01*
X135372255Y-78841352D01*
X135280226Y-78841684D01*
X135172432Y-78841883D01*
X135047443Y-78841980D01*
X134903829Y-78842005D01*
X134901529Y-78842005D01*
X134758205Y-78841979D01*
X134633485Y-78841881D01*
X134525938Y-78841680D01*
X134434135Y-78841345D01*
X134356644Y-78840845D01*
X134292036Y-78840147D01*
X134238880Y-78839222D01*
X134195747Y-78838038D01*
X134161206Y-78836563D01*
X134133827Y-78834767D01*
X134112179Y-78832618D01*
X134094833Y-78830084D01*
X134080358Y-78827136D01*
X134067324Y-78823741D01*
X133991862Y-78797521D01*
X133903195Y-78750659D01*
X133829657Y-78690659D01*
X133771311Y-78617587D01*
X133728220Y-78531511D01*
X133700446Y-78432497D01*
X133696534Y-78408055D01*
X133692820Y-78373066D01*
X133689962Y-78329072D01*
X133687877Y-78273862D01*
X133686488Y-78205229D01*
X133685712Y-78120964D01*
X133685580Y-78064864D01*
X134036439Y-78064864D01*
X134036439Y-78193098D01*
X134036439Y-78193308D01*
X134038033Y-78264509D01*
X134043648Y-78319087D01*
X134054553Y-78360278D01*
X134072017Y-78391318D01*
X134097310Y-78415442D01*
X134131701Y-78435886D01*
X134181840Y-78460955D01*
X134903829Y-78460955D01*
X135625819Y-78460955D01*
X135675957Y-78435886D01*
X135697665Y-78423884D01*
X135727018Y-78399510D01*
X135748658Y-78366075D01*
X135751513Y-78360289D01*
X135760203Y-78339412D01*
X135765921Y-78316843D01*
X135769264Y-78287993D01*
X135770831Y-78248275D01*
X135771220Y-78193098D01*
X135771220Y-78064864D01*
X134903829Y-78064864D01*
X134036439Y-78064864D01*
X133685580Y-78064864D01*
X133685472Y-78018857D01*
X133685472Y-77683813D01*
X134036439Y-77683813D01*
G37*
G36*
X136122187Y-71834453D02*
G01*
X136122187Y-72014039D01*
X135881524Y-72048491D01*
X135640861Y-72082943D01*
X135640861Y-72300226D01*
X135640861Y-72517510D01*
X135728602Y-72529959D01*
X135736595Y-72531094D01*
X135783189Y-72537713D01*
X135841520Y-72546006D01*
X135904929Y-72555026D01*
X135966759Y-72563827D01*
X136117173Y-72585245D01*
X136119901Y-72779246D01*
X136122629Y-72973247D01*
X136094832Y-72967908D01*
X136087333Y-72966613D01*
X136060714Y-72962176D01*
X136016431Y-72954868D01*
X135955732Y-72944892D01*
X135879862Y-72932451D01*
X135790067Y-72917749D01*
X135687593Y-72900991D01*
X135573686Y-72882379D01*
X135449592Y-72862118D01*
X135316557Y-72840410D01*
X135175826Y-72817461D01*
X135028647Y-72793473D01*
X134876264Y-72768651D01*
X133685492Y-72574733D01*
X133685500Y-72314015D01*
X133685500Y-72299603D01*
X134134388Y-72299603D01*
X134139350Y-72300941D01*
X134162237Y-72305119D01*
X134202000Y-72311613D01*
X134256822Y-72320149D01*
X134324886Y-72330453D01*
X134404378Y-72342252D01*
X134493479Y-72355271D01*
X134590375Y-72369236D01*
X134693249Y-72383875D01*
X134756311Y-72392795D01*
X134857226Y-72407083D01*
X134951771Y-72420486D01*
X135038018Y-72432730D01*
X135114042Y-72443540D01*
X135177915Y-72452643D01*
X135227710Y-72459763D01*
X135261500Y-72464628D01*
X135277359Y-72466964D01*
X135309949Y-72472067D01*
X135309949Y-72299032D01*
X135309949Y-72125997D01*
X135282373Y-72131320D01*
X135273833Y-72132703D01*
X135246086Y-72136823D01*
X135201685Y-72143236D01*
X135142512Y-72151677D01*
X135070447Y-72161880D01*
X134987374Y-72173578D01*
X134895174Y-72186504D01*
X134795730Y-72200394D01*
X134690922Y-72214980D01*
X134611163Y-72226134D01*
X134512382Y-72240163D01*
X134421325Y-72253335D01*
X134339729Y-72265387D01*
X134269328Y-72276054D01*
X134211859Y-72285074D01*
X134169055Y-72292181D01*
X134142653Y-72297112D01*
X134134388Y-72299603D01*
X133685500Y-72299603D01*
X133685507Y-72053296D01*
X134876271Y-71859354D01*
X134985171Y-71841614D01*
X135133971Y-71817364D01*
X135276679Y-71794094D01*
X135309949Y-71788666D01*
X135412048Y-71772008D01*
X135538834Y-71751310D01*
X135655789Y-71732204D01*
X135761669Y-71714894D01*
X135855228Y-71699582D01*
X135935221Y-71686474D01*
X136000401Y-71675771D01*
X136049523Y-71667679D01*
X136081342Y-71662401D01*
X136094611Y-71660139D01*
X136122187Y-71654867D01*
X136122187Y-71834453D01*
G37*
G36*
X136122187Y-86284275D02*
G01*
X136122187Y-86463862D01*
X135881524Y-86498313D01*
X135640861Y-86532765D01*
X135640861Y-86750049D01*
X135640861Y-86967332D01*
X135728602Y-86979782D01*
X135736595Y-86980916D01*
X135783189Y-86987535D01*
X135841520Y-86995828D01*
X135904929Y-87004848D01*
X135966759Y-87013649D01*
X136117173Y-87035067D01*
X136119901Y-87229068D01*
X136122629Y-87423070D01*
X136094832Y-87417730D01*
X136087333Y-87416435D01*
X136060714Y-87411999D01*
X136016431Y-87404691D01*
X135955732Y-87394714D01*
X135879862Y-87382273D01*
X135790067Y-87367572D01*
X135687593Y-87350813D01*
X135573686Y-87332201D01*
X135449592Y-87311940D01*
X135316557Y-87290233D01*
X135175826Y-87267283D01*
X135028647Y-87243296D01*
X134876264Y-87218473D01*
X133685492Y-87024556D01*
X133685500Y-86763837D01*
X133685500Y-86749425D01*
X134134388Y-86749425D01*
X134139350Y-86750764D01*
X134162237Y-86754942D01*
X134202000Y-86761435D01*
X134256822Y-86769971D01*
X134324886Y-86780275D01*
X134404378Y-86792074D01*
X134493479Y-86805093D01*
X134590375Y-86819059D01*
X134693249Y-86833697D01*
X134756311Y-86842617D01*
X134857226Y-86856906D01*
X134951771Y-86870309D01*
X135038018Y-86882552D01*
X135114042Y-86893362D01*
X135177915Y-86902465D01*
X135227710Y-86909586D01*
X135261500Y-86914451D01*
X135277359Y-86916786D01*
X135309949Y-86921890D01*
X135309949Y-86748854D01*
X135309949Y-86575819D01*
X135282373Y-86581143D01*
X135273833Y-86582526D01*
X135246086Y-86586645D01*
X135201685Y-86593059D01*
X135142512Y-86601500D01*
X135070447Y-86611702D01*
X134987374Y-86623400D01*
X134895174Y-86636327D01*
X134795730Y-86650216D01*
X134690922Y-86664802D01*
X134611163Y-86675956D01*
X134512382Y-86689985D01*
X134421325Y-86703158D01*
X134339729Y-86715209D01*
X134269328Y-86725877D01*
X134211859Y-86734896D01*
X134169055Y-86742003D01*
X134142653Y-86746934D01*
X134134388Y-86749425D01*
X133685500Y-86749425D01*
X133685507Y-86503119D01*
X134876271Y-86309177D01*
X134985171Y-86291437D01*
X135133971Y-86267186D01*
X135276679Y-86243916D01*
X135309949Y-86238488D01*
X135412048Y-86221830D01*
X135538834Y-86201133D01*
X135655789Y-86182027D01*
X135761669Y-86164716D01*
X135855228Y-86149405D01*
X135935221Y-86136296D01*
X136000401Y-86125594D01*
X136049523Y-86117501D01*
X136081342Y-86112223D01*
X136094611Y-86109962D01*
X136122187Y-86104689D01*
X136122187Y-86284275D01*
G37*
G36*
X134036439Y-65861232D02*
G01*
X134903069Y-65861232D01*
X136122187Y-65861232D01*
X136122187Y-66051757D01*
X136122187Y-66242282D01*
X135600750Y-66242282D01*
X135079313Y-66242282D01*
X135079369Y-66340051D01*
X135079636Y-66361830D01*
X135081774Y-66408875D01*
X135085583Y-66449825D01*
X135090498Y-66477705D01*
X135102636Y-66506466D01*
X135132790Y-66547449D01*
X135172260Y-66581872D01*
X135214912Y-66603528D01*
X135220027Y-66604828D01*
X135247098Y-66608585D01*
X135291735Y-66612018D01*
X135354436Y-66615150D01*
X135435700Y-66618002D01*
X135536023Y-66620596D01*
X135655902Y-66622954D01*
X135763838Y-66625022D01*
X135859482Y-66627339D01*
X135937156Y-66629839D01*
X135997933Y-66632571D01*
X136042884Y-66635582D01*
X136073082Y-66638921D01*
X136089597Y-66642638D01*
X136122187Y-66655377D01*
X136122187Y-66849935D01*
X136122185Y-66857318D01*
X136122035Y-66916568D01*
X136121670Y-66967946D01*
X136121129Y-67008404D01*
X136120453Y-67034899D01*
X136119680Y-67044384D01*
X136114889Y-67043080D01*
X136095582Y-67037041D01*
X136067035Y-67027763D01*
X136055017Y-67024358D01*
X136035465Y-67020551D01*
X136009543Y-67017309D01*
X135975298Y-67014530D01*
X135930773Y-67012113D01*
X135874013Y-67009957D01*
X135803065Y-67007958D01*
X135715971Y-67006017D01*
X135610778Y-67004031D01*
X135525173Y-67002436D01*
X135434341Y-67000486D01*
X135359927Y-66998492D01*
X135299907Y-66996349D01*
X135252259Y-66993950D01*
X135214960Y-66991190D01*
X135185987Y-66987964D01*
X135163316Y-66984164D01*
X135144926Y-66979687D01*
X135067151Y-66951748D01*
X134997620Y-66912121D01*
X134943168Y-66861940D01*
X134902097Y-66799948D01*
X134877029Y-66750942D01*
X134848288Y-66801266D01*
X134808417Y-66857208D01*
X134750598Y-66908945D01*
X134677585Y-66949945D01*
X134587959Y-66981190D01*
X134555226Y-66987674D01*
X134500990Y-66993744D01*
X134435041Y-66997855D01*
X134361901Y-67000005D01*
X134286086Y-67000194D01*
X134212116Y-66998420D01*
X134144510Y-66994683D01*
X134087788Y-66988982D01*
X134046467Y-66981315D01*
X134010262Y-66970606D01*
X133921652Y-66933858D01*
X133848678Y-66885538D01*
X133789959Y-66824319D01*
X133744116Y-66748876D01*
X133709767Y-66657883D01*
X133706857Y-66647107D01*
X133702642Y-66626748D01*
X133699185Y-66601688D01*
X133696373Y-66569731D01*
X133694097Y-66528685D01*
X133692245Y-66476357D01*
X133690707Y-66410554D01*
X133689371Y-66329081D01*
X133688284Y-66242282D01*
X134036439Y-66242282D01*
X134036439Y-66359447D01*
X134036832Y-66394700D01*
X134040634Y-66455192D01*
X134049510Y-66500940D01*
X134064718Y-66535361D01*
X134087518Y-66561870D01*
X134119168Y-66583882D01*
X134132950Y-66591358D01*
X134149180Y-66598187D01*
X134168294Y-66603071D01*
X134193728Y-66606439D01*
X134228915Y-66608720D01*
X134277288Y-66610343D01*
X134342282Y-66611737D01*
X134359641Y-66612028D01*
X134431974Y-66612296D01*
X134493850Y-66610964D01*
X134542082Y-66608140D01*
X134573486Y-66603931D01*
X134592686Y-66598847D01*
X134647214Y-66572710D01*
X134687755Y-66532926D01*
X134713077Y-66480582D01*
X134713271Y-66479923D01*
X134721091Y-66441136D01*
X134726393Y-66390437D01*
X134728346Y-66335724D01*
X134728346Y-66242282D01*
X134382392Y-66242282D01*
X134036439Y-66242282D01*
X133688284Y-66242282D01*
X133688127Y-66229747D01*
X133683951Y-65861232D01*
X134036439Y-65861232D01*
G37*
G36*
X135540853Y-73652765D02*
G01*
X135642481Y-73657231D01*
X135730190Y-73669369D01*
X135808365Y-73690008D01*
X135881393Y-73719978D01*
X135924964Y-73743945D01*
X135999872Y-73801804D01*
X136060627Y-73873414D01*
X136106450Y-73957756D01*
X136136561Y-74053809D01*
X136147043Y-74124817D01*
X136150863Y-74209133D01*
X136147331Y-74294701D01*
X136136450Y-74372610D01*
X136112815Y-74457343D01*
X136070442Y-74546997D01*
X136012910Y-74623567D01*
X135940401Y-74686867D01*
X135853092Y-74736710D01*
X135751165Y-74772908D01*
X135717565Y-74780072D01*
X135652583Y-74787900D01*
X135577598Y-74791668D01*
X135498474Y-74791446D01*
X135421074Y-74787302D01*
X135351264Y-74779305D01*
X135294907Y-74767526D01*
X135254123Y-74754800D01*
X135181332Y-74725874D01*
X135111344Y-74688849D01*
X135041561Y-74641889D01*
X134969387Y-74583160D01*
X134892223Y-74510824D01*
X134807473Y-74423047D01*
X134775058Y-74388337D01*
X134696449Y-74305737D01*
X134628072Y-74236972D01*
X134568110Y-74180833D01*
X134514745Y-74136110D01*
X134466158Y-74101596D01*
X134420531Y-74076080D01*
X134376047Y-74058354D01*
X134330888Y-74047208D01*
X134283235Y-74041434D01*
X134231271Y-74039822D01*
X134178293Y-74042811D01*
X134113781Y-74057803D01*
X134064698Y-74085532D01*
X134030896Y-74126137D01*
X134012227Y-74179754D01*
X134008541Y-74246521D01*
X134014684Y-74297318D01*
X134029945Y-74336954D01*
X134057320Y-74367314D01*
X134099959Y-74393463D01*
X134104893Y-74395881D01*
X134132002Y-74406750D01*
X134162820Y-74414133D01*
X134202795Y-74419036D01*
X134257373Y-74422459D01*
X134367351Y-74427672D01*
X134367351Y-74606749D01*
X134367351Y-74785827D01*
X134269581Y-74785477D01*
X134258178Y-74785384D01*
X134133204Y-74776731D01*
X134022353Y-74754180D01*
X133925751Y-74717805D01*
X133843525Y-74667682D01*
X133775800Y-74603888D01*
X133722703Y-74526496D01*
X133684361Y-74435583D01*
X133670149Y-74375361D01*
X133660658Y-74299976D01*
X133657134Y-74219784D01*
X133659890Y-74142243D01*
X133669238Y-74074808D01*
X133690861Y-73997035D01*
X133732617Y-73905656D01*
X133789179Y-73827793D01*
X133860424Y-73763575D01*
X133946227Y-73713134D01*
X134046467Y-73676599D01*
X134078622Y-73669670D01*
X134138816Y-73662238D01*
X134208727Y-73658201D01*
X134282459Y-73657564D01*
X134354116Y-73660335D01*
X134417804Y-73666519D01*
X134467627Y-73676125D01*
X134476292Y-73678576D01*
X134565339Y-73710590D01*
X134651716Y-73754974D01*
X134737828Y-73813339D01*
X134826078Y-73887297D01*
X134918871Y-73978457D01*
X134978658Y-74040866D01*
X135047268Y-74111922D01*
X135104925Y-74170734D01*
X135153156Y-74218708D01*
X135193487Y-74257255D01*
X135227445Y-74287781D01*
X135256555Y-74311696D01*
X135282345Y-74330408D01*
X135306341Y-74345325D01*
X135330069Y-74357855D01*
X135375187Y-74377157D01*
X135451967Y-74399305D01*
X135529923Y-74410212D01*
X135604732Y-74409704D01*
X135672069Y-74397611D01*
X135727612Y-74373757D01*
X135740855Y-74364420D01*
X135773993Y-74326534D01*
X135794314Y-74279005D01*
X135802028Y-74226044D01*
X135797348Y-74171860D01*
X135780485Y-74120662D01*
X135751649Y-74076661D01*
X135711054Y-74044065D01*
X135701836Y-74039168D01*
X135681423Y-74030218D01*
X135658801Y-74024080D01*
X135629508Y-74020032D01*
X135589082Y-74017355D01*
X135533063Y-74015327D01*
X135400197Y-74011376D01*
X135400197Y-73832040D01*
X135400197Y-73652704D01*
X135525966Y-73652704D01*
X135540853Y-73652765D01*
G37*
G36*
X135021568Y-64447690D02*
G01*
X135155110Y-64447771D01*
X135271226Y-64448024D01*
X135371393Y-64448544D01*
X135457084Y-64449430D01*
X135529776Y-64450778D01*
X135590943Y-64452686D01*
X135642060Y-64455250D01*
X135665930Y-64457112D01*
X135684601Y-64458568D01*
X135720043Y-64462738D01*
X135749860Y-64467855D01*
X135775527Y-64474018D01*
X135798519Y-64481323D01*
X135820311Y-64489868D01*
X135842378Y-64499749D01*
X135866195Y-64511065D01*
X135939043Y-64553527D01*
X136012487Y-64616866D01*
X136071291Y-64693391D01*
X136114701Y-64782088D01*
X136141965Y-64881944D01*
X136144940Y-64906830D01*
X136147415Y-64949827D01*
X136148484Y-65001082D01*
X136147925Y-65054174D01*
X136147509Y-65067878D01*
X136144609Y-65124762D01*
X136139574Y-65169352D01*
X136131452Y-65208071D01*
X136119291Y-65247343D01*
X136111838Y-65267785D01*
X136069739Y-65355871D01*
X136015913Y-65428753D01*
X135948639Y-65488401D01*
X135866195Y-65536783D01*
X135847338Y-65545772D01*
X135825017Y-65555956D01*
X135803291Y-65564782D01*
X135780684Y-65572348D01*
X135755722Y-65578750D01*
X135726929Y-65584086D01*
X135692831Y-65588452D01*
X135651952Y-65591946D01*
X135602818Y-65594666D01*
X135543954Y-65596708D01*
X135473884Y-65598169D01*
X135391134Y-65599146D01*
X135294228Y-65599738D01*
X135181692Y-65600040D01*
X135052051Y-65600150D01*
X134903829Y-65600165D01*
X134786090Y-65600158D01*
X134652549Y-65600076D01*
X134536433Y-65599824D01*
X134436266Y-65599304D01*
X134350575Y-65598418D01*
X134277883Y-65597070D01*
X134216716Y-65595162D01*
X134165599Y-65592598D01*
X134123057Y-65589280D01*
X134087615Y-65585110D01*
X134057798Y-65579993D01*
X134032131Y-65573830D01*
X134009140Y-65566525D01*
X133987348Y-65557980D01*
X133965281Y-65548099D01*
X133941464Y-65536783D01*
X133919531Y-65525743D01*
X133842109Y-65475649D01*
X133778914Y-65414007D01*
X133727994Y-65338592D01*
X133687395Y-65247177D01*
X133677746Y-65219013D01*
X133670288Y-65191713D01*
X133665456Y-65163285D01*
X133662693Y-65128998D01*
X133661443Y-65084121D01*
X133661150Y-65023924D01*
X134006356Y-65023924D01*
X134007463Y-65046711D01*
X134021981Y-65105285D01*
X134052180Y-65153730D01*
X134096605Y-65189380D01*
X134141729Y-65214449D01*
X134903829Y-65214449D01*
X135665930Y-65214449D01*
X135711054Y-65189380D01*
X135748756Y-65161738D01*
X135778741Y-65119569D01*
X135781758Y-65113354D01*
X135799860Y-65054474D01*
X135800848Y-64995853D01*
X135785684Y-64941185D01*
X135755331Y-64894168D01*
X135710751Y-64858496D01*
X135665930Y-64833399D01*
X134903829Y-64833399D01*
X134141729Y-64833399D01*
X134096605Y-64858468D01*
X134079253Y-64869523D01*
X134039725Y-64910033D01*
X134014941Y-64962389D01*
X134006356Y-65023924D01*
X133661150Y-65023924D01*
X133661391Y-64967952D01*
X133662544Y-64922014D01*
X133665164Y-64887048D01*
X133669808Y-64858323D01*
X133677034Y-64831108D01*
X133687395Y-64800671D01*
X133696738Y-64776061D01*
X133739748Y-64688878D01*
X133793570Y-64617135D01*
X133860158Y-64558606D01*
X133941464Y-64511065D01*
X133960321Y-64502076D01*
X133982641Y-64491892D01*
X134004368Y-64483066D01*
X134026974Y-64475500D01*
X134051937Y-64469098D01*
X134080729Y-64463762D01*
X134114828Y-64459396D01*
X134155706Y-64455902D01*
X134204840Y-64453182D01*
X134263705Y-64451140D01*
X134333775Y-64449679D01*
X134416525Y-64448702D01*
X134513431Y-64448110D01*
X134625967Y-64447808D01*
X134755608Y-64447698D01*
X134903829Y-64447683D01*
X135021568Y-64447690D01*
G37*
G36*
X136122187Y-67430556D02*
G01*
X136122187Y-67596012D01*
X135197973Y-67596012D01*
X135176073Y-67596014D01*
X135042805Y-67596077D01*
X134915701Y-67596232D01*
X134796149Y-67596470D01*
X134685538Y-67596786D01*
X134585259Y-67597172D01*
X134496699Y-67597621D01*
X134421249Y-67598127D01*
X134360297Y-67598682D01*
X134315233Y-67599280D01*
X134287445Y-67599914D01*
X134278324Y-67600577D01*
X134278375Y-67600611D01*
X134289602Y-67602879D01*
X134319192Y-67607906D01*
X134365740Y-67615471D01*
X134427840Y-67625357D01*
X134504088Y-67637343D01*
X134593077Y-67651211D01*
X134693404Y-67666742D01*
X134803662Y-67683716D01*
X134922447Y-67701916D01*
X135048353Y-67721121D01*
X135179976Y-67741112D01*
X135182795Y-67741540D01*
X135314798Y-67761566D01*
X135441398Y-67780807D01*
X135561153Y-67799042D01*
X135672620Y-67816049D01*
X135774355Y-67831607D01*
X135864917Y-67845495D01*
X135942862Y-67857491D01*
X136006748Y-67867375D01*
X136055133Y-67874926D01*
X136086572Y-67879921D01*
X136099625Y-67882140D01*
X136106736Y-67884098D01*
X136113160Y-67888569D01*
X136117500Y-67898141D01*
X136120163Y-67915805D01*
X136121560Y-67944551D01*
X136122098Y-67987372D01*
X136122187Y-68047256D01*
X136122136Y-68097713D01*
X136121708Y-68143382D01*
X136120496Y-68174441D01*
X136118090Y-68193879D01*
X136114082Y-68204687D01*
X136108063Y-68209857D01*
X136099625Y-68212380D01*
X136099545Y-68212398D01*
X136086068Y-68214684D01*
X136054237Y-68219744D01*
X136005493Y-68227356D01*
X135941280Y-68237301D01*
X135863038Y-68249355D01*
X135772212Y-68263297D01*
X135670244Y-68278907D01*
X135558576Y-68295962D01*
X135438650Y-68314242D01*
X135311909Y-68333524D01*
X135179796Y-68353587D01*
X135173536Y-68354537D01*
X135042143Y-68374517D01*
X134916535Y-68393696D01*
X134798117Y-68411854D01*
X134688292Y-68428773D01*
X134588466Y-68444234D01*
X134500044Y-68458018D01*
X134424430Y-68469905D01*
X134363028Y-68479677D01*
X134317243Y-68487116D01*
X134288481Y-68492001D01*
X134278144Y-68494115D01*
X134278298Y-68494219D01*
X134290534Y-68494851D01*
X134321214Y-68495455D01*
X134368947Y-68496023D01*
X134432343Y-68496550D01*
X134510013Y-68497027D01*
X134600568Y-68497450D01*
X134702617Y-68497810D01*
X134814772Y-68498102D01*
X134935643Y-68498318D01*
X135063840Y-68498453D01*
X135197973Y-68498500D01*
X136122187Y-68498500D01*
X136122187Y-68678997D01*
X136122187Y-68859494D01*
X134903829Y-68859494D01*
X133685472Y-68859494D01*
X133685472Y-68583734D01*
X133685474Y-68576804D01*
X133685730Y-68505329D01*
X133686375Y-68441108D01*
X133687352Y-68386702D01*
X133688603Y-68344671D01*
X133690070Y-68317575D01*
X133691696Y-68307975D01*
X133698167Y-68307164D01*
X133723069Y-68303784D01*
X133765271Y-68297958D01*
X133823326Y-68289891D01*
X133895787Y-68279784D01*
X133981207Y-68267839D01*
X134078138Y-68254260D01*
X134185134Y-68239248D01*
X134300746Y-68223007D01*
X134423529Y-68205737D01*
X134552034Y-68187643D01*
X134649944Y-68173862D01*
X134774571Y-68156358D01*
X134892517Y-68139834D01*
X135002318Y-68124495D01*
X135102510Y-68110542D01*
X135191630Y-68098178D01*
X135268212Y-68087607D01*
X135330792Y-68079032D01*
X135377907Y-68072656D01*
X135408093Y-68068681D01*
X135419885Y-68067311D01*
X135425535Y-68066826D01*
X135429038Y-68062727D01*
X135424733Y-68061809D01*
X135402797Y-68058244D01*
X135363851Y-68052304D01*
X135309638Y-68044238D01*
X135241903Y-68034293D01*
X135162389Y-68022717D01*
X135072840Y-68009758D01*
X134974998Y-67995664D01*
X134870609Y-67980682D01*
X134761415Y-67965062D01*
X134649160Y-67949050D01*
X134535587Y-67932894D01*
X134422441Y-67916843D01*
X134311464Y-67901145D01*
X134204401Y-67886046D01*
X134102994Y-67871796D01*
X134008988Y-67858641D01*
X133924127Y-67846831D01*
X133850153Y-67836612D01*
X133788810Y-67828233D01*
X133741842Y-67821942D01*
X133710993Y-67817986D01*
X133698006Y-67816614D01*
X133695028Y-67814224D01*
X133691774Y-67802624D01*
X133689291Y-67779792D01*
X133687500Y-67743963D01*
X133686320Y-67693374D01*
X133685670Y-67626261D01*
X133685472Y-67540860D01*
X133685472Y-67265100D01*
X134903829Y-67265100D01*
X136122187Y-67265100D01*
X136122187Y-67430556D01*
G37*
G36*
X136122187Y-87776628D02*
G01*
X136122187Y-87942084D01*
X135197973Y-87942084D01*
X135176073Y-87942086D01*
X135042805Y-87942149D01*
X134915701Y-87942304D01*
X134796149Y-87942542D01*
X134685538Y-87942858D01*
X134585259Y-87943244D01*
X134496699Y-87943693D01*
X134421249Y-87944199D01*
X134360297Y-87944754D01*
X134315233Y-87945352D01*
X134287445Y-87945986D01*
X134278324Y-87946649D01*
X134278375Y-87946683D01*
X134289602Y-87948951D01*
X134319192Y-87953978D01*
X134365740Y-87961543D01*
X134427840Y-87971429D01*
X134504088Y-87983415D01*
X134593077Y-87997283D01*
X134693404Y-88012813D01*
X134803662Y-88029788D01*
X134922447Y-88047987D01*
X135048353Y-88067192D01*
X135179976Y-88087184D01*
X135182795Y-88087612D01*
X135314798Y-88107638D01*
X135441398Y-88126879D01*
X135561153Y-88145113D01*
X135672620Y-88162120D01*
X135774355Y-88177679D01*
X135864917Y-88191567D01*
X135942862Y-88203563D01*
X136006748Y-88213447D01*
X136055133Y-88220998D01*
X136086572Y-88225993D01*
X136099625Y-88228212D01*
X136106736Y-88230170D01*
X136113160Y-88234641D01*
X136117500Y-88244213D01*
X136120163Y-88261877D01*
X136121560Y-88290623D01*
X136122098Y-88333443D01*
X136122187Y-88393328D01*
X136122136Y-88443772D01*
X136121708Y-88489446D01*
X136120496Y-88520508D01*
X136118090Y-88539950D01*
X136114082Y-88550764D01*
X136108063Y-88555940D01*
X136099625Y-88558470D01*
X136099544Y-88558487D01*
X136086065Y-88560776D01*
X136054231Y-88565839D01*
X136005484Y-88573455D01*
X135941268Y-88583402D01*
X135863025Y-88595459D01*
X135772196Y-88609404D01*
X135670226Y-88625016D01*
X135558555Y-88642073D01*
X135438628Y-88660354D01*
X135311885Y-88679638D01*
X135179770Y-88699703D01*
X135173483Y-88700657D01*
X135042090Y-88720637D01*
X134916483Y-88739816D01*
X134798065Y-88757973D01*
X134688243Y-88774891D01*
X134588419Y-88790350D01*
X134500000Y-88804131D01*
X134424389Y-88816016D01*
X134362991Y-88825785D01*
X134317210Y-88833221D01*
X134288451Y-88838103D01*
X134278118Y-88840213D01*
X134278272Y-88840316D01*
X134290512Y-88840945D01*
X134321195Y-88841545D01*
X134368931Y-88842110D01*
X134432330Y-88842633D01*
X134510003Y-88843108D01*
X134600560Y-88843528D01*
X134702612Y-88843886D01*
X134814769Y-88844176D01*
X134935641Y-88844391D01*
X135063839Y-88844525D01*
X135197973Y-88844571D01*
X136122187Y-88844571D01*
X136122187Y-89025069D01*
X136122187Y-89205566D01*
X134903829Y-89205566D01*
X133685472Y-89205566D01*
X133685472Y-88929806D01*
X133685474Y-88922876D01*
X133685730Y-88851400D01*
X133686375Y-88787180D01*
X133687352Y-88732774D01*
X133688603Y-88690743D01*
X133690070Y-88663647D01*
X133691696Y-88654046D01*
X133698167Y-88653236D01*
X133723069Y-88649855D01*
X133765271Y-88644030D01*
X133823326Y-88635963D01*
X133895787Y-88625855D01*
X133981207Y-88613911D01*
X134078138Y-88600332D01*
X134185134Y-88585320D01*
X134300746Y-88569078D01*
X134423529Y-88551809D01*
X134552034Y-88533715D01*
X134649944Y-88519933D01*
X134774571Y-88502429D01*
X134892517Y-88485906D01*
X135002318Y-88470566D01*
X135102510Y-88456613D01*
X135191630Y-88444250D01*
X135268212Y-88433679D01*
X135330792Y-88425104D01*
X135377907Y-88418728D01*
X135408093Y-88414753D01*
X135419885Y-88413383D01*
X135425535Y-88412895D01*
X135429018Y-88408778D01*
X135424663Y-88407854D01*
X135402657Y-88404284D01*
X135363649Y-88398342D01*
X135309381Y-88390274D01*
X135241596Y-88380328D01*
X135162038Y-88368752D01*
X135072451Y-88355795D01*
X134974577Y-88341703D01*
X134870160Y-88326724D01*
X134760943Y-88311107D01*
X134648670Y-88295099D01*
X134535084Y-88278947D01*
X134421928Y-88262900D01*
X134310945Y-88247206D01*
X134203880Y-88232111D01*
X134102475Y-88217865D01*
X134008473Y-88204714D01*
X133923619Y-88192906D01*
X133849654Y-88182690D01*
X133788323Y-88174313D01*
X133741370Y-88168022D01*
X133710536Y-88164066D01*
X133697566Y-88162692D01*
X133695549Y-88161446D01*
X133692174Y-88150992D01*
X133689572Y-88128576D01*
X133687672Y-88092580D01*
X133686402Y-88041385D01*
X133685693Y-87973375D01*
X133685472Y-87886932D01*
X133685472Y-87611172D01*
X134903829Y-87611172D01*
X136122187Y-87611172D01*
X136122187Y-87776628D01*
G37*
G36*
X129743289Y-64593567D02*
G01*
X129748849Y-64603860D01*
X129752330Y-64624631D01*
X129754127Y-64659065D01*
X129754639Y-64710349D01*
X129754639Y-64823578D01*
X129681938Y-64877925D01*
X129666988Y-64889168D01*
X129635408Y-64913387D01*
X129611385Y-64932457D01*
X129599210Y-64943001D01*
X129594300Y-64947530D01*
X129574922Y-64962723D01*
X129549072Y-64981173D01*
X129546042Y-64983244D01*
X129510550Y-65007618D01*
X129485336Y-65027021D01*
X129468239Y-65045593D01*
X129457098Y-65067475D01*
X129449751Y-65096809D01*
X129444038Y-65137735D01*
X129437798Y-65194394D01*
X129431242Y-65253669D01*
X129423044Y-65326792D01*
X129414880Y-65398738D01*
X129407809Y-65460126D01*
X129401783Y-65512524D01*
X129393726Y-65583940D01*
X129385568Y-65657421D01*
X129378385Y-65723352D01*
X129371993Y-65782663D01*
X129363766Y-65858754D01*
X129355401Y-65935890D01*
X129347977Y-66004125D01*
X129339644Y-66080707D01*
X129328174Y-66186918D01*
X129318514Y-66277571D01*
X129310386Y-66355341D01*
X129303511Y-66422903D01*
X129297611Y-66482930D01*
X129292407Y-66538097D01*
X129287917Y-66581675D01*
X129279358Y-66638973D01*
X129268039Y-66682039D01*
X129252520Y-66714487D01*
X129231360Y-66739926D01*
X129203119Y-66761970D01*
X129186473Y-66773240D01*
X129157904Y-66793230D01*
X129137939Y-66808019D01*
X129135751Y-66809739D01*
X129115822Y-66824958D01*
X129086293Y-66847115D01*
X129052704Y-66872046D01*
X129035536Y-66884682D01*
X128979566Y-66924870D01*
X128935657Y-66953820D01*
X128900986Y-66972583D01*
X128872731Y-66982209D01*
X128848068Y-66983750D01*
X128824175Y-66978256D01*
X128798229Y-66966778D01*
X128781346Y-66957369D01*
X128765944Y-66945280D01*
X128753939Y-66929397D01*
X128744839Y-66907398D01*
X128738153Y-66876958D01*
X128733389Y-66835754D01*
X128730054Y-66781465D01*
X128727656Y-66711767D01*
X128725704Y-66624336D01*
X128724783Y-66581266D01*
X128722707Y-66497957D01*
X128720034Y-66402094D01*
X128716906Y-66298307D01*
X128713464Y-66191227D01*
X128709849Y-66085485D01*
X128706203Y-65985712D01*
X128702201Y-65878856D01*
X128698291Y-65769415D01*
X128695296Y-65677101D01*
X128693231Y-65600340D01*
X128693210Y-65599170D01*
X128843376Y-65599170D01*
X128844099Y-65653447D01*
X128846414Y-65724486D01*
X128850015Y-65828513D01*
X128853597Y-65927890D01*
X128857010Y-66017183D01*
X128860470Y-66101599D01*
X128864189Y-66186346D01*
X128868382Y-66276629D01*
X128873263Y-66377655D01*
X128875209Y-66416853D01*
X128878706Y-66482320D01*
X128881891Y-66531610D01*
X128885092Y-66567308D01*
X128888634Y-66591996D01*
X128892842Y-66608258D01*
X128898044Y-66618678D01*
X128904563Y-66625839D01*
X128928330Y-66638293D01*
X128965021Y-66643450D01*
X129002978Y-66638473D01*
X129033622Y-66623518D01*
X129045054Y-66614119D01*
X129066234Y-66597185D01*
X129083380Y-66584772D01*
X129104567Y-66570889D01*
X129107302Y-66569032D01*
X129121195Y-66555045D01*
X129132455Y-66533567D01*
X129141671Y-66502087D01*
X129149435Y-66458091D01*
X129156338Y-66399067D01*
X129162970Y-66322503D01*
X129171013Y-66219976D01*
X129178265Y-66130120D01*
X129184521Y-66055923D01*
X129189981Y-65995162D01*
X129194845Y-65945613D01*
X129199313Y-65905053D01*
X129203585Y-65871259D01*
X129207656Y-65838230D01*
X129213244Y-65786172D01*
X129218862Y-65727830D01*
X129223755Y-65670706D01*
X129227676Y-65623631D01*
X129232998Y-65564970D01*
X129238294Y-65511311D01*
X129242851Y-65470154D01*
X129247055Y-65428335D01*
X129250911Y-65372188D01*
X129252637Y-65322246D01*
X129252615Y-65295031D01*
X129250327Y-65266254D01*
X129243138Y-65251471D01*
X129228604Y-65246986D01*
X129204282Y-65249106D01*
X129194948Y-65253677D01*
X129172366Y-65267951D01*
X129141040Y-65289195D01*
X129104909Y-65314628D01*
X129067914Y-65341469D01*
X129033996Y-65366938D01*
X129007095Y-65388254D01*
X128995197Y-65397257D01*
X128971533Y-65414380D01*
X128941916Y-65435379D01*
X128933277Y-65441443D01*
X128901646Y-65464173D01*
X128878121Y-65483943D01*
X128861618Y-65504041D01*
X128851050Y-65527754D01*
X128845331Y-65558368D01*
X128843376Y-65599170D01*
X128693210Y-65599170D01*
X128692110Y-65537555D01*
X128691948Y-65487169D01*
X128692757Y-65447605D01*
X128694554Y-65417287D01*
X128697352Y-65394640D01*
X128701165Y-65378085D01*
X128706007Y-65366047D01*
X128711894Y-65356949D01*
X128718028Y-65350357D01*
X128740185Y-65330367D01*
X128773423Y-65302739D01*
X128814406Y-65270213D01*
X128859801Y-65235525D01*
X128886537Y-65215466D01*
X128927930Y-65184356D01*
X128962219Y-65158517D01*
X128986421Y-65140199D01*
X128997552Y-65131651D01*
X129007447Y-65124017D01*
X129029610Y-65107334D01*
X129057718Y-65086416D01*
X129081336Y-65068853D01*
X129104896Y-65051157D01*
X129117884Y-65041174D01*
X129123808Y-65036599D01*
X129144265Y-65021040D01*
X129176780Y-64996416D01*
X129219030Y-64964485D01*
X129228604Y-64957259D01*
X129268694Y-64927000D01*
X129323450Y-64885719D01*
X129362643Y-64856186D01*
X129414039Y-64817458D01*
X129458708Y-64783799D01*
X129494326Y-64756959D01*
X129518571Y-64738689D01*
X129529121Y-64730737D01*
X129538022Y-64723792D01*
X129559151Y-64706993D01*
X129585961Y-64685491D01*
X129607505Y-64669033D01*
X129630392Y-64653776D01*
X129643515Y-64647888D01*
X129646604Y-64647505D01*
X129654362Y-64638678D01*
X129658400Y-64630841D01*
X129675549Y-64616599D01*
X129699629Y-64602640D01*
X129723458Y-64592933D01*
X129739852Y-64591446D01*
X129743289Y-64593567D01*
G37*
G36*
X128605764Y-65462258D02*
G01*
X128619004Y-65472661D01*
X128620957Y-65480316D01*
X128623662Y-65506998D01*
X128626338Y-65550913D01*
X128628917Y-65610427D01*
X128631330Y-65683909D01*
X128633509Y-65769726D01*
X128635388Y-65866245D01*
X128636799Y-65942110D01*
X128638915Y-66037349D01*
X128641336Y-66130718D01*
X128643954Y-66218579D01*
X128646659Y-66297296D01*
X128649340Y-66363232D01*
X128651888Y-66412751D01*
X128653255Y-66436158D01*
X128656725Y-66502461D01*
X128660408Y-66580911D01*
X128664061Y-66665986D01*
X128667443Y-66752161D01*
X128670313Y-66833912D01*
X128672066Y-66889327D01*
X128674091Y-66958037D01*
X128675744Y-67019659D01*
X128676942Y-67070955D01*
X128677607Y-67108687D01*
X128677658Y-67129614D01*
X128676990Y-67142628D01*
X128674351Y-67154466D01*
X128667752Y-67166556D01*
X128655193Y-67180878D01*
X128634672Y-67199411D01*
X128604186Y-67224137D01*
X128561734Y-67257034D01*
X128505314Y-67300083D01*
X128491225Y-67310814D01*
X128438773Y-67350802D01*
X128390437Y-67387714D01*
X128349180Y-67419283D01*
X128317963Y-67443243D01*
X128299748Y-67457330D01*
X128299002Y-67457913D01*
X128277029Y-67474757D01*
X128243582Y-67500039D01*
X128203073Y-67530434D01*
X128159917Y-67562620D01*
X128154046Y-67566987D01*
X128113710Y-67597136D01*
X128078814Y-67623457D01*
X128052918Y-67643252D01*
X128039585Y-67653820D01*
X128028064Y-67663133D01*
X128003896Y-67681755D01*
X127974733Y-67703629D01*
X127951116Y-67721193D01*
X127927556Y-67738894D01*
X127914568Y-67748885D01*
X127911461Y-67751390D01*
X127881108Y-67774831D01*
X127846289Y-67800367D01*
X127811098Y-67825162D01*
X127779631Y-67846381D01*
X127755984Y-67861192D01*
X127744252Y-67866759D01*
X127735123Y-67866047D01*
X127717462Y-67857500D01*
X127705205Y-67837110D01*
X127697139Y-67802167D01*
X127692053Y-67749958D01*
X127689742Y-67692748D01*
X127691653Y-67644712D01*
X127698417Y-67615742D01*
X127710011Y-67606040D01*
X127719425Y-67602218D01*
X127740697Y-67588572D01*
X127767375Y-67568436D01*
X127788410Y-67551545D01*
X127811317Y-67533267D01*
X127824214Y-67523126D01*
X127838404Y-67511873D01*
X127858966Y-67495096D01*
X127860381Y-67493939D01*
X127887121Y-67473996D01*
X127916625Y-67454354D01*
X127922666Y-67450465D01*
X127941908Y-67435431D01*
X127949664Y-67424725D01*
X127951065Y-67420749D01*
X127963870Y-67415515D01*
X127969882Y-67414838D01*
X127981419Y-67407579D01*
X127984916Y-67403146D01*
X128000976Y-67388667D01*
X128024863Y-67369975D01*
X128044286Y-67355597D01*
X128067324Y-67338385D01*
X128083700Y-67325683D01*
X128099331Y-67312847D01*
X128120134Y-67295236D01*
X128130819Y-67286382D01*
X128150648Y-67271298D01*
X128161217Y-67265261D01*
X128161299Y-67265257D01*
X128172655Y-67259223D01*
X128191300Y-67245231D01*
X128200286Y-67237825D01*
X128214162Y-67226464D01*
X128227772Y-67215527D01*
X128244346Y-67202480D01*
X128267115Y-67184790D01*
X128299309Y-67159924D01*
X128344157Y-67125349D01*
X128452862Y-67041563D01*
X128446239Y-66880079D01*
X128445535Y-66863159D01*
X128442240Y-66788375D01*
X128438339Y-66704931D01*
X128434261Y-66621841D01*
X128430435Y-66548125D01*
X128430281Y-66545232D01*
X128427422Y-66479747D01*
X128424924Y-66401023D01*
X128422937Y-66315543D01*
X128421615Y-66229789D01*
X128421109Y-66150242D01*
X128420942Y-66085464D01*
X128420342Y-66025445D01*
X128419151Y-65980868D01*
X128417205Y-65949238D01*
X128414341Y-65928060D01*
X128410395Y-65914836D01*
X128405206Y-65907072D01*
X128393551Y-65897858D01*
X128376605Y-65891314D01*
X128374087Y-65892303D01*
X128357869Y-65902370D01*
X128329636Y-65921643D01*
X128292208Y-65948058D01*
X128248404Y-65979555D01*
X128201044Y-66014070D01*
X128152946Y-66049542D01*
X128106931Y-66083910D01*
X128065816Y-66115110D01*
X128032423Y-66141081D01*
X128009570Y-66159760D01*
X127995452Y-66171392D01*
X127965883Y-66194431D01*
X127928069Y-66222978D01*
X127885046Y-66254838D01*
X127839847Y-66287818D01*
X127795508Y-66319722D01*
X127755064Y-66348357D01*
X127721549Y-66371527D01*
X127697997Y-66387038D01*
X127687445Y-66392696D01*
X127675900Y-66389022D01*
X127657146Y-66376101D01*
X127652724Y-66371525D01*
X127645657Y-66358699D01*
X127641416Y-66338389D01*
X127639351Y-66306410D01*
X127638808Y-66258579D01*
X127638808Y-66157653D01*
X127671397Y-66129289D01*
X127676653Y-66124799D01*
X127705565Y-66102074D01*
X127731563Y-66084206D01*
X127732782Y-66083460D01*
X127751438Y-66069730D01*
X127759139Y-66059622D01*
X127760645Y-66056147D01*
X127773682Y-66051757D01*
X127780443Y-66050574D01*
X127796245Y-66038719D01*
X127798783Y-66035356D01*
X127815449Y-66019622D01*
X127839360Y-66001387D01*
X127863507Y-65984428D01*
X127889720Y-65964798D01*
X127912409Y-65945775D01*
X127925183Y-65935762D01*
X127949646Y-65917775D01*
X127979747Y-65896328D01*
X128007859Y-65876262D01*
X128032633Y-65857926D01*
X128046459Y-65846881D01*
X128059520Y-65836374D01*
X128083968Y-65818111D01*
X128114145Y-65796355D01*
X128114808Y-65795884D01*
X128142773Y-65774949D01*
X128162686Y-65758021D01*
X128170272Y-65748724D01*
X128170533Y-65746945D01*
X128180213Y-65740900D01*
X128186867Y-65738564D01*
X128206510Y-65726754D01*
X128232196Y-65708712D01*
X128258267Y-65688672D01*
X128279065Y-65670867D01*
X128288933Y-65659533D01*
X128289522Y-65658219D01*
X128300874Y-65650651D01*
X128305250Y-65648654D01*
X128323667Y-65636710D01*
X128353333Y-65615797D01*
X128391324Y-65587996D01*
X128434715Y-65555389D01*
X128484277Y-65518543D01*
X128529095Y-65487917D01*
X128562893Y-65468951D01*
X128587755Y-65460710D01*
X128605764Y-65462258D01*
G37*
G36*
X131426858Y-78890081D02*
G01*
X131465342Y-78908712D01*
X131501621Y-78941973D01*
X131506007Y-78948211D01*
X131510815Y-78960100D01*
X131514290Y-78978209D01*
X131516649Y-79005304D01*
X131518105Y-79044154D01*
X131518874Y-79097523D01*
X131519169Y-79168179D01*
X131519188Y-79190232D01*
X131518914Y-79257084D01*
X131517969Y-79307340D01*
X131516171Y-79343699D01*
X131513338Y-79368858D01*
X131509290Y-79385517D01*
X131503845Y-79396375D01*
X131502936Y-79397570D01*
X131487615Y-79412550D01*
X131459574Y-79436359D01*
X131422004Y-79466520D01*
X131378093Y-79500554D01*
X131331033Y-79535984D01*
X131284013Y-79570334D01*
X131240223Y-79601124D01*
X131235733Y-79604239D01*
X131208645Y-79624292D01*
X131187578Y-79641709D01*
X131173161Y-79653111D01*
X131160062Y-79659258D01*
X131149787Y-79664379D01*
X131133439Y-79679313D01*
X131119104Y-79692649D01*
X131106396Y-79699368D01*
X131094439Y-79704819D01*
X131076200Y-79719215D01*
X131068938Y-79725594D01*
X131043281Y-79745812D01*
X131013947Y-79766817D01*
X131000616Y-79776218D01*
X130977629Y-79794359D01*
X130964977Y-79807136D01*
X130960770Y-79812326D01*
X130947006Y-79819700D01*
X130941550Y-79820705D01*
X130924942Y-79830008D01*
X130918853Y-79834862D01*
X130897855Y-79850760D01*
X130867724Y-79873115D01*
X130833033Y-79898577D01*
X130798359Y-79923794D01*
X130768277Y-79945414D01*
X130747362Y-79960087D01*
X130743783Y-79962587D01*
X130719833Y-79980872D01*
X130693705Y-80002544D01*
X130686144Y-80008970D01*
X130666780Y-80024026D01*
X130656153Y-80030120D01*
X130646820Y-80034756D01*
X130629513Y-80047828D01*
X130612687Y-80061380D01*
X130586800Y-80080418D01*
X130576973Y-80087324D01*
X130551641Y-80105598D01*
X130517807Y-80130312D01*
X130480048Y-80158132D01*
X130453132Y-80177819D01*
X130421840Y-80200032D01*
X130399321Y-80215195D01*
X130389202Y-80220805D01*
X130382369Y-80223836D01*
X130367166Y-80236039D01*
X130356902Y-80244988D01*
X130332627Y-80264202D01*
X130300811Y-80288205D01*
X130265372Y-80314173D01*
X130230225Y-80339284D01*
X130199287Y-80360715D01*
X130176473Y-80375644D01*
X130165701Y-80381247D01*
X130164706Y-80381306D01*
X130154073Y-80389743D01*
X130151385Y-80393030D01*
X130135521Y-80406721D01*
X130108942Y-80427263D01*
X130075523Y-80451605D01*
X130063173Y-80460404D01*
X130016087Y-80494362D01*
X129964906Y-80531750D01*
X129918709Y-80565947D01*
X129896466Y-80582519D01*
X129861131Y-80608650D01*
X129832467Y-80629612D01*
X129815155Y-80641966D01*
X129799872Y-80652519D01*
X129760915Y-80679932D01*
X129719378Y-80709714D01*
X129679058Y-80739083D01*
X129643753Y-80765262D01*
X129617262Y-80785470D01*
X129603383Y-80796929D01*
X129591850Y-80806011D01*
X129575807Y-80812436D01*
X129572001Y-80812847D01*
X129564092Y-80819956D01*
X129560485Y-80825311D01*
X129544181Y-80839528D01*
X129519188Y-80857560D01*
X129501626Y-80869921D01*
X129481865Y-80885843D01*
X129474085Y-80895164D01*
X129473773Y-80896873D01*
X129463864Y-80902684D01*
X129456732Y-80905719D01*
X129435847Y-80918637D01*
X129405635Y-80939367D01*
X129369915Y-80965357D01*
X129345385Y-80983610D01*
X129309817Y-81009866D01*
X129281107Y-81030807D01*
X129263846Y-81043071D01*
X129246693Y-81054995D01*
X129224929Y-81070764D01*
X129223238Y-81072036D01*
X129195869Y-81092441D01*
X129160372Y-81118669D01*
X129120789Y-81147759D01*
X129081163Y-81176756D01*
X129045534Y-81202699D01*
X129017945Y-81222632D01*
X129002438Y-81233596D01*
X128996318Y-81237796D01*
X128971573Y-81255402D01*
X128942682Y-81276566D01*
X128914755Y-81297475D01*
X128892903Y-81314318D01*
X128882234Y-81323281D01*
X128878874Y-81326584D01*
X128861114Y-81340395D01*
X128837850Y-81355977D01*
X128816252Y-81368712D01*
X128803492Y-81373983D01*
X128798426Y-81375750D01*
X128788359Y-81389025D01*
X128784508Y-81394534D01*
X128765981Y-81401812D01*
X128730812Y-81404066D01*
X128717245Y-81403911D01*
X128689062Y-81400614D01*
X128668178Y-81390031D01*
X128645262Y-81368255D01*
X128611488Y-81332445D01*
X128611488Y-81152446D01*
X128611488Y-80972448D01*
X128660262Y-80925032D01*
X128677156Y-80909531D01*
X128713883Y-80878670D01*
X128757165Y-80844651D01*
X128800810Y-80812436D01*
X128831267Y-80790636D01*
X128869375Y-80762891D01*
X128900530Y-80739685D01*
X128919999Y-80724508D01*
X128927483Y-80718460D01*
X128956534Y-80696414D01*
X128987525Y-80674369D01*
X129000074Y-80665605D01*
X129023755Y-80647944D01*
X129037663Y-80635967D01*
X129046938Y-80627847D01*
X129069250Y-80610950D01*
X129097829Y-80590843D01*
X129120358Y-80574811D01*
X129143761Y-80556319D01*
X129155986Y-80544196D01*
X129160337Y-80539189D01*
X129177712Y-80531662D01*
X129183223Y-80531052D01*
X129194762Y-80523726D01*
X129198260Y-80519293D01*
X129214320Y-80504814D01*
X129238206Y-80486122D01*
X129257630Y-80471744D01*
X129280668Y-80454532D01*
X129297044Y-80441830D01*
X129312675Y-80428994D01*
X129333478Y-80411383D01*
X129344163Y-80402529D01*
X129363992Y-80387445D01*
X129374561Y-80381407D01*
X129379224Y-80379868D01*
X129389592Y-80372951D01*
X129408476Y-80358104D01*
X129439253Y-80332789D01*
X129450919Y-80323952D01*
X129474454Y-80306908D01*
X129503948Y-80285985D01*
X129531133Y-80266688D01*
X129555379Y-80249091D01*
X129568643Y-80238974D01*
X129569472Y-80238274D01*
X129589260Y-80222489D01*
X129619833Y-80199104D01*
X129658208Y-80170301D01*
X129701406Y-80138260D01*
X129746445Y-80105164D01*
X129790344Y-80073193D01*
X129830123Y-80044529D01*
X129862801Y-80021355D01*
X129885396Y-80005850D01*
X129894928Y-80000197D01*
X129896302Y-80000085D01*
X129906725Y-79991197D01*
X129908313Y-79989104D01*
X129922458Y-79976319D01*
X129948668Y-79954936D01*
X129983968Y-79927344D01*
X130025385Y-79895931D01*
X130037694Y-79886718D01*
X130081247Y-79854048D01*
X130120355Y-79824608D01*
X130151142Y-79801320D01*
X130169733Y-79787106D01*
X130174224Y-79783645D01*
X130203914Y-79761537D01*
X130234745Y-79739479D01*
X130241882Y-79734437D01*
X130269327Y-79714003D01*
X130290109Y-79697070D01*
X130297151Y-79691124D01*
X130321722Y-79672301D01*
X130350443Y-79651975D01*
X130363774Y-79642573D01*
X130386761Y-79624432D01*
X130399413Y-79611655D01*
X130403811Y-79606656D01*
X130421975Y-79599092D01*
X130428395Y-79598315D01*
X130436540Y-79591571D01*
X130440147Y-79586216D01*
X130456451Y-79571999D01*
X130481444Y-79553967D01*
X130499005Y-79541607D01*
X130518766Y-79525685D01*
X130526546Y-79516364D01*
X130526768Y-79514910D01*
X130536263Y-79508843D01*
X130546273Y-79503915D01*
X130568366Y-79489555D01*
X130598029Y-79468798D01*
X130630985Y-79444713D01*
X130662961Y-79420365D01*
X130689679Y-79398821D01*
X130700471Y-79390254D01*
X130723713Y-79372523D01*
X130752388Y-79351088D01*
X130776006Y-79333525D01*
X130799566Y-79315827D01*
X130812554Y-79305842D01*
X130823113Y-79297829D01*
X130846712Y-79280317D01*
X130879496Y-79256172D01*
X130917844Y-79228069D01*
X130947154Y-79206641D01*
X130981150Y-79181749D01*
X131005302Y-79163920D01*
X131023440Y-79150254D01*
X131039395Y-79137851D01*
X131056997Y-79123810D01*
X131080079Y-79105231D01*
X131101600Y-79088727D01*
X131124145Y-79073501D01*
X131136797Y-79067627D01*
X131138659Y-79067504D01*
X131150151Y-79060106D01*
X131154956Y-79053869D01*
X131172409Y-79037693D01*
X131196989Y-79017696D01*
X131223142Y-78998137D01*
X131245318Y-78983278D01*
X131257965Y-78977378D01*
X131261050Y-78977003D01*
X131268812Y-78968326D01*
X131276311Y-78957033D01*
X131297102Y-78940323D01*
X131325846Y-78921807D01*
X131357179Y-78904656D01*
X131385738Y-78892040D01*
X131406160Y-78887130D01*
X131426858Y-78890081D01*
G37*
G36*
X130890868Y-63729884D02*
G01*
X130891448Y-63730488D01*
X130893840Y-63733825D01*
X130896000Y-63739166D01*
X130897975Y-63747713D01*
X130899810Y-63760670D01*
X130901550Y-63779239D01*
X130903240Y-63804623D01*
X130904927Y-63838027D01*
X130906655Y-63880653D01*
X130908470Y-63933703D01*
X130910417Y-63998383D01*
X130912543Y-64075893D01*
X130914891Y-64167438D01*
X130917508Y-64274221D01*
X130920440Y-64397444D01*
X130923731Y-64538311D01*
X130927426Y-64698026D01*
X130928870Y-64763826D01*
X130930788Y-64861117D01*
X130932564Y-64961895D01*
X130934102Y-65060276D01*
X130935305Y-65150376D01*
X130936077Y-65226312D01*
X130937900Y-65458783D01*
X130890373Y-65497058D01*
X130890081Y-65497293D01*
X130863974Y-65518296D01*
X130845364Y-65533082D01*
X130828354Y-65546200D01*
X130807049Y-65562196D01*
X130775552Y-65585620D01*
X130752774Y-65600644D01*
X130706742Y-65618668D01*
X130665972Y-65617925D01*
X130632205Y-65599132D01*
X130607181Y-65563006D01*
X130592642Y-65510264D01*
X130588524Y-65484878D01*
X130580623Y-65442495D01*
X130571803Y-65399960D01*
X130565099Y-65369024D01*
X130554998Y-65320945D01*
X130546646Y-65279629D01*
X130539525Y-65243351D01*
X130530130Y-65195693D01*
X130520946Y-65149269D01*
X130512707Y-65106263D01*
X130503249Y-65054112D01*
X130495668Y-65009467D01*
X130489791Y-64977517D01*
X130482389Y-64946159D01*
X130475952Y-64927398D01*
X130469739Y-64908286D01*
X130466601Y-64880410D01*
X130462948Y-64857277D01*
X130453043Y-64839644D01*
X130451599Y-64838548D01*
X130445189Y-64838095D01*
X130440486Y-64848927D01*
X130436729Y-64873966D01*
X130433162Y-64916131D01*
X130432156Y-64929651D01*
X130428542Y-64973027D01*
X130424915Y-65010075D01*
X130421927Y-65033952D01*
X130420823Y-65041605D01*
X130417303Y-65070070D01*
X130412507Y-65112078D01*
X130406922Y-65163314D01*
X130401033Y-65219463D01*
X130392593Y-65301382D01*
X130382407Y-65399669D01*
X130373952Y-65480425D01*
X130367075Y-65545063D01*
X130361623Y-65594997D01*
X130357445Y-65631640D01*
X130354386Y-65656406D01*
X130352295Y-65670706D01*
X130351586Y-65675303D01*
X130348518Y-65701464D01*
X130344882Y-65739180D01*
X130341321Y-65781937D01*
X130338342Y-65812873D01*
X130329303Y-65863839D01*
X130316578Y-65895731D01*
X130304607Y-65909439D01*
X130278667Y-65933349D01*
X130243927Y-65962158D01*
X130204536Y-65992290D01*
X130169672Y-66017913D01*
X130136545Y-66042337D01*
X130112303Y-66060298D01*
X130100592Y-66069100D01*
X130100018Y-66069550D01*
X130048326Y-66101129D01*
X129999280Y-66113123D01*
X129953335Y-66105510D01*
X129910943Y-66078268D01*
X129874201Y-66044614D01*
X129864806Y-65764904D01*
X129861273Y-65656896D01*
X129857510Y-65535543D01*
X129853919Y-65413374D01*
X129850542Y-65292285D01*
X129847425Y-65174174D01*
X129844610Y-65060937D01*
X129842143Y-64954469D01*
X129840065Y-64856668D01*
X129838422Y-64769429D01*
X129837257Y-64694650D01*
X129836994Y-64669955D01*
X129972386Y-64669955D01*
X129978977Y-64761705D01*
X129979156Y-64764264D01*
X129981089Y-64797198D01*
X129983589Y-64847005D01*
X129986531Y-64910839D01*
X129989791Y-64985856D01*
X129993247Y-65069209D01*
X129996772Y-65158054D01*
X130000244Y-65249546D01*
X130000946Y-65268349D01*
X130004374Y-65356780D01*
X130007809Y-65440071D01*
X130011132Y-65515738D01*
X130014227Y-65581298D01*
X130016979Y-65634266D01*
X130019271Y-65672159D01*
X130020987Y-65692493D01*
X130029072Y-65733574D01*
X130042917Y-65759495D01*
X130065729Y-65772459D01*
X130100883Y-65775997D01*
X130104300Y-65775986D01*
X130134571Y-65773505D01*
X130155289Y-65763731D01*
X130175946Y-65742420D01*
X130185208Y-65730748D01*
X130194146Y-65715917D01*
X130200223Y-65697818D01*
X130204333Y-65672257D01*
X130207376Y-65635042D01*
X130210246Y-65581978D01*
X130210259Y-65581717D01*
X130213401Y-65529759D01*
X130217318Y-65481960D01*
X130221511Y-65443614D01*
X130225482Y-65420016D01*
X130228512Y-65404073D01*
X130233028Y-65368765D01*
X130237313Y-65323630D01*
X130240744Y-65274615D01*
X130242933Y-65240724D01*
X130248081Y-65175003D01*
X130254363Y-65105981D01*
X130260879Y-65043979D01*
X130265239Y-65004417D01*
X130271529Y-64942198D01*
X130277015Y-64882254D01*
X130280862Y-64833399D01*
X130281521Y-64824043D01*
X130282402Y-64813344D01*
X130436518Y-64813344D01*
X130441532Y-64818357D01*
X130446546Y-64813344D01*
X130441532Y-64808330D01*
X130436518Y-64813344D01*
X130282402Y-64813344D01*
X130285809Y-64771989D01*
X130290936Y-64719966D01*
X130295933Y-64677971D01*
X130302482Y-64625119D01*
X130308120Y-64563724D01*
X130310481Y-64512805D01*
X130309442Y-64475442D01*
X130304878Y-64454719D01*
X130296446Y-64445307D01*
X130275328Y-64437307D01*
X130275016Y-64437313D01*
X130256973Y-64443804D01*
X130227363Y-64460850D01*
X130189667Y-64485932D01*
X130147369Y-64516536D01*
X130103950Y-64550143D01*
X130062891Y-64584238D01*
X130027675Y-64616304D01*
X129972386Y-64669955D01*
X129836994Y-64669955D01*
X129836613Y-64634226D01*
X129836536Y-64590054D01*
X129837067Y-64564030D01*
X129837469Y-64556575D01*
X129840390Y-64521783D01*
X129846101Y-64499199D01*
X129857244Y-64482097D01*
X129876460Y-64463754D01*
X129936385Y-64414210D01*
X130013809Y-64357086D01*
X130021223Y-64351787D01*
X130047102Y-64332127D01*
X130057670Y-64323139D01*
X130496923Y-64323139D01*
X130497230Y-64335097D01*
X130500855Y-64376231D01*
X130507192Y-64412238D01*
X130507871Y-64414996D01*
X130514978Y-64446531D01*
X130523695Y-64488487D01*
X130532293Y-64532570D01*
X130541654Y-64581665D01*
X130552270Y-64636184D01*
X130561589Y-64682984D01*
X130565170Y-64700708D01*
X130576159Y-64755657D01*
X130588783Y-64819617D01*
X130603742Y-64896153D01*
X130621738Y-64988827D01*
X130624501Y-65003088D01*
X130639625Y-65080944D01*
X130651632Y-65141796D01*
X130661121Y-65187958D01*
X130668691Y-65221744D01*
X130674943Y-65245468D01*
X130680475Y-65261444D01*
X130685888Y-65271985D01*
X130691782Y-65279404D01*
X130698755Y-65286017D01*
X130711782Y-65294429D01*
X130744545Y-65302013D01*
X130779763Y-65298502D01*
X130808181Y-65284063D01*
X130816175Y-65273187D01*
X130822779Y-65251798D01*
X130826037Y-65219378D01*
X130826021Y-65173728D01*
X130822805Y-65112652D01*
X130816461Y-65033952D01*
X130815425Y-65020953D01*
X130812828Y-64980154D01*
X130809817Y-64924112D01*
X130806547Y-64856091D01*
X130803169Y-64779354D01*
X130799837Y-64697166D01*
X130796704Y-64612791D01*
X130795593Y-64581356D01*
X130791548Y-64467579D01*
X130788082Y-64371893D01*
X130785109Y-64292735D01*
X130782541Y-64228543D01*
X130780290Y-64177754D01*
X130778268Y-64138806D01*
X130776387Y-64110137D01*
X130774561Y-64090184D01*
X130772701Y-64077384D01*
X130770720Y-64070176D01*
X130768529Y-64066997D01*
X130766043Y-64066285D01*
X130763524Y-64066981D01*
X130747377Y-64076117D01*
X130721919Y-64093140D01*
X130691903Y-64114594D01*
X130662081Y-64137023D01*
X130637206Y-64156973D01*
X130622029Y-64170988D01*
X130619655Y-64173437D01*
X130602372Y-64188088D01*
X130578461Y-64205892D01*
X130552961Y-64224286D01*
X130523635Y-64248744D01*
X130506602Y-64270378D01*
X130498739Y-64293679D01*
X130496923Y-64323139D01*
X130057670Y-64323139D01*
X130065470Y-64316505D01*
X130077489Y-64306503D01*
X130103003Y-64287860D01*
X130133653Y-64267185D01*
X130157802Y-64250584D01*
X130178048Y-64234446D01*
X130185827Y-64225038D01*
X130187511Y-64221215D01*
X130200868Y-64216699D01*
X130207768Y-64215728D01*
X130215910Y-64208035D01*
X130218836Y-64202902D01*
X130234272Y-64188453D01*
X130258527Y-64170432D01*
X130275328Y-64158949D01*
X130287446Y-64150666D01*
X130307526Y-64136331D01*
X130324796Y-64122868D01*
X130346269Y-64105053D01*
X130369532Y-64086761D01*
X130396407Y-64067714D01*
X130410162Y-64058665D01*
X130427270Y-64046632D01*
X130441532Y-64035376D01*
X130445391Y-64032330D01*
X130471615Y-64010349D01*
X130473961Y-64008388D01*
X130502405Y-63987045D01*
X130529274Y-63970178D01*
X130529712Y-63969943D01*
X130548893Y-63956789D01*
X130556850Y-63945696D01*
X130557388Y-63942711D01*
X130568060Y-63935926D01*
X130571577Y-63935162D01*
X130589077Y-63925518D01*
X130611753Y-63908350D01*
X130625410Y-63896788D01*
X130656461Y-63870994D01*
X130676647Y-63855403D01*
X130689075Y-63847727D01*
X130696853Y-63845677D01*
X130701771Y-63844343D01*
X130714287Y-63832453D01*
X130721314Y-63824600D01*
X130741825Y-63807276D01*
X130766043Y-63789652D01*
X130769185Y-63787365D01*
X130788322Y-63774037D01*
X130813858Y-63755191D01*
X130829351Y-63742368D01*
X130844404Y-63730276D01*
X130870040Y-63721694D01*
X130890868Y-63729884D01*
G37*
G36*
X131417080Y-81980731D02*
G01*
X131435546Y-82002130D01*
X131452446Y-82036635D01*
X131465473Y-82080323D01*
X131465556Y-82080732D01*
X131467087Y-82098787D01*
X131468523Y-82135620D01*
X131469865Y-82190018D01*
X131471112Y-82260767D01*
X131472264Y-82346654D01*
X131473321Y-82446466D01*
X131474283Y-82558990D01*
X131475150Y-82683012D01*
X131475921Y-82817320D01*
X131476598Y-82960699D01*
X131477180Y-83111937D01*
X131477666Y-83269821D01*
X131478056Y-83433137D01*
X131478351Y-83600672D01*
X131478551Y-83771213D01*
X131478655Y-83943547D01*
X131478663Y-84116460D01*
X131478575Y-84288740D01*
X131478392Y-84459173D01*
X131478112Y-84626545D01*
X131477737Y-84789644D01*
X131477265Y-84947256D01*
X131476698Y-85098169D01*
X131476034Y-85241168D01*
X131475273Y-85375042D01*
X131474417Y-85498575D01*
X131473463Y-85610556D01*
X131472414Y-85709771D01*
X131471267Y-85795007D01*
X131470024Y-85865051D01*
X131468684Y-85918689D01*
X131467248Y-85954708D01*
X131465714Y-85971895D01*
X131461357Y-85989802D01*
X131446207Y-86034642D01*
X131427730Y-86072531D01*
X131408866Y-86096999D01*
X131401984Y-86104964D01*
X131386210Y-86125076D01*
X131365756Y-86152151D01*
X131343895Y-86181453D01*
X131314895Y-86219817D01*
X131291958Y-86249203D01*
X131271516Y-86274142D01*
X131250003Y-86299163D01*
X131216152Y-86337870D01*
X131191590Y-86311367D01*
X131191294Y-86311047D01*
X131170643Y-86284731D01*
X131155263Y-86258618D01*
X131154609Y-86256527D01*
X131152766Y-86242955D01*
X131151046Y-86217785D01*
X131149442Y-86180313D01*
X131147942Y-86129834D01*
X131146538Y-86065643D01*
X131145220Y-85987035D01*
X131143977Y-85893305D01*
X131142801Y-85783749D01*
X131141682Y-85657662D01*
X131140609Y-85514338D01*
X131139574Y-85353074D01*
X131138566Y-85173164D01*
X131137576Y-84973904D01*
X131137497Y-84957360D01*
X131136443Y-84750181D01*
X131135339Y-84562588D01*
X131134180Y-84394145D01*
X131132961Y-84244416D01*
X131131676Y-84112965D01*
X131130319Y-83999356D01*
X131128884Y-83903152D01*
X131127366Y-83823918D01*
X131125758Y-83761218D01*
X131124055Y-83714615D01*
X131122252Y-83683674D01*
X131120342Y-83667958D01*
X131110372Y-83635033D01*
X131096003Y-83602293D01*
X131080900Y-83578942D01*
X131067777Y-83570035D01*
X131059874Y-83575243D01*
X131042764Y-83592506D01*
X131021299Y-83617667D01*
X131003534Y-83639611D01*
X130986414Y-83660362D01*
X130977770Y-83670312D01*
X130975581Y-83672770D01*
X130963090Y-83688075D01*
X130942770Y-83713628D01*
X130917742Y-83745519D01*
X130907205Y-83758950D01*
X130882440Y-83789948D01*
X130862883Y-83813643D01*
X130852050Y-83825740D01*
X130849079Y-83828825D01*
X130834481Y-83846029D01*
X130812611Y-83873181D01*
X130786973Y-83905961D01*
X130776104Y-83920006D01*
X130752849Y-83949748D01*
X130735546Y-83971449D01*
X130727319Y-83981168D01*
X130725096Y-83983613D01*
X130712533Y-83998909D01*
X130692174Y-84024469D01*
X130667154Y-84056376D01*
X130656075Y-84070539D01*
X130632513Y-84100227D01*
X130614847Y-84121883D01*
X130606252Y-84131583D01*
X130601323Y-84136859D01*
X130585648Y-84155231D01*
X130562439Y-84183202D01*
X130534648Y-84217239D01*
X130524492Y-84229543D01*
X130507393Y-84249501D01*
X130492512Y-84266821D01*
X130479688Y-84282922D01*
X130468758Y-84299222D01*
X130459561Y-84317140D01*
X130451935Y-84338092D01*
X130445719Y-84363498D01*
X130440751Y-84394775D01*
X130436868Y-84433342D01*
X130433910Y-84480616D01*
X130431715Y-84538015D01*
X130430121Y-84606958D01*
X130428966Y-84688862D01*
X130428088Y-84785146D01*
X130427327Y-84897228D01*
X130426520Y-85026526D01*
X130425506Y-85174457D01*
X130425112Y-85226052D01*
X130423696Y-85390160D01*
X130422173Y-85534797D01*
X130420532Y-85660416D01*
X130418764Y-85767469D01*
X130416861Y-85856408D01*
X130414812Y-85927687D01*
X130412609Y-85981758D01*
X130410242Y-86019072D01*
X130407702Y-86040083D01*
X130395411Y-86086762D01*
X130373669Y-86132416D01*
X130339318Y-86177220D01*
X130302109Y-86219675D01*
X130271730Y-86255455D01*
X130252626Y-86279451D01*
X130245993Y-86290216D01*
X130243116Y-86296110D01*
X130227745Y-86316631D01*
X130199734Y-86350254D01*
X130159793Y-86396108D01*
X130149011Y-86407268D01*
X130123558Y-86423744D01*
X130103079Y-86421529D01*
X130088562Y-86400563D01*
X130084061Y-86390568D01*
X130074608Y-86377713D01*
X130071355Y-86374504D01*
X130065555Y-86362555D01*
X130060442Y-86342123D01*
X130055958Y-86312052D01*
X130052047Y-86271184D01*
X130048654Y-86218363D01*
X130045721Y-86152430D01*
X130043192Y-86072228D01*
X130041011Y-85976600D01*
X130039122Y-85864390D01*
X130037467Y-85734439D01*
X130035991Y-85585590D01*
X130035282Y-85506783D01*
X130034149Y-85388393D01*
X130033055Y-85287648D01*
X130031946Y-85203032D01*
X130030771Y-85133028D01*
X130029475Y-85076123D01*
X130028006Y-85030800D01*
X130026311Y-84995544D01*
X130024336Y-84968840D01*
X130022028Y-84949171D01*
X130019335Y-84935022D01*
X130016203Y-84924878D01*
X130012579Y-84917224D01*
X130009530Y-84911900D01*
X129994552Y-84890691D01*
X129979886Y-84882691D01*
X129962590Y-84888714D01*
X129939725Y-84909574D01*
X129908351Y-84946085D01*
X129896352Y-84960664D01*
X129869576Y-84992911D01*
X129847800Y-85018753D01*
X129834860Y-85033619D01*
X129824052Y-85046029D01*
X129803585Y-85070626D01*
X129780063Y-85099660D01*
X129760441Y-85123301D01*
X129740193Y-85145693D01*
X129727418Y-85157407D01*
X129721967Y-85161770D01*
X129714528Y-85175727D01*
X129714033Y-85178150D01*
X129704452Y-85193699D01*
X129686511Y-85214045D01*
X129671154Y-85230530D01*
X129645168Y-85260951D01*
X129619271Y-85293494D01*
X129599405Y-85318247D01*
X129581816Y-85337539D01*
X129572081Y-85344927D01*
X129570794Y-85345045D01*
X129564114Y-85353923D01*
X129563300Y-85358145D01*
X129559068Y-85365954D01*
X129549450Y-85379050D01*
X129532503Y-85399896D01*
X129506284Y-85430954D01*
X129468851Y-85474687D01*
X129452720Y-85493681D01*
X129421230Y-85531534D01*
X129393644Y-85565535D01*
X129378941Y-85583788D01*
X129347989Y-85621362D01*
X129318437Y-85656382D01*
X129286586Y-85693568D01*
X129258578Y-85726630D01*
X129240175Y-85749056D01*
X129229435Y-85763309D01*
X129224416Y-85771852D01*
X129223174Y-85777146D01*
X129223069Y-85778600D01*
X129215207Y-85786143D01*
X129210402Y-85789062D01*
X129195459Y-85804490D01*
X129174765Y-85829279D01*
X129151820Y-85858997D01*
X129130120Y-85889209D01*
X129113165Y-85915481D01*
X129111562Y-85919106D01*
X129109524Y-85927223D01*
X129107669Y-85939842D01*
X129105982Y-85957935D01*
X129104449Y-85982475D01*
X129103055Y-86014433D01*
X129101786Y-86054781D01*
X129100626Y-86104493D01*
X129099562Y-86164538D01*
X129098578Y-86235891D01*
X129097661Y-86319522D01*
X129096794Y-86416404D01*
X129095965Y-86527509D01*
X129095157Y-86653809D01*
X129094357Y-86796276D01*
X129093550Y-86955882D01*
X129092720Y-87133598D01*
X129091854Y-87330399D01*
X129091432Y-87427443D01*
X129090547Y-87621684D01*
X129089669Y-87797309D01*
X129088773Y-87955300D01*
X129087834Y-88096639D01*
X129086824Y-88222307D01*
X129085720Y-88333287D01*
X129084494Y-88430561D01*
X129083121Y-88515110D01*
X129081575Y-88587916D01*
X129079830Y-88649962D01*
X129077861Y-88702230D01*
X129075641Y-88745701D01*
X129073144Y-88781357D01*
X129070346Y-88810180D01*
X129067219Y-88833152D01*
X129063739Y-88851256D01*
X129059879Y-88865473D01*
X129055614Y-88876784D01*
X129050917Y-88886173D01*
X129050277Y-88887280D01*
X129036287Y-88907680D01*
X129012286Y-88939298D01*
X128981151Y-88978505D01*
X128945759Y-89021675D01*
X128908985Y-89065179D01*
X128896741Y-89079738D01*
X128873473Y-89108113D01*
X128848624Y-89138993D01*
X128830428Y-89161546D01*
X128808447Y-89188026D01*
X128793380Y-89205271D01*
X128788446Y-89210696D01*
X128769276Y-89232983D01*
X128747625Y-89259311D01*
X128732821Y-89275572D01*
X128704847Y-89293369D01*
X128679439Y-89291614D01*
X128657200Y-89270235D01*
X128654289Y-89265731D01*
X128649065Y-89256979D01*
X128644289Y-89247330D01*
X128639939Y-89235913D01*
X128635997Y-89221858D01*
X128632441Y-89204294D01*
X128629251Y-89182350D01*
X128626409Y-89155155D01*
X128623893Y-89121838D01*
X128621683Y-89081528D01*
X128619760Y-89033356D01*
X128618104Y-88976448D01*
X128616694Y-88909936D01*
X128615510Y-88832948D01*
X128614532Y-88744613D01*
X128613741Y-88644060D01*
X128613115Y-88530419D01*
X128612636Y-88402819D01*
X128612283Y-88260388D01*
X128612035Y-88102256D01*
X128611874Y-87927552D01*
X128611778Y-87735406D01*
X128611728Y-87524946D01*
X128611704Y-87295302D01*
X128611676Y-87121602D01*
X128611617Y-86905069D01*
X128611567Y-86707063D01*
X128611565Y-86526708D01*
X128611650Y-86363129D01*
X128611862Y-86215450D01*
X128612240Y-86082794D01*
X128612822Y-85964287D01*
X128613647Y-85859051D01*
X128614755Y-85766211D01*
X128616184Y-85684892D01*
X128617974Y-85614216D01*
X128620164Y-85553309D01*
X128622792Y-85501294D01*
X128625898Y-85457296D01*
X128629520Y-85420438D01*
X128633698Y-85389845D01*
X128638471Y-85364641D01*
X128643878Y-85343949D01*
X128649957Y-85326894D01*
X128656748Y-85312601D01*
X128664290Y-85300192D01*
X128672622Y-85288793D01*
X128681783Y-85277527D01*
X128691811Y-85265518D01*
X128702747Y-85251891D01*
X128716734Y-85233972D01*
X128746059Y-85197255D01*
X128771963Y-85165859D01*
X128790090Y-85145109D01*
X128799847Y-85134574D01*
X128816915Y-85115269D01*
X128835350Y-85092890D01*
X128858682Y-85063094D01*
X128890437Y-85021536D01*
X128907305Y-85000418D01*
X128924705Y-84981282D01*
X128934513Y-84973904D01*
X128938126Y-84972223D01*
X128942400Y-84958863D01*
X128943255Y-84951976D01*
X128950053Y-84943821D01*
X128950065Y-84943821D01*
X128959673Y-84936448D01*
X128977455Y-84917195D01*
X128999571Y-84890218D01*
X129032551Y-84848488D01*
X129070365Y-84802444D01*
X129110578Y-84755785D01*
X129122513Y-84741679D01*
X129145882Y-84712754D01*
X129170297Y-84681407D01*
X129187876Y-84659494D01*
X129205372Y-84640338D01*
X129215207Y-84632965D01*
X129218857Y-84631283D01*
X129223174Y-84617923D01*
X129224107Y-84611028D01*
X129231502Y-84602882D01*
X129236953Y-84599721D01*
X129251991Y-84584263D01*
X129270999Y-84560264D01*
X129281296Y-84546423D01*
X129305291Y-84515492D01*
X129325344Y-84491211D01*
X129331332Y-84484301D01*
X129354640Y-84456626D01*
X129378602Y-84427338D01*
X129415160Y-84382273D01*
X129451654Y-84338036D01*
X129483932Y-84299618D01*
X129507875Y-84271970D01*
X129511714Y-84267557D01*
X129530905Y-84244224D01*
X129556363Y-84212080D01*
X129583649Y-84176707D01*
X129591881Y-84165987D01*
X129619258Y-84131609D01*
X129643708Y-84102634D01*
X129660745Y-84084430D01*
X129661643Y-84083587D01*
X129677778Y-84065943D01*
X129684445Y-84053808D01*
X129686416Y-84049082D01*
X129699062Y-84032717D01*
X129719542Y-84011251D01*
X129731164Y-83999549D01*
X129748015Y-83980431D01*
X129754639Y-83969508D01*
X129756276Y-83965362D01*
X129767975Y-83949179D01*
X129787229Y-83927313D01*
X129804588Y-83907977D01*
X129832810Y-83874295D01*
X129859929Y-83839869D01*
X129880377Y-83813326D01*
X129901289Y-83787154D01*
X129915081Y-83771027D01*
X129918569Y-83767168D01*
X129935023Y-83747679D01*
X129958547Y-83718834D01*
X129985274Y-83685353D01*
X129995155Y-83672894D01*
X130021165Y-83640524D01*
X130042559Y-83614489D01*
X130055468Y-83599521D01*
X130058756Y-83595880D01*
X130075171Y-83576602D01*
X130098785Y-83548021D01*
X130125661Y-83514883D01*
X130134748Y-83503623D01*
X130161540Y-83470922D01*
X130184121Y-83444044D01*
X130198362Y-83427931D01*
X130209592Y-83413857D01*
X130215910Y-83399566D01*
X130216120Y-83397234D01*
X130223563Y-83389538D01*
X130224104Y-83389434D01*
X130234702Y-83380498D01*
X130253253Y-83359976D01*
X130276104Y-83331879D01*
X130276331Y-83331587D01*
X130301165Y-83299898D01*
X130323233Y-83272095D01*
X130337783Y-83254165D01*
X130343447Y-83247374D01*
X130362165Y-83224831D01*
X130387869Y-83193805D01*
X130416743Y-83158902D01*
X130433319Y-83139108D01*
X130458713Y-83109866D01*
X130477947Y-83089093D01*
X130487797Y-83080352D01*
X130491215Y-83078007D01*
X130496684Y-83063302D01*
X130497733Y-83057155D01*
X130509218Y-83041576D01*
X130511713Y-83039752D01*
X130524019Y-83027704D01*
X130543799Y-83004985D01*
X130572571Y-82969803D01*
X130611853Y-82920366D01*
X130616341Y-82914906D01*
X130633123Y-82895482D01*
X130654619Y-82871332D01*
X130665391Y-82859051D01*
X130681071Y-82839487D01*
X130687257Y-82829095D01*
X130690108Y-82823555D01*
X130703160Y-82806301D01*
X130723205Y-82782866D01*
X130754666Y-82747575D01*
X130781875Y-82716453D01*
X130804827Y-82689129D01*
X130828434Y-82659740D01*
X130857605Y-82622424D01*
X130866402Y-82611192D01*
X130893989Y-82577011D01*
X130918352Y-82548232D01*
X130935048Y-82530147D01*
X130935601Y-82529611D01*
X130951422Y-82511961D01*
X130958003Y-82500064D01*
X130960435Y-82494525D01*
X130973152Y-82477042D01*
X130993100Y-82453903D01*
X131006093Y-82439461D01*
X131021956Y-82420700D01*
X131028148Y-82411631D01*
X131028841Y-82409964D01*
X131038438Y-82397245D01*
X131055724Y-82377534D01*
X131074684Y-82355898D01*
X131101281Y-82324038D01*
X131128425Y-82290338D01*
X131129047Y-82289549D01*
X131153615Y-82258817D01*
X131174984Y-82232781D01*
X131188591Y-82217003D01*
X131192069Y-82213109D01*
X131208521Y-82193514D01*
X131232050Y-82164588D01*
X131258784Y-82131070D01*
X131268664Y-82118610D01*
X131294675Y-82086241D01*
X131316069Y-82060207D01*
X131328977Y-82045239D01*
X131329142Y-82045064D01*
X131346343Y-82025902D01*
X131366515Y-82002429D01*
X131368419Y-82000221D01*
X131387793Y-81982790D01*
X131403887Y-81975641D01*
X131417080Y-81980731D01*
G37*
G36*
X131458945Y-79965152D02*
G01*
X131479188Y-79974168D01*
X131501731Y-79993284D01*
X131503278Y-79995420D01*
X131506640Y-80002041D01*
X131509492Y-80011944D01*
X131511877Y-80026654D01*
X131513837Y-80047694D01*
X131515413Y-80076590D01*
X131516649Y-80114868D01*
X131517586Y-80164051D01*
X131518267Y-80225664D01*
X131518734Y-80301234D01*
X131519029Y-80392284D01*
X131519194Y-80500339D01*
X131519271Y-80626924D01*
X131519287Y-80690201D01*
X131519256Y-80807882D01*
X131519102Y-80907876D01*
X131518782Y-80991780D01*
X131518253Y-81061194D01*
X131517470Y-81117716D01*
X131516389Y-81162947D01*
X131514967Y-81198484D01*
X131513160Y-81225927D01*
X131510925Y-81246874D01*
X131508217Y-81262926D01*
X131504993Y-81275680D01*
X131501208Y-81286737D01*
X131488991Y-81311722D01*
X131462493Y-81353202D01*
X131426391Y-81401887D01*
X131383466Y-81454072D01*
X131336498Y-81506056D01*
X131331056Y-81511972D01*
X131315270Y-81531766D01*
X131308922Y-81544300D01*
X131307738Y-81548909D01*
X131296219Y-81561503D01*
X131292051Y-81564698D01*
X131275224Y-81581351D01*
X131255012Y-81604619D01*
X131216936Y-81651156D01*
X131167038Y-81711432D01*
X131118397Y-81769520D01*
X131102455Y-81788532D01*
X131072056Y-81825112D01*
X131043190Y-81860172D01*
X131023957Y-81883437D01*
X131002314Y-81909027D01*
X130988038Y-81925204D01*
X130984371Y-81929238D01*
X130966572Y-81950311D01*
X130946138Y-81975972D01*
X130941072Y-81982491D01*
X130898992Y-82034549D01*
X130855051Y-82085945D01*
X130850505Y-82091256D01*
X130833677Y-82111533D01*
X130809654Y-82140892D01*
X130782035Y-82174947D01*
X130770804Y-82188754D01*
X130739738Y-82226082D01*
X130711028Y-82259492D01*
X130689716Y-82283078D01*
X130679515Y-82294081D01*
X130663457Y-82313095D01*
X130657126Y-82323314D01*
X130653765Y-82329553D01*
X130640106Y-82347316D01*
X130619522Y-82371210D01*
X130615689Y-82375479D01*
X130573439Y-82423376D01*
X130534924Y-82469065D01*
X130492367Y-82521752D01*
X130492022Y-82522185D01*
X130451181Y-82572946D01*
X130420058Y-82610347D01*
X130396407Y-82637088D01*
X130385672Y-82649413D01*
X130365287Y-82673996D01*
X130341878Y-82703055D01*
X130322834Y-82726665D01*
X130301230Y-82752561D01*
X130286726Y-82768895D01*
X130270944Y-82786051D01*
X130251007Y-82809160D01*
X130243597Y-82818096D01*
X130216829Y-82850539D01*
X130188592Y-82884946D01*
X130162447Y-82916962D01*
X130141954Y-82942230D01*
X130130675Y-82956393D01*
X130129616Y-82957751D01*
X130115114Y-82974961D01*
X130095578Y-82996859D01*
X130091407Y-83001511D01*
X130070736Y-83025719D01*
X130043812Y-83058357D01*
X130015357Y-83093723D01*
X130007177Y-83103985D01*
X129978681Y-83139144D01*
X129953093Y-83169912D01*
X129935136Y-83190586D01*
X129932723Y-83193232D01*
X129913391Y-83215032D01*
X129900039Y-83231053D01*
X129895431Y-83236957D01*
X129886632Y-83247936D01*
X129872516Y-83265314D01*
X129851225Y-83291362D01*
X129820908Y-83328356D01*
X129779708Y-83378568D01*
X129762175Y-83399378D01*
X129744611Y-83419243D01*
X129733795Y-83431629D01*
X129713325Y-83456193D01*
X129689799Y-83485211D01*
X129670404Y-83509091D01*
X129652758Y-83530008D01*
X129643484Y-83539952D01*
X129642522Y-83540820D01*
X129631368Y-83553289D01*
X129612014Y-83576398D01*
X129587992Y-83605948D01*
X129579600Y-83616372D01*
X129538300Y-83666934D01*
X129495946Y-83717763D01*
X129457024Y-83763516D01*
X129426019Y-83798851D01*
X129414038Y-83812749D01*
X129390687Y-83841362D01*
X129366299Y-83872560D01*
X129348721Y-83894473D01*
X129331225Y-83913629D01*
X129321390Y-83921003D01*
X129319298Y-83921372D01*
X129313423Y-83931509D01*
X129313422Y-83931589D01*
X129306739Y-83945497D01*
X129290861Y-83964099D01*
X129274232Y-83981787D01*
X129249625Y-84009903D01*
X129223366Y-84041334D01*
X129221949Y-84043071D01*
X129198839Y-84070539D01*
X129180475Y-84090889D01*
X129170721Y-84099829D01*
X129169002Y-84100841D01*
X129163008Y-84113790D01*
X129162074Y-84117384D01*
X129151515Y-84134059D01*
X129132984Y-84155572D01*
X129116908Y-84172920D01*
X129089238Y-84204325D01*
X129061777Y-84236873D01*
X129042175Y-84260638D01*
X129015217Y-84293067D01*
X128994031Y-84318274D01*
X128990279Y-84322714D01*
X128968967Y-84348333D01*
X128941313Y-84381972D01*
X128912317Y-84417557D01*
X128903996Y-84427797D01*
X128876455Y-84461394D01*
X128852694Y-84489971D01*
X128837110Y-84508226D01*
X128821529Y-84526372D01*
X128797841Y-84554670D01*
X128771930Y-84586124D01*
X128759351Y-84601238D01*
X128727395Y-84635541D01*
X128701866Y-84654719D01*
X128680021Y-84660431D01*
X128659120Y-84654332D01*
X128658337Y-84653910D01*
X128646229Y-84646398D01*
X128636405Y-84636959D01*
X128628625Y-84623579D01*
X128622654Y-84604245D01*
X128618252Y-84576941D01*
X128615184Y-84539654D01*
X128613211Y-84490369D01*
X128612096Y-84427073D01*
X128611601Y-84347750D01*
X128611488Y-84250387D01*
X128611551Y-84196107D01*
X128612061Y-84103095D01*
X128613119Y-84028191D01*
X128614768Y-83970106D01*
X128617052Y-83927551D01*
X128620013Y-83899235D01*
X128623694Y-83883871D01*
X128637290Y-83859451D01*
X128662156Y-83823307D01*
X128693972Y-83782040D01*
X128729138Y-83740547D01*
X128742899Y-83724734D01*
X128767057Y-83696249D01*
X128792818Y-83665298D01*
X128812852Y-83641066D01*
X128837498Y-83611478D01*
X128855524Y-83590091D01*
X128877878Y-83563850D01*
X128908431Y-83527825D01*
X128938885Y-83491777D01*
X128966016Y-83459532D01*
X128986600Y-83434914D01*
X128997413Y-83421748D01*
X129001878Y-83416312D01*
X129018642Y-83396901D01*
X129040123Y-83372763D01*
X129054572Y-83356225D01*
X129082913Y-83322078D01*
X129109870Y-83287908D01*
X129127710Y-83265671D01*
X129145218Y-83246498D01*
X129155041Y-83239123D01*
X129157066Y-83238782D01*
X129163008Y-83228758D01*
X129163417Y-83226576D01*
X129172764Y-83211217D01*
X129190584Y-83191129D01*
X129205907Y-83174948D01*
X129232002Y-83145126D01*
X129258271Y-83113132D01*
X129280375Y-83085673D01*
X129313840Y-83045165D01*
X129345457Y-83007867D01*
X129353425Y-82998600D01*
X129384867Y-82961619D01*
X129420744Y-82918967D01*
X129454753Y-82878128D01*
X129471365Y-82858293D01*
X129496692Y-82829070D01*
X129515806Y-82808313D01*
X129525501Y-82799579D01*
X129528657Y-82797388D01*
X129534031Y-82782866D01*
X129534647Y-82777679D01*
X129542661Y-82766153D01*
X129544924Y-82764803D01*
X129559610Y-82750877D01*
X129585684Y-82722124D01*
X129623447Y-82678205D01*
X129673200Y-82618779D01*
X129688060Y-82600971D01*
X129709760Y-82575296D01*
X129724556Y-82558202D01*
X129735412Y-82545566D01*
X129756004Y-82520813D01*
X129779708Y-82491773D01*
X129799121Y-82468034D01*
X129820656Y-82442341D01*
X129834860Y-82426153D01*
X129842047Y-82418216D01*
X129866252Y-82389961D01*
X129902724Y-82346079D01*
X129951525Y-82286498D01*
X129959095Y-82277261D01*
X129977933Y-82254680D01*
X129990225Y-82240526D01*
X130001490Y-82227691D01*
X130021327Y-82204493D01*
X130045440Y-82175954D01*
X130068399Y-82148633D01*
X130101003Y-82109832D01*
X130128987Y-82076526D01*
X130185806Y-82008945D01*
X130285642Y-81890406D01*
X130311423Y-81859811D01*
X130350690Y-81813117D01*
X130382324Y-81775328D01*
X130409786Y-81742305D01*
X130436535Y-81709909D01*
X130454966Y-81687681D01*
X130487594Y-81648831D01*
X130516739Y-81614646D01*
X130534542Y-81593854D01*
X130567004Y-81555471D01*
X130597127Y-81519384D01*
X130616670Y-81496034D01*
X130645999Y-81461756D01*
X130670419Y-81434028D01*
X130671774Y-81432523D01*
X130694699Y-81405967D01*
X130723540Y-81371213D01*
X130752388Y-81335371D01*
X130754508Y-81332695D01*
X130783673Y-81296816D01*
X130812528Y-81262750D01*
X130835116Y-81237539D01*
X130845132Y-81226492D01*
X130861318Y-81205882D01*
X130867706Y-81193303D01*
X130867905Y-81191123D01*
X130875673Y-81183458D01*
X130883421Y-81178061D01*
X130900032Y-81160385D01*
X130920844Y-81134673D01*
X130936749Y-81114335D01*
X130965492Y-81079325D01*
X130990591Y-81050612D01*
X131009540Y-81029406D01*
X131037717Y-80994658D01*
X131056448Y-80966932D01*
X131063245Y-80949683D01*
X131062839Y-80945170D01*
X131053755Y-80936544D01*
X131034464Y-80942466D01*
X131007262Y-80962413D01*
X130997002Y-80971233D01*
X130977478Y-80986613D01*
X130967010Y-80992773D01*
X130966929Y-80992777D01*
X130955572Y-80998810D01*
X130936927Y-81012802D01*
X130917357Y-81028757D01*
X130902698Y-81040378D01*
X130893800Y-81047349D01*
X130872670Y-81064175D01*
X130845859Y-81085689D01*
X130824315Y-81102147D01*
X130801427Y-81117404D01*
X130788304Y-81123292D01*
X130785224Y-81123658D01*
X130777457Y-81132142D01*
X130777122Y-81133262D01*
X130766383Y-81144296D01*
X130743577Y-81161994D01*
X130712844Y-81183089D01*
X130706456Y-81187274D01*
X130676370Y-81207655D01*
X130654482Y-81223579D01*
X130645157Y-81231899D01*
X130638421Y-81238581D01*
X130619018Y-81253717D01*
X130591946Y-81272981D01*
X130569378Y-81288763D01*
X130543019Y-81308040D01*
X130526767Y-81320986D01*
X130526557Y-81321173D01*
X130513429Y-81331650D01*
X130487042Y-81351807D01*
X130450194Y-81379539D01*
X130405680Y-81412740D01*
X130356297Y-81449306D01*
X130353183Y-81451604D01*
X130304500Y-81487565D01*
X130261245Y-81519584D01*
X130226097Y-81545672D01*
X130201736Y-81563840D01*
X130190841Y-81572100D01*
X130180965Y-81579707D01*
X130158797Y-81596354D01*
X130130675Y-81617223D01*
X130107331Y-81634700D01*
X130081450Y-81654684D01*
X130065495Y-81667759D01*
X130054434Y-81676696D01*
X130029957Y-81694812D01*
X130000316Y-81715649D01*
X129977720Y-81731843D01*
X129954360Y-81750411D01*
X129942159Y-81762554D01*
X129937776Y-81767528D01*
X129919596Y-81775089D01*
X129913176Y-81775866D01*
X129905031Y-81782609D01*
X129901424Y-81787964D01*
X129885120Y-81802181D01*
X129860128Y-81820213D01*
X129842566Y-81832574D01*
X129822805Y-81848496D01*
X129815025Y-81857817D01*
X129813436Y-81861125D01*
X129800261Y-81865337D01*
X129793828Y-81866372D01*
X129777699Y-81877872D01*
X129769198Y-81886758D01*
X129747729Y-81904346D01*
X129719542Y-81924777D01*
X129696967Y-81940554D01*
X129670612Y-81959786D01*
X129654362Y-81972667D01*
X129642777Y-81982272D01*
X129618453Y-82001213D01*
X129589183Y-82023203D01*
X129565587Y-82040686D01*
X129542013Y-82058303D01*
X129529017Y-82068210D01*
X129516899Y-82077752D01*
X129484024Y-82103010D01*
X129443857Y-82133288D01*
X129399313Y-82166453D01*
X129353307Y-82200370D01*
X129308755Y-82232905D01*
X129268572Y-82261925D01*
X129235674Y-82285296D01*
X129212975Y-82300883D01*
X129203392Y-82306553D01*
X129202818Y-82306569D01*
X129191420Y-82314074D01*
X129186453Y-82320415D01*
X129168990Y-82336538D01*
X129144541Y-82356504D01*
X129118622Y-82376048D01*
X129096750Y-82390902D01*
X129084442Y-82396802D01*
X129082529Y-82396959D01*
X129071088Y-82405855D01*
X129063606Y-82414274D01*
X129042985Y-82431998D01*
X129013238Y-82455424D01*
X128978276Y-82481483D01*
X128942012Y-82507106D01*
X128926394Y-82518173D01*
X128898230Y-82538707D01*
X128866198Y-82562411D01*
X128836930Y-82584373D01*
X128817055Y-82599681D01*
X128810915Y-82604559D01*
X128765072Y-82639213D01*
X128729853Y-82661730D01*
X128702041Y-82673915D01*
X128678423Y-82677576D01*
X128671095Y-82677472D01*
X128652613Y-82675288D01*
X128638387Y-82668574D01*
X128627866Y-82655111D01*
X128620497Y-82632682D01*
X128615727Y-82599071D01*
X128613004Y-82552060D01*
X128611775Y-82489431D01*
X128611488Y-82408969D01*
X128611598Y-82354916D01*
X128612542Y-82281342D01*
X128615026Y-82223393D01*
X128619728Y-82178328D01*
X128627328Y-82143403D01*
X128638503Y-82115876D01*
X128653934Y-82093006D01*
X128674298Y-82072048D01*
X128700275Y-82050262D01*
X128731397Y-82025317D01*
X128760508Y-82001721D01*
X128780303Y-81985383D01*
X128798737Y-81971393D01*
X128810386Y-81965381D01*
X128815943Y-81962664D01*
X128833470Y-81949909D01*
X128857165Y-81930277D01*
X128872380Y-81917138D01*
X128894444Y-81898424D01*
X128907408Y-81887892D01*
X128916314Y-81880998D01*
X128937442Y-81864254D01*
X128964248Y-81842775D01*
X128985791Y-81826317D01*
X129008679Y-81811059D01*
X129021802Y-81805172D01*
X129024869Y-81804833D01*
X129032649Y-81796897D01*
X129032651Y-81796831D01*
X129040478Y-81787203D01*
X129060612Y-81770130D01*
X129088754Y-81749266D01*
X129117225Y-81728548D01*
X129150161Y-81702943D01*
X129174334Y-81682333D01*
X129180726Y-81676471D01*
X129199192Y-81660973D01*
X129209298Y-81654757D01*
X129216661Y-81650796D01*
X129235799Y-81637158D01*
X129261492Y-81617153D01*
X129282418Y-81600346D01*
X129306603Y-81581031D01*
X129321187Y-81569522D01*
X129326930Y-81565018D01*
X129346361Y-81549137D01*
X129349631Y-81546478D01*
X129368654Y-81532242D01*
X129393644Y-81514543D01*
X129401338Y-81509056D01*
X129423810Y-81490938D01*
X129436760Y-81477270D01*
X129441405Y-81471860D01*
X129459322Y-81464232D01*
X129465742Y-81463456D01*
X129473933Y-81456711D01*
X129475398Y-81453643D01*
X129488518Y-81440840D01*
X129510814Y-81424121D01*
X129520034Y-81417750D01*
X129543756Y-81400508D01*
X129558376Y-81388634D01*
X129568529Y-81379979D01*
X129590997Y-81362236D01*
X129619266Y-81340742D01*
X129626815Y-81335096D01*
X129672584Y-81300650D01*
X129705424Y-81275425D01*
X129728227Y-81257168D01*
X129743885Y-81243624D01*
X129751199Y-81237429D01*
X129774471Y-81219636D01*
X129802607Y-81199643D01*
X129817831Y-81188639D01*
X129837280Y-81172189D01*
X129844887Y-81162039D01*
X129846574Y-81158065D01*
X129859929Y-81153375D01*
X129866815Y-81152538D01*
X129875039Y-81145854D01*
X129876082Y-81143345D01*
X129888333Y-81130947D01*
X129909926Y-81114623D01*
X129915036Y-81111111D01*
X129943895Y-81090390D01*
X129967517Y-81072191D01*
X129985568Y-81057515D01*
X130000420Y-81045764D01*
X130009319Y-81038793D01*
X130030448Y-81021968D01*
X130057260Y-81000454D01*
X130078781Y-80983950D01*
X130101326Y-80968725D01*
X130113979Y-80962850D01*
X130115856Y-80962716D01*
X130127332Y-80954823D01*
X130129836Y-80951931D01*
X130145426Y-80938183D01*
X130172725Y-80915794D01*
X130208872Y-80887087D01*
X130251007Y-80854385D01*
X130257808Y-80849161D01*
X130309038Y-80809796D01*
X130348715Y-80779246D01*
X130380755Y-80754478D01*
X130409073Y-80732455D01*
X130437585Y-80710145D01*
X130470207Y-80684512D01*
X130485749Y-80672296D01*
X130508531Y-80654427D01*
X130521753Y-80644110D01*
X130523939Y-80642419D01*
X130539811Y-80630121D01*
X130567303Y-80608807D01*
X130603260Y-80580924D01*
X130644527Y-80548918D01*
X130659902Y-80537039D01*
X130698981Y-80507288D01*
X130731314Y-80483304D01*
X130753892Y-80467295D01*
X130763709Y-80461468D01*
X130764371Y-80461370D01*
X130775965Y-80453349D01*
X130793377Y-80436399D01*
X130795473Y-80434165D01*
X130812506Y-80417966D01*
X130822922Y-80411330D01*
X130830618Y-80407392D01*
X130850093Y-80393752D01*
X130875942Y-80373727D01*
X130896982Y-80356839D01*
X130919886Y-80338592D01*
X130932781Y-80328495D01*
X130936859Y-80325297D01*
X130954594Y-80310741D01*
X130978010Y-80291052D01*
X130988650Y-80282274D01*
X131008949Y-80267137D01*
X131020237Y-80261076D01*
X131029180Y-80256581D01*
X131045306Y-80242666D01*
X131058055Y-80231593D01*
X131084284Y-80210464D01*
X131120890Y-80181763D01*
X131164980Y-80147759D01*
X131213660Y-80110718D01*
X131214248Y-80110273D01*
X131261767Y-80074152D01*
X131303627Y-80041958D01*
X131337232Y-80015718D01*
X131359985Y-79997459D01*
X131369292Y-79989208D01*
X131378276Y-79981322D01*
X131403220Y-79970659D01*
X131433184Y-79964444D01*
X131458945Y-79965152D01*
G37*
G36*
X131462214Y-63264588D02*
G01*
X131486590Y-63275186D01*
X131509439Y-63295782D01*
X131522452Y-63319226D01*
X131522749Y-63321509D01*
X131523622Y-63341422D01*
X131524412Y-63379674D01*
X131525119Y-63434964D01*
X131525745Y-63505990D01*
X131526291Y-63591450D01*
X131526758Y-63690044D01*
X131527147Y-63800471D01*
X131527460Y-63921428D01*
X131527698Y-64051616D01*
X131527861Y-64189731D01*
X131527952Y-64334474D01*
X131527971Y-64484543D01*
X131527919Y-64638637D01*
X131527798Y-64795454D01*
X131527609Y-64953692D01*
X131527353Y-65112052D01*
X131527031Y-65269231D01*
X131526645Y-65423929D01*
X131526195Y-65574843D01*
X131525683Y-65720673D01*
X131525110Y-65860118D01*
X131524477Y-65991875D01*
X131523786Y-66114645D01*
X131523037Y-66227125D01*
X131522232Y-66328014D01*
X131521373Y-66416011D01*
X131520459Y-66489815D01*
X131519492Y-66548125D01*
X131518578Y-66593775D01*
X131515957Y-66719402D01*
X131513116Y-66849049D01*
X131510096Y-66981113D01*
X131506942Y-67113987D01*
X131503699Y-67246069D01*
X131500409Y-67375752D01*
X131497118Y-67501433D01*
X131493868Y-67621506D01*
X131490704Y-67734366D01*
X131487669Y-67838410D01*
X131484808Y-67932031D01*
X131482164Y-68013626D01*
X131479781Y-68081589D01*
X131477704Y-68134316D01*
X131475976Y-68170203D01*
X131474641Y-68187643D01*
X131473562Y-68199497D01*
X131471742Y-68230968D01*
X131469581Y-68277936D01*
X131467183Y-68337796D01*
X131464650Y-68407945D01*
X131462086Y-68485779D01*
X131459592Y-68568693D01*
X131458247Y-68613903D01*
X131455310Y-68703624D01*
X131452099Y-68791799D01*
X131448766Y-68874729D01*
X131445465Y-68948712D01*
X131442347Y-69010047D01*
X131439565Y-69055033D01*
X131435890Y-69109559D01*
X131431613Y-69178873D01*
X131427135Y-69256243D01*
X131422804Y-69335635D01*
X131418969Y-69411014D01*
X131417670Y-69437719D01*
X131411718Y-69559514D01*
X131406579Y-69663444D01*
X131402148Y-69751314D01*
X131398321Y-69824932D01*
X131394996Y-69886102D01*
X131392067Y-69936633D01*
X131389431Y-69978329D01*
X131386985Y-70012997D01*
X131384623Y-70042442D01*
X131382243Y-70068473D01*
X131379740Y-70092894D01*
X131378377Y-70106080D01*
X131373702Y-70156475D01*
X131368554Y-70218091D01*
X131363467Y-70284330D01*
X131358977Y-70348598D01*
X131355118Y-70407212D01*
X131348582Y-70505603D01*
X131343060Y-70587078D01*
X131338395Y-70653675D01*
X131334427Y-70707434D01*
X131330997Y-70750393D01*
X131327945Y-70784590D01*
X131325114Y-70812063D01*
X131322344Y-70834852D01*
X131319476Y-70854994D01*
X131314913Y-70889141D01*
X131309300Y-70938129D01*
X131303536Y-70994138D01*
X131298338Y-71050533D01*
X131297967Y-71054827D01*
X131291658Y-71124187D01*
X131284188Y-71200655D01*
X131275899Y-71281223D01*
X131267134Y-71362884D01*
X131258234Y-71442629D01*
X131249540Y-71517451D01*
X131241396Y-71584341D01*
X131234142Y-71640292D01*
X131228121Y-71682295D01*
X131223675Y-71707343D01*
X131223111Y-71709987D01*
X131218970Y-71734668D01*
X131213852Y-71771177D01*
X131208735Y-71812633D01*
X131201457Y-71872159D01*
X131182712Y-72005146D01*
X131159621Y-72147864D01*
X131133181Y-72293960D01*
X131129442Y-72313377D01*
X131113854Y-72391057D01*
X131096906Y-72471141D01*
X131079340Y-72550475D01*
X131061899Y-72625901D01*
X131045324Y-72694265D01*
X131030357Y-72752411D01*
X131017741Y-72797182D01*
X131008217Y-72825424D01*
X131001474Y-72843332D01*
X130990454Y-72874330D01*
X130977950Y-72910659D01*
X130966168Y-72944507D01*
X130952963Y-72980550D01*
X130942930Y-73005922D01*
X130931392Y-73032888D01*
X130919448Y-73061074D01*
X130908640Y-73086674D01*
X130874304Y-73165934D01*
X130844288Y-73231247D01*
X130816694Y-73286458D01*
X130789626Y-73335414D01*
X130761189Y-73381958D01*
X130759827Y-73384087D01*
X130736012Y-73419809D01*
X130713101Y-73451835D01*
X130695878Y-73473462D01*
X130686668Y-73483722D01*
X130663661Y-73509453D01*
X130634052Y-73542638D01*
X130601974Y-73578648D01*
X130585847Y-73596725D01*
X130547840Y-73639089D01*
X130510855Y-73680037D01*
X130481027Y-73712766D01*
X130452677Y-73743667D01*
X130418162Y-73781358D01*
X130389114Y-73813146D01*
X130356798Y-73848495D01*
X130329437Y-73878041D01*
X130311166Y-73896992D01*
X130299637Y-73907663D01*
X130292504Y-73912368D01*
X130287418Y-73913423D01*
X130285869Y-73913519D01*
X130274404Y-73921286D01*
X130272436Y-73924038D01*
X130258734Y-73938522D01*
X130235230Y-73961349D01*
X130205532Y-73988973D01*
X130204043Y-73990332D01*
X130169786Y-74021272D01*
X130138493Y-74048656D01*
X130105460Y-74076446D01*
X130065982Y-74108600D01*
X130015357Y-74149080D01*
X129997050Y-74163831D01*
X129968868Y-74187184D01*
X129948764Y-74204631D01*
X129931095Y-74218045D01*
X129916174Y-74224279D01*
X129912886Y-74224616D01*
X129904985Y-74231800D01*
X129903942Y-74234309D01*
X129891691Y-74246708D01*
X129870097Y-74263032D01*
X129864342Y-74266991D01*
X129836938Y-74286713D01*
X129815828Y-74303143D01*
X129798330Y-74317220D01*
X129773001Y-74336242D01*
X129763777Y-74342900D01*
X129738370Y-74361426D01*
X129704470Y-74386274D01*
X129666841Y-74413956D01*
X129641908Y-74432029D01*
X129609974Y-74454187D01*
X129586365Y-74469350D01*
X129574921Y-74474970D01*
X129573883Y-74475017D01*
X129562442Y-74482491D01*
X129558838Y-74486537D01*
X129541706Y-74500817D01*
X129514238Y-74521754D01*
X129480439Y-74546445D01*
X129444314Y-74571984D01*
X129409869Y-74595467D01*
X129381109Y-74613989D01*
X129370981Y-74620541D01*
X129351317Y-74635865D01*
X129343506Y-74646258D01*
X129343142Y-74648664D01*
X129333072Y-74655468D01*
X129331638Y-74655664D01*
X129316231Y-74662629D01*
X129293250Y-74676278D01*
X129269868Y-74692106D01*
X129253257Y-74705606D01*
X129250562Y-74708125D01*
X129232287Y-74722178D01*
X129208734Y-74737812D01*
X129187024Y-74750508D01*
X129174278Y-74755744D01*
X129172393Y-74755917D01*
X129161337Y-74765216D01*
X129154848Y-74771589D01*
X129132004Y-74780126D01*
X129098355Y-74786592D01*
X129059446Y-74790029D01*
X129020823Y-74789480D01*
X128978795Y-74781990D01*
X128922657Y-74755699D01*
X128875484Y-74711800D01*
X128837949Y-74650805D01*
X128834278Y-74642966D01*
X128804978Y-74580161D01*
X128783223Y-74532965D01*
X128768025Y-74499130D01*
X128758393Y-74476411D01*
X128753340Y-74462560D01*
X128751875Y-74455333D01*
X128751518Y-74452574D01*
X128741848Y-74444887D01*
X128739123Y-74444488D01*
X128731820Y-74434309D01*
X128729428Y-74424188D01*
X128720726Y-74399959D01*
X128708152Y-74369089D01*
X128694363Y-74338035D01*
X128682016Y-74313256D01*
X128681228Y-74311740D01*
X128673219Y-74289563D01*
X128666210Y-74260610D01*
X128665003Y-74254740D01*
X128658229Y-74233053D01*
X128651364Y-74224279D01*
X128648961Y-74222723D01*
X128642260Y-74207624D01*
X128636305Y-74181662D01*
X128634459Y-74171431D01*
X128628029Y-74144586D01*
X128621897Y-74129017D01*
X128621036Y-74127620D01*
X128613889Y-74110559D01*
X128603484Y-74080789D01*
X128591756Y-74043782D01*
X128590828Y-74040722D01*
X128577799Y-73999004D01*
X128565216Y-73960601D01*
X128555681Y-73933478D01*
X128555647Y-73933388D01*
X128544258Y-73898419D01*
X128535543Y-73863614D01*
X128535166Y-73861728D01*
X128528087Y-73833657D01*
X128520649Y-73813475D01*
X128519043Y-73810075D01*
X128510925Y-73787428D01*
X128502599Y-73757994D01*
X128498236Y-73741104D01*
X128487581Y-73702163D01*
X128476219Y-73662732D01*
X128454405Y-73586929D01*
X128434710Y-73513258D01*
X128420045Y-73452151D01*
X128417172Y-73439871D01*
X128408961Y-73410541D01*
X128401743Y-73391600D01*
X128399458Y-73386395D01*
X128392547Y-73362358D01*
X128386538Y-73331434D01*
X128384724Y-73320569D01*
X128377875Y-73288978D01*
X128370841Y-73266640D01*
X128367426Y-73257650D01*
X128358993Y-73229816D01*
X128350585Y-73196447D01*
X128346523Y-73178762D01*
X128335975Y-73133910D01*
X128325662Y-73091157D01*
X128318934Y-73063402D01*
X128307661Y-73015997D01*
X128297127Y-72970825D01*
X128294358Y-72958788D01*
X128283994Y-72913735D01*
X128271920Y-72861254D01*
X128260217Y-72810383D01*
X128256204Y-72792674D01*
X128245151Y-72741515D01*
X128235287Y-72692759D01*
X128228365Y-72654954D01*
X128223184Y-72627375D01*
X128216373Y-72599473D01*
X128210699Y-72584761D01*
X128206169Y-72572147D01*
X128200686Y-72544919D01*
X128195906Y-72509902D01*
X128191733Y-72477855D01*
X128186603Y-72449501D01*
X128182065Y-72434695D01*
X128181900Y-72434429D01*
X128176713Y-72419182D01*
X128169756Y-72390414D01*
X128162487Y-72354125D01*
X128154549Y-72310997D01*
X128144387Y-72256467D01*
X128134911Y-72206218D01*
X128125141Y-72154692D01*
X128098745Y-72013710D01*
X128076204Y-71890299D01*
X128057254Y-71782937D01*
X128041628Y-71690097D01*
X128029061Y-71610255D01*
X128019288Y-71541887D01*
X128018515Y-71536209D01*
X128011926Y-71492866D01*
X128004921Y-71453696D01*
X127998893Y-71426569D01*
X127998787Y-71426182D01*
X127992730Y-71398117D01*
X127986116Y-71358675D01*
X127980357Y-71316265D01*
X127975214Y-71274685D01*
X127967663Y-71217379D01*
X127960435Y-71165851D01*
X127953633Y-71118533D01*
X127942979Y-71041959D01*
X127931213Y-70955218D01*
X127918994Y-70863315D01*
X127906979Y-70771251D01*
X127895824Y-70684032D01*
X127886189Y-70606659D01*
X127878730Y-70544137D01*
X127872009Y-70485465D01*
X127859327Y-70372557D01*
X127848736Y-70274658D01*
X127839890Y-70188441D01*
X127832444Y-70110578D01*
X127826050Y-70037742D01*
X127824595Y-70020815D01*
X127819876Y-69971169D01*
X127815279Y-69929758D01*
X127811266Y-69900504D01*
X127808300Y-69887327D01*
X127805773Y-69879043D01*
X127802255Y-69854614D01*
X127799872Y-69822147D01*
X127798949Y-69803337D01*
X127795950Y-69752812D01*
X127791944Y-69693737D01*
X127787362Y-69631826D01*
X127782636Y-69572793D01*
X127778198Y-69522354D01*
X127774480Y-69486222D01*
X127773306Y-69474986D01*
X127770320Y-69439379D01*
X127766851Y-69391021D01*
X127763240Y-69334808D01*
X127759826Y-69275641D01*
X127757980Y-69243026D01*
X127754574Y-69189051D01*
X127751228Y-69142854D01*
X127748247Y-69108518D01*
X127745936Y-69090130D01*
X127744352Y-69077499D01*
X127741927Y-69046446D01*
X127739259Y-69002210D01*
X127736574Y-68948639D01*
X127734100Y-68889577D01*
X127732484Y-68848257D01*
X127729868Y-68785870D01*
X127727266Y-68728514D01*
X127724910Y-68681195D01*
X127723028Y-68648914D01*
X127721926Y-68632118D01*
X127718544Y-68573975D01*
X127715240Y-68508240D01*
X127712115Y-68437982D01*
X127709274Y-68366270D01*
X127706818Y-68296173D01*
X127704850Y-68230761D01*
X127703473Y-68173102D01*
X127702789Y-68126266D01*
X127702901Y-68093322D01*
X127703912Y-68077339D01*
X127715167Y-68042827D01*
X127749597Y-67983484D01*
X127801836Y-67925847D01*
X127870479Y-67871649D01*
X127886115Y-67860782D01*
X127914239Y-67840128D01*
X127933783Y-67824350D01*
X127940587Y-67818543D01*
X127964936Y-67799661D01*
X127993434Y-67779225D01*
X128003406Y-67772161D01*
X128035623Y-67747220D01*
X128062306Y-67723865D01*
X128088600Y-67704855D01*
X128119345Y-67696470D01*
X128145203Y-67703963D01*
X128149239Y-67706991D01*
X128159464Y-67716018D01*
X128167676Y-67727105D01*
X128174206Y-67742502D01*
X128179391Y-67764456D01*
X128183563Y-67795215D01*
X128187056Y-67837027D01*
X128190205Y-67892140D01*
X128193344Y-67962802D01*
X128196806Y-68051260D01*
X128198162Y-68086042D01*
X128207521Y-68295112D01*
X128219306Y-68516647D01*
X128233155Y-68745226D01*
X128248704Y-68975430D01*
X128265593Y-69201839D01*
X128283456Y-69419034D01*
X128301932Y-69621595D01*
X128305024Y-69654641D01*
X128310657Y-69718356D01*
X128316314Y-69785885D01*
X128321141Y-69847217D01*
X128324476Y-69888484D01*
X128329815Y-69946827D01*
X128335399Y-70000869D01*
X128340449Y-70042755D01*
X128343348Y-70065028D01*
X128349414Y-70115830D01*
X128355752Y-70173129D01*
X128361385Y-70228267D01*
X128372433Y-70337444D01*
X128387682Y-70477736D01*
X128405116Y-70629424D01*
X128424181Y-70788013D01*
X128444326Y-70949009D01*
X128464998Y-71107918D01*
X128485642Y-71260247D01*
X128505708Y-71401500D01*
X128508462Y-71420405D01*
X128517397Y-71482042D01*
X128526916Y-71548057D01*
X128535374Y-71607067D01*
X128539318Y-71634268D01*
X128547265Y-71687104D01*
X128554919Y-71735812D01*
X128561057Y-71772522D01*
X128563031Y-71783771D01*
X128570391Y-71826682D01*
X128578959Y-71877657D01*
X128587262Y-71927951D01*
X128589663Y-71942505D01*
X128598876Y-71996429D01*
X128608426Y-72049968D01*
X128616592Y-72093407D01*
X128623170Y-72129840D01*
X128631322Y-72182258D01*
X128637199Y-72228377D01*
X128641286Y-72260335D01*
X128646753Y-72290929D01*
X128651851Y-72308598D01*
X128656882Y-72323689D01*
X128663894Y-72353138D01*
X128670825Y-72389222D01*
X128671916Y-72395546D01*
X128683966Y-72461070D01*
X128699512Y-72539878D01*
X128717407Y-72626406D01*
X128736502Y-72715086D01*
X128755649Y-72800355D01*
X128766227Y-72846331D01*
X128779518Y-72903966D01*
X128789697Y-72947835D01*
X128797592Y-72981458D01*
X128804033Y-73008357D01*
X128809847Y-73032051D01*
X128815865Y-73056060D01*
X128816963Y-73060396D01*
X128831375Y-73115848D01*
X128849360Y-73183073D01*
X128869051Y-73255229D01*
X128888584Y-73325476D01*
X128906093Y-73386972D01*
X128907680Y-73392407D01*
X128919749Y-73432021D01*
X128935353Y-73481216D01*
X128953122Y-73535892D01*
X128971688Y-73591949D01*
X128989683Y-73645285D01*
X129005739Y-73691801D01*
X129018487Y-73727395D01*
X129026559Y-73747967D01*
X129031576Y-73759503D01*
X129044948Y-73792276D01*
X129058569Y-73827669D01*
X129080599Y-73871564D01*
X129120118Y-73921421D01*
X129168353Y-73961693D01*
X129220044Y-73987187D01*
X129240489Y-73993296D01*
X129269943Y-74000758D01*
X129288354Y-74003671D01*
X129301160Y-74002362D01*
X129335251Y-73993709D01*
X129376677Y-73979060D01*
X129418783Y-73960893D01*
X129454919Y-73941682D01*
X129473453Y-73930667D01*
X129496107Y-73918253D01*
X129507609Y-73913423D01*
X129509070Y-73913109D01*
X129524316Y-73904859D01*
X129551686Y-73887044D01*
X129588129Y-73861867D01*
X129630596Y-73831529D01*
X129676037Y-73798231D01*
X129721402Y-73764174D01*
X129763641Y-73731560D01*
X129799706Y-73702589D01*
X129801482Y-73701113D01*
X129831008Y-73675039D01*
X129867512Y-73640640D01*
X129908617Y-73600392D01*
X129951948Y-73556771D01*
X129995129Y-73512252D01*
X130035787Y-73469312D01*
X130071544Y-73430426D01*
X130100025Y-73398070D01*
X130118856Y-73374720D01*
X130125661Y-73362851D01*
X130126037Y-73359661D01*
X130134325Y-73351875D01*
X130139454Y-73348952D01*
X130153893Y-73333516D01*
X130171901Y-73309258D01*
X130182594Y-73293745D01*
X130198131Y-73272212D01*
X130206783Y-73261626D01*
X130214950Y-73252445D01*
X130230789Y-73231084D01*
X130249490Y-73203863D01*
X130267387Y-73176302D01*
X130280813Y-73153920D01*
X130286103Y-73142233D01*
X130286168Y-73141029D01*
X130294153Y-73129596D01*
X130295569Y-73128654D01*
X130306557Y-73115292D01*
X130322918Y-73090937D01*
X130341365Y-73061056D01*
X130358611Y-73031114D01*
X130371369Y-73006577D01*
X130376352Y-72992911D01*
X130376524Y-72990680D01*
X130384201Y-72979181D01*
X130389029Y-72973260D01*
X130401359Y-72952338D01*
X130418448Y-72920134D01*
X130438146Y-72880576D01*
X130466149Y-72822441D01*
X130490231Y-72771599D01*
X130507661Y-72733450D01*
X130519666Y-72705217D01*
X130527471Y-72684124D01*
X130532303Y-72667394D01*
X130539226Y-72647176D01*
X130547933Y-72634213D01*
X130552217Y-72629479D01*
X130556911Y-72611745D01*
X130560449Y-72593715D01*
X130570541Y-72568787D01*
X130571495Y-72566901D01*
X130582685Y-72537818D01*
X130591221Y-72504879D01*
X130592143Y-72500183D01*
X130599425Y-72471153D01*
X130606990Y-72450660D01*
X130612671Y-72437248D01*
X130623534Y-72402849D01*
X130635913Y-72355992D01*
X130648778Y-72301155D01*
X130661099Y-72242812D01*
X130671845Y-72185441D01*
X130679986Y-72133517D01*
X130681536Y-72122540D01*
X130687482Y-72086367D01*
X130693131Y-72059916D01*
X130697439Y-72048282D01*
X130699472Y-72043865D01*
X130704217Y-72023049D01*
X130709757Y-71989553D01*
X130715268Y-71948006D01*
X130718133Y-71924209D01*
X130725490Y-71864915D01*
X130733657Y-71800912D01*
X130741335Y-71742440D01*
X130745843Y-71708582D01*
X130754509Y-71642853D01*
X130763526Y-71573818D01*
X130771543Y-71511804D01*
X130777752Y-71464776D01*
X130783810Y-71421460D01*
X130788785Y-71388520D01*
X130791985Y-71370721D01*
X130795227Y-71351483D01*
X130799240Y-71318814D01*
X130803017Y-71280472D01*
X130806827Y-71240445D01*
X130812661Y-71185897D01*
X130818612Y-71135768D01*
X130821689Y-71109883D01*
X130827132Y-71058677D01*
X130832697Y-71001050D01*
X130837566Y-70945243D01*
X130840788Y-70908250D01*
X130846245Y-70852994D01*
X130851901Y-70802642D01*
X130856945Y-70764745D01*
X130859219Y-70748547D01*
X130864788Y-70700780D01*
X130871202Y-70637000D01*
X130878243Y-70559934D01*
X130885698Y-70472305D01*
X130893350Y-70376839D01*
X130900984Y-70276259D01*
X130908386Y-70173291D01*
X130915340Y-70070658D01*
X130921631Y-69971086D01*
X130927044Y-69877299D01*
X130930077Y-69824666D01*
X130934492Y-69755590D01*
X130939123Y-69690037D01*
X130943576Y-69633510D01*
X130947458Y-69591512D01*
X130948247Y-69583519D01*
X130951589Y-69540081D01*
X130954990Y-69482407D01*
X130958221Y-69415164D01*
X130961054Y-69343016D01*
X130963257Y-69270627D01*
X130963727Y-69252988D01*
X130966037Y-69180227D01*
X130968841Y-69108856D01*
X130971921Y-69043542D01*
X130975064Y-68988949D01*
X130978053Y-68949743D01*
X130978174Y-68948439D01*
X130980378Y-68915566D01*
X130982685Y-68865711D01*
X130985007Y-68801779D01*
X130987257Y-68726676D01*
X130989347Y-68643308D01*
X130991190Y-68554582D01*
X130992699Y-68463403D01*
X130993512Y-68410327D01*
X130995503Y-68297979D01*
X130997931Y-68177898D01*
X131000670Y-68055640D01*
X131003592Y-67936764D01*
X131006569Y-67826826D01*
X131009475Y-67731385D01*
X131010425Y-67700147D01*
X131011793Y-67645162D01*
X131012983Y-67583198D01*
X131013992Y-67513568D01*
X131014818Y-67435583D01*
X131015460Y-67348555D01*
X131015916Y-67251796D01*
X131016185Y-67144617D01*
X131016265Y-67026331D01*
X131016155Y-66896250D01*
X131015852Y-66753684D01*
X131015356Y-66597946D01*
X131014664Y-66428348D01*
X131013775Y-66244201D01*
X131012687Y-66044818D01*
X131011400Y-65829509D01*
X131009910Y-65597588D01*
X131008217Y-65348365D01*
X131006319Y-65081152D01*
X131004215Y-64795262D01*
X131001902Y-64490006D01*
X131000870Y-64352261D01*
X130999973Y-64222740D01*
X130999310Y-64110701D01*
X130998895Y-64014810D01*
X130998745Y-63933738D01*
X130998876Y-63866151D01*
X130999303Y-63810719D01*
X131000043Y-63766111D01*
X131001112Y-63730994D01*
X131002525Y-63704037D01*
X131004298Y-63683910D01*
X131006447Y-63669279D01*
X131008989Y-63658814D01*
X131011939Y-63651183D01*
X131014505Y-63645693D01*
X131024217Y-63623040D01*
X131028148Y-63610522D01*
X131035469Y-63597774D01*
X131056938Y-63575159D01*
X131090293Y-63544975D01*
X131133263Y-63509272D01*
X131183577Y-63470102D01*
X131215684Y-63445653D01*
X131247047Y-63421333D01*
X131269248Y-63403606D01*
X131278839Y-63395182D01*
X131281024Y-63392899D01*
X131296049Y-63380714D01*
X131318950Y-63364139D01*
X131322951Y-63361366D01*
X131345502Y-63345526D01*
X131362734Y-63332559D01*
X131381461Y-63317115D01*
X131408498Y-63293846D01*
X131418269Y-63285894D01*
X131441880Y-63270364D01*
X131458636Y-63264297D01*
X131462214Y-63264588D01*
G37*
G36*
X131416492Y-73688065D02*
G01*
X131447287Y-73703676D01*
X131467933Y-73727153D01*
X131469445Y-73732594D01*
X131472346Y-73757594D01*
X131474822Y-73799010D01*
X131476774Y-73854379D01*
X131478104Y-73921244D01*
X131478713Y-73997142D01*
X131478770Y-74059047D01*
X131478383Y-74126651D01*
X131477347Y-74178511D01*
X131475533Y-74217097D01*
X131472814Y-74244880D01*
X131469060Y-74264329D01*
X131464146Y-74277916D01*
X131451799Y-74294791D01*
X131423030Y-74323168D01*
X131380474Y-74359346D01*
X131325858Y-74401779D01*
X131305672Y-74416954D01*
X131262108Y-74449955D01*
X131224060Y-74479111D01*
X131195051Y-74501711D01*
X131178605Y-74515044D01*
X131177211Y-74516241D01*
X131150744Y-74536635D01*
X131121353Y-74556463D01*
X131115312Y-74560352D01*
X131096071Y-74575386D01*
X131088314Y-74586092D01*
X131086799Y-74590173D01*
X131073771Y-74595302D01*
X131067338Y-74596337D01*
X131051209Y-74607836D01*
X131048607Y-74611171D01*
X131031940Y-74626719D01*
X131008093Y-74644993D01*
X131002114Y-74649190D01*
X130980817Y-74664340D01*
X130964076Y-74677012D01*
X130945286Y-74692370D01*
X130917844Y-74715580D01*
X130907159Y-74724435D01*
X130887330Y-74739519D01*
X130876761Y-74745556D01*
X130867249Y-74750244D01*
X130849743Y-74763265D01*
X130826749Y-74781928D01*
X130800578Y-74802493D01*
X130791710Y-74809326D01*
X130762704Y-74831673D01*
X130732333Y-74855068D01*
X130690888Y-74887190D01*
X130661445Y-74910886D01*
X130643533Y-74927127D01*
X130634876Y-74938273D01*
X130633198Y-74946683D01*
X130636224Y-74954716D01*
X130639087Y-74961525D01*
X130646179Y-74987037D01*
X130652279Y-75019093D01*
X130655019Y-75034726D01*
X130661443Y-75059783D01*
X130667609Y-75071896D01*
X130671482Y-75078616D01*
X130677500Y-75100810D01*
X130682665Y-75132071D01*
X130686130Y-75154685D01*
X130692057Y-75180243D01*
X130697707Y-75192237D01*
X130701574Y-75198953D01*
X130707585Y-75221144D01*
X130712748Y-75252402D01*
X130716213Y-75275016D01*
X130722139Y-75300575D01*
X130727789Y-75312568D01*
X130731657Y-75319285D01*
X130737668Y-75341475D01*
X130742831Y-75372734D01*
X130746280Y-75395356D01*
X130752118Y-75420847D01*
X130757635Y-75432753D01*
X130761154Y-75438527D01*
X130767264Y-75459809D01*
X130772627Y-75490279D01*
X130775745Y-75510232D01*
X130781724Y-75537867D01*
X130787300Y-75552941D01*
X130788878Y-75555593D01*
X130795636Y-75575122D01*
X130801830Y-75603079D01*
X130804196Y-75615682D01*
X130812708Y-75654457D01*
X130822537Y-75693328D01*
X130832235Y-75728801D01*
X130848556Y-75789751D01*
X130861686Y-75840979D01*
X130873281Y-75888867D01*
X130878836Y-75912167D01*
X130890394Y-75959600D01*
X130901510Y-76004185D01*
X130907847Y-76029666D01*
X130918780Y-76075279D01*
X130927734Y-76114489D01*
X130931825Y-76131891D01*
X130940129Y-76161576D01*
X130947102Y-76180068D01*
X130950471Y-76188714D01*
X130956999Y-76214830D01*
X130962677Y-76247744D01*
X130965953Y-76267615D01*
X130972145Y-76292983D01*
X130978010Y-76305014D01*
X130981613Y-76310832D01*
X130987829Y-76332178D01*
X130993235Y-76362684D01*
X130996364Y-76382633D01*
X131002407Y-76410270D01*
X131008082Y-76425345D01*
X131010440Y-76429755D01*
X131016877Y-76450995D01*
X131022569Y-76480497D01*
X131024412Y-76491750D01*
X131031183Y-76523385D01*
X131038160Y-76545677D01*
X131041575Y-76554667D01*
X131050008Y-76582501D01*
X131058416Y-76615870D01*
X131062537Y-76633688D01*
X131073284Y-76678481D01*
X131083931Y-76721160D01*
X131089717Y-76744117D01*
X131101353Y-76791706D01*
X131111934Y-76836478D01*
X131118047Y-76862501D01*
X131128354Y-76904832D01*
X131137142Y-76939262D01*
X131138493Y-76944339D01*
X131149334Y-76985089D01*
X131159818Y-77024496D01*
X131170741Y-77067188D01*
X131187862Y-77138274D01*
X131208461Y-77227556D01*
X131212543Y-77244544D01*
X131221301Y-77276284D01*
X131228717Y-77297749D01*
X131231009Y-77303782D01*
X131238202Y-77330523D01*
X131244308Y-77362929D01*
X131246414Y-77375534D01*
X131252625Y-77402637D01*
X131258653Y-77418081D01*
X131261519Y-77424014D01*
X131267776Y-77446549D01*
X131273396Y-77477214D01*
X131276010Y-77493092D01*
X131282694Y-77523240D01*
X131289297Y-77542393D01*
X131292788Y-77550449D01*
X131300980Y-77576262D01*
X131309061Y-77608606D01*
X131313587Y-77628784D01*
X131324054Y-77673504D01*
X131334535Y-77716403D01*
X131340453Y-77739960D01*
X131352714Y-77788848D01*
X131364074Y-77834228D01*
X131370713Y-77860750D01*
X131383276Y-77910825D01*
X131394906Y-77957067D01*
X131401926Y-77985036D01*
X131413883Y-78033007D01*
X131424236Y-78074891D01*
X131429532Y-78095923D01*
X131439817Y-78134612D01*
X131448556Y-78165074D01*
X131456717Y-78200009D01*
X131457396Y-78264536D01*
X131438728Y-78325139D01*
X131401073Y-78380893D01*
X131344794Y-78430872D01*
X131343749Y-78431620D01*
X131321135Y-78448450D01*
X131305304Y-78461285D01*
X131302103Y-78464022D01*
X131283521Y-78478324D01*
X131258784Y-78496110D01*
X131242906Y-78507220D01*
X131222832Y-78521700D01*
X131204581Y-78535910D01*
X131179535Y-78556404D01*
X131167904Y-78564349D01*
X131134638Y-78575083D01*
X131101551Y-78572558D01*
X131076056Y-78556750D01*
X131074263Y-78554491D01*
X131061413Y-78529725D01*
X131052464Y-78499092D01*
X131051317Y-78493102D01*
X131044677Y-78466776D01*
X131038133Y-78450928D01*
X131035323Y-78444993D01*
X131029151Y-78422459D01*
X131023564Y-78391795D01*
X131020950Y-78375917D01*
X131014266Y-78345769D01*
X131007663Y-78326615D01*
X131005061Y-78320939D01*
X130996901Y-78296472D01*
X130988978Y-78265416D01*
X130986299Y-78253202D01*
X130977069Y-78211075D01*
X130968112Y-78170154D01*
X130964028Y-78152823D01*
X130955572Y-78122846D01*
X130948357Y-78103941D01*
X130945310Y-78096611D01*
X130938396Y-78071023D01*
X130932456Y-78038761D01*
X130929738Y-78022260D01*
X130923608Y-77994861D01*
X130917887Y-77979629D01*
X130916329Y-77976968D01*
X130909598Y-77957439D01*
X130903335Y-77929491D01*
X130901771Y-77921180D01*
X130893128Y-77882509D01*
X130882988Y-77844256D01*
X130880228Y-77834784D01*
X130873427Y-77810743D01*
X130865788Y-77782606D01*
X130856651Y-77747810D01*
X130845356Y-77703792D01*
X130831242Y-77647990D01*
X130813650Y-77577841D01*
X130791919Y-77490781D01*
X130784710Y-77462309D01*
X130772812Y-77416605D01*
X130762406Y-77377971D01*
X130745791Y-77316018D01*
X130716037Y-77192459D01*
X130713335Y-77180812D01*
X130704848Y-77149399D01*
X130697220Y-77127280D01*
X130694988Y-77121443D01*
X130687728Y-77094794D01*
X130681524Y-77062486D01*
X130679577Y-77050947D01*
X130672957Y-77021443D01*
X130666319Y-77002320D01*
X130663795Y-76996745D01*
X130655861Y-76972633D01*
X130648038Y-76941768D01*
X130645360Y-76929554D01*
X130636130Y-76887427D01*
X130627172Y-76846506D01*
X130623084Y-76829103D01*
X130614787Y-76799424D01*
X130607822Y-76780941D01*
X130605538Y-76775736D01*
X130598627Y-76751698D01*
X130592618Y-76720775D01*
X130590804Y-76709910D01*
X130583955Y-76678319D01*
X130576921Y-76655981D01*
X130573506Y-76646990D01*
X130565073Y-76619157D01*
X130556665Y-76585787D01*
X130552563Y-76568013D01*
X130541879Y-76523200D01*
X130531338Y-76480497D01*
X130526447Y-76461155D01*
X130515178Y-76416574D01*
X130505259Y-76377321D01*
X130499586Y-76357637D01*
X130489291Y-76336955D01*
X130477356Y-76332328D01*
X130475525Y-76332739D01*
X130469612Y-76335760D01*
X130464538Y-76343122D01*
X130459716Y-76357413D01*
X130454558Y-76381222D01*
X130448475Y-76417138D01*
X130440881Y-76467751D01*
X130431186Y-76535649D01*
X130423526Y-76589771D01*
X130403590Y-76729841D01*
X130386248Y-76850420D01*
X130371459Y-76951796D01*
X130370342Y-76959379D01*
X130354464Y-77067408D01*
X130338699Y-77174983D01*
X130323992Y-77275644D01*
X130311289Y-77362929D01*
X130309229Y-77377118D01*
X130300597Y-77436493D01*
X130291234Y-77500820D01*
X130282830Y-77558468D01*
X130280357Y-77575499D01*
X130272014Y-77633868D01*
X130263642Y-77693554D01*
X130256729Y-77743979D01*
X130255545Y-77752649D01*
X130248708Y-77799114D01*
X130241626Y-77842478D01*
X130235656Y-77874339D01*
X130231802Y-77894712D01*
X130225327Y-77937225D01*
X130220353Y-77979629D01*
X130219922Y-77984032D01*
X130215073Y-78025827D01*
X130208303Y-78076134D01*
X130200937Y-78125029D01*
X130196017Y-78156473D01*
X130187707Y-78211901D01*
X130178897Y-78272759D01*
X130170824Y-78330596D01*
X130165339Y-78370248D01*
X130156488Y-78432439D01*
X130147715Y-78492349D01*
X130140294Y-78541176D01*
X130139041Y-78549197D01*
X130130754Y-78603237D01*
X130122349Y-78659364D01*
X130115469Y-78706632D01*
X130114544Y-78713130D01*
X130104252Y-78785101D01*
X130092455Y-78867016D01*
X130079876Y-78953907D01*
X130067236Y-79040808D01*
X130055259Y-79122754D01*
X130044666Y-79194778D01*
X130036180Y-79251913D01*
X130032040Y-79274372D01*
X130008591Y-79346416D01*
X129972374Y-79411913D01*
X129926602Y-79464624D01*
X129922312Y-79468364D01*
X129899113Y-79487395D01*
X129864874Y-79514418D01*
X129822043Y-79547595D01*
X129773069Y-79585088D01*
X129720399Y-79625057D01*
X129666482Y-79665663D01*
X129613766Y-79705067D01*
X129564700Y-79741431D01*
X129521731Y-79772915D01*
X129487308Y-79797681D01*
X129463879Y-79813888D01*
X129453892Y-79819700D01*
X129452520Y-79819812D01*
X129442111Y-79828700D01*
X129440533Y-79830779D01*
X129426401Y-79843536D01*
X129400191Y-79864879D01*
X129364882Y-79892423D01*
X129323450Y-79923783D01*
X129307996Y-79935324D01*
X129267538Y-79965583D01*
X129233616Y-79991019D01*
X129209411Y-80009243D01*
X129198105Y-80017868D01*
X129192042Y-80022698D01*
X129141128Y-80061926D01*
X129100006Y-80089754D01*
X129064125Y-80108095D01*
X129028932Y-80118862D01*
X128989874Y-80123967D01*
X128942400Y-80125325D01*
X128939078Y-80125329D01*
X128877792Y-80123194D01*
X128829912Y-80115184D01*
X128789359Y-80098898D01*
X128750054Y-80071935D01*
X128705917Y-80031891D01*
X128696308Y-80021822D01*
X128676292Y-79995818D01*
X128665519Y-79974232D01*
X128659620Y-79958526D01*
X128651343Y-79950059D01*
X128651099Y-79950055D01*
X128647662Y-79948929D01*
X128644500Y-79945255D01*
X128641602Y-79938238D01*
X128638957Y-79927081D01*
X128636553Y-79910989D01*
X128634379Y-79889165D01*
X128632424Y-79860815D01*
X128630675Y-79825143D01*
X128629121Y-79781351D01*
X128627752Y-79728646D01*
X128626556Y-79666231D01*
X128625521Y-79593310D01*
X128624636Y-79509087D01*
X128623889Y-79412767D01*
X128623269Y-79303554D01*
X128622765Y-79180651D01*
X128622365Y-79043265D01*
X128622058Y-78890597D01*
X128621832Y-78721853D01*
X128621677Y-78536238D01*
X128621647Y-78473282D01*
X129033560Y-78473282D01*
X129033635Y-78590806D01*
X129033937Y-78694072D01*
X129034508Y-78784053D01*
X129035392Y-78861720D01*
X129036634Y-78928043D01*
X129038277Y-78983994D01*
X129040364Y-79030544D01*
X129042940Y-79068664D01*
X129046049Y-79099325D01*
X129049734Y-79123498D01*
X129054039Y-79142156D01*
X129059009Y-79156267D01*
X129064686Y-79166805D01*
X129071114Y-79174739D01*
X129078338Y-79181042D01*
X129086401Y-79186684D01*
X129095347Y-79192636D01*
X129105221Y-79199870D01*
X129112475Y-79205535D01*
X129133515Y-79219738D01*
X129154233Y-79227623D01*
X129181417Y-79231053D01*
X129221855Y-79231893D01*
X129228973Y-79231904D01*
X129261469Y-79231160D01*
X129288847Y-79227895D01*
X129314619Y-79220504D01*
X129342295Y-79207380D01*
X129375388Y-79186918D01*
X129417409Y-79157512D01*
X129471869Y-79117556D01*
X129519972Y-79081507D01*
X129573227Y-79039240D01*
X129613432Y-79002667D01*
X129642726Y-78968692D01*
X129663250Y-78934221D01*
X129677144Y-78896158D01*
X129686547Y-78851410D01*
X129693599Y-78796881D01*
X129697271Y-78764179D01*
X129704257Y-78704744D01*
X129712065Y-78640727D01*
X129719590Y-78581287D01*
X129719838Y-78579379D01*
X129735289Y-78459757D01*
X129748429Y-78356986D01*
X129759632Y-78268091D01*
X129769274Y-78190093D01*
X129777730Y-78120016D01*
X129782453Y-78082458D01*
X129788286Y-78041217D01*
X129793402Y-78010363D01*
X129797064Y-77994670D01*
X129798117Y-77991242D01*
X129801897Y-77969475D01*
X129805915Y-77935280D01*
X129809462Y-77894394D01*
X129810638Y-77879456D01*
X129815863Y-77824856D01*
X129822679Y-77764480D01*
X129829924Y-77708883D01*
X129842736Y-77617350D01*
X129856102Y-77517086D01*
X129866820Y-77430133D01*
X129875347Y-77352901D01*
X129876130Y-77345484D01*
X129881828Y-77297806D01*
X129888248Y-77252164D01*
X129894144Y-77217528D01*
X129896593Y-77204175D01*
X129902727Y-77164823D01*
X129909282Y-77116622D01*
X129915203Y-77067114D01*
X129918409Y-77038555D01*
X129925558Y-76977062D01*
X129933437Y-76911355D01*
X129940846Y-76851520D01*
X129945039Y-76817896D01*
X129952500Y-76756163D01*
X129959555Y-76695755D01*
X129965106Y-76645953D01*
X129966971Y-76629000D01*
X129972044Y-76586664D01*
X129976784Y-76551794D01*
X129980365Y-76530635D01*
X129980434Y-76530324D01*
X129983846Y-76510390D01*
X129988915Y-76475510D01*
X129994969Y-76430511D01*
X130001335Y-76380221D01*
X130006688Y-76336957D01*
X130015060Y-76270293D01*
X130023420Y-76204695D01*
X130030572Y-76149585D01*
X130033123Y-76129937D01*
X130040969Y-76067086D01*
X130048816Y-76001316D01*
X130055296Y-75944019D01*
X130058001Y-75920159D01*
X130064153Y-75871616D01*
X130070375Y-75828716D01*
X130075663Y-75798618D01*
X130076059Y-75796693D01*
X130081643Y-75762826D01*
X130087245Y-75718674D01*
X130091708Y-75673273D01*
X130092459Y-75664581D01*
X130096890Y-75625342D01*
X130102049Y-75593798D01*
X130106970Y-75576112D01*
X130110398Y-75565932D01*
X130106928Y-75553758D01*
X130099009Y-75541150D01*
X130092112Y-75518059D01*
X130085313Y-75500329D01*
X130060991Y-75473539D01*
X130025528Y-75454779D01*
X129984487Y-75447688D01*
X129969789Y-75449802D01*
X129937186Y-75461003D01*
X129900594Y-75478586D01*
X129867374Y-75498842D01*
X129844887Y-75518059D01*
X129844849Y-75518103D01*
X129835325Y-75526021D01*
X129812446Y-75544008D01*
X129778790Y-75570067D01*
X129736935Y-75602202D01*
X129689459Y-75638416D01*
X129689208Y-75638607D01*
X129641350Y-75675039D01*
X129598714Y-75707565D01*
X129563989Y-75734128D01*
X129539861Y-75752673D01*
X129529017Y-75761144D01*
X129516748Y-75770666D01*
X129493237Y-75788364D01*
X129463837Y-75810196D01*
X129435388Y-75831573D01*
X129413760Y-75848523D01*
X129403671Y-75857353D01*
X129401442Y-75859619D01*
X129386411Y-75871754D01*
X129363561Y-75888420D01*
X129358697Y-75891833D01*
X129338593Y-75906097D01*
X129322897Y-75917876D01*
X129305008Y-75932283D01*
X129278326Y-75954430D01*
X129270918Y-75960466D01*
X129240269Y-75984004D01*
X129208467Y-76006878D01*
X129203159Y-76010617D01*
X129169163Y-76037694D01*
X129134368Y-76069724D01*
X129102946Y-76102412D01*
X129079071Y-76131460D01*
X129066917Y-76152574D01*
X129060603Y-76167136D01*
X129048846Y-76181808D01*
X129048823Y-76181824D01*
X129047151Y-76189233D01*
X129045607Y-76209291D01*
X129044184Y-76242569D01*
X129042877Y-76289637D01*
X129041682Y-76351064D01*
X129040592Y-76427419D01*
X129039602Y-76519273D01*
X129038706Y-76627194D01*
X129037900Y-76751754D01*
X129037179Y-76893520D01*
X129036535Y-77053063D01*
X129035965Y-77230952D01*
X129035463Y-77427757D01*
X129035023Y-77644048D01*
X129034638Y-77841199D01*
X129034249Y-78025461D01*
X129033910Y-78191581D01*
X129033666Y-78340531D01*
X129033560Y-78473282D01*
X128621647Y-78473282D01*
X128621580Y-78332954D01*
X128621530Y-78111207D01*
X128621516Y-77870200D01*
X128621525Y-77676949D01*
X128621570Y-77451463D01*
X128621661Y-77244589D01*
X128621810Y-77055525D01*
X128622028Y-76883469D01*
X128622326Y-76727616D01*
X128622715Y-76587164D01*
X128623206Y-76461309D01*
X128623811Y-76349249D01*
X128624540Y-76250180D01*
X128625404Y-76163299D01*
X128626414Y-76087804D01*
X128627582Y-76022890D01*
X128628919Y-75967756D01*
X128630435Y-75921597D01*
X128632142Y-75883611D01*
X128634051Y-75852994D01*
X128636173Y-75828944D01*
X128638519Y-75810658D01*
X128641100Y-75797331D01*
X128643927Y-75788162D01*
X128647012Y-75782346D01*
X128650365Y-75779082D01*
X128656352Y-75772413D01*
X128665419Y-75753494D01*
X128668231Y-75746287D01*
X128681025Y-75725389D01*
X128702962Y-75700217D01*
X128735550Y-75669402D01*
X128780299Y-75631575D01*
X128838719Y-75585364D01*
X128912317Y-75529402D01*
X128933509Y-75513500D01*
X128983623Y-75475897D01*
X129027598Y-75442897D01*
X129062958Y-75416359D01*
X129087229Y-75398141D01*
X129097933Y-75390101D01*
X129106835Y-75383161D01*
X129127964Y-75366367D01*
X129154773Y-75344868D01*
X129176294Y-75328364D01*
X129198839Y-75313138D01*
X129211491Y-75307264D01*
X129213353Y-75307140D01*
X129224845Y-75299743D01*
X129229812Y-75293403D01*
X129247275Y-75277279D01*
X129271724Y-75257313D01*
X129297643Y-75237769D01*
X129319515Y-75222915D01*
X129331823Y-75217015D01*
X129333736Y-75216858D01*
X129345177Y-75207962D01*
X129353642Y-75198636D01*
X129374861Y-75180539D01*
X129404739Y-75157088D01*
X129439260Y-75131430D01*
X129474407Y-75106711D01*
X129483639Y-75100194D01*
X129509297Y-75081105D01*
X129537843Y-75059009D01*
X129559409Y-75041966D01*
X129581726Y-75024443D01*
X129599677Y-75010660D01*
X129619979Y-74995482D01*
X129649349Y-74973775D01*
X129672693Y-74956298D01*
X129698573Y-74936315D01*
X129714528Y-74923240D01*
X129725590Y-74914302D01*
X129750066Y-74896186D01*
X129779708Y-74875349D01*
X129802304Y-74859156D01*
X129825663Y-74840588D01*
X129837865Y-74828444D01*
X129842248Y-74823470D01*
X129860427Y-74815910D01*
X129866863Y-74815009D01*
X129874970Y-74807246D01*
X129877896Y-74802112D01*
X129893333Y-74787663D01*
X129917588Y-74769642D01*
X129946506Y-74749877D01*
X129966586Y-74735541D01*
X129983857Y-74722078D01*
X129984487Y-74721555D01*
X130005330Y-74704264D01*
X130028606Y-74686003D01*
X130055468Y-74667087D01*
X130074575Y-74652754D01*
X130088556Y-74638160D01*
X130093029Y-74632946D01*
X130110282Y-74625385D01*
X130115786Y-74624809D01*
X130127332Y-74617864D01*
X130132138Y-74611627D01*
X130149590Y-74595450D01*
X130174170Y-74575453D01*
X130200324Y-74555895D01*
X130222500Y-74541036D01*
X130235146Y-74535136D01*
X130238202Y-74534818D01*
X130245993Y-74527312D01*
X130245995Y-74527243D01*
X130253794Y-74517771D01*
X130273820Y-74500701D01*
X130301801Y-74479681D01*
X130330470Y-74458832D01*
X130362010Y-74435050D01*
X130384529Y-74417125D01*
X130391951Y-74411034D01*
X130420712Y-74389005D01*
X130451559Y-74366987D01*
X130462943Y-74359061D01*
X130490804Y-74338541D01*
X130510885Y-74322257D01*
X130517894Y-74316300D01*
X130542375Y-74297481D01*
X130571051Y-74277161D01*
X130584929Y-74267587D01*
X130606376Y-74251992D01*
X130617015Y-74243071D01*
X130623613Y-74236652D01*
X130642468Y-74221232D01*
X130667377Y-74202258D01*
X130692903Y-74183740D01*
X130713609Y-74169689D01*
X130724058Y-74164113D01*
X130731094Y-74161151D01*
X130746533Y-74149041D01*
X130752013Y-74144027D01*
X130777332Y-74122643D01*
X130809703Y-74096813D01*
X130842133Y-74072036D01*
X130867630Y-74053809D01*
X130884703Y-74041783D01*
X130901525Y-74028410D01*
X130904666Y-74025708D01*
X130923185Y-74011480D01*
X130947927Y-73993817D01*
X130955622Y-73988329D01*
X130978093Y-73970212D01*
X130991043Y-73956543D01*
X130995689Y-73951134D01*
X131013605Y-73943506D01*
X131020033Y-73942674D01*
X131028148Y-73935478D01*
X131031637Y-73930186D01*
X131048013Y-73916278D01*
X131073273Y-73898927D01*
X131090594Y-73887317D01*
X131110603Y-73871559D01*
X131118397Y-73861830D01*
X131118926Y-73859233D01*
X131129608Y-73853257D01*
X131132973Y-73852540D01*
X131150281Y-73842927D01*
X131172696Y-73825681D01*
X131176623Y-73822314D01*
X131205846Y-73798458D01*
X131232790Y-73778050D01*
X131233949Y-73777224D01*
X131256606Y-73760495D01*
X131272430Y-73747837D01*
X131276676Y-73744226D01*
X131304939Y-73723757D01*
X131338939Y-73702636D01*
X131368399Y-73687341D01*
X131383996Y-73683699D01*
X131416492Y-73688065D01*
G37*
%TD*%
M02*
