%TF.GenerationSoftware,KiCad,Pcbnew,7.0.6*%
%TF.CreationDate,2024-04-09T21:05:34+03:00*%
%TF.ProjectId,ecu-emulator,6563752d-656d-4756-9c61-746f722e6b69,rev?*%
%TF.SameCoordinates,Original*%
%TF.FileFunction,Legend,Top*%
%TF.FilePolarity,Positive*%
%FSLAX46Y46*%
G04 Gerber Fmt 4.6, Leading zero omitted, Abs format (unit mm)*
G04 Created by KiCad (PCBNEW 7.0.6) date 2024-04-09 21:05:34*
%MOMM*%
%LPD*%
G01*
G04 APERTURE LIST*
%ADD10C,0.250000*%
%ADD11C,0.254000*%
%ADD12C,0.150000*%
%ADD13C,0.200000*%
%ADD14C,0.120000*%
G04 APERTURE END LIST*
D10*
X117473996Y-51269380D02*
X117426377Y-51317000D01*
X117426377Y-51317000D02*
X117283520Y-51364619D01*
X117283520Y-51364619D02*
X117188282Y-51364619D01*
X117188282Y-51364619D02*
X117045425Y-51317000D01*
X117045425Y-51317000D02*
X116950187Y-51221761D01*
X116950187Y-51221761D02*
X116902568Y-51126523D01*
X116902568Y-51126523D02*
X116854949Y-50936047D01*
X116854949Y-50936047D02*
X116854949Y-50793190D01*
X116854949Y-50793190D02*
X116902568Y-50602714D01*
X116902568Y-50602714D02*
X116950187Y-50507476D01*
X116950187Y-50507476D02*
X117045425Y-50412238D01*
X117045425Y-50412238D02*
X117188282Y-50364619D01*
X117188282Y-50364619D02*
X117283520Y-50364619D01*
X117283520Y-50364619D02*
X117426377Y-50412238D01*
X117426377Y-50412238D02*
X117473996Y-50459857D01*
X117854949Y-51078904D02*
X118331139Y-51078904D01*
X117759711Y-51364619D02*
X118093044Y-50364619D01*
X118093044Y-50364619D02*
X118426377Y-51364619D01*
X118759711Y-51364619D02*
X118759711Y-50364619D01*
X118759711Y-50364619D02*
X119331139Y-51364619D01*
X119331139Y-51364619D02*
X119331139Y-50364619D01*
X119569235Y-51459857D02*
X120331139Y-51459857D01*
X121045425Y-51364619D02*
X120569235Y-51364619D01*
X120569235Y-51364619D02*
X120569235Y-50364619D01*
X112473996Y-51269380D02*
X112426377Y-51317000D01*
X112426377Y-51317000D02*
X112283520Y-51364619D01*
X112283520Y-51364619D02*
X112188282Y-51364619D01*
X112188282Y-51364619D02*
X112045425Y-51317000D01*
X112045425Y-51317000D02*
X111950187Y-51221761D01*
X111950187Y-51221761D02*
X111902568Y-51126523D01*
X111902568Y-51126523D02*
X111854949Y-50936047D01*
X111854949Y-50936047D02*
X111854949Y-50793190D01*
X111854949Y-50793190D02*
X111902568Y-50602714D01*
X111902568Y-50602714D02*
X111950187Y-50507476D01*
X111950187Y-50507476D02*
X112045425Y-50412238D01*
X112045425Y-50412238D02*
X112188282Y-50364619D01*
X112188282Y-50364619D02*
X112283520Y-50364619D01*
X112283520Y-50364619D02*
X112426377Y-50412238D01*
X112426377Y-50412238D02*
X112473996Y-50459857D01*
X112854949Y-51078904D02*
X113331139Y-51078904D01*
X112759711Y-51364619D02*
X113093044Y-50364619D01*
X113093044Y-50364619D02*
X113426377Y-51364619D01*
X113759711Y-51364619D02*
X113759711Y-50364619D01*
X113759711Y-50364619D02*
X114331139Y-51364619D01*
X114331139Y-51364619D02*
X114331139Y-50364619D01*
X114569235Y-51459857D02*
X115331139Y-51459857D01*
X115569235Y-51364619D02*
X115569235Y-50364619D01*
X115569235Y-50840809D02*
X116140663Y-50840809D01*
X116140663Y-51364619D02*
X116140663Y-50364619D01*
X121426377Y-52912238D02*
X121331139Y-52864619D01*
X121331139Y-52864619D02*
X121188282Y-52864619D01*
X121188282Y-52864619D02*
X121045425Y-52912238D01*
X121045425Y-52912238D02*
X120950187Y-53007476D01*
X120950187Y-53007476D02*
X120902568Y-53102714D01*
X120902568Y-53102714D02*
X120854949Y-53293190D01*
X120854949Y-53293190D02*
X120854949Y-53436047D01*
X120854949Y-53436047D02*
X120902568Y-53626523D01*
X120902568Y-53626523D02*
X120950187Y-53721761D01*
X120950187Y-53721761D02*
X121045425Y-53817000D01*
X121045425Y-53817000D02*
X121188282Y-53864619D01*
X121188282Y-53864619D02*
X121283520Y-53864619D01*
X121283520Y-53864619D02*
X121426377Y-53817000D01*
X121426377Y-53817000D02*
X121473996Y-53769380D01*
X121473996Y-53769380D02*
X121473996Y-53436047D01*
X121473996Y-53436047D02*
X121283520Y-53436047D01*
X121902568Y-53864619D02*
X121902568Y-52864619D01*
X121902568Y-52864619D02*
X122473996Y-53864619D01*
X122473996Y-53864619D02*
X122473996Y-52864619D01*
X122950187Y-53864619D02*
X122950187Y-52864619D01*
X122950187Y-52864619D02*
X123188282Y-52864619D01*
X123188282Y-52864619D02*
X123331139Y-52912238D01*
X123331139Y-52912238D02*
X123426377Y-53007476D01*
X123426377Y-53007476D02*
X123473996Y-53102714D01*
X123473996Y-53102714D02*
X123521615Y-53293190D01*
X123521615Y-53293190D02*
X123521615Y-53436047D01*
X123521615Y-53436047D02*
X123473996Y-53626523D01*
X123473996Y-53626523D02*
X123426377Y-53721761D01*
X123426377Y-53721761D02*
X123331139Y-53817000D01*
X123331139Y-53817000D02*
X123188282Y-53864619D01*
X123188282Y-53864619D02*
X122950187Y-53864619D01*
D11*
X116274318Y-66589762D02*
X115004318Y-66589762D01*
X116153365Y-65259285D02*
X116213842Y-65319761D01*
X116213842Y-65319761D02*
X116274318Y-65501190D01*
X116274318Y-65501190D02*
X116274318Y-65622142D01*
X116274318Y-65622142D02*
X116213842Y-65803571D01*
X116213842Y-65803571D02*
X116092889Y-65924523D01*
X116092889Y-65924523D02*
X115971937Y-65985000D01*
X115971937Y-65985000D02*
X115730032Y-66045476D01*
X115730032Y-66045476D02*
X115548603Y-66045476D01*
X115548603Y-66045476D02*
X115306699Y-65985000D01*
X115306699Y-65985000D02*
X115185746Y-65924523D01*
X115185746Y-65924523D02*
X115064794Y-65803571D01*
X115064794Y-65803571D02*
X115004318Y-65622142D01*
X115004318Y-65622142D02*
X115004318Y-65501190D01*
X115004318Y-65501190D02*
X115064794Y-65319761D01*
X115064794Y-65319761D02*
X115125270Y-65259285D01*
X116274318Y-64049761D02*
X116274318Y-64775476D01*
X116274318Y-64412619D02*
X115004318Y-64412619D01*
X115004318Y-64412619D02*
X115185746Y-64533571D01*
X115185746Y-64533571D02*
X115306699Y-64654523D01*
X115306699Y-64654523D02*
X115367175Y-64775476D01*
D12*
X115133333Y-56254819D02*
X114800000Y-55778628D01*
X114561905Y-56254819D02*
X114561905Y-55254819D01*
X114561905Y-55254819D02*
X114942857Y-55254819D01*
X114942857Y-55254819D02*
X115038095Y-55302438D01*
X115038095Y-55302438D02*
X115085714Y-55350057D01*
X115085714Y-55350057D02*
X115133333Y-55445295D01*
X115133333Y-55445295D02*
X115133333Y-55588152D01*
X115133333Y-55588152D02*
X115085714Y-55683390D01*
X115085714Y-55683390D02*
X115038095Y-55731009D01*
X115038095Y-55731009D02*
X114942857Y-55778628D01*
X114942857Y-55778628D02*
X114561905Y-55778628D01*
X115514286Y-55350057D02*
X115561905Y-55302438D01*
X115561905Y-55302438D02*
X115657143Y-55254819D01*
X115657143Y-55254819D02*
X115895238Y-55254819D01*
X115895238Y-55254819D02*
X115990476Y-55302438D01*
X115990476Y-55302438D02*
X116038095Y-55350057D01*
X116038095Y-55350057D02*
X116085714Y-55445295D01*
X116085714Y-55445295D02*
X116085714Y-55540533D01*
X116085714Y-55540533D02*
X116038095Y-55683390D01*
X116038095Y-55683390D02*
X115466667Y-56254819D01*
X115466667Y-56254819D02*
X116085714Y-56254819D01*
X150000000Y-105954819D02*
X150190476Y-105954819D01*
X150190476Y-105954819D02*
X150285714Y-106002438D01*
X150285714Y-106002438D02*
X150380952Y-106097676D01*
X150380952Y-106097676D02*
X150428571Y-106288152D01*
X150428571Y-106288152D02*
X150428571Y-106621485D01*
X150428571Y-106621485D02*
X150380952Y-106811961D01*
X150380952Y-106811961D02*
X150285714Y-106907200D01*
X150285714Y-106907200D02*
X150190476Y-106954819D01*
X150190476Y-106954819D02*
X150000000Y-106954819D01*
X150000000Y-106954819D02*
X149904762Y-106907200D01*
X149904762Y-106907200D02*
X149809524Y-106811961D01*
X149809524Y-106811961D02*
X149761905Y-106621485D01*
X149761905Y-106621485D02*
X149761905Y-106288152D01*
X149761905Y-106288152D02*
X149809524Y-106097676D01*
X149809524Y-106097676D02*
X149904762Y-106002438D01*
X149904762Y-106002438D02*
X150000000Y-105954819D01*
X150857143Y-106954819D02*
X150857143Y-105954819D01*
X151809523Y-106954819D02*
X151333333Y-106954819D01*
X151333333Y-106954819D02*
X151333333Y-105954819D01*
X151904762Y-107050057D02*
X152666666Y-107050057D01*
X152761905Y-105954819D02*
X153333333Y-105954819D01*
X153047619Y-106954819D02*
X153047619Y-105954819D01*
X153666667Y-106431009D02*
X154000000Y-106431009D01*
X154142857Y-106954819D02*
X153666667Y-106954819D01*
X153666667Y-106954819D02*
X153666667Y-105954819D01*
X153666667Y-105954819D02*
X154142857Y-105954819D01*
X154571429Y-106954819D02*
X154571429Y-105954819D01*
X154571429Y-105954819D02*
X154904762Y-106669104D01*
X154904762Y-106669104D02*
X155238095Y-105954819D01*
X155238095Y-105954819D02*
X155238095Y-106954819D01*
X155714286Y-106954819D02*
X155714286Y-105954819D01*
X155714286Y-105954819D02*
X156095238Y-105954819D01*
X156095238Y-105954819D02*
X156190476Y-106002438D01*
X156190476Y-106002438D02*
X156238095Y-106050057D01*
X156238095Y-106050057D02*
X156285714Y-106145295D01*
X156285714Y-106145295D02*
X156285714Y-106288152D01*
X156285714Y-106288152D02*
X156238095Y-106383390D01*
X156238095Y-106383390D02*
X156190476Y-106431009D01*
X156190476Y-106431009D02*
X156095238Y-106478628D01*
X156095238Y-106478628D02*
X155714286Y-106478628D01*
X157238095Y-106954819D02*
X156666667Y-106954819D01*
X156952381Y-106954819D02*
X156952381Y-105954819D01*
X156952381Y-105954819D02*
X156857143Y-106097676D01*
X156857143Y-106097676D02*
X156761905Y-106192914D01*
X156761905Y-106192914D02*
X156666667Y-106240533D01*
X113666666Y-95454819D02*
X113190476Y-95454819D01*
X113190476Y-95454819D02*
X113190476Y-94454819D01*
X114190476Y-94454819D02*
X114380952Y-94454819D01*
X114380952Y-94454819D02*
X114476190Y-94502438D01*
X114476190Y-94502438D02*
X114571428Y-94597676D01*
X114571428Y-94597676D02*
X114619047Y-94788152D01*
X114619047Y-94788152D02*
X114619047Y-95121485D01*
X114619047Y-95121485D02*
X114571428Y-95311961D01*
X114571428Y-95311961D02*
X114476190Y-95407200D01*
X114476190Y-95407200D02*
X114380952Y-95454819D01*
X114380952Y-95454819D02*
X114190476Y-95454819D01*
X114190476Y-95454819D02*
X114095238Y-95407200D01*
X114095238Y-95407200D02*
X114000000Y-95311961D01*
X114000000Y-95311961D02*
X113952381Y-95121485D01*
X113952381Y-95121485D02*
X113952381Y-94788152D01*
X113952381Y-94788152D02*
X114000000Y-94597676D01*
X114000000Y-94597676D02*
X114095238Y-94502438D01*
X114095238Y-94502438D02*
X114190476Y-94454819D01*
X114952381Y-94454819D02*
X115190476Y-95454819D01*
X115190476Y-95454819D02*
X115380952Y-94740533D01*
X115380952Y-94740533D02*
X115571428Y-95454819D01*
X115571428Y-95454819D02*
X115809524Y-94454819D01*
X115952381Y-95550057D02*
X116714285Y-95550057D01*
X117285714Y-94931009D02*
X117428571Y-94978628D01*
X117428571Y-94978628D02*
X117476190Y-95026247D01*
X117476190Y-95026247D02*
X117523809Y-95121485D01*
X117523809Y-95121485D02*
X117523809Y-95264342D01*
X117523809Y-95264342D02*
X117476190Y-95359580D01*
X117476190Y-95359580D02*
X117428571Y-95407200D01*
X117428571Y-95407200D02*
X117333333Y-95454819D01*
X117333333Y-95454819D02*
X116952381Y-95454819D01*
X116952381Y-95454819D02*
X116952381Y-94454819D01*
X116952381Y-94454819D02*
X117285714Y-94454819D01*
X117285714Y-94454819D02*
X117380952Y-94502438D01*
X117380952Y-94502438D02*
X117428571Y-94550057D01*
X117428571Y-94550057D02*
X117476190Y-94645295D01*
X117476190Y-94645295D02*
X117476190Y-94740533D01*
X117476190Y-94740533D02*
X117428571Y-94835771D01*
X117428571Y-94835771D02*
X117380952Y-94883390D01*
X117380952Y-94883390D02*
X117285714Y-94931009D01*
X117285714Y-94931009D02*
X116952381Y-94931009D01*
X117904762Y-95169104D02*
X118380952Y-95169104D01*
X117809524Y-95454819D02*
X118142857Y-94454819D01*
X118142857Y-94454819D02*
X118476190Y-95454819D01*
X118666667Y-94454819D02*
X119238095Y-94454819D01*
X118952381Y-95454819D02*
X118952381Y-94454819D01*
X119428572Y-94454819D02*
X120000000Y-94454819D01*
X119714286Y-95454819D02*
X119714286Y-94454819D01*
X120857143Y-95454819D02*
X120285715Y-95454819D01*
X120571429Y-95454819D02*
X120571429Y-94454819D01*
X120571429Y-94454819D02*
X120476191Y-94597676D01*
X120476191Y-94597676D02*
X120380953Y-94692914D01*
X120380953Y-94692914D02*
X120285715Y-94740533D01*
X113076190Y-75202438D02*
X112980952Y-75154819D01*
X112980952Y-75154819D02*
X112838095Y-75154819D01*
X112838095Y-75154819D02*
X112695238Y-75202438D01*
X112695238Y-75202438D02*
X112600000Y-75297676D01*
X112600000Y-75297676D02*
X112552381Y-75392914D01*
X112552381Y-75392914D02*
X112504762Y-75583390D01*
X112504762Y-75583390D02*
X112504762Y-75726247D01*
X112504762Y-75726247D02*
X112552381Y-75916723D01*
X112552381Y-75916723D02*
X112600000Y-76011961D01*
X112600000Y-76011961D02*
X112695238Y-76107200D01*
X112695238Y-76107200D02*
X112838095Y-76154819D01*
X112838095Y-76154819D02*
X112933333Y-76154819D01*
X112933333Y-76154819D02*
X113076190Y-76107200D01*
X113076190Y-76107200D02*
X113123809Y-76059580D01*
X113123809Y-76059580D02*
X113123809Y-75726247D01*
X113123809Y-75726247D02*
X112933333Y-75726247D01*
X113552381Y-75631009D02*
X113885714Y-75631009D01*
X114028571Y-76154819D02*
X113552381Y-76154819D01*
X113552381Y-76154819D02*
X113552381Y-75154819D01*
X113552381Y-75154819D02*
X114028571Y-75154819D01*
X114409524Y-75869104D02*
X114885714Y-75869104D01*
X114314286Y-76154819D02*
X114647619Y-75154819D01*
X114647619Y-75154819D02*
X114980952Y-76154819D01*
X115885714Y-76154819D02*
X115552381Y-75678628D01*
X115314286Y-76154819D02*
X115314286Y-75154819D01*
X115314286Y-75154819D02*
X115695238Y-75154819D01*
X115695238Y-75154819D02*
X115790476Y-75202438D01*
X115790476Y-75202438D02*
X115838095Y-75250057D01*
X115838095Y-75250057D02*
X115885714Y-75345295D01*
X115885714Y-75345295D02*
X115885714Y-75488152D01*
X115885714Y-75488152D02*
X115838095Y-75583390D01*
X115838095Y-75583390D02*
X115790476Y-75631009D01*
X115790476Y-75631009D02*
X115695238Y-75678628D01*
X115695238Y-75678628D02*
X115314286Y-75678628D01*
X116076191Y-76250057D02*
X116838095Y-76250057D01*
X117028572Y-76107200D02*
X117171429Y-76154819D01*
X117171429Y-76154819D02*
X117409524Y-76154819D01*
X117409524Y-76154819D02*
X117504762Y-76107200D01*
X117504762Y-76107200D02*
X117552381Y-76059580D01*
X117552381Y-76059580D02*
X117600000Y-75964342D01*
X117600000Y-75964342D02*
X117600000Y-75869104D01*
X117600000Y-75869104D02*
X117552381Y-75773866D01*
X117552381Y-75773866D02*
X117504762Y-75726247D01*
X117504762Y-75726247D02*
X117409524Y-75678628D01*
X117409524Y-75678628D02*
X117219048Y-75631009D01*
X117219048Y-75631009D02*
X117123810Y-75583390D01*
X117123810Y-75583390D02*
X117076191Y-75535771D01*
X117076191Y-75535771D02*
X117028572Y-75440533D01*
X117028572Y-75440533D02*
X117028572Y-75345295D01*
X117028572Y-75345295D02*
X117076191Y-75250057D01*
X117076191Y-75250057D02*
X117123810Y-75202438D01*
X117123810Y-75202438D02*
X117219048Y-75154819D01*
X117219048Y-75154819D02*
X117457143Y-75154819D01*
X117457143Y-75154819D02*
X117600000Y-75202438D01*
X118028572Y-76154819D02*
X118028572Y-75154819D01*
X118028572Y-75631009D02*
X118600000Y-75631009D01*
X118600000Y-76154819D02*
X118600000Y-75154819D01*
X119076191Y-76154819D02*
X119076191Y-75154819D01*
X119885714Y-75631009D02*
X119552381Y-75631009D01*
X119552381Y-76154819D02*
X119552381Y-75154819D01*
X119552381Y-75154819D02*
X120028571Y-75154819D01*
X120266667Y-75154819D02*
X120838095Y-75154819D01*
X120552381Y-76154819D02*
X120552381Y-75154819D01*
X121695238Y-76154819D02*
X121123810Y-76154819D01*
X121409524Y-76154819D02*
X121409524Y-75154819D01*
X121409524Y-75154819D02*
X121314286Y-75297676D01*
X121314286Y-75297676D02*
X121219048Y-75392914D01*
X121219048Y-75392914D02*
X121123810Y-75440533D01*
X115861905Y-73154819D02*
X115861905Y-72154819D01*
X115861905Y-72154819D02*
X116100000Y-72154819D01*
X116100000Y-72154819D02*
X116242857Y-72202438D01*
X116242857Y-72202438D02*
X116338095Y-72297676D01*
X116338095Y-72297676D02*
X116385714Y-72392914D01*
X116385714Y-72392914D02*
X116433333Y-72583390D01*
X116433333Y-72583390D02*
X116433333Y-72726247D01*
X116433333Y-72726247D02*
X116385714Y-72916723D01*
X116385714Y-72916723D02*
X116338095Y-73011961D01*
X116338095Y-73011961D02*
X116242857Y-73107200D01*
X116242857Y-73107200D02*
X116100000Y-73154819D01*
X116100000Y-73154819D02*
X115861905Y-73154819D01*
X117385714Y-73154819D02*
X116814286Y-73154819D01*
X117100000Y-73154819D02*
X117100000Y-72154819D01*
X117100000Y-72154819D02*
X117004762Y-72297676D01*
X117004762Y-72297676D02*
X116909524Y-72392914D01*
X116909524Y-72392914D02*
X116814286Y-72440533D01*
X153761904Y-68954819D02*
X153428571Y-68478628D01*
X153190476Y-68954819D02*
X153190476Y-67954819D01*
X153190476Y-67954819D02*
X153571428Y-67954819D01*
X153571428Y-67954819D02*
X153666666Y-68002438D01*
X153666666Y-68002438D02*
X153714285Y-68050057D01*
X153714285Y-68050057D02*
X153761904Y-68145295D01*
X153761904Y-68145295D02*
X153761904Y-68288152D01*
X153761904Y-68288152D02*
X153714285Y-68383390D01*
X153714285Y-68383390D02*
X153666666Y-68431009D01*
X153666666Y-68431009D02*
X153571428Y-68478628D01*
X153571428Y-68478628D02*
X153190476Y-68478628D01*
X154190476Y-68954819D02*
X154190476Y-67954819D01*
X154190476Y-67954819D02*
X154571428Y-67954819D01*
X154571428Y-67954819D02*
X154666666Y-68002438D01*
X154666666Y-68002438D02*
X154714285Y-68050057D01*
X154714285Y-68050057D02*
X154761904Y-68145295D01*
X154761904Y-68145295D02*
X154761904Y-68288152D01*
X154761904Y-68288152D02*
X154714285Y-68383390D01*
X154714285Y-68383390D02*
X154666666Y-68431009D01*
X154666666Y-68431009D02*
X154571428Y-68478628D01*
X154571428Y-68478628D02*
X154190476Y-68478628D01*
X155190476Y-68954819D02*
X155190476Y-67954819D01*
X155190476Y-67954819D02*
X155523809Y-68669104D01*
X155523809Y-68669104D02*
X155857142Y-67954819D01*
X155857142Y-67954819D02*
X155857142Y-68954819D01*
X156857142Y-68954819D02*
X156285714Y-68954819D01*
X156571428Y-68954819D02*
X156571428Y-67954819D01*
X156571428Y-67954819D02*
X156476190Y-68097676D01*
X156476190Y-68097676D02*
X156380952Y-68192914D01*
X156380952Y-68192914D02*
X156285714Y-68240533D01*
X149261904Y-87859580D02*
X149214285Y-87907200D01*
X149214285Y-87907200D02*
X149071428Y-87954819D01*
X149071428Y-87954819D02*
X148976190Y-87954819D01*
X148976190Y-87954819D02*
X148833333Y-87907200D01*
X148833333Y-87907200D02*
X148738095Y-87811961D01*
X148738095Y-87811961D02*
X148690476Y-87716723D01*
X148690476Y-87716723D02*
X148642857Y-87526247D01*
X148642857Y-87526247D02*
X148642857Y-87383390D01*
X148642857Y-87383390D02*
X148690476Y-87192914D01*
X148690476Y-87192914D02*
X148738095Y-87097676D01*
X148738095Y-87097676D02*
X148833333Y-87002438D01*
X148833333Y-87002438D02*
X148976190Y-86954819D01*
X148976190Y-86954819D02*
X149071428Y-86954819D01*
X149071428Y-86954819D02*
X149214285Y-87002438D01*
X149214285Y-87002438D02*
X149261904Y-87050057D01*
X149880952Y-86954819D02*
X150071428Y-86954819D01*
X150071428Y-86954819D02*
X150166666Y-87002438D01*
X150166666Y-87002438D02*
X150261904Y-87097676D01*
X150261904Y-87097676D02*
X150309523Y-87288152D01*
X150309523Y-87288152D02*
X150309523Y-87621485D01*
X150309523Y-87621485D02*
X150261904Y-87811961D01*
X150261904Y-87811961D02*
X150166666Y-87907200D01*
X150166666Y-87907200D02*
X150071428Y-87954819D01*
X150071428Y-87954819D02*
X149880952Y-87954819D01*
X149880952Y-87954819D02*
X149785714Y-87907200D01*
X149785714Y-87907200D02*
X149690476Y-87811961D01*
X149690476Y-87811961D02*
X149642857Y-87621485D01*
X149642857Y-87621485D02*
X149642857Y-87288152D01*
X149642857Y-87288152D02*
X149690476Y-87097676D01*
X149690476Y-87097676D02*
X149785714Y-87002438D01*
X149785714Y-87002438D02*
X149880952Y-86954819D01*
X150928571Y-86954819D02*
X151119047Y-86954819D01*
X151119047Y-86954819D02*
X151214285Y-87002438D01*
X151214285Y-87002438D02*
X151309523Y-87097676D01*
X151309523Y-87097676D02*
X151357142Y-87288152D01*
X151357142Y-87288152D02*
X151357142Y-87621485D01*
X151357142Y-87621485D02*
X151309523Y-87811961D01*
X151309523Y-87811961D02*
X151214285Y-87907200D01*
X151214285Y-87907200D02*
X151119047Y-87954819D01*
X151119047Y-87954819D02*
X150928571Y-87954819D01*
X150928571Y-87954819D02*
X150833333Y-87907200D01*
X150833333Y-87907200D02*
X150738095Y-87811961D01*
X150738095Y-87811961D02*
X150690476Y-87621485D01*
X150690476Y-87621485D02*
X150690476Y-87288152D01*
X150690476Y-87288152D02*
X150738095Y-87097676D01*
X150738095Y-87097676D02*
X150833333Y-87002438D01*
X150833333Y-87002438D02*
X150928571Y-86954819D01*
X152261904Y-87954819D02*
X151785714Y-87954819D01*
X151785714Y-87954819D02*
X151785714Y-86954819D01*
X152547619Y-87669104D02*
X153023809Y-87669104D01*
X152452381Y-87954819D02*
X152785714Y-86954819D01*
X152785714Y-86954819D02*
X153119047Y-87954819D01*
X153452381Y-87954819D02*
X153452381Y-86954819D01*
X153452381Y-86954819D02*
X154023809Y-87954819D01*
X154023809Y-87954819D02*
X154023809Y-86954819D01*
X154357143Y-86954819D02*
X154928571Y-86954819D01*
X154642857Y-87954819D02*
X154642857Y-86954819D01*
X155023810Y-88050057D02*
X155785714Y-88050057D01*
X155880953Y-86954819D02*
X156452381Y-86954819D01*
X156166667Y-87954819D02*
X156166667Y-86954819D01*
X156785715Y-87431009D02*
X157119048Y-87431009D01*
X157261905Y-87954819D02*
X156785715Y-87954819D01*
X156785715Y-87954819D02*
X156785715Y-86954819D01*
X156785715Y-86954819D02*
X157261905Y-86954819D01*
X157690477Y-87954819D02*
X157690477Y-86954819D01*
X157690477Y-86954819D02*
X158023810Y-87669104D01*
X158023810Y-87669104D02*
X158357143Y-86954819D01*
X158357143Y-86954819D02*
X158357143Y-87954819D01*
X158833334Y-87954819D02*
X158833334Y-86954819D01*
X158833334Y-86954819D02*
X159214286Y-86954819D01*
X159214286Y-86954819D02*
X159309524Y-87002438D01*
X159309524Y-87002438D02*
X159357143Y-87050057D01*
X159357143Y-87050057D02*
X159404762Y-87145295D01*
X159404762Y-87145295D02*
X159404762Y-87288152D01*
X159404762Y-87288152D02*
X159357143Y-87383390D01*
X159357143Y-87383390D02*
X159309524Y-87431009D01*
X159309524Y-87431009D02*
X159214286Y-87478628D01*
X159214286Y-87478628D02*
X158833334Y-87478628D01*
X160357143Y-87954819D02*
X159785715Y-87954819D01*
X160071429Y-87954819D02*
X160071429Y-86954819D01*
X160071429Y-86954819D02*
X159976191Y-87097676D01*
X159976191Y-87097676D02*
X159880953Y-87192914D01*
X159880953Y-87192914D02*
X159785715Y-87240533D01*
X125266666Y-50104819D02*
X125266666Y-50819104D01*
X125266666Y-50819104D02*
X125219047Y-50961961D01*
X125219047Y-50961961D02*
X125123809Y-51057200D01*
X125123809Y-51057200D02*
X124980952Y-51104819D01*
X124980952Y-51104819D02*
X124885714Y-51104819D01*
X125647619Y-50104819D02*
X126266666Y-50104819D01*
X126266666Y-50104819D02*
X125933333Y-50485771D01*
X125933333Y-50485771D02*
X126076190Y-50485771D01*
X126076190Y-50485771D02*
X126171428Y-50533390D01*
X126171428Y-50533390D02*
X126219047Y-50581009D01*
X126219047Y-50581009D02*
X126266666Y-50676247D01*
X126266666Y-50676247D02*
X126266666Y-50914342D01*
X126266666Y-50914342D02*
X126219047Y-51009580D01*
X126219047Y-51009580D02*
X126171428Y-51057200D01*
X126171428Y-51057200D02*
X126076190Y-51104819D01*
X126076190Y-51104819D02*
X125790476Y-51104819D01*
X125790476Y-51104819D02*
X125695238Y-51057200D01*
X125695238Y-51057200D02*
X125647619Y-51009580D01*
X121883333Y-72954819D02*
X121550000Y-72478628D01*
X121311905Y-72954819D02*
X121311905Y-71954819D01*
X121311905Y-71954819D02*
X121692857Y-71954819D01*
X121692857Y-71954819D02*
X121788095Y-72002438D01*
X121788095Y-72002438D02*
X121835714Y-72050057D01*
X121835714Y-72050057D02*
X121883333Y-72145295D01*
X121883333Y-72145295D02*
X121883333Y-72288152D01*
X121883333Y-72288152D02*
X121835714Y-72383390D01*
X121835714Y-72383390D02*
X121788095Y-72431009D01*
X121788095Y-72431009D02*
X121692857Y-72478628D01*
X121692857Y-72478628D02*
X121311905Y-72478628D01*
X122835714Y-72954819D02*
X122264286Y-72954819D01*
X122550000Y-72954819D02*
X122550000Y-71954819D01*
X122550000Y-71954819D02*
X122454762Y-72097676D01*
X122454762Y-72097676D02*
X122359524Y-72192914D01*
X122359524Y-72192914D02*
X122264286Y-72240533D01*
X143166666Y-50404819D02*
X143166666Y-51119104D01*
X143166666Y-51119104D02*
X143119047Y-51261961D01*
X143119047Y-51261961D02*
X143023809Y-51357200D01*
X143023809Y-51357200D02*
X142880952Y-51404819D01*
X142880952Y-51404819D02*
X142785714Y-51404819D01*
X143595238Y-50500057D02*
X143642857Y-50452438D01*
X143642857Y-50452438D02*
X143738095Y-50404819D01*
X143738095Y-50404819D02*
X143976190Y-50404819D01*
X143976190Y-50404819D02*
X144071428Y-50452438D01*
X144071428Y-50452438D02*
X144119047Y-50500057D01*
X144119047Y-50500057D02*
X144166666Y-50595295D01*
X144166666Y-50595295D02*
X144166666Y-50690533D01*
X144166666Y-50690533D02*
X144119047Y-50833390D01*
X144119047Y-50833390D02*
X143547619Y-51404819D01*
X143547619Y-51404819D02*
X144166666Y-51404819D01*
X111084819Y-53833333D02*
X111799104Y-53833333D01*
X111799104Y-53833333D02*
X111941961Y-53880952D01*
X111941961Y-53880952D02*
X112037200Y-53976190D01*
X112037200Y-53976190D02*
X112084819Y-54119047D01*
X112084819Y-54119047D02*
X112084819Y-54214285D01*
X112084819Y-52833333D02*
X112084819Y-53404761D01*
X112084819Y-53119047D02*
X111084819Y-53119047D01*
X111084819Y-53119047D02*
X111227676Y-53214285D01*
X111227676Y-53214285D02*
X111322914Y-53309523D01*
X111322914Y-53309523D02*
X111370533Y-53404761D01*
X114240476Y-86054819D02*
X113764286Y-86054819D01*
X113764286Y-86054819D02*
X113764286Y-85054819D01*
X114764286Y-85054819D02*
X114954762Y-85054819D01*
X114954762Y-85054819D02*
X115050000Y-85102438D01*
X115050000Y-85102438D02*
X115145238Y-85197676D01*
X115145238Y-85197676D02*
X115192857Y-85388152D01*
X115192857Y-85388152D02*
X115192857Y-85721485D01*
X115192857Y-85721485D02*
X115145238Y-85911961D01*
X115145238Y-85911961D02*
X115050000Y-86007200D01*
X115050000Y-86007200D02*
X114954762Y-86054819D01*
X114954762Y-86054819D02*
X114764286Y-86054819D01*
X114764286Y-86054819D02*
X114669048Y-86007200D01*
X114669048Y-86007200D02*
X114573810Y-85911961D01*
X114573810Y-85911961D02*
X114526191Y-85721485D01*
X114526191Y-85721485D02*
X114526191Y-85388152D01*
X114526191Y-85388152D02*
X114573810Y-85197676D01*
X114573810Y-85197676D02*
X114669048Y-85102438D01*
X114669048Y-85102438D02*
X114764286Y-85054819D01*
X115526191Y-85054819D02*
X115764286Y-86054819D01*
X115764286Y-86054819D02*
X115954762Y-85340533D01*
X115954762Y-85340533D02*
X116145238Y-86054819D01*
X116145238Y-86054819D02*
X116383334Y-85054819D01*
X116526191Y-86150057D02*
X117288095Y-86150057D01*
X117716667Y-85054819D02*
X117907143Y-85054819D01*
X117907143Y-85054819D02*
X118002381Y-85102438D01*
X118002381Y-85102438D02*
X118097619Y-85197676D01*
X118097619Y-85197676D02*
X118145238Y-85388152D01*
X118145238Y-85388152D02*
X118145238Y-85721485D01*
X118145238Y-85721485D02*
X118097619Y-85911961D01*
X118097619Y-85911961D02*
X118002381Y-86007200D01*
X118002381Y-86007200D02*
X117907143Y-86054819D01*
X117907143Y-86054819D02*
X117716667Y-86054819D01*
X117716667Y-86054819D02*
X117621429Y-86007200D01*
X117621429Y-86007200D02*
X117526191Y-85911961D01*
X117526191Y-85911961D02*
X117478572Y-85721485D01*
X117478572Y-85721485D02*
X117478572Y-85388152D01*
X117478572Y-85388152D02*
X117526191Y-85197676D01*
X117526191Y-85197676D02*
X117621429Y-85102438D01*
X117621429Y-85102438D02*
X117716667Y-85054819D01*
X118573810Y-86054819D02*
X118573810Y-85054819D01*
X119526190Y-86054819D02*
X119050000Y-86054819D01*
X119050000Y-86054819D02*
X119050000Y-85054819D01*
X120383333Y-86054819D02*
X119811905Y-86054819D01*
X120097619Y-86054819D02*
X120097619Y-85054819D01*
X120097619Y-85054819D02*
X120002381Y-85197676D01*
X120002381Y-85197676D02*
X119907143Y-85292914D01*
X119907143Y-85292914D02*
X119811905Y-85340533D01*
D13*
%TO.C,IC1*%
X113095000Y-68825000D02*
X113095000Y-67275000D01*
X113250000Y-66925000D02*
X113250000Y-63775000D01*
X118150000Y-66925000D02*
X113250000Y-66925000D01*
X113250000Y-63775000D02*
X118150000Y-63775000D01*
X118150000Y-63775000D02*
X118150000Y-66925000D01*
D14*
%TO.C,R2*%
X114626263Y-56745000D02*
X116073737Y-56745000D01*
X114626263Y-59455000D02*
X116073737Y-59455000D01*
%TO.C,OIL_TEMP1*%
X173370000Y-93780000D02*
X173370000Y-100020000D01*
X163370000Y-100020000D02*
X173370000Y-100020000D01*
X163370000Y-93780000D02*
X173370000Y-93780000D01*
X163370000Y-93280000D02*
X163370000Y-100520000D01*
X158370000Y-100520000D02*
X163370000Y-100520000D01*
X158370000Y-93280000D02*
X163370000Y-93280000D01*
X158370000Y-87830000D02*
X158370000Y-105970000D01*
X147630000Y-105970000D02*
X158370000Y-105970000D01*
X147630000Y-87830000D02*
X158370000Y-87830000D01*
X147630000Y-87830000D02*
X147630000Y-105970000D01*
%TO.C,LOW_BATT1*%
X113500000Y-98500000D02*
X113500000Y-100000000D01*
X114750000Y-102500000D02*
X119250000Y-102500000D01*
X119250000Y-96000000D02*
X114750000Y-96000000D01*
X120500000Y-100000000D02*
X120500000Y-98500000D01*
%TO.C,GEAR_SHIFT1*%
X113600000Y-79200000D02*
X113600000Y-80700000D01*
X114850000Y-83200000D02*
X119350000Y-83200000D01*
X119350000Y-76700000D02*
X114850000Y-76700000D01*
X120600000Y-80700000D02*
X120600000Y-79200000D01*
%TO.C,D1*%
X112365000Y-75135000D02*
X115535000Y-75135000D01*
X115535000Y-75135000D02*
X115535000Y-71250000D01*
X112365000Y-71250000D02*
X112365000Y-75135000D01*
%TO.C,RPM1*%
X173320000Y-56030000D02*
X173320000Y-62270000D01*
X163320000Y-62270000D02*
X173320000Y-62270000D01*
X163320000Y-56030000D02*
X173320000Y-56030000D01*
X163320000Y-55530000D02*
X163320000Y-62770000D01*
X158320000Y-62770000D02*
X163320000Y-62770000D01*
X158320000Y-55530000D02*
X163320000Y-55530000D01*
X158320000Y-50080000D02*
X158320000Y-68220000D01*
X147580000Y-68220000D02*
X158320000Y-68220000D01*
X147580000Y-50080000D02*
X158320000Y-50080000D01*
X147580000Y-50080000D02*
X147580000Y-68220000D01*
%TO.C,COOLANT_TEMP1*%
X173370000Y-74980000D02*
X173370000Y-81220000D01*
X163370000Y-81220000D02*
X173370000Y-81220000D01*
X163370000Y-74980000D02*
X173370000Y-74980000D01*
X163370000Y-74480000D02*
X163370000Y-81720000D01*
X158370000Y-81720000D02*
X163370000Y-81720000D01*
X158370000Y-74480000D02*
X163370000Y-74480000D01*
X158370000Y-69030000D02*
X158370000Y-87170000D01*
X147630000Y-87170000D02*
X158370000Y-87170000D01*
X147630000Y-69030000D02*
X158370000Y-69030000D01*
X147630000Y-69030000D02*
X147630000Y-87170000D01*
%TO.C,J3*%
X124270000Y-51650000D02*
X125600000Y-51650000D01*
X124270000Y-52980000D02*
X124270000Y-51650000D01*
X124270000Y-54250000D02*
X124270000Y-102570000D01*
X124270000Y-54250000D02*
X126930000Y-54250000D01*
X124270000Y-102570000D02*
X126930000Y-102570000D01*
X126930000Y-54250000D02*
X126930000Y-102570000D01*
%TO.C,R1*%
X120905000Y-71776263D02*
X120905000Y-73223737D01*
X118195000Y-71776263D02*
X118195000Y-73223737D01*
%TO.C,J2*%
X142170000Y-51950000D02*
X143500000Y-51950000D01*
X142170000Y-53280000D02*
X142170000Y-51950000D01*
X142170000Y-54550000D02*
X142170000Y-102870000D01*
X142170000Y-54550000D02*
X144830000Y-54550000D01*
X142170000Y-102870000D02*
X144830000Y-102870000D01*
X144830000Y-54550000D02*
X144830000Y-102870000D01*
%TO.C,J1*%
X112630000Y-54830000D02*
X112630000Y-53500000D01*
X113960000Y-54830000D02*
X112630000Y-54830000D01*
X115230000Y-54830000D02*
X120370000Y-54830000D01*
X115230000Y-54830000D02*
X115230000Y-52170000D01*
X120370000Y-54830000D02*
X120370000Y-52170000D01*
X115230000Y-52170000D02*
X120370000Y-52170000D01*
%TO.C,LOW_OIL1*%
X113550000Y-89100000D02*
X113550000Y-90600000D01*
X114800000Y-93100000D02*
X119300000Y-93100000D01*
X119300000Y-86600000D02*
X114800000Y-86600000D01*
X120550000Y-90600000D02*
X120550000Y-89100000D01*
%TD*%
M02*
