G04 #@! TF.GenerationSoftware,KiCad,Pcbnew,7.0.6*
G04 #@! TF.CreationDate,2024-04-12T16:48:44+03:00*
G04 #@! TF.ProjectId,ecu-emulator,6563752d-656d-4756-9c61-746f722e6b69,rev?*
G04 #@! TF.SameCoordinates,Original*
G04 #@! TF.FileFunction,Soldermask,Bot*
G04 #@! TF.FilePolarity,Negative*
%FSLAX46Y46*%
G04 Gerber Fmt 4.6, Leading zero omitted, Abs format (unit mm)*
G04 Created by KiCad (PCBNEW 7.0.6) date 2024-04-12 16:48:44*
%MOMM*%
%LPD*%
G01*
G04 APERTURE LIST*
%ADD10R,3.000000X3.000000*%
%ADD11C,3.000000*%
%ADD12C,2.000000*%
%ADD13R,1.700000X1.700000*%
%ADD14O,1.700000X1.700000*%
G04 APERTURE END LIST*
D10*
X154450000Y-101900000D03*
D11*
X154450000Y-96900000D03*
X154450000Y-91900000D03*
D12*
X111150000Y-97000000D03*
X117650000Y-97000000D03*
X111150000Y-101500000D03*
X117650000Y-101500000D03*
X111250000Y-77700000D03*
X117750000Y-77700000D03*
X111250000Y-82200000D03*
X117750000Y-82200000D03*
D10*
X154400000Y-64150000D03*
D11*
X154400000Y-59150000D03*
X154400000Y-54150000D03*
D13*
X139160000Y-107000000D03*
D14*
X136620000Y-107000000D03*
X134080000Y-107000000D03*
X131540000Y-107000000D03*
X129000000Y-107000000D03*
X126460000Y-107000000D03*
X123920000Y-107000000D03*
D10*
X154450000Y-83100000D03*
D11*
X154450000Y-78100000D03*
X154450000Y-73100000D03*
D13*
X123000000Y-52980000D03*
D14*
X123000000Y-55520000D03*
X123000000Y-58060000D03*
X123000000Y-60600000D03*
X123000000Y-63140000D03*
X123000000Y-65680000D03*
X123000000Y-68220000D03*
X123000000Y-70760000D03*
X123000000Y-73300000D03*
X123000000Y-75840000D03*
X123000000Y-78380000D03*
X123000000Y-80920000D03*
X123000000Y-83460000D03*
X123000000Y-86000000D03*
X123000000Y-88540000D03*
X123000000Y-91080000D03*
X123000000Y-93620000D03*
X123000000Y-96160000D03*
X123000000Y-98700000D03*
X123000000Y-101240000D03*
D13*
X140900000Y-53280000D03*
D14*
X140900000Y-55820000D03*
X140900000Y-58360000D03*
X140900000Y-60900000D03*
X140900000Y-63440000D03*
X140900000Y-65980000D03*
X140900000Y-68520000D03*
X140900000Y-71060000D03*
X140900000Y-73600000D03*
X140900000Y-76140000D03*
X140900000Y-78680000D03*
X140900000Y-81220000D03*
X140900000Y-83760000D03*
X140900000Y-86300000D03*
X140900000Y-88840000D03*
X140900000Y-91380000D03*
X140900000Y-93920000D03*
X140900000Y-96460000D03*
X140900000Y-99000000D03*
X140900000Y-101540000D03*
D13*
X111360000Y-53500000D03*
D14*
X113900000Y-53500000D03*
X116440000Y-53500000D03*
D12*
X111200000Y-87600000D03*
X117700000Y-87600000D03*
X111200000Y-92100000D03*
X117700000Y-92100000D03*
M02*
