M48
; DRILL file {KiCad 7.0.6} date Fri Apr 12 16:48:46 2024
; FORMAT={-:-/ absolute / metric / decimal}
; #@! TF.CreationDate,2024-04-12T16:48:46+03:00
; #@! TF.GenerationSoftware,Kicad,Pcbnew,7.0.6
; #@! TF.FileFunction,Plated,1,2,PTH
FMAT,2
METRIC
; #@! TA.AperFunction,Plated,PTH,ViaDrill
T1C0.400
; #@! TA.AperFunction,Plated,PTH,ComponentDrill
T2C1.000
; #@! TA.AperFunction,Plated,PTH,ComponentDrill
T3C1.100
; #@! TA.AperFunction,Plated,PTH,ComponentDrill
T4C1.200
; #@! TA.AperFunction,Plated,PTH,ViaDrill
T5C4.000
%
G90
G05
T1
X118.65Y-61.3
X118.9Y-67.7
X120.1Y-61.95
X120.25Y-96.75
X120.263Y-98.837
X130.0Y-79.0
X135.0Y-54.0
X135.0Y-95.0
X135.0Y-103.0
X143.86Y-76.14
X146.0Y-68.0
X147.55Y-64.2
X150.75Y-64.2
T2
X111.36Y-53.5
X113.9Y-53.5
X116.44Y-53.5
X123.0Y-52.98
X123.0Y-55.52
X123.0Y-58.06
X123.0Y-60.6
X123.0Y-63.14
X123.0Y-65.68
X123.0Y-68.22
X123.0Y-70.76
X123.0Y-73.3
X123.0Y-75.84
X123.0Y-78.38
X123.0Y-80.92
X123.0Y-83.46
X123.0Y-86.0
X123.0Y-88.54
X123.0Y-91.08
X123.0Y-93.62
X123.0Y-96.16
X123.0Y-98.7
X123.0Y-101.24
X123.92Y-107.0
X126.46Y-107.0
X129.0Y-107.0
X131.54Y-107.0
X134.08Y-107.0
X136.62Y-107.0
X139.16Y-107.0
X140.9Y-53.28
X140.9Y-55.82
X140.9Y-58.36
X140.9Y-60.9
X140.9Y-63.44
X140.9Y-65.98
X140.9Y-68.52
X140.9Y-71.06
X140.9Y-73.6
X140.9Y-76.14
X140.9Y-78.68
X140.9Y-81.22
X140.9Y-83.76
X140.9Y-86.3
X140.9Y-88.84
X140.9Y-91.38
X140.9Y-93.92
X140.9Y-96.46
X140.9Y-99.0
X140.9Y-101.54
T3
X111.15Y-97.0
X111.15Y-101.5
X111.2Y-87.6
X111.2Y-92.1
X111.25Y-77.7
X111.25Y-82.2
X117.65Y-97.0
X117.65Y-101.5
X117.7Y-87.6
X117.7Y-92.1
X117.75Y-77.7
X117.75Y-82.2
T4
X154.4Y-54.15
X154.4Y-59.15
X154.4Y-64.15
X154.45Y-73.1
X154.45Y-78.1
X154.45Y-83.1
X154.45Y-91.9
X154.45Y-96.9
X154.45Y-101.9
T5
X106.0Y-53.0
X106.0Y-109.0
X154.0Y-109.0
T0
M30
