G04 #@! TF.GenerationSoftware,KiCad,Pcbnew,7.0.6*
G04 #@! TF.CreationDate,2024-04-12T16:48:44+03:00*
G04 #@! TF.ProjectId,ecu-emulator,6563752d-656d-4756-9c61-746f722e6b69,rev?*
G04 #@! TF.SameCoordinates,Original*
G04 #@! TF.FileFunction,Legend,Bot*
G04 #@! TF.FilePolarity,Positive*
%FSLAX46Y46*%
G04 Gerber Fmt 4.6, Leading zero omitted, Abs format (unit mm)*
G04 Created by KiCad (PCBNEW 7.0.6) date 2024-04-12 16:48:44*
%MOMM*%
%LPD*%
G01*
G04 APERTURE LIST*
%ADD10C,0.300000*%
%ADD11R,3.000000X3.000000*%
%ADD12C,3.000000*%
%ADD13C,2.000000*%
%ADD14R,1.700000X1.700000*%
%ADD15O,1.700000X1.700000*%
G04 APERTURE END LIST*
D10*
X117335828Y-64054510D02*
X115835828Y-64054510D01*
X115835828Y-64054510D02*
X115835828Y-64411653D01*
X115835828Y-64411653D02*
X115907257Y-64625939D01*
X115907257Y-64625939D02*
X116050114Y-64768796D01*
X116050114Y-64768796D02*
X116192971Y-64840225D01*
X116192971Y-64840225D02*
X116478685Y-64911653D01*
X116478685Y-64911653D02*
X116692971Y-64911653D01*
X116692971Y-64911653D02*
X116978685Y-64840225D01*
X116978685Y-64840225D02*
X117121542Y-64768796D01*
X117121542Y-64768796D02*
X117264400Y-64625939D01*
X117264400Y-64625939D02*
X117335828Y-64411653D01*
X117335828Y-64411653D02*
X117335828Y-64054510D01*
X117335828Y-66411653D02*
X116621542Y-65911653D01*
X117335828Y-65554510D02*
X115835828Y-65554510D01*
X115835828Y-65554510D02*
X115835828Y-66125939D01*
X115835828Y-66125939D02*
X115907257Y-66268796D01*
X115907257Y-66268796D02*
X115978685Y-66340225D01*
X115978685Y-66340225D02*
X116121542Y-66411653D01*
X116121542Y-66411653D02*
X116335828Y-66411653D01*
X116335828Y-66411653D02*
X116478685Y-66340225D01*
X116478685Y-66340225D02*
X116550114Y-66268796D01*
X116550114Y-66268796D02*
X116621542Y-66125939D01*
X116621542Y-66125939D02*
X116621542Y-65554510D01*
X116764400Y-67054510D02*
X116764400Y-68197368D01*
X115835828Y-69197368D02*
X115835828Y-69340225D01*
X115835828Y-69340225D02*
X115907257Y-69483082D01*
X115907257Y-69483082D02*
X115978685Y-69554511D01*
X115978685Y-69554511D02*
X116121542Y-69625939D01*
X116121542Y-69625939D02*
X116407257Y-69697368D01*
X116407257Y-69697368D02*
X116764400Y-69697368D01*
X116764400Y-69697368D02*
X117050114Y-69625939D01*
X117050114Y-69625939D02*
X117192971Y-69554511D01*
X117192971Y-69554511D02*
X117264400Y-69483082D01*
X117264400Y-69483082D02*
X117335828Y-69340225D01*
X117335828Y-69340225D02*
X117335828Y-69197368D01*
X117335828Y-69197368D02*
X117264400Y-69054511D01*
X117264400Y-69054511D02*
X117192971Y-68983082D01*
X117192971Y-68983082D02*
X117050114Y-68911653D01*
X117050114Y-68911653D02*
X116764400Y-68840225D01*
X116764400Y-68840225D02*
X116407257Y-68840225D01*
X116407257Y-68840225D02*
X116121542Y-68911653D01*
X116121542Y-68911653D02*
X115978685Y-68983082D01*
X115978685Y-68983082D02*
X115907257Y-69054511D01*
X115907257Y-69054511D02*
X115835828Y-69197368D01*
X115835828Y-71054510D02*
X115835828Y-70340224D01*
X115835828Y-70340224D02*
X116550114Y-70268796D01*
X116550114Y-70268796D02*
X116478685Y-70340224D01*
X116478685Y-70340224D02*
X116407257Y-70483082D01*
X116407257Y-70483082D02*
X116407257Y-70840224D01*
X116407257Y-70840224D02*
X116478685Y-70983082D01*
X116478685Y-70983082D02*
X116550114Y-71054510D01*
X116550114Y-71054510D02*
X116692971Y-71125939D01*
X116692971Y-71125939D02*
X117050114Y-71125939D01*
X117050114Y-71125939D02*
X117192971Y-71054510D01*
X117192971Y-71054510D02*
X117264400Y-70983082D01*
X117264400Y-70983082D02*
X117335828Y-70840224D01*
X117335828Y-70840224D02*
X117335828Y-70483082D01*
X117335828Y-70483082D02*
X117264400Y-70340224D01*
X117264400Y-70340224D02*
X117192971Y-70268796D01*
X118965114Y-64054510D02*
X118965114Y-64554510D01*
X119750828Y-64768796D02*
X119750828Y-64054510D01*
X119750828Y-64054510D02*
X118250828Y-64054510D01*
X118250828Y-64054510D02*
X118250828Y-64768796D01*
X119607971Y-66268796D02*
X119679400Y-66197368D01*
X119679400Y-66197368D02*
X119750828Y-65983082D01*
X119750828Y-65983082D02*
X119750828Y-65840225D01*
X119750828Y-65840225D02*
X119679400Y-65625939D01*
X119679400Y-65625939D02*
X119536542Y-65483082D01*
X119536542Y-65483082D02*
X119393685Y-65411653D01*
X119393685Y-65411653D02*
X119107971Y-65340225D01*
X119107971Y-65340225D02*
X118893685Y-65340225D01*
X118893685Y-65340225D02*
X118607971Y-65411653D01*
X118607971Y-65411653D02*
X118465114Y-65483082D01*
X118465114Y-65483082D02*
X118322257Y-65625939D01*
X118322257Y-65625939D02*
X118250828Y-65840225D01*
X118250828Y-65840225D02*
X118250828Y-65983082D01*
X118250828Y-65983082D02*
X118322257Y-66197368D01*
X118322257Y-66197368D02*
X118393685Y-66268796D01*
X118250828Y-66911653D02*
X119465114Y-66911653D01*
X119465114Y-66911653D02*
X119607971Y-66983082D01*
X119607971Y-66983082D02*
X119679400Y-67054511D01*
X119679400Y-67054511D02*
X119750828Y-67197368D01*
X119750828Y-67197368D02*
X119750828Y-67483082D01*
X119750828Y-67483082D02*
X119679400Y-67625939D01*
X119679400Y-67625939D02*
X119607971Y-67697368D01*
X119607971Y-67697368D02*
X119465114Y-67768796D01*
X119465114Y-67768796D02*
X118250828Y-67768796D01*
X119179400Y-68483082D02*
X119179400Y-69625940D01*
X118965114Y-70340225D02*
X118965114Y-70840225D01*
X119750828Y-71054511D02*
X119750828Y-70340225D01*
X119750828Y-70340225D02*
X118250828Y-70340225D01*
X118250828Y-70340225D02*
X118250828Y-71054511D01*
X119750828Y-71697368D02*
X118250828Y-71697368D01*
X118250828Y-71697368D02*
X119322257Y-72197368D01*
X119322257Y-72197368D02*
X118250828Y-72697368D01*
X118250828Y-72697368D02*
X119750828Y-72697368D01*
X118250828Y-73411654D02*
X119465114Y-73411654D01*
X119465114Y-73411654D02*
X119607971Y-73483083D01*
X119607971Y-73483083D02*
X119679400Y-73554512D01*
X119679400Y-73554512D02*
X119750828Y-73697369D01*
X119750828Y-73697369D02*
X119750828Y-73983083D01*
X119750828Y-73983083D02*
X119679400Y-74125940D01*
X119679400Y-74125940D02*
X119607971Y-74197369D01*
X119607971Y-74197369D02*
X119465114Y-74268797D01*
X119465114Y-74268797D02*
X118250828Y-74268797D01*
X119750828Y-75697369D02*
X119750828Y-74983083D01*
X119750828Y-74983083D02*
X118250828Y-74983083D01*
X119322257Y-76125941D02*
X119322257Y-76840227D01*
X119750828Y-75983084D02*
X118250828Y-76483084D01*
X118250828Y-76483084D02*
X119750828Y-76983084D01*
X118250828Y-77268798D02*
X118250828Y-78125941D01*
X119750828Y-77697369D02*
X118250828Y-77697369D01*
X118250828Y-78911655D02*
X118250828Y-79197369D01*
X118250828Y-79197369D02*
X118322257Y-79340226D01*
X118322257Y-79340226D02*
X118465114Y-79483083D01*
X118465114Y-79483083D02*
X118750828Y-79554512D01*
X118750828Y-79554512D02*
X119250828Y-79554512D01*
X119250828Y-79554512D02*
X119536542Y-79483083D01*
X119536542Y-79483083D02*
X119679400Y-79340226D01*
X119679400Y-79340226D02*
X119750828Y-79197369D01*
X119750828Y-79197369D02*
X119750828Y-78911655D01*
X119750828Y-78911655D02*
X119679400Y-78768798D01*
X119679400Y-78768798D02*
X119536542Y-78625940D01*
X119536542Y-78625940D02*
X119250828Y-78554512D01*
X119250828Y-78554512D02*
X118750828Y-78554512D01*
X118750828Y-78554512D02*
X118465114Y-78625940D01*
X118465114Y-78625940D02*
X118322257Y-78768798D01*
X118322257Y-78768798D02*
X118250828Y-78911655D01*
X119750828Y-81054512D02*
X119036542Y-80554512D01*
X119750828Y-80197369D02*
X118250828Y-80197369D01*
X118250828Y-80197369D02*
X118250828Y-80768798D01*
X118250828Y-80768798D02*
X118322257Y-80911655D01*
X118322257Y-80911655D02*
X118393685Y-80983084D01*
X118393685Y-80983084D02*
X118536542Y-81054512D01*
X118536542Y-81054512D02*
X118750828Y-81054512D01*
X118750828Y-81054512D02*
X118893685Y-80983084D01*
X118893685Y-80983084D02*
X118965114Y-80911655D01*
X118965114Y-80911655D02*
X119036542Y-80768798D01*
X119036542Y-80768798D02*
X119036542Y-80197369D01*
X118250828Y-82625941D02*
X118250828Y-83483084D01*
X119750828Y-83054512D02*
X118250828Y-83054512D01*
X118965114Y-83983083D02*
X118965114Y-84483083D01*
X119750828Y-84697369D02*
X119750828Y-83983083D01*
X119750828Y-83983083D02*
X118250828Y-83983083D01*
X118250828Y-83983083D02*
X118250828Y-84697369D01*
X119679400Y-85268798D02*
X119750828Y-85483084D01*
X119750828Y-85483084D02*
X119750828Y-85840226D01*
X119750828Y-85840226D02*
X119679400Y-85983084D01*
X119679400Y-85983084D02*
X119607971Y-86054512D01*
X119607971Y-86054512D02*
X119465114Y-86125941D01*
X119465114Y-86125941D02*
X119322257Y-86125941D01*
X119322257Y-86125941D02*
X119179400Y-86054512D01*
X119179400Y-86054512D02*
X119107971Y-85983084D01*
X119107971Y-85983084D02*
X119036542Y-85840226D01*
X119036542Y-85840226D02*
X118965114Y-85554512D01*
X118965114Y-85554512D02*
X118893685Y-85411655D01*
X118893685Y-85411655D02*
X118822257Y-85340226D01*
X118822257Y-85340226D02*
X118679400Y-85268798D01*
X118679400Y-85268798D02*
X118536542Y-85268798D01*
X118536542Y-85268798D02*
X118393685Y-85340226D01*
X118393685Y-85340226D02*
X118322257Y-85411655D01*
X118322257Y-85411655D02*
X118250828Y-85554512D01*
X118250828Y-85554512D02*
X118250828Y-85911655D01*
X118250828Y-85911655D02*
X118322257Y-86125941D01*
X118250828Y-86554512D02*
X118250828Y-87411655D01*
X119750828Y-86983083D02*
X118250828Y-86983083D01*
X118965114Y-89554511D02*
X119036542Y-89768797D01*
X119036542Y-89768797D02*
X119107971Y-89840226D01*
X119107971Y-89840226D02*
X119250828Y-89911654D01*
X119250828Y-89911654D02*
X119465114Y-89911654D01*
X119465114Y-89911654D02*
X119607971Y-89840226D01*
X119607971Y-89840226D02*
X119679400Y-89768797D01*
X119679400Y-89768797D02*
X119750828Y-89625940D01*
X119750828Y-89625940D02*
X119750828Y-89054511D01*
X119750828Y-89054511D02*
X118250828Y-89054511D01*
X118250828Y-89054511D02*
X118250828Y-89554511D01*
X118250828Y-89554511D02*
X118322257Y-89697369D01*
X118322257Y-89697369D02*
X118393685Y-89768797D01*
X118393685Y-89768797D02*
X118536542Y-89840226D01*
X118536542Y-89840226D02*
X118679400Y-89840226D01*
X118679400Y-89840226D02*
X118822257Y-89768797D01*
X118822257Y-89768797D02*
X118893685Y-89697369D01*
X118893685Y-89697369D02*
X118965114Y-89554511D01*
X118965114Y-89554511D02*
X118965114Y-89054511D01*
X118250828Y-90840226D02*
X118250828Y-91125940D01*
X118250828Y-91125940D02*
X118322257Y-91268797D01*
X118322257Y-91268797D02*
X118465114Y-91411654D01*
X118465114Y-91411654D02*
X118750828Y-91483083D01*
X118750828Y-91483083D02*
X119250828Y-91483083D01*
X119250828Y-91483083D02*
X119536542Y-91411654D01*
X119536542Y-91411654D02*
X119679400Y-91268797D01*
X119679400Y-91268797D02*
X119750828Y-91125940D01*
X119750828Y-91125940D02*
X119750828Y-90840226D01*
X119750828Y-90840226D02*
X119679400Y-90697369D01*
X119679400Y-90697369D02*
X119536542Y-90554511D01*
X119536542Y-90554511D02*
X119250828Y-90483083D01*
X119250828Y-90483083D02*
X118750828Y-90483083D01*
X118750828Y-90483083D02*
X118465114Y-90554511D01*
X118465114Y-90554511D02*
X118322257Y-90697369D01*
X118322257Y-90697369D02*
X118250828Y-90840226D01*
X119322257Y-92054512D02*
X119322257Y-92768798D01*
X119750828Y-91911655D02*
X118250828Y-92411655D01*
X118250828Y-92411655D02*
X119750828Y-92911655D01*
X119750828Y-94268797D02*
X119036542Y-93768797D01*
X119750828Y-93411654D02*
X118250828Y-93411654D01*
X118250828Y-93411654D02*
X118250828Y-93983083D01*
X118250828Y-93983083D02*
X118322257Y-94125940D01*
X118322257Y-94125940D02*
X118393685Y-94197369D01*
X118393685Y-94197369D02*
X118536542Y-94268797D01*
X118536542Y-94268797D02*
X118750828Y-94268797D01*
X118750828Y-94268797D02*
X118893685Y-94197369D01*
X118893685Y-94197369D02*
X118965114Y-94125940D01*
X118965114Y-94125940D02*
X119036542Y-93983083D01*
X119036542Y-93983083D02*
X119036542Y-93411654D01*
X119750828Y-94911654D02*
X118250828Y-94911654D01*
X118250828Y-94911654D02*
X118250828Y-95268797D01*
X118250828Y-95268797D02*
X118322257Y-95483083D01*
X118322257Y-95483083D02*
X118465114Y-95625940D01*
X118465114Y-95625940D02*
X118607971Y-95697369D01*
X118607971Y-95697369D02*
X118893685Y-95768797D01*
X118893685Y-95768797D02*
X119107971Y-95768797D01*
X119107971Y-95768797D02*
X119393685Y-95697369D01*
X119393685Y-95697369D02*
X119536542Y-95625940D01*
X119536542Y-95625940D02*
X119679400Y-95483083D01*
X119679400Y-95483083D02*
X119750828Y-95268797D01*
X119750828Y-95268797D02*
X119750828Y-94911654D01*
G36*
X133522187Y-71050533D02*
G01*
X133522187Y-71556928D01*
X133346703Y-71556928D01*
X133171220Y-71556928D01*
X133171220Y-71241058D01*
X133171220Y-70925187D01*
X132128346Y-70925187D01*
X131085472Y-70925187D01*
X131085472Y-70734662D01*
X131085472Y-70544137D01*
X132303829Y-70544137D01*
X133522187Y-70544137D01*
X133522187Y-71050533D01*
G37*
G36*
X131436439Y-75106711D02*
G01*
X131436439Y-75307264D01*
X132479313Y-75307264D01*
X133522187Y-75307264D01*
X133522187Y-75497789D01*
X133522187Y-75688314D01*
X132479313Y-75688314D01*
X131436439Y-75688314D01*
X131436439Y-75888867D01*
X131436439Y-76089419D01*
X131260955Y-76089419D01*
X131085472Y-76089419D01*
X131085472Y-75497789D01*
X131085472Y-74906158D01*
X131260955Y-74906158D01*
X131436439Y-74906158D01*
X131436439Y-75106711D01*
G37*
G36*
X131436439Y-81945558D02*
G01*
X131436439Y-82146111D01*
X132479313Y-82146111D01*
X133522187Y-82146111D01*
X133522187Y-82336636D01*
X133522187Y-82527161D01*
X132479313Y-82527161D01*
X131436439Y-82527161D01*
X131436439Y-82727714D01*
X131436439Y-82928267D01*
X131260955Y-82928267D01*
X131085472Y-82928267D01*
X131085472Y-82336636D01*
X131085472Y-81745006D01*
X131260955Y-81745006D01*
X131436439Y-81745006D01*
X131436439Y-81945558D01*
G37*
G36*
X131436439Y-83780616D02*
G01*
X131436439Y-83981168D01*
X132479313Y-83981168D01*
X133522187Y-83981168D01*
X133522187Y-84171693D01*
X133522187Y-84362218D01*
X132479313Y-84362218D01*
X131436439Y-84362218D01*
X131436439Y-84562771D01*
X131436439Y-84763324D01*
X131260955Y-84763324D01*
X131085472Y-84763324D01*
X131085472Y-84171693D01*
X131085472Y-83580063D01*
X131260955Y-83580063D01*
X131436439Y-83580063D01*
X131436439Y-83780616D01*
G37*
G36*
X133522187Y-63464627D02*
G01*
X133522187Y-63655152D01*
X132990722Y-63655152D01*
X132459258Y-63655152D01*
X132459258Y-63905843D01*
X132459258Y-64156534D01*
X132283774Y-64156534D01*
X132108291Y-64156534D01*
X132108291Y-63905843D01*
X132108291Y-63655152D01*
X131772365Y-63655152D01*
X131436439Y-63655152D01*
X131436439Y-63971022D01*
X131436439Y-64286893D01*
X131260955Y-64286893D01*
X131085472Y-64286893D01*
X131085472Y-63780497D01*
X131085472Y-63274102D01*
X132303829Y-63274102D01*
X133522187Y-63274102D01*
X133522187Y-63464627D01*
G37*
G36*
X133522187Y-79619147D02*
G01*
X133522187Y-80140584D01*
X133346703Y-80140584D01*
X133171220Y-80140584D01*
X133171220Y-79809672D01*
X133171220Y-79478760D01*
X132800197Y-79478760D01*
X132429175Y-79478760D01*
X132429175Y-79744492D01*
X132429175Y-80010225D01*
X132253691Y-80010225D01*
X132078208Y-80010225D01*
X132078208Y-79744492D01*
X132078208Y-79478760D01*
X131757323Y-79478760D01*
X131436439Y-79478760D01*
X131436439Y-79809672D01*
X131436439Y-80140584D01*
X131260955Y-80140584D01*
X131085472Y-80140584D01*
X131085472Y-79619147D01*
X131085472Y-79097710D01*
X132303829Y-79097710D01*
X133522187Y-79097710D01*
X133522187Y-79619147D01*
G37*
G36*
X133522187Y-85465258D02*
G01*
X133522187Y-85986695D01*
X133346703Y-85986695D01*
X133171220Y-85986695D01*
X133171220Y-85655783D01*
X133171220Y-85324871D01*
X132800197Y-85324871D01*
X132429175Y-85324871D01*
X132429175Y-85590604D01*
X132429175Y-85856336D01*
X132253691Y-85856336D01*
X132078208Y-85856336D01*
X132078208Y-85590604D01*
X132078208Y-85324871D01*
X131757323Y-85324871D01*
X131436439Y-85324871D01*
X131436439Y-85655783D01*
X131436439Y-85986695D01*
X131260955Y-85986695D01*
X131085472Y-85986695D01*
X131085472Y-85465258D01*
X131085472Y-84943821D01*
X132303829Y-84943821D01*
X133522187Y-84943821D01*
X133522187Y-85465258D01*
G37*
G36*
X133522187Y-80531662D02*
G01*
X133522187Y-80702132D01*
X132632234Y-80702923D01*
X132505377Y-80703094D01*
X132379998Y-80703382D01*
X132262123Y-80703773D01*
X132153146Y-80704256D01*
X132054461Y-80704822D01*
X131967465Y-80705459D01*
X131893550Y-80706159D01*
X131834112Y-80706910D01*
X131790545Y-80707702D01*
X131764245Y-80708525D01*
X131756604Y-80709369D01*
X131768225Y-80712675D01*
X131797857Y-80720652D01*
X131844101Y-80732933D01*
X131905556Y-80749152D01*
X131980823Y-80768940D01*
X132068501Y-80791931D01*
X132167189Y-80817757D01*
X132275489Y-80846052D01*
X132391999Y-80876448D01*
X132515320Y-80908578D01*
X132644050Y-80942075D01*
X133517173Y-81169127D01*
X133519892Y-81366818D01*
X133522611Y-81564508D01*
X132304041Y-81564508D01*
X131085472Y-81564508D01*
X131085472Y-81394038D01*
X131085472Y-81223569D01*
X131814147Y-81223569D01*
X131922554Y-81223522D01*
X132035805Y-81223371D01*
X132141503Y-81223122D01*
X132238085Y-81222785D01*
X132323990Y-81222370D01*
X132397654Y-81221884D01*
X132457514Y-81221337D01*
X132502008Y-81220737D01*
X132529572Y-81220095D01*
X132538643Y-81219418D01*
X132530244Y-81216805D01*
X132503827Y-81209541D01*
X132460910Y-81198070D01*
X132403027Y-81182793D01*
X132331715Y-81164112D01*
X132248512Y-81142428D01*
X132154954Y-81118143D01*
X132052578Y-81091657D01*
X131942920Y-81063373D01*
X131827517Y-81033691D01*
X131724767Y-81007290D01*
X131613682Y-80978724D01*
X131509422Y-80951887D01*
X131413562Y-80927188D01*
X131327678Y-80905032D01*
X131253345Y-80885827D01*
X131192137Y-80869978D01*
X131145631Y-80857894D01*
X131115400Y-80849979D01*
X131103020Y-80846641D01*
X131098900Y-80844686D01*
X131094311Y-80838940D01*
X131090897Y-80827504D01*
X131088487Y-80807984D01*
X131086911Y-80777986D01*
X131085997Y-80735115D01*
X131085575Y-80676978D01*
X131085472Y-80601180D01*
X131085472Y-80361192D01*
X132303829Y-80361192D01*
X133522187Y-80361192D01*
X133522187Y-80531662D01*
G37*
G36*
X132100770Y-69132473D02*
G01*
X133116068Y-69135254D01*
X133186261Y-69158777D01*
X133213171Y-69168266D01*
X133291091Y-69203059D01*
X133356300Y-69245704D01*
X133414200Y-69299536D01*
X133464659Y-69363370D01*
X133507691Y-69444941D01*
X133535973Y-69538215D01*
X133537329Y-69544908D01*
X133544190Y-69591169D01*
X133549173Y-69645253D01*
X133551278Y-69696802D01*
X133550371Y-69744320D01*
X133537172Y-69854616D01*
X133508428Y-69952656D01*
X133464225Y-70038198D01*
X133404647Y-70111001D01*
X133375154Y-70138361D01*
X133314340Y-70183350D01*
X133246174Y-70218013D01*
X133164446Y-70245836D01*
X133161277Y-70246729D01*
X133148383Y-70250252D01*
X133135446Y-70253368D01*
X133121216Y-70256105D01*
X133104441Y-70258493D01*
X133083871Y-70260561D01*
X133058255Y-70262338D01*
X133026343Y-70263853D01*
X132986883Y-70265136D01*
X132938624Y-70266216D01*
X132880317Y-70267122D01*
X132810710Y-70267883D01*
X132728552Y-70268529D01*
X132632593Y-70269089D01*
X132521582Y-70269592D01*
X132394268Y-70270067D01*
X132249400Y-70270544D01*
X132085728Y-70271052D01*
X131085472Y-70274123D01*
X131085472Y-70088246D01*
X131085472Y-69902369D01*
X132047631Y-69902369D01*
X132233413Y-69902265D01*
X132400742Y-69901950D01*
X132548572Y-69901420D01*
X132677179Y-69900672D01*
X132786842Y-69899704D01*
X132877838Y-69898512D01*
X132950445Y-69897093D01*
X133004942Y-69895445D01*
X133041606Y-69893564D01*
X133060715Y-69891447D01*
X133081063Y-69886209D01*
X133133653Y-69861292D01*
X133171230Y-69823082D01*
X133193783Y-69771590D01*
X133201303Y-69706830D01*
X133200507Y-69684303D01*
X133188094Y-69623858D01*
X133160652Y-69576686D01*
X133118189Y-69542800D01*
X133060715Y-69522212D01*
X133041793Y-69520109D01*
X133005248Y-69518226D01*
X132950872Y-69516576D01*
X132878388Y-69515156D01*
X132787516Y-69513962D01*
X132677980Y-69512993D01*
X132549501Y-69512244D01*
X132401802Y-69511712D01*
X132234605Y-69511396D01*
X132047631Y-69511291D01*
X131085472Y-69511291D01*
X131085472Y-69320491D01*
X131085472Y-69129691D01*
X132100770Y-69132473D01*
G37*
G36*
X132100770Y-76272149D02*
G01*
X133116068Y-76274931D01*
X133186261Y-76298454D01*
X133213171Y-76307942D01*
X133291091Y-76342736D01*
X133356300Y-76385380D01*
X133414200Y-76439212D01*
X133464659Y-76503047D01*
X133507691Y-76584617D01*
X133535973Y-76677891D01*
X133537329Y-76684584D01*
X133544190Y-76730845D01*
X133549173Y-76784929D01*
X133551278Y-76836478D01*
X133550371Y-76883996D01*
X133537172Y-76994293D01*
X133508428Y-77092332D01*
X133464225Y-77177874D01*
X133404647Y-77250677D01*
X133375154Y-77278037D01*
X133314340Y-77323027D01*
X133246174Y-77357689D01*
X133164446Y-77385512D01*
X133161277Y-77386405D01*
X133148383Y-77389929D01*
X133135446Y-77393044D01*
X133121216Y-77395781D01*
X133104441Y-77398169D01*
X133083871Y-77400237D01*
X133058255Y-77402014D01*
X133026343Y-77403529D01*
X132986883Y-77404812D01*
X132938624Y-77405892D01*
X132880317Y-77406798D01*
X132810710Y-77407560D01*
X132728552Y-77408206D01*
X132632593Y-77408766D01*
X132521582Y-77409268D01*
X132394268Y-77409744D01*
X132249400Y-77410221D01*
X132085728Y-77410728D01*
X131085472Y-77413800D01*
X131085472Y-77227922D01*
X131085472Y-77042045D01*
X132047631Y-77042045D01*
X132233413Y-77041941D01*
X132400742Y-77041626D01*
X132548572Y-77041096D01*
X132677179Y-77040349D01*
X132786842Y-77039380D01*
X132877838Y-77038188D01*
X132950445Y-77036770D01*
X133004942Y-77035121D01*
X133041606Y-77033240D01*
X133060715Y-77031123D01*
X133081063Y-77025885D01*
X133133653Y-77000968D01*
X133171230Y-76962758D01*
X133193783Y-76911266D01*
X133201303Y-76846506D01*
X133200507Y-76823979D01*
X133188094Y-76763534D01*
X133160652Y-76716363D01*
X133118189Y-76682476D01*
X133060715Y-76661888D01*
X133041793Y-76659785D01*
X133005248Y-76657902D01*
X132950872Y-76656252D01*
X132878388Y-76654832D01*
X132787516Y-76653639D01*
X132677980Y-76652669D01*
X132549501Y-76651920D01*
X132401802Y-76651388D01*
X132234605Y-76651072D01*
X132047631Y-76650967D01*
X131085472Y-76650967D01*
X131085472Y-76460167D01*
X131085472Y-76269367D01*
X132100770Y-76272149D01*
G37*
G36*
X131436439Y-77683813D02*
G01*
X132303829Y-77683813D01*
X133522187Y-77683813D01*
X133522187Y-78018857D01*
X133522013Y-78107320D01*
X133521320Y-78194035D01*
X133520024Y-78264797D01*
X133518045Y-78321816D01*
X133515304Y-78367299D01*
X133511720Y-78403457D01*
X133507212Y-78432497D01*
X133488094Y-78507140D01*
X133448958Y-78596569D01*
X133394551Y-78673010D01*
X133324936Y-78736398D01*
X133240177Y-78786664D01*
X133140335Y-78823741D01*
X133140143Y-78823795D01*
X133127098Y-78827183D01*
X133112590Y-78830125D01*
X133095190Y-78832653D01*
X133073467Y-78834796D01*
X133045991Y-78836588D01*
X133011331Y-78838058D01*
X132968058Y-78839238D01*
X132914741Y-78840160D01*
X132849950Y-78840854D01*
X132772255Y-78841352D01*
X132680226Y-78841684D01*
X132572432Y-78841883D01*
X132447443Y-78841980D01*
X132303829Y-78842005D01*
X132301529Y-78842005D01*
X132158205Y-78841979D01*
X132033485Y-78841881D01*
X131925938Y-78841680D01*
X131834135Y-78841345D01*
X131756644Y-78840845D01*
X131692036Y-78840147D01*
X131638880Y-78839222D01*
X131595747Y-78838038D01*
X131561206Y-78836563D01*
X131533827Y-78834767D01*
X131512179Y-78832618D01*
X131494833Y-78830084D01*
X131480358Y-78827136D01*
X131467324Y-78823741D01*
X131391862Y-78797521D01*
X131303195Y-78750659D01*
X131229657Y-78690659D01*
X131171311Y-78617587D01*
X131128220Y-78531511D01*
X131100446Y-78432497D01*
X131096534Y-78408055D01*
X131092820Y-78373066D01*
X131089962Y-78329072D01*
X131087877Y-78273862D01*
X131086488Y-78205229D01*
X131085712Y-78120964D01*
X131085580Y-78064864D01*
X131436439Y-78064864D01*
X131436439Y-78193098D01*
X131436439Y-78193308D01*
X131438033Y-78264509D01*
X131443648Y-78319087D01*
X131454553Y-78360278D01*
X131472017Y-78391318D01*
X131497310Y-78415442D01*
X131531701Y-78435886D01*
X131581840Y-78460955D01*
X132303829Y-78460955D01*
X133025819Y-78460955D01*
X133075957Y-78435886D01*
X133097665Y-78423884D01*
X133127018Y-78399510D01*
X133148658Y-78366075D01*
X133151513Y-78360289D01*
X133160203Y-78339412D01*
X133165921Y-78316843D01*
X133169264Y-78287993D01*
X133170831Y-78248275D01*
X133171220Y-78193098D01*
X133171220Y-78064864D01*
X132303829Y-78064864D01*
X131436439Y-78064864D01*
X131085580Y-78064864D01*
X131085472Y-78018857D01*
X131085472Y-77683813D01*
X131436439Y-77683813D01*
G37*
G36*
X133522187Y-71834453D02*
G01*
X133522187Y-72014039D01*
X133281524Y-72048491D01*
X133040861Y-72082943D01*
X133040861Y-72300226D01*
X133040861Y-72517510D01*
X133128602Y-72529959D01*
X133136595Y-72531094D01*
X133183189Y-72537713D01*
X133241520Y-72546006D01*
X133304929Y-72555026D01*
X133366759Y-72563827D01*
X133517173Y-72585245D01*
X133519901Y-72779246D01*
X133522629Y-72973247D01*
X133494832Y-72967908D01*
X133487333Y-72966613D01*
X133460714Y-72962176D01*
X133416431Y-72954868D01*
X133355732Y-72944892D01*
X133279862Y-72932451D01*
X133190067Y-72917749D01*
X133087593Y-72900991D01*
X132973686Y-72882379D01*
X132849592Y-72862118D01*
X132716557Y-72840410D01*
X132575826Y-72817461D01*
X132428647Y-72793473D01*
X132276264Y-72768651D01*
X131085492Y-72574733D01*
X131085500Y-72314015D01*
X131085500Y-72299603D01*
X131534388Y-72299603D01*
X131539350Y-72300941D01*
X131562237Y-72305119D01*
X131602000Y-72311613D01*
X131656822Y-72320149D01*
X131724886Y-72330453D01*
X131804378Y-72342252D01*
X131893479Y-72355271D01*
X131990375Y-72369236D01*
X132093249Y-72383875D01*
X132156311Y-72392795D01*
X132257226Y-72407083D01*
X132351771Y-72420486D01*
X132438018Y-72432730D01*
X132514042Y-72443540D01*
X132577915Y-72452643D01*
X132627710Y-72459763D01*
X132661500Y-72464628D01*
X132677359Y-72466964D01*
X132709949Y-72472067D01*
X132709949Y-72299032D01*
X132709949Y-72125997D01*
X132682373Y-72131320D01*
X132673833Y-72132703D01*
X132646086Y-72136823D01*
X132601685Y-72143236D01*
X132542512Y-72151677D01*
X132470447Y-72161880D01*
X132387374Y-72173578D01*
X132295174Y-72186504D01*
X132195730Y-72200394D01*
X132090922Y-72214980D01*
X132011163Y-72226134D01*
X131912382Y-72240163D01*
X131821325Y-72253335D01*
X131739729Y-72265387D01*
X131669328Y-72276054D01*
X131611859Y-72285074D01*
X131569055Y-72292181D01*
X131542653Y-72297112D01*
X131534388Y-72299603D01*
X131085500Y-72299603D01*
X131085507Y-72053296D01*
X132276271Y-71859354D01*
X132385171Y-71841614D01*
X132533971Y-71817364D01*
X132676679Y-71794094D01*
X132709949Y-71788666D01*
X132812048Y-71772008D01*
X132938834Y-71751310D01*
X133055789Y-71732204D01*
X133161669Y-71714894D01*
X133255228Y-71699582D01*
X133335221Y-71686474D01*
X133400401Y-71675771D01*
X133449523Y-71667679D01*
X133481342Y-71662401D01*
X133494611Y-71660139D01*
X133522187Y-71654867D01*
X133522187Y-71834453D01*
G37*
G36*
X133522187Y-86284275D02*
G01*
X133522187Y-86463862D01*
X133281524Y-86498313D01*
X133040861Y-86532765D01*
X133040861Y-86750049D01*
X133040861Y-86967332D01*
X133128602Y-86979782D01*
X133136595Y-86980916D01*
X133183189Y-86987535D01*
X133241520Y-86995828D01*
X133304929Y-87004848D01*
X133366759Y-87013649D01*
X133517173Y-87035067D01*
X133519901Y-87229068D01*
X133522629Y-87423070D01*
X133494832Y-87417730D01*
X133487333Y-87416435D01*
X133460714Y-87411999D01*
X133416431Y-87404691D01*
X133355732Y-87394714D01*
X133279862Y-87382273D01*
X133190067Y-87367572D01*
X133087593Y-87350813D01*
X132973686Y-87332201D01*
X132849592Y-87311940D01*
X132716557Y-87290233D01*
X132575826Y-87267283D01*
X132428647Y-87243296D01*
X132276264Y-87218473D01*
X131085492Y-87024556D01*
X131085500Y-86763837D01*
X131085500Y-86749425D01*
X131534388Y-86749425D01*
X131539350Y-86750764D01*
X131562237Y-86754942D01*
X131602000Y-86761435D01*
X131656822Y-86769971D01*
X131724886Y-86780275D01*
X131804378Y-86792074D01*
X131893479Y-86805093D01*
X131990375Y-86819059D01*
X132093249Y-86833697D01*
X132156311Y-86842617D01*
X132257226Y-86856906D01*
X132351771Y-86870309D01*
X132438018Y-86882552D01*
X132514042Y-86893362D01*
X132577915Y-86902465D01*
X132627710Y-86909586D01*
X132661500Y-86914451D01*
X132677359Y-86916786D01*
X132709949Y-86921890D01*
X132709949Y-86748854D01*
X132709949Y-86575819D01*
X132682373Y-86581143D01*
X132673833Y-86582526D01*
X132646086Y-86586645D01*
X132601685Y-86593059D01*
X132542512Y-86601500D01*
X132470447Y-86611702D01*
X132387374Y-86623400D01*
X132295174Y-86636327D01*
X132195730Y-86650216D01*
X132090922Y-86664802D01*
X132011163Y-86675956D01*
X131912382Y-86689985D01*
X131821325Y-86703158D01*
X131739729Y-86715209D01*
X131669328Y-86725877D01*
X131611859Y-86734896D01*
X131569055Y-86742003D01*
X131542653Y-86746934D01*
X131534388Y-86749425D01*
X131085500Y-86749425D01*
X131085507Y-86503119D01*
X132276271Y-86309177D01*
X132385171Y-86291437D01*
X132533971Y-86267186D01*
X132676679Y-86243916D01*
X132709949Y-86238488D01*
X132812048Y-86221830D01*
X132938834Y-86201133D01*
X133055789Y-86182027D01*
X133161669Y-86164716D01*
X133255228Y-86149405D01*
X133335221Y-86136296D01*
X133400401Y-86125594D01*
X133449523Y-86117501D01*
X133481342Y-86112223D01*
X133494611Y-86109962D01*
X133522187Y-86104689D01*
X133522187Y-86284275D01*
G37*
G36*
X131436439Y-65861232D02*
G01*
X132303069Y-65861232D01*
X133522187Y-65861232D01*
X133522187Y-66051757D01*
X133522187Y-66242282D01*
X133000750Y-66242282D01*
X132479313Y-66242282D01*
X132479369Y-66340051D01*
X132479636Y-66361830D01*
X132481774Y-66408875D01*
X132485583Y-66449825D01*
X132490498Y-66477705D01*
X132502636Y-66506466D01*
X132532790Y-66547449D01*
X132572260Y-66581872D01*
X132614912Y-66603528D01*
X132620027Y-66604828D01*
X132647098Y-66608585D01*
X132691735Y-66612018D01*
X132754436Y-66615150D01*
X132835700Y-66618002D01*
X132936023Y-66620596D01*
X133055902Y-66622954D01*
X133163838Y-66625022D01*
X133259482Y-66627339D01*
X133337156Y-66629839D01*
X133397933Y-66632571D01*
X133442884Y-66635582D01*
X133473082Y-66638921D01*
X133489597Y-66642638D01*
X133522187Y-66655377D01*
X133522187Y-66849935D01*
X133522185Y-66857318D01*
X133522035Y-66916568D01*
X133521670Y-66967946D01*
X133521129Y-67008404D01*
X133520453Y-67034899D01*
X133519680Y-67044384D01*
X133514889Y-67043080D01*
X133495582Y-67037041D01*
X133467035Y-67027763D01*
X133455017Y-67024358D01*
X133435465Y-67020551D01*
X133409543Y-67017309D01*
X133375298Y-67014530D01*
X133330773Y-67012113D01*
X133274013Y-67009957D01*
X133203065Y-67007958D01*
X133115971Y-67006017D01*
X133010778Y-67004031D01*
X132925173Y-67002436D01*
X132834341Y-67000486D01*
X132759927Y-66998492D01*
X132699907Y-66996349D01*
X132652259Y-66993950D01*
X132614960Y-66991190D01*
X132585987Y-66987964D01*
X132563316Y-66984164D01*
X132544926Y-66979687D01*
X132467151Y-66951748D01*
X132397620Y-66912121D01*
X132343168Y-66861940D01*
X132302097Y-66799948D01*
X132277029Y-66750942D01*
X132248288Y-66801266D01*
X132208417Y-66857208D01*
X132150598Y-66908945D01*
X132077585Y-66949945D01*
X131987959Y-66981190D01*
X131955226Y-66987674D01*
X131900990Y-66993744D01*
X131835041Y-66997855D01*
X131761901Y-67000005D01*
X131686086Y-67000194D01*
X131612116Y-66998420D01*
X131544510Y-66994683D01*
X131487788Y-66988982D01*
X131446467Y-66981315D01*
X131410262Y-66970606D01*
X131321652Y-66933858D01*
X131248678Y-66885538D01*
X131189959Y-66824319D01*
X131144116Y-66748876D01*
X131109767Y-66657883D01*
X131106857Y-66647107D01*
X131102642Y-66626748D01*
X131099185Y-66601688D01*
X131096373Y-66569731D01*
X131094097Y-66528685D01*
X131092245Y-66476357D01*
X131090707Y-66410554D01*
X131089371Y-66329081D01*
X131088284Y-66242282D01*
X131436439Y-66242282D01*
X131436439Y-66359447D01*
X131436832Y-66394700D01*
X131440634Y-66455192D01*
X131449510Y-66500940D01*
X131464718Y-66535361D01*
X131487518Y-66561870D01*
X131519168Y-66583882D01*
X131532950Y-66591358D01*
X131549180Y-66598187D01*
X131568294Y-66603071D01*
X131593728Y-66606439D01*
X131628915Y-66608720D01*
X131677288Y-66610343D01*
X131742282Y-66611737D01*
X131759641Y-66612028D01*
X131831974Y-66612296D01*
X131893850Y-66610964D01*
X131942082Y-66608140D01*
X131973486Y-66603931D01*
X131992686Y-66598847D01*
X132047214Y-66572710D01*
X132087755Y-66532926D01*
X132113077Y-66480582D01*
X132113271Y-66479923D01*
X132121091Y-66441136D01*
X132126393Y-66390437D01*
X132128346Y-66335724D01*
X132128346Y-66242282D01*
X131782392Y-66242282D01*
X131436439Y-66242282D01*
X131088284Y-66242282D01*
X131088127Y-66229747D01*
X131083951Y-65861232D01*
X131436439Y-65861232D01*
G37*
G36*
X132940853Y-73652765D02*
G01*
X133042481Y-73657231D01*
X133130190Y-73669369D01*
X133208365Y-73690008D01*
X133281393Y-73719978D01*
X133324964Y-73743945D01*
X133399872Y-73801804D01*
X133460627Y-73873414D01*
X133506450Y-73957756D01*
X133536561Y-74053809D01*
X133547043Y-74124817D01*
X133550863Y-74209133D01*
X133547331Y-74294701D01*
X133536450Y-74372610D01*
X133512815Y-74457343D01*
X133470442Y-74546997D01*
X133412910Y-74623567D01*
X133340401Y-74686867D01*
X133253092Y-74736710D01*
X133151165Y-74772908D01*
X133117565Y-74780072D01*
X133052583Y-74787900D01*
X132977598Y-74791668D01*
X132898474Y-74791446D01*
X132821074Y-74787302D01*
X132751264Y-74779305D01*
X132694907Y-74767526D01*
X132654123Y-74754800D01*
X132581332Y-74725874D01*
X132511344Y-74688849D01*
X132441561Y-74641889D01*
X132369387Y-74583160D01*
X132292223Y-74510824D01*
X132207473Y-74423047D01*
X132175058Y-74388337D01*
X132096449Y-74305737D01*
X132028072Y-74236972D01*
X131968110Y-74180833D01*
X131914745Y-74136110D01*
X131866158Y-74101596D01*
X131820531Y-74076080D01*
X131776047Y-74058354D01*
X131730888Y-74047208D01*
X131683235Y-74041434D01*
X131631271Y-74039822D01*
X131578293Y-74042811D01*
X131513781Y-74057803D01*
X131464698Y-74085532D01*
X131430896Y-74126137D01*
X131412227Y-74179754D01*
X131408541Y-74246521D01*
X131414684Y-74297318D01*
X131429945Y-74336954D01*
X131457320Y-74367314D01*
X131499959Y-74393463D01*
X131504893Y-74395881D01*
X131532002Y-74406750D01*
X131562820Y-74414133D01*
X131602795Y-74419036D01*
X131657373Y-74422459D01*
X131767351Y-74427672D01*
X131767351Y-74606749D01*
X131767351Y-74785827D01*
X131669581Y-74785477D01*
X131658178Y-74785384D01*
X131533204Y-74776731D01*
X131422353Y-74754180D01*
X131325751Y-74717805D01*
X131243525Y-74667682D01*
X131175800Y-74603888D01*
X131122703Y-74526496D01*
X131084361Y-74435583D01*
X131070149Y-74375361D01*
X131060658Y-74299976D01*
X131057134Y-74219784D01*
X131059890Y-74142243D01*
X131069238Y-74074808D01*
X131090861Y-73997035D01*
X131132617Y-73905656D01*
X131189179Y-73827793D01*
X131260424Y-73763575D01*
X131346227Y-73713134D01*
X131446467Y-73676599D01*
X131478622Y-73669670D01*
X131538816Y-73662238D01*
X131608727Y-73658201D01*
X131682459Y-73657564D01*
X131754116Y-73660335D01*
X131817804Y-73666519D01*
X131867627Y-73676125D01*
X131876292Y-73678576D01*
X131965339Y-73710590D01*
X132051716Y-73754974D01*
X132137828Y-73813339D01*
X132226078Y-73887297D01*
X132318871Y-73978457D01*
X132378658Y-74040866D01*
X132447268Y-74111922D01*
X132504925Y-74170734D01*
X132553156Y-74218708D01*
X132593487Y-74257255D01*
X132627445Y-74287781D01*
X132656555Y-74311696D01*
X132682345Y-74330408D01*
X132706341Y-74345325D01*
X132730069Y-74357855D01*
X132775187Y-74377157D01*
X132851967Y-74399305D01*
X132929923Y-74410212D01*
X133004732Y-74409704D01*
X133072069Y-74397611D01*
X133127612Y-74373757D01*
X133140855Y-74364420D01*
X133173993Y-74326534D01*
X133194314Y-74279005D01*
X133202028Y-74226044D01*
X133197348Y-74171860D01*
X133180485Y-74120662D01*
X133151649Y-74076661D01*
X133111054Y-74044065D01*
X133101836Y-74039168D01*
X133081423Y-74030218D01*
X133058801Y-74024080D01*
X133029508Y-74020032D01*
X132989082Y-74017355D01*
X132933063Y-74015327D01*
X132800197Y-74011376D01*
X132800197Y-73832040D01*
X132800197Y-73652704D01*
X132925966Y-73652704D01*
X132940853Y-73652765D01*
G37*
G36*
X132421568Y-64447690D02*
G01*
X132555110Y-64447771D01*
X132671226Y-64448024D01*
X132771393Y-64448544D01*
X132857084Y-64449430D01*
X132929776Y-64450778D01*
X132990943Y-64452686D01*
X133042060Y-64455250D01*
X133065930Y-64457112D01*
X133084601Y-64458568D01*
X133120043Y-64462738D01*
X133149860Y-64467855D01*
X133175527Y-64474018D01*
X133198519Y-64481323D01*
X133220311Y-64489868D01*
X133242378Y-64499749D01*
X133266195Y-64511065D01*
X133339043Y-64553527D01*
X133412487Y-64616866D01*
X133471291Y-64693391D01*
X133514701Y-64782088D01*
X133541965Y-64881944D01*
X133544940Y-64906830D01*
X133547415Y-64949827D01*
X133548484Y-65001082D01*
X133547925Y-65054174D01*
X133547509Y-65067878D01*
X133544609Y-65124762D01*
X133539574Y-65169352D01*
X133531452Y-65208071D01*
X133519291Y-65247343D01*
X133511838Y-65267785D01*
X133469739Y-65355871D01*
X133415913Y-65428753D01*
X133348639Y-65488401D01*
X133266195Y-65536783D01*
X133247338Y-65545772D01*
X133225017Y-65555956D01*
X133203291Y-65564782D01*
X133180684Y-65572348D01*
X133155722Y-65578750D01*
X133126929Y-65584086D01*
X133092831Y-65588452D01*
X133051952Y-65591946D01*
X133002818Y-65594666D01*
X132943954Y-65596708D01*
X132873884Y-65598169D01*
X132791134Y-65599146D01*
X132694228Y-65599738D01*
X132581692Y-65600040D01*
X132452051Y-65600150D01*
X132303829Y-65600165D01*
X132186090Y-65600158D01*
X132052549Y-65600076D01*
X131936433Y-65599824D01*
X131836266Y-65599304D01*
X131750575Y-65598418D01*
X131677883Y-65597070D01*
X131616716Y-65595162D01*
X131565599Y-65592598D01*
X131523057Y-65589280D01*
X131487615Y-65585110D01*
X131457798Y-65579993D01*
X131432131Y-65573830D01*
X131409140Y-65566525D01*
X131387348Y-65557980D01*
X131365281Y-65548099D01*
X131341464Y-65536783D01*
X131319531Y-65525743D01*
X131242109Y-65475649D01*
X131178914Y-65414007D01*
X131127994Y-65338592D01*
X131087395Y-65247177D01*
X131077746Y-65219013D01*
X131070288Y-65191713D01*
X131065456Y-65163285D01*
X131062693Y-65128998D01*
X131061443Y-65084121D01*
X131061150Y-65023924D01*
X131406356Y-65023924D01*
X131407463Y-65046711D01*
X131421981Y-65105285D01*
X131452180Y-65153730D01*
X131496605Y-65189380D01*
X131541729Y-65214449D01*
X132303829Y-65214449D01*
X133065930Y-65214449D01*
X133111054Y-65189380D01*
X133148756Y-65161738D01*
X133178741Y-65119569D01*
X133181758Y-65113354D01*
X133199860Y-65054474D01*
X133200848Y-64995853D01*
X133185684Y-64941185D01*
X133155331Y-64894168D01*
X133110751Y-64858496D01*
X133065930Y-64833399D01*
X132303829Y-64833399D01*
X131541729Y-64833399D01*
X131496605Y-64858468D01*
X131479253Y-64869523D01*
X131439725Y-64910033D01*
X131414941Y-64962389D01*
X131406356Y-65023924D01*
X131061150Y-65023924D01*
X131061391Y-64967952D01*
X131062544Y-64922014D01*
X131065164Y-64887048D01*
X131069808Y-64858323D01*
X131077034Y-64831108D01*
X131087395Y-64800671D01*
X131096738Y-64776061D01*
X131139748Y-64688878D01*
X131193570Y-64617135D01*
X131260158Y-64558606D01*
X131341464Y-64511065D01*
X131360321Y-64502076D01*
X131382641Y-64491892D01*
X131404368Y-64483066D01*
X131426974Y-64475500D01*
X131451937Y-64469098D01*
X131480729Y-64463762D01*
X131514828Y-64459396D01*
X131555706Y-64455902D01*
X131604840Y-64453182D01*
X131663705Y-64451140D01*
X131733775Y-64449679D01*
X131816525Y-64448702D01*
X131913431Y-64448110D01*
X132025967Y-64447808D01*
X132155608Y-64447698D01*
X132303829Y-64447683D01*
X132421568Y-64447690D01*
G37*
G36*
X133522187Y-67430556D02*
G01*
X133522187Y-67596012D01*
X132597973Y-67596012D01*
X132576073Y-67596014D01*
X132442805Y-67596077D01*
X132315701Y-67596232D01*
X132196149Y-67596470D01*
X132085538Y-67596786D01*
X131985259Y-67597172D01*
X131896699Y-67597621D01*
X131821249Y-67598127D01*
X131760297Y-67598682D01*
X131715233Y-67599280D01*
X131687445Y-67599914D01*
X131678324Y-67600577D01*
X131678375Y-67600611D01*
X131689602Y-67602879D01*
X131719192Y-67607906D01*
X131765740Y-67615471D01*
X131827840Y-67625357D01*
X131904088Y-67637343D01*
X131993077Y-67651211D01*
X132093404Y-67666742D01*
X132203662Y-67683716D01*
X132322447Y-67701916D01*
X132448353Y-67721121D01*
X132579976Y-67741112D01*
X132582795Y-67741540D01*
X132714798Y-67761566D01*
X132841398Y-67780807D01*
X132961153Y-67799042D01*
X133072620Y-67816049D01*
X133174355Y-67831607D01*
X133264917Y-67845495D01*
X133342862Y-67857491D01*
X133406748Y-67867375D01*
X133455133Y-67874926D01*
X133486572Y-67879921D01*
X133499625Y-67882140D01*
X133506736Y-67884098D01*
X133513160Y-67888569D01*
X133517500Y-67898141D01*
X133520163Y-67915805D01*
X133521560Y-67944551D01*
X133522098Y-67987372D01*
X133522187Y-68047256D01*
X133522136Y-68097713D01*
X133521708Y-68143382D01*
X133520496Y-68174441D01*
X133518090Y-68193879D01*
X133514082Y-68204687D01*
X133508063Y-68209857D01*
X133499625Y-68212380D01*
X133499545Y-68212398D01*
X133486068Y-68214684D01*
X133454237Y-68219744D01*
X133405493Y-68227356D01*
X133341280Y-68237301D01*
X133263038Y-68249355D01*
X133172212Y-68263297D01*
X133070244Y-68278907D01*
X132958576Y-68295962D01*
X132838650Y-68314242D01*
X132711909Y-68333524D01*
X132579796Y-68353587D01*
X132573536Y-68354537D01*
X132442143Y-68374517D01*
X132316535Y-68393696D01*
X132198117Y-68411854D01*
X132088292Y-68428773D01*
X131988466Y-68444234D01*
X131900044Y-68458018D01*
X131824430Y-68469905D01*
X131763028Y-68479677D01*
X131717243Y-68487116D01*
X131688481Y-68492001D01*
X131678144Y-68494115D01*
X131678298Y-68494219D01*
X131690534Y-68494851D01*
X131721214Y-68495455D01*
X131768947Y-68496023D01*
X131832343Y-68496550D01*
X131910013Y-68497027D01*
X132000568Y-68497450D01*
X132102617Y-68497810D01*
X132214772Y-68498102D01*
X132335643Y-68498318D01*
X132463840Y-68498453D01*
X132597973Y-68498500D01*
X133522187Y-68498500D01*
X133522187Y-68678997D01*
X133522187Y-68859494D01*
X132303829Y-68859494D01*
X131085472Y-68859494D01*
X131085472Y-68583734D01*
X131085474Y-68576804D01*
X131085730Y-68505329D01*
X131086375Y-68441108D01*
X131087352Y-68386702D01*
X131088603Y-68344671D01*
X131090070Y-68317575D01*
X131091696Y-68307975D01*
X131098167Y-68307164D01*
X131123069Y-68303784D01*
X131165271Y-68297958D01*
X131223326Y-68289891D01*
X131295787Y-68279784D01*
X131381207Y-68267839D01*
X131478138Y-68254260D01*
X131585134Y-68239248D01*
X131700746Y-68223007D01*
X131823529Y-68205737D01*
X131952034Y-68187643D01*
X132049944Y-68173862D01*
X132174571Y-68156358D01*
X132292517Y-68139834D01*
X132402318Y-68124495D01*
X132502510Y-68110542D01*
X132591630Y-68098178D01*
X132668212Y-68087607D01*
X132730792Y-68079032D01*
X132777907Y-68072656D01*
X132808093Y-68068681D01*
X132819885Y-68067311D01*
X132825535Y-68066826D01*
X132829038Y-68062727D01*
X132824733Y-68061809D01*
X132802797Y-68058244D01*
X132763851Y-68052304D01*
X132709638Y-68044238D01*
X132641903Y-68034293D01*
X132562389Y-68022717D01*
X132472840Y-68009758D01*
X132374998Y-67995664D01*
X132270609Y-67980682D01*
X132161415Y-67965062D01*
X132049160Y-67949050D01*
X131935587Y-67932894D01*
X131822441Y-67916843D01*
X131711464Y-67901145D01*
X131604401Y-67886046D01*
X131502994Y-67871796D01*
X131408988Y-67858641D01*
X131324127Y-67846831D01*
X131250153Y-67836612D01*
X131188810Y-67828233D01*
X131141842Y-67821942D01*
X131110993Y-67817986D01*
X131098006Y-67816614D01*
X131095028Y-67814224D01*
X131091774Y-67802624D01*
X131089291Y-67779792D01*
X131087500Y-67743963D01*
X131086320Y-67693374D01*
X131085670Y-67626261D01*
X131085472Y-67540860D01*
X131085472Y-67265100D01*
X132303829Y-67265100D01*
X133522187Y-67265100D01*
X133522187Y-67430556D01*
G37*
G36*
X133522187Y-87776628D02*
G01*
X133522187Y-87942084D01*
X132597973Y-87942084D01*
X132576073Y-87942086D01*
X132442805Y-87942149D01*
X132315701Y-87942304D01*
X132196149Y-87942542D01*
X132085538Y-87942858D01*
X131985259Y-87943244D01*
X131896699Y-87943693D01*
X131821249Y-87944199D01*
X131760297Y-87944754D01*
X131715233Y-87945352D01*
X131687445Y-87945986D01*
X131678324Y-87946649D01*
X131678375Y-87946683D01*
X131689602Y-87948951D01*
X131719192Y-87953978D01*
X131765740Y-87961543D01*
X131827840Y-87971429D01*
X131904088Y-87983415D01*
X131993077Y-87997283D01*
X132093404Y-88012813D01*
X132203662Y-88029788D01*
X132322447Y-88047987D01*
X132448353Y-88067192D01*
X132579976Y-88087184D01*
X132582795Y-88087612D01*
X132714798Y-88107638D01*
X132841398Y-88126879D01*
X132961153Y-88145113D01*
X133072620Y-88162120D01*
X133174355Y-88177679D01*
X133264917Y-88191567D01*
X133342862Y-88203563D01*
X133406748Y-88213447D01*
X133455133Y-88220998D01*
X133486572Y-88225993D01*
X133499625Y-88228212D01*
X133506736Y-88230170D01*
X133513160Y-88234641D01*
X133517500Y-88244213D01*
X133520163Y-88261877D01*
X133521560Y-88290623D01*
X133522098Y-88333443D01*
X133522187Y-88393328D01*
X133522136Y-88443772D01*
X133521708Y-88489446D01*
X133520496Y-88520508D01*
X133518090Y-88539950D01*
X133514082Y-88550764D01*
X133508063Y-88555940D01*
X133499625Y-88558470D01*
X133499544Y-88558487D01*
X133486065Y-88560776D01*
X133454231Y-88565839D01*
X133405484Y-88573455D01*
X133341268Y-88583402D01*
X133263025Y-88595459D01*
X133172196Y-88609404D01*
X133070226Y-88625016D01*
X132958555Y-88642073D01*
X132838628Y-88660354D01*
X132711885Y-88679638D01*
X132579770Y-88699703D01*
X132573483Y-88700657D01*
X132442090Y-88720637D01*
X132316483Y-88739816D01*
X132198065Y-88757973D01*
X132088243Y-88774891D01*
X131988419Y-88790350D01*
X131900000Y-88804131D01*
X131824389Y-88816016D01*
X131762991Y-88825785D01*
X131717210Y-88833221D01*
X131688451Y-88838103D01*
X131678118Y-88840213D01*
X131678272Y-88840316D01*
X131690512Y-88840945D01*
X131721195Y-88841545D01*
X131768931Y-88842110D01*
X131832330Y-88842633D01*
X131910003Y-88843108D01*
X132000560Y-88843528D01*
X132102612Y-88843886D01*
X132214769Y-88844176D01*
X132335641Y-88844391D01*
X132463839Y-88844525D01*
X132597973Y-88844571D01*
X133522187Y-88844571D01*
X133522187Y-89025069D01*
X133522187Y-89205566D01*
X132303829Y-89205566D01*
X131085472Y-89205566D01*
X131085472Y-88929806D01*
X131085474Y-88922876D01*
X131085730Y-88851400D01*
X131086375Y-88787180D01*
X131087352Y-88732774D01*
X131088603Y-88690743D01*
X131090070Y-88663647D01*
X131091696Y-88654046D01*
X131098167Y-88653236D01*
X131123069Y-88649855D01*
X131165271Y-88644030D01*
X131223326Y-88635963D01*
X131295787Y-88625855D01*
X131381207Y-88613911D01*
X131478138Y-88600332D01*
X131585134Y-88585320D01*
X131700746Y-88569078D01*
X131823529Y-88551809D01*
X131952034Y-88533715D01*
X132049944Y-88519933D01*
X132174571Y-88502429D01*
X132292517Y-88485906D01*
X132402318Y-88470566D01*
X132502510Y-88456613D01*
X132591630Y-88444250D01*
X132668212Y-88433679D01*
X132730792Y-88425104D01*
X132777907Y-88418728D01*
X132808093Y-88414753D01*
X132819885Y-88413383D01*
X132825535Y-88412895D01*
X132829018Y-88408778D01*
X132824663Y-88407854D01*
X132802657Y-88404284D01*
X132763649Y-88398342D01*
X132709381Y-88390274D01*
X132641596Y-88380328D01*
X132562038Y-88368752D01*
X132472451Y-88355795D01*
X132374577Y-88341703D01*
X132270160Y-88326724D01*
X132160943Y-88311107D01*
X132048670Y-88295099D01*
X131935084Y-88278947D01*
X131821928Y-88262900D01*
X131710945Y-88247206D01*
X131603880Y-88232111D01*
X131502475Y-88217865D01*
X131408473Y-88204714D01*
X131323619Y-88192906D01*
X131249654Y-88182690D01*
X131188323Y-88174313D01*
X131141370Y-88168022D01*
X131110536Y-88164066D01*
X131097566Y-88162692D01*
X131095549Y-88161446D01*
X131092174Y-88150992D01*
X131089572Y-88128576D01*
X131087672Y-88092580D01*
X131086402Y-88041385D01*
X131085693Y-87973375D01*
X131085472Y-87886932D01*
X131085472Y-87611172D01*
X132303829Y-87611172D01*
X133522187Y-87611172D01*
X133522187Y-87776628D01*
G37*
G36*
X127143289Y-64593567D02*
G01*
X127148849Y-64603860D01*
X127152330Y-64624631D01*
X127154127Y-64659065D01*
X127154639Y-64710349D01*
X127154639Y-64823578D01*
X127081938Y-64877925D01*
X127066988Y-64889168D01*
X127035408Y-64913387D01*
X127011385Y-64932457D01*
X126999210Y-64943001D01*
X126994300Y-64947530D01*
X126974922Y-64962723D01*
X126949072Y-64981173D01*
X126946042Y-64983244D01*
X126910550Y-65007618D01*
X126885336Y-65027021D01*
X126868239Y-65045593D01*
X126857098Y-65067475D01*
X126849751Y-65096809D01*
X126844038Y-65137735D01*
X126837798Y-65194394D01*
X126831242Y-65253669D01*
X126823044Y-65326792D01*
X126814880Y-65398738D01*
X126807809Y-65460126D01*
X126801783Y-65512524D01*
X126793726Y-65583940D01*
X126785568Y-65657421D01*
X126778385Y-65723352D01*
X126771993Y-65782663D01*
X126763766Y-65858754D01*
X126755401Y-65935890D01*
X126747977Y-66004125D01*
X126739644Y-66080707D01*
X126728174Y-66186918D01*
X126718514Y-66277571D01*
X126710386Y-66355341D01*
X126703511Y-66422903D01*
X126697611Y-66482930D01*
X126692407Y-66538097D01*
X126687917Y-66581675D01*
X126679358Y-66638973D01*
X126668039Y-66682039D01*
X126652520Y-66714487D01*
X126631360Y-66739926D01*
X126603119Y-66761970D01*
X126586473Y-66773240D01*
X126557904Y-66793230D01*
X126537939Y-66808019D01*
X126535751Y-66809739D01*
X126515822Y-66824958D01*
X126486293Y-66847115D01*
X126452704Y-66872046D01*
X126435536Y-66884682D01*
X126379566Y-66924870D01*
X126335657Y-66953820D01*
X126300986Y-66972583D01*
X126272731Y-66982209D01*
X126248068Y-66983750D01*
X126224175Y-66978256D01*
X126198229Y-66966778D01*
X126181346Y-66957369D01*
X126165944Y-66945280D01*
X126153939Y-66929397D01*
X126144839Y-66907398D01*
X126138153Y-66876958D01*
X126133389Y-66835754D01*
X126130054Y-66781465D01*
X126127656Y-66711767D01*
X126125704Y-66624336D01*
X126124783Y-66581266D01*
X126122707Y-66497957D01*
X126120034Y-66402094D01*
X126116906Y-66298307D01*
X126113464Y-66191227D01*
X126109849Y-66085485D01*
X126106203Y-65985712D01*
X126102201Y-65878856D01*
X126098291Y-65769415D01*
X126095296Y-65677101D01*
X126093231Y-65600340D01*
X126093210Y-65599170D01*
X126243376Y-65599170D01*
X126244099Y-65653447D01*
X126246414Y-65724486D01*
X126250015Y-65828513D01*
X126253597Y-65927890D01*
X126257010Y-66017183D01*
X126260470Y-66101599D01*
X126264189Y-66186346D01*
X126268382Y-66276629D01*
X126273263Y-66377655D01*
X126275209Y-66416853D01*
X126278706Y-66482320D01*
X126281891Y-66531610D01*
X126285092Y-66567308D01*
X126288634Y-66591996D01*
X126292842Y-66608258D01*
X126298044Y-66618678D01*
X126304563Y-66625839D01*
X126328330Y-66638293D01*
X126365021Y-66643450D01*
X126402978Y-66638473D01*
X126433622Y-66623518D01*
X126445054Y-66614119D01*
X126466234Y-66597185D01*
X126483380Y-66584772D01*
X126504567Y-66570889D01*
X126507302Y-66569032D01*
X126521195Y-66555045D01*
X126532455Y-66533567D01*
X126541671Y-66502087D01*
X126549435Y-66458091D01*
X126556338Y-66399067D01*
X126562970Y-66322503D01*
X126571013Y-66219976D01*
X126578265Y-66130120D01*
X126584521Y-66055923D01*
X126589981Y-65995162D01*
X126594845Y-65945613D01*
X126599313Y-65905053D01*
X126603585Y-65871259D01*
X126607656Y-65838230D01*
X126613244Y-65786172D01*
X126618862Y-65727830D01*
X126623755Y-65670706D01*
X126627676Y-65623631D01*
X126632998Y-65564970D01*
X126638294Y-65511311D01*
X126642851Y-65470154D01*
X126647055Y-65428335D01*
X126650911Y-65372188D01*
X126652637Y-65322246D01*
X126652615Y-65295031D01*
X126650327Y-65266254D01*
X126643138Y-65251471D01*
X126628604Y-65246986D01*
X126604282Y-65249106D01*
X126594948Y-65253677D01*
X126572366Y-65267951D01*
X126541040Y-65289195D01*
X126504909Y-65314628D01*
X126467914Y-65341469D01*
X126433996Y-65366938D01*
X126407095Y-65388254D01*
X126395197Y-65397257D01*
X126371533Y-65414380D01*
X126341916Y-65435379D01*
X126333277Y-65441443D01*
X126301646Y-65464173D01*
X126278121Y-65483943D01*
X126261618Y-65504041D01*
X126251050Y-65527754D01*
X126245331Y-65558368D01*
X126243376Y-65599170D01*
X126093210Y-65599170D01*
X126092110Y-65537555D01*
X126091948Y-65487169D01*
X126092757Y-65447605D01*
X126094554Y-65417287D01*
X126097352Y-65394640D01*
X126101165Y-65378085D01*
X126106007Y-65366047D01*
X126111894Y-65356949D01*
X126118028Y-65350357D01*
X126140185Y-65330367D01*
X126173423Y-65302739D01*
X126214406Y-65270213D01*
X126259801Y-65235525D01*
X126286537Y-65215466D01*
X126327930Y-65184356D01*
X126362219Y-65158517D01*
X126386421Y-65140199D01*
X126397552Y-65131651D01*
X126407447Y-65124017D01*
X126429610Y-65107334D01*
X126457718Y-65086416D01*
X126481336Y-65068853D01*
X126504896Y-65051157D01*
X126517884Y-65041174D01*
X126523808Y-65036599D01*
X126544265Y-65021040D01*
X126576780Y-64996416D01*
X126619030Y-64964485D01*
X126628604Y-64957259D01*
X126668694Y-64927000D01*
X126723450Y-64885719D01*
X126762643Y-64856186D01*
X126814039Y-64817458D01*
X126858708Y-64783799D01*
X126894326Y-64756959D01*
X126918571Y-64738689D01*
X126929121Y-64730737D01*
X126938022Y-64723792D01*
X126959151Y-64706993D01*
X126985961Y-64685491D01*
X127007505Y-64669033D01*
X127030392Y-64653776D01*
X127043515Y-64647888D01*
X127046604Y-64647505D01*
X127054362Y-64638678D01*
X127058400Y-64630841D01*
X127075549Y-64616599D01*
X127099629Y-64602640D01*
X127123458Y-64592933D01*
X127139852Y-64591446D01*
X127143289Y-64593567D01*
G37*
G36*
X126005764Y-65462258D02*
G01*
X126019004Y-65472661D01*
X126020957Y-65480316D01*
X126023662Y-65506998D01*
X126026338Y-65550913D01*
X126028917Y-65610427D01*
X126031330Y-65683909D01*
X126033509Y-65769726D01*
X126035388Y-65866245D01*
X126036799Y-65942110D01*
X126038915Y-66037349D01*
X126041336Y-66130718D01*
X126043954Y-66218579D01*
X126046659Y-66297296D01*
X126049340Y-66363232D01*
X126051888Y-66412751D01*
X126053255Y-66436158D01*
X126056725Y-66502461D01*
X126060408Y-66580911D01*
X126064061Y-66665986D01*
X126067443Y-66752161D01*
X126070313Y-66833912D01*
X126072066Y-66889327D01*
X126074091Y-66958037D01*
X126075744Y-67019659D01*
X126076942Y-67070955D01*
X126077607Y-67108687D01*
X126077658Y-67129614D01*
X126076990Y-67142628D01*
X126074351Y-67154466D01*
X126067752Y-67166556D01*
X126055193Y-67180878D01*
X126034672Y-67199411D01*
X126004186Y-67224137D01*
X125961734Y-67257034D01*
X125905314Y-67300083D01*
X125891225Y-67310814D01*
X125838773Y-67350802D01*
X125790437Y-67387714D01*
X125749180Y-67419283D01*
X125717963Y-67443243D01*
X125699748Y-67457330D01*
X125699002Y-67457913D01*
X125677029Y-67474757D01*
X125643582Y-67500039D01*
X125603073Y-67530434D01*
X125559917Y-67562620D01*
X125554046Y-67566987D01*
X125513710Y-67597136D01*
X125478814Y-67623457D01*
X125452918Y-67643252D01*
X125439585Y-67653820D01*
X125428064Y-67663133D01*
X125403896Y-67681755D01*
X125374733Y-67703629D01*
X125351116Y-67721193D01*
X125327556Y-67738894D01*
X125314568Y-67748885D01*
X125311461Y-67751390D01*
X125281108Y-67774831D01*
X125246289Y-67800367D01*
X125211098Y-67825162D01*
X125179631Y-67846381D01*
X125155984Y-67861192D01*
X125144252Y-67866759D01*
X125135123Y-67866047D01*
X125117462Y-67857500D01*
X125105205Y-67837110D01*
X125097139Y-67802167D01*
X125092053Y-67749958D01*
X125089742Y-67692748D01*
X125091653Y-67644712D01*
X125098417Y-67615742D01*
X125110011Y-67606040D01*
X125119425Y-67602218D01*
X125140697Y-67588572D01*
X125167375Y-67568436D01*
X125188410Y-67551545D01*
X125211317Y-67533267D01*
X125224214Y-67523126D01*
X125238404Y-67511873D01*
X125258966Y-67495096D01*
X125260381Y-67493939D01*
X125287121Y-67473996D01*
X125316625Y-67454354D01*
X125322666Y-67450465D01*
X125341908Y-67435431D01*
X125349664Y-67424725D01*
X125351065Y-67420749D01*
X125363870Y-67415515D01*
X125369882Y-67414838D01*
X125381419Y-67407579D01*
X125384916Y-67403146D01*
X125400976Y-67388667D01*
X125424863Y-67369975D01*
X125444286Y-67355597D01*
X125467324Y-67338385D01*
X125483700Y-67325683D01*
X125499331Y-67312847D01*
X125520134Y-67295236D01*
X125530819Y-67286382D01*
X125550648Y-67271298D01*
X125561217Y-67265261D01*
X125561299Y-67265257D01*
X125572655Y-67259223D01*
X125591300Y-67245231D01*
X125600286Y-67237825D01*
X125614162Y-67226464D01*
X125627772Y-67215527D01*
X125644346Y-67202480D01*
X125667115Y-67184790D01*
X125699309Y-67159924D01*
X125744157Y-67125349D01*
X125852862Y-67041563D01*
X125846239Y-66880079D01*
X125845535Y-66863159D01*
X125842240Y-66788375D01*
X125838339Y-66704931D01*
X125834261Y-66621841D01*
X125830435Y-66548125D01*
X125830281Y-66545232D01*
X125827422Y-66479747D01*
X125824924Y-66401023D01*
X125822937Y-66315543D01*
X125821615Y-66229789D01*
X125821109Y-66150242D01*
X125820942Y-66085464D01*
X125820342Y-66025445D01*
X125819151Y-65980868D01*
X125817205Y-65949238D01*
X125814341Y-65928060D01*
X125810395Y-65914836D01*
X125805206Y-65907072D01*
X125793551Y-65897858D01*
X125776605Y-65891314D01*
X125774087Y-65892303D01*
X125757869Y-65902370D01*
X125729636Y-65921643D01*
X125692208Y-65948058D01*
X125648404Y-65979555D01*
X125601044Y-66014070D01*
X125552946Y-66049542D01*
X125506931Y-66083910D01*
X125465816Y-66115110D01*
X125432423Y-66141081D01*
X125409570Y-66159760D01*
X125395452Y-66171392D01*
X125365883Y-66194431D01*
X125328069Y-66222978D01*
X125285046Y-66254838D01*
X125239847Y-66287818D01*
X125195508Y-66319722D01*
X125155064Y-66348357D01*
X125121549Y-66371527D01*
X125097997Y-66387038D01*
X125087445Y-66392696D01*
X125075900Y-66389022D01*
X125057146Y-66376101D01*
X125052724Y-66371525D01*
X125045657Y-66358699D01*
X125041416Y-66338389D01*
X125039351Y-66306410D01*
X125038808Y-66258579D01*
X125038808Y-66157653D01*
X125071397Y-66129289D01*
X125076653Y-66124799D01*
X125105565Y-66102074D01*
X125131563Y-66084206D01*
X125132782Y-66083460D01*
X125151438Y-66069730D01*
X125159139Y-66059622D01*
X125160645Y-66056147D01*
X125173682Y-66051757D01*
X125180443Y-66050574D01*
X125196245Y-66038719D01*
X125198783Y-66035356D01*
X125215449Y-66019622D01*
X125239360Y-66001387D01*
X125263507Y-65984428D01*
X125289720Y-65964798D01*
X125312409Y-65945775D01*
X125325183Y-65935762D01*
X125349646Y-65917775D01*
X125379747Y-65896328D01*
X125407859Y-65876262D01*
X125432633Y-65857926D01*
X125446459Y-65846881D01*
X125459520Y-65836374D01*
X125483968Y-65818111D01*
X125514145Y-65796355D01*
X125514808Y-65795884D01*
X125542773Y-65774949D01*
X125562686Y-65758021D01*
X125570272Y-65748724D01*
X125570533Y-65746945D01*
X125580213Y-65740900D01*
X125586867Y-65738564D01*
X125606510Y-65726754D01*
X125632196Y-65708712D01*
X125658267Y-65688672D01*
X125679065Y-65670867D01*
X125688933Y-65659533D01*
X125689522Y-65658219D01*
X125700874Y-65650651D01*
X125705250Y-65648654D01*
X125723667Y-65636710D01*
X125753333Y-65615797D01*
X125791324Y-65587996D01*
X125834715Y-65555389D01*
X125884277Y-65518543D01*
X125929095Y-65487917D01*
X125962893Y-65468951D01*
X125987755Y-65460710D01*
X126005764Y-65462258D01*
G37*
G36*
X128826858Y-78890081D02*
G01*
X128865342Y-78908712D01*
X128901621Y-78941973D01*
X128906007Y-78948211D01*
X128910815Y-78960100D01*
X128914290Y-78978209D01*
X128916649Y-79005304D01*
X128918105Y-79044154D01*
X128918874Y-79097523D01*
X128919169Y-79168179D01*
X128919188Y-79190232D01*
X128918914Y-79257084D01*
X128917969Y-79307340D01*
X128916171Y-79343699D01*
X128913338Y-79368858D01*
X128909290Y-79385517D01*
X128903845Y-79396375D01*
X128902936Y-79397570D01*
X128887615Y-79412550D01*
X128859574Y-79436359D01*
X128822004Y-79466520D01*
X128778093Y-79500554D01*
X128731033Y-79535984D01*
X128684013Y-79570334D01*
X128640223Y-79601124D01*
X128635733Y-79604239D01*
X128608645Y-79624292D01*
X128587578Y-79641709D01*
X128573161Y-79653111D01*
X128560062Y-79659258D01*
X128549787Y-79664379D01*
X128533439Y-79679313D01*
X128519104Y-79692649D01*
X128506396Y-79699368D01*
X128494439Y-79704819D01*
X128476200Y-79719215D01*
X128468938Y-79725594D01*
X128443281Y-79745812D01*
X128413947Y-79766817D01*
X128400616Y-79776218D01*
X128377629Y-79794359D01*
X128364977Y-79807136D01*
X128360770Y-79812326D01*
X128347006Y-79819700D01*
X128341550Y-79820705D01*
X128324942Y-79830008D01*
X128318853Y-79834862D01*
X128297855Y-79850760D01*
X128267724Y-79873115D01*
X128233033Y-79898577D01*
X128198359Y-79923794D01*
X128168277Y-79945414D01*
X128147362Y-79960087D01*
X128143783Y-79962587D01*
X128119833Y-79980872D01*
X128093705Y-80002544D01*
X128086144Y-80008970D01*
X128066780Y-80024026D01*
X128056153Y-80030120D01*
X128046820Y-80034756D01*
X128029513Y-80047828D01*
X128012687Y-80061380D01*
X127986800Y-80080418D01*
X127976973Y-80087324D01*
X127951641Y-80105598D01*
X127917807Y-80130312D01*
X127880048Y-80158132D01*
X127853132Y-80177819D01*
X127821840Y-80200032D01*
X127799321Y-80215195D01*
X127789202Y-80220805D01*
X127782369Y-80223836D01*
X127767166Y-80236039D01*
X127756902Y-80244988D01*
X127732627Y-80264202D01*
X127700811Y-80288205D01*
X127665372Y-80314173D01*
X127630225Y-80339284D01*
X127599287Y-80360715D01*
X127576473Y-80375644D01*
X127565701Y-80381247D01*
X127564706Y-80381306D01*
X127554073Y-80389743D01*
X127551385Y-80393030D01*
X127535521Y-80406721D01*
X127508942Y-80427263D01*
X127475523Y-80451605D01*
X127463173Y-80460404D01*
X127416087Y-80494362D01*
X127364906Y-80531750D01*
X127318709Y-80565947D01*
X127296466Y-80582519D01*
X127261131Y-80608650D01*
X127232467Y-80629612D01*
X127215155Y-80641966D01*
X127199872Y-80652519D01*
X127160915Y-80679932D01*
X127119378Y-80709714D01*
X127079058Y-80739083D01*
X127043753Y-80765262D01*
X127017262Y-80785470D01*
X127003383Y-80796929D01*
X126991850Y-80806011D01*
X126975807Y-80812436D01*
X126972001Y-80812847D01*
X126964092Y-80819956D01*
X126960485Y-80825311D01*
X126944181Y-80839528D01*
X126919188Y-80857560D01*
X126901626Y-80869921D01*
X126881865Y-80885843D01*
X126874085Y-80895164D01*
X126873773Y-80896873D01*
X126863864Y-80902684D01*
X126856732Y-80905719D01*
X126835847Y-80918637D01*
X126805635Y-80939367D01*
X126769915Y-80965357D01*
X126745385Y-80983610D01*
X126709817Y-81009866D01*
X126681107Y-81030807D01*
X126663846Y-81043071D01*
X126646693Y-81054995D01*
X126624929Y-81070764D01*
X126623238Y-81072036D01*
X126595869Y-81092441D01*
X126560372Y-81118669D01*
X126520789Y-81147759D01*
X126481163Y-81176756D01*
X126445534Y-81202699D01*
X126417945Y-81222632D01*
X126402438Y-81233596D01*
X126396318Y-81237796D01*
X126371573Y-81255402D01*
X126342682Y-81276566D01*
X126314755Y-81297475D01*
X126292903Y-81314318D01*
X126282234Y-81323281D01*
X126278874Y-81326584D01*
X126261114Y-81340395D01*
X126237850Y-81355977D01*
X126216252Y-81368712D01*
X126203492Y-81373983D01*
X126198426Y-81375750D01*
X126188359Y-81389025D01*
X126184508Y-81394534D01*
X126165981Y-81401812D01*
X126130812Y-81404066D01*
X126117245Y-81403911D01*
X126089062Y-81400614D01*
X126068178Y-81390031D01*
X126045262Y-81368255D01*
X126011488Y-81332445D01*
X126011488Y-81152446D01*
X126011488Y-80972448D01*
X126060262Y-80925032D01*
X126077156Y-80909531D01*
X126113883Y-80878670D01*
X126157165Y-80844651D01*
X126200810Y-80812436D01*
X126231267Y-80790636D01*
X126269375Y-80762891D01*
X126300530Y-80739685D01*
X126319999Y-80724508D01*
X126327483Y-80718460D01*
X126356534Y-80696414D01*
X126387525Y-80674369D01*
X126400074Y-80665605D01*
X126423755Y-80647944D01*
X126437663Y-80635967D01*
X126446938Y-80627847D01*
X126469250Y-80610950D01*
X126497829Y-80590843D01*
X126520358Y-80574811D01*
X126543761Y-80556319D01*
X126555986Y-80544196D01*
X126560337Y-80539189D01*
X126577712Y-80531662D01*
X126583223Y-80531052D01*
X126594762Y-80523726D01*
X126598260Y-80519293D01*
X126614320Y-80504814D01*
X126638206Y-80486122D01*
X126657630Y-80471744D01*
X126680668Y-80454532D01*
X126697044Y-80441830D01*
X126712675Y-80428994D01*
X126733478Y-80411383D01*
X126744163Y-80402529D01*
X126763992Y-80387445D01*
X126774561Y-80381407D01*
X126779224Y-80379868D01*
X126789592Y-80372951D01*
X126808476Y-80358104D01*
X126839253Y-80332789D01*
X126850919Y-80323952D01*
X126874454Y-80306908D01*
X126903948Y-80285985D01*
X126931133Y-80266688D01*
X126955379Y-80249091D01*
X126968643Y-80238974D01*
X126969472Y-80238274D01*
X126989260Y-80222489D01*
X127019833Y-80199104D01*
X127058208Y-80170301D01*
X127101406Y-80138260D01*
X127146445Y-80105164D01*
X127190344Y-80073193D01*
X127230123Y-80044529D01*
X127262801Y-80021355D01*
X127285396Y-80005850D01*
X127294928Y-80000197D01*
X127296302Y-80000085D01*
X127306725Y-79991197D01*
X127308313Y-79989104D01*
X127322458Y-79976319D01*
X127348668Y-79954936D01*
X127383968Y-79927344D01*
X127425385Y-79895931D01*
X127437694Y-79886718D01*
X127481247Y-79854048D01*
X127520355Y-79824608D01*
X127551142Y-79801320D01*
X127569733Y-79787106D01*
X127574224Y-79783645D01*
X127603914Y-79761537D01*
X127634745Y-79739479D01*
X127641882Y-79734437D01*
X127669327Y-79714003D01*
X127690109Y-79697070D01*
X127697151Y-79691124D01*
X127721722Y-79672301D01*
X127750443Y-79651975D01*
X127763774Y-79642573D01*
X127786761Y-79624432D01*
X127799413Y-79611655D01*
X127803811Y-79606656D01*
X127821975Y-79599092D01*
X127828395Y-79598315D01*
X127836540Y-79591571D01*
X127840147Y-79586216D01*
X127856451Y-79571999D01*
X127881444Y-79553967D01*
X127899005Y-79541607D01*
X127918766Y-79525685D01*
X127926546Y-79516364D01*
X127926768Y-79514910D01*
X127936263Y-79508843D01*
X127946273Y-79503915D01*
X127968366Y-79489555D01*
X127998029Y-79468798D01*
X128030985Y-79444713D01*
X128062961Y-79420365D01*
X128089679Y-79398821D01*
X128100471Y-79390254D01*
X128123713Y-79372523D01*
X128152388Y-79351088D01*
X128176006Y-79333525D01*
X128199566Y-79315827D01*
X128212554Y-79305842D01*
X128223113Y-79297829D01*
X128246712Y-79280317D01*
X128279496Y-79256172D01*
X128317844Y-79228069D01*
X128347154Y-79206641D01*
X128381150Y-79181749D01*
X128405302Y-79163920D01*
X128423440Y-79150254D01*
X128439395Y-79137851D01*
X128456997Y-79123810D01*
X128480079Y-79105231D01*
X128501600Y-79088727D01*
X128524145Y-79073501D01*
X128536797Y-79067627D01*
X128538659Y-79067504D01*
X128550151Y-79060106D01*
X128554956Y-79053869D01*
X128572409Y-79037693D01*
X128596989Y-79017696D01*
X128623142Y-78998137D01*
X128645318Y-78983278D01*
X128657965Y-78977378D01*
X128661050Y-78977003D01*
X128668812Y-78968326D01*
X128676311Y-78957033D01*
X128697102Y-78940323D01*
X128725846Y-78921807D01*
X128757179Y-78904656D01*
X128785738Y-78892040D01*
X128806160Y-78887130D01*
X128826858Y-78890081D01*
G37*
G36*
X128290868Y-63729884D02*
G01*
X128291448Y-63730488D01*
X128293840Y-63733825D01*
X128296000Y-63739166D01*
X128297975Y-63747713D01*
X128299810Y-63760670D01*
X128301550Y-63779239D01*
X128303240Y-63804623D01*
X128304927Y-63838027D01*
X128306655Y-63880653D01*
X128308470Y-63933703D01*
X128310417Y-63998383D01*
X128312543Y-64075893D01*
X128314891Y-64167438D01*
X128317508Y-64274221D01*
X128320440Y-64397444D01*
X128323731Y-64538311D01*
X128327426Y-64698026D01*
X128328870Y-64763826D01*
X128330788Y-64861117D01*
X128332564Y-64961895D01*
X128334102Y-65060276D01*
X128335305Y-65150376D01*
X128336077Y-65226312D01*
X128337900Y-65458783D01*
X128290373Y-65497058D01*
X128290081Y-65497293D01*
X128263974Y-65518296D01*
X128245364Y-65533082D01*
X128228354Y-65546200D01*
X128207049Y-65562196D01*
X128175552Y-65585620D01*
X128152774Y-65600644D01*
X128106742Y-65618668D01*
X128065972Y-65617925D01*
X128032205Y-65599132D01*
X128007181Y-65563006D01*
X127992642Y-65510264D01*
X127988524Y-65484878D01*
X127980623Y-65442495D01*
X127971803Y-65399960D01*
X127965099Y-65369024D01*
X127954998Y-65320945D01*
X127946646Y-65279629D01*
X127939525Y-65243351D01*
X127930130Y-65195693D01*
X127920946Y-65149269D01*
X127912707Y-65106263D01*
X127903249Y-65054112D01*
X127895668Y-65009467D01*
X127889791Y-64977517D01*
X127882389Y-64946159D01*
X127875952Y-64927398D01*
X127869739Y-64908286D01*
X127866601Y-64880410D01*
X127862948Y-64857277D01*
X127853043Y-64839644D01*
X127851599Y-64838548D01*
X127845189Y-64838095D01*
X127840486Y-64848927D01*
X127836729Y-64873966D01*
X127833162Y-64916131D01*
X127832156Y-64929651D01*
X127828542Y-64973027D01*
X127824915Y-65010075D01*
X127821927Y-65033952D01*
X127820823Y-65041605D01*
X127817303Y-65070070D01*
X127812507Y-65112078D01*
X127806922Y-65163314D01*
X127801033Y-65219463D01*
X127792593Y-65301382D01*
X127782407Y-65399669D01*
X127773952Y-65480425D01*
X127767075Y-65545063D01*
X127761623Y-65594997D01*
X127757445Y-65631640D01*
X127754386Y-65656406D01*
X127752295Y-65670706D01*
X127751586Y-65675303D01*
X127748518Y-65701464D01*
X127744882Y-65739180D01*
X127741321Y-65781937D01*
X127738342Y-65812873D01*
X127729303Y-65863839D01*
X127716578Y-65895731D01*
X127704607Y-65909439D01*
X127678667Y-65933349D01*
X127643927Y-65962158D01*
X127604536Y-65992290D01*
X127569672Y-66017913D01*
X127536545Y-66042337D01*
X127512303Y-66060298D01*
X127500592Y-66069100D01*
X127500018Y-66069550D01*
X127448326Y-66101129D01*
X127399280Y-66113123D01*
X127353335Y-66105510D01*
X127310943Y-66078268D01*
X127274201Y-66044614D01*
X127264806Y-65764904D01*
X127261273Y-65656896D01*
X127257510Y-65535543D01*
X127253919Y-65413374D01*
X127250542Y-65292285D01*
X127247425Y-65174174D01*
X127244610Y-65060937D01*
X127242143Y-64954469D01*
X127240065Y-64856668D01*
X127238422Y-64769429D01*
X127237257Y-64694650D01*
X127236994Y-64669955D01*
X127372386Y-64669955D01*
X127378977Y-64761705D01*
X127379156Y-64764264D01*
X127381089Y-64797198D01*
X127383589Y-64847005D01*
X127386531Y-64910839D01*
X127389791Y-64985856D01*
X127393247Y-65069209D01*
X127396772Y-65158054D01*
X127400244Y-65249546D01*
X127400946Y-65268349D01*
X127404374Y-65356780D01*
X127407809Y-65440071D01*
X127411132Y-65515738D01*
X127414227Y-65581298D01*
X127416979Y-65634266D01*
X127419271Y-65672159D01*
X127420987Y-65692493D01*
X127429072Y-65733574D01*
X127442917Y-65759495D01*
X127465729Y-65772459D01*
X127500883Y-65775997D01*
X127504300Y-65775986D01*
X127534571Y-65773505D01*
X127555289Y-65763731D01*
X127575946Y-65742420D01*
X127585208Y-65730748D01*
X127594146Y-65715917D01*
X127600223Y-65697818D01*
X127604333Y-65672257D01*
X127607376Y-65635042D01*
X127610246Y-65581978D01*
X127610259Y-65581717D01*
X127613401Y-65529759D01*
X127617318Y-65481960D01*
X127621511Y-65443614D01*
X127625482Y-65420016D01*
X127628512Y-65404073D01*
X127633028Y-65368765D01*
X127637313Y-65323630D01*
X127640744Y-65274615D01*
X127642933Y-65240724D01*
X127648081Y-65175003D01*
X127654363Y-65105981D01*
X127660879Y-65043979D01*
X127665239Y-65004417D01*
X127671529Y-64942198D01*
X127677015Y-64882254D01*
X127680862Y-64833399D01*
X127681521Y-64824043D01*
X127682402Y-64813344D01*
X127836518Y-64813344D01*
X127841532Y-64818357D01*
X127846546Y-64813344D01*
X127841532Y-64808330D01*
X127836518Y-64813344D01*
X127682402Y-64813344D01*
X127685809Y-64771989D01*
X127690936Y-64719966D01*
X127695933Y-64677971D01*
X127702482Y-64625119D01*
X127708120Y-64563724D01*
X127710481Y-64512805D01*
X127709442Y-64475442D01*
X127704878Y-64454719D01*
X127696446Y-64445307D01*
X127675328Y-64437307D01*
X127675016Y-64437313D01*
X127656973Y-64443804D01*
X127627363Y-64460850D01*
X127589667Y-64485932D01*
X127547369Y-64516536D01*
X127503950Y-64550143D01*
X127462891Y-64584238D01*
X127427675Y-64616304D01*
X127372386Y-64669955D01*
X127236994Y-64669955D01*
X127236613Y-64634226D01*
X127236536Y-64590054D01*
X127237067Y-64564030D01*
X127237469Y-64556575D01*
X127240390Y-64521783D01*
X127246101Y-64499199D01*
X127257244Y-64482097D01*
X127276460Y-64463754D01*
X127336385Y-64414210D01*
X127413809Y-64357086D01*
X127421223Y-64351787D01*
X127447102Y-64332127D01*
X127457670Y-64323139D01*
X127896923Y-64323139D01*
X127897230Y-64335097D01*
X127900855Y-64376231D01*
X127907192Y-64412238D01*
X127907871Y-64414996D01*
X127914978Y-64446531D01*
X127923695Y-64488487D01*
X127932293Y-64532570D01*
X127941654Y-64581665D01*
X127952270Y-64636184D01*
X127961589Y-64682984D01*
X127965170Y-64700708D01*
X127976159Y-64755657D01*
X127988783Y-64819617D01*
X128003742Y-64896153D01*
X128021738Y-64988827D01*
X128024501Y-65003088D01*
X128039625Y-65080944D01*
X128051632Y-65141796D01*
X128061121Y-65187958D01*
X128068691Y-65221744D01*
X128074943Y-65245468D01*
X128080475Y-65261444D01*
X128085888Y-65271985D01*
X128091782Y-65279404D01*
X128098755Y-65286017D01*
X128111782Y-65294429D01*
X128144545Y-65302013D01*
X128179763Y-65298502D01*
X128208181Y-65284063D01*
X128216175Y-65273187D01*
X128222779Y-65251798D01*
X128226037Y-65219378D01*
X128226021Y-65173728D01*
X128222805Y-65112652D01*
X128216461Y-65033952D01*
X128215425Y-65020953D01*
X128212828Y-64980154D01*
X128209817Y-64924112D01*
X128206547Y-64856091D01*
X128203169Y-64779354D01*
X128199837Y-64697166D01*
X128196704Y-64612791D01*
X128195593Y-64581356D01*
X128191548Y-64467579D01*
X128188082Y-64371893D01*
X128185109Y-64292735D01*
X128182541Y-64228543D01*
X128180290Y-64177754D01*
X128178268Y-64138806D01*
X128176387Y-64110137D01*
X128174561Y-64090184D01*
X128172701Y-64077384D01*
X128170720Y-64070176D01*
X128168529Y-64066997D01*
X128166043Y-64066285D01*
X128163524Y-64066981D01*
X128147377Y-64076117D01*
X128121919Y-64093140D01*
X128091903Y-64114594D01*
X128062081Y-64137023D01*
X128037206Y-64156973D01*
X128022029Y-64170988D01*
X128019655Y-64173437D01*
X128002372Y-64188088D01*
X127978461Y-64205892D01*
X127952961Y-64224286D01*
X127923635Y-64248744D01*
X127906602Y-64270378D01*
X127898739Y-64293679D01*
X127896923Y-64323139D01*
X127457670Y-64323139D01*
X127465470Y-64316505D01*
X127477489Y-64306503D01*
X127503003Y-64287860D01*
X127533653Y-64267185D01*
X127557802Y-64250584D01*
X127578048Y-64234446D01*
X127585827Y-64225038D01*
X127587511Y-64221215D01*
X127600868Y-64216699D01*
X127607768Y-64215728D01*
X127615910Y-64208035D01*
X127618836Y-64202902D01*
X127634272Y-64188453D01*
X127658527Y-64170432D01*
X127675328Y-64158949D01*
X127687446Y-64150666D01*
X127707526Y-64136331D01*
X127724796Y-64122868D01*
X127746269Y-64105053D01*
X127769532Y-64086761D01*
X127796407Y-64067714D01*
X127810162Y-64058665D01*
X127827270Y-64046632D01*
X127841532Y-64035376D01*
X127845391Y-64032330D01*
X127871615Y-64010349D01*
X127873961Y-64008388D01*
X127902405Y-63987045D01*
X127929274Y-63970178D01*
X127929712Y-63969943D01*
X127948893Y-63956789D01*
X127956850Y-63945696D01*
X127957388Y-63942711D01*
X127968060Y-63935926D01*
X127971577Y-63935162D01*
X127989077Y-63925518D01*
X128011753Y-63908350D01*
X128025410Y-63896788D01*
X128056461Y-63870994D01*
X128076647Y-63855403D01*
X128089075Y-63847727D01*
X128096853Y-63845677D01*
X128101771Y-63844343D01*
X128114287Y-63832453D01*
X128121314Y-63824600D01*
X128141825Y-63807276D01*
X128166043Y-63789652D01*
X128169185Y-63787365D01*
X128188322Y-63774037D01*
X128213858Y-63755191D01*
X128229351Y-63742368D01*
X128244404Y-63730276D01*
X128270040Y-63721694D01*
X128290868Y-63729884D01*
G37*
G36*
X128817080Y-81980731D02*
G01*
X128835546Y-82002130D01*
X128852446Y-82036635D01*
X128865473Y-82080323D01*
X128865556Y-82080732D01*
X128867087Y-82098787D01*
X128868523Y-82135620D01*
X128869865Y-82190018D01*
X128871112Y-82260767D01*
X128872264Y-82346654D01*
X128873321Y-82446466D01*
X128874283Y-82558990D01*
X128875150Y-82683012D01*
X128875921Y-82817320D01*
X128876598Y-82960699D01*
X128877180Y-83111937D01*
X128877666Y-83269821D01*
X128878056Y-83433137D01*
X128878351Y-83600672D01*
X128878551Y-83771213D01*
X128878655Y-83943547D01*
X128878663Y-84116460D01*
X128878575Y-84288740D01*
X128878392Y-84459173D01*
X128878112Y-84626545D01*
X128877737Y-84789644D01*
X128877265Y-84947256D01*
X128876698Y-85098169D01*
X128876034Y-85241168D01*
X128875273Y-85375042D01*
X128874417Y-85498575D01*
X128873463Y-85610556D01*
X128872414Y-85709771D01*
X128871267Y-85795007D01*
X128870024Y-85865051D01*
X128868684Y-85918689D01*
X128867248Y-85954708D01*
X128865714Y-85971895D01*
X128861357Y-85989802D01*
X128846207Y-86034642D01*
X128827730Y-86072531D01*
X128808866Y-86096999D01*
X128801984Y-86104964D01*
X128786210Y-86125076D01*
X128765756Y-86152151D01*
X128743895Y-86181453D01*
X128714895Y-86219817D01*
X128691958Y-86249203D01*
X128671516Y-86274142D01*
X128650003Y-86299163D01*
X128616152Y-86337870D01*
X128591590Y-86311367D01*
X128591294Y-86311047D01*
X128570643Y-86284731D01*
X128555263Y-86258618D01*
X128554609Y-86256527D01*
X128552766Y-86242955D01*
X128551046Y-86217785D01*
X128549442Y-86180313D01*
X128547942Y-86129834D01*
X128546538Y-86065643D01*
X128545220Y-85987035D01*
X128543977Y-85893305D01*
X128542801Y-85783749D01*
X128541682Y-85657662D01*
X128540609Y-85514338D01*
X128539574Y-85353074D01*
X128538566Y-85173164D01*
X128537576Y-84973904D01*
X128537497Y-84957360D01*
X128536443Y-84750181D01*
X128535339Y-84562588D01*
X128534180Y-84394145D01*
X128532961Y-84244416D01*
X128531676Y-84112965D01*
X128530319Y-83999356D01*
X128528884Y-83903152D01*
X128527366Y-83823918D01*
X128525758Y-83761218D01*
X128524055Y-83714615D01*
X128522252Y-83683674D01*
X128520342Y-83667958D01*
X128510372Y-83635033D01*
X128496003Y-83602293D01*
X128480900Y-83578942D01*
X128467777Y-83570035D01*
X128459874Y-83575243D01*
X128442764Y-83592506D01*
X128421299Y-83617667D01*
X128403534Y-83639611D01*
X128386414Y-83660362D01*
X128377770Y-83670312D01*
X128375581Y-83672770D01*
X128363090Y-83688075D01*
X128342770Y-83713628D01*
X128317742Y-83745519D01*
X128307205Y-83758950D01*
X128282440Y-83789948D01*
X128262883Y-83813643D01*
X128252050Y-83825740D01*
X128249079Y-83828825D01*
X128234481Y-83846029D01*
X128212611Y-83873181D01*
X128186973Y-83905961D01*
X128176104Y-83920006D01*
X128152849Y-83949748D01*
X128135546Y-83971449D01*
X128127319Y-83981168D01*
X128125096Y-83983613D01*
X128112533Y-83998909D01*
X128092174Y-84024469D01*
X128067154Y-84056376D01*
X128056075Y-84070539D01*
X128032513Y-84100227D01*
X128014847Y-84121883D01*
X128006252Y-84131583D01*
X128001323Y-84136859D01*
X127985648Y-84155231D01*
X127962439Y-84183202D01*
X127934648Y-84217239D01*
X127924492Y-84229543D01*
X127907393Y-84249501D01*
X127892512Y-84266821D01*
X127879688Y-84282922D01*
X127868758Y-84299222D01*
X127859561Y-84317140D01*
X127851935Y-84338092D01*
X127845719Y-84363498D01*
X127840751Y-84394775D01*
X127836868Y-84433342D01*
X127833910Y-84480616D01*
X127831715Y-84538015D01*
X127830121Y-84606958D01*
X127828966Y-84688862D01*
X127828088Y-84785146D01*
X127827327Y-84897228D01*
X127826520Y-85026526D01*
X127825506Y-85174457D01*
X127825112Y-85226052D01*
X127823696Y-85390160D01*
X127822173Y-85534797D01*
X127820532Y-85660416D01*
X127818764Y-85767469D01*
X127816861Y-85856408D01*
X127814812Y-85927687D01*
X127812609Y-85981758D01*
X127810242Y-86019072D01*
X127807702Y-86040083D01*
X127795411Y-86086762D01*
X127773669Y-86132416D01*
X127739318Y-86177220D01*
X127702109Y-86219675D01*
X127671730Y-86255455D01*
X127652626Y-86279451D01*
X127645993Y-86290216D01*
X127643116Y-86296110D01*
X127627745Y-86316631D01*
X127599734Y-86350254D01*
X127559793Y-86396108D01*
X127549011Y-86407268D01*
X127523558Y-86423744D01*
X127503079Y-86421529D01*
X127488562Y-86400563D01*
X127484061Y-86390568D01*
X127474608Y-86377713D01*
X127471355Y-86374504D01*
X127465555Y-86362555D01*
X127460442Y-86342123D01*
X127455958Y-86312052D01*
X127452047Y-86271184D01*
X127448654Y-86218363D01*
X127445721Y-86152430D01*
X127443192Y-86072228D01*
X127441011Y-85976600D01*
X127439122Y-85864390D01*
X127437467Y-85734439D01*
X127435991Y-85585590D01*
X127435282Y-85506783D01*
X127434149Y-85388393D01*
X127433055Y-85287648D01*
X127431946Y-85203032D01*
X127430771Y-85133028D01*
X127429475Y-85076123D01*
X127428006Y-85030800D01*
X127426311Y-84995544D01*
X127424336Y-84968840D01*
X127422028Y-84949171D01*
X127419335Y-84935022D01*
X127416203Y-84924878D01*
X127412579Y-84917224D01*
X127409530Y-84911900D01*
X127394552Y-84890691D01*
X127379886Y-84882691D01*
X127362590Y-84888714D01*
X127339725Y-84909574D01*
X127308351Y-84946085D01*
X127296352Y-84960664D01*
X127269576Y-84992911D01*
X127247800Y-85018753D01*
X127234860Y-85033619D01*
X127224052Y-85046029D01*
X127203585Y-85070626D01*
X127180063Y-85099660D01*
X127160441Y-85123301D01*
X127140193Y-85145693D01*
X127127418Y-85157407D01*
X127121967Y-85161770D01*
X127114528Y-85175727D01*
X127114033Y-85178150D01*
X127104452Y-85193699D01*
X127086511Y-85214045D01*
X127071154Y-85230530D01*
X127045168Y-85260951D01*
X127019271Y-85293494D01*
X126999405Y-85318247D01*
X126981816Y-85337539D01*
X126972081Y-85344927D01*
X126970794Y-85345045D01*
X126964114Y-85353923D01*
X126963300Y-85358145D01*
X126959068Y-85365954D01*
X126949450Y-85379050D01*
X126932503Y-85399896D01*
X126906284Y-85430954D01*
X126868851Y-85474687D01*
X126852720Y-85493681D01*
X126821230Y-85531534D01*
X126793644Y-85565535D01*
X126778941Y-85583788D01*
X126747989Y-85621362D01*
X126718437Y-85656382D01*
X126686586Y-85693568D01*
X126658578Y-85726630D01*
X126640175Y-85749056D01*
X126629435Y-85763309D01*
X126624416Y-85771852D01*
X126623174Y-85777146D01*
X126623069Y-85778600D01*
X126615207Y-85786143D01*
X126610402Y-85789062D01*
X126595459Y-85804490D01*
X126574765Y-85829279D01*
X126551820Y-85858997D01*
X126530120Y-85889209D01*
X126513165Y-85915481D01*
X126511562Y-85919106D01*
X126509524Y-85927223D01*
X126507669Y-85939842D01*
X126505982Y-85957935D01*
X126504449Y-85982475D01*
X126503055Y-86014433D01*
X126501786Y-86054781D01*
X126500626Y-86104493D01*
X126499562Y-86164538D01*
X126498578Y-86235891D01*
X126497661Y-86319522D01*
X126496794Y-86416404D01*
X126495965Y-86527509D01*
X126495157Y-86653809D01*
X126494357Y-86796276D01*
X126493550Y-86955882D01*
X126492720Y-87133598D01*
X126491854Y-87330399D01*
X126491432Y-87427443D01*
X126490547Y-87621684D01*
X126489669Y-87797309D01*
X126488773Y-87955300D01*
X126487834Y-88096639D01*
X126486824Y-88222307D01*
X126485720Y-88333287D01*
X126484494Y-88430561D01*
X126483121Y-88515110D01*
X126481575Y-88587916D01*
X126479830Y-88649962D01*
X126477861Y-88702230D01*
X126475641Y-88745701D01*
X126473144Y-88781357D01*
X126470346Y-88810180D01*
X126467219Y-88833152D01*
X126463739Y-88851256D01*
X126459879Y-88865473D01*
X126455614Y-88876784D01*
X126450917Y-88886173D01*
X126450277Y-88887280D01*
X126436287Y-88907680D01*
X126412286Y-88939298D01*
X126381151Y-88978505D01*
X126345759Y-89021675D01*
X126308985Y-89065179D01*
X126296741Y-89079738D01*
X126273473Y-89108113D01*
X126248624Y-89138993D01*
X126230428Y-89161546D01*
X126208447Y-89188026D01*
X126193380Y-89205271D01*
X126188446Y-89210696D01*
X126169276Y-89232983D01*
X126147625Y-89259311D01*
X126132821Y-89275572D01*
X126104847Y-89293369D01*
X126079439Y-89291614D01*
X126057200Y-89270235D01*
X126054289Y-89265731D01*
X126049065Y-89256979D01*
X126044289Y-89247330D01*
X126039939Y-89235913D01*
X126035997Y-89221858D01*
X126032441Y-89204294D01*
X126029251Y-89182350D01*
X126026409Y-89155155D01*
X126023893Y-89121838D01*
X126021683Y-89081528D01*
X126019760Y-89033356D01*
X126018104Y-88976448D01*
X126016694Y-88909936D01*
X126015510Y-88832948D01*
X126014532Y-88744613D01*
X126013741Y-88644060D01*
X126013115Y-88530419D01*
X126012636Y-88402819D01*
X126012283Y-88260388D01*
X126012035Y-88102256D01*
X126011874Y-87927552D01*
X126011778Y-87735406D01*
X126011728Y-87524946D01*
X126011704Y-87295302D01*
X126011676Y-87121602D01*
X126011617Y-86905069D01*
X126011567Y-86707063D01*
X126011565Y-86526708D01*
X126011650Y-86363129D01*
X126011862Y-86215450D01*
X126012240Y-86082794D01*
X126012822Y-85964287D01*
X126013647Y-85859051D01*
X126014755Y-85766211D01*
X126016184Y-85684892D01*
X126017974Y-85614216D01*
X126020164Y-85553309D01*
X126022792Y-85501294D01*
X126025898Y-85457296D01*
X126029520Y-85420438D01*
X126033698Y-85389845D01*
X126038471Y-85364641D01*
X126043878Y-85343949D01*
X126049957Y-85326894D01*
X126056748Y-85312601D01*
X126064290Y-85300192D01*
X126072622Y-85288793D01*
X126081783Y-85277527D01*
X126091811Y-85265518D01*
X126102747Y-85251891D01*
X126116734Y-85233972D01*
X126146059Y-85197255D01*
X126171963Y-85165859D01*
X126190090Y-85145109D01*
X126199847Y-85134574D01*
X126216915Y-85115269D01*
X126235350Y-85092890D01*
X126258682Y-85063094D01*
X126290437Y-85021536D01*
X126307305Y-85000418D01*
X126324705Y-84981282D01*
X126334513Y-84973904D01*
X126338126Y-84972223D01*
X126342400Y-84958863D01*
X126343255Y-84951976D01*
X126350053Y-84943821D01*
X126350065Y-84943821D01*
X126359673Y-84936448D01*
X126377455Y-84917195D01*
X126399571Y-84890218D01*
X126432551Y-84848488D01*
X126470365Y-84802444D01*
X126510578Y-84755785D01*
X126522513Y-84741679D01*
X126545882Y-84712754D01*
X126570297Y-84681407D01*
X126587876Y-84659494D01*
X126605372Y-84640338D01*
X126615207Y-84632965D01*
X126618857Y-84631283D01*
X126623174Y-84617923D01*
X126624107Y-84611028D01*
X126631502Y-84602882D01*
X126636953Y-84599721D01*
X126651991Y-84584263D01*
X126670999Y-84560264D01*
X126681296Y-84546423D01*
X126705291Y-84515492D01*
X126725344Y-84491211D01*
X126731332Y-84484301D01*
X126754640Y-84456626D01*
X126778602Y-84427338D01*
X126815160Y-84382273D01*
X126851654Y-84338036D01*
X126883932Y-84299618D01*
X126907875Y-84271970D01*
X126911714Y-84267557D01*
X126930905Y-84244224D01*
X126956363Y-84212080D01*
X126983649Y-84176707D01*
X126991881Y-84165987D01*
X127019258Y-84131609D01*
X127043708Y-84102634D01*
X127060745Y-84084430D01*
X127061643Y-84083587D01*
X127077778Y-84065943D01*
X127084445Y-84053808D01*
X127086416Y-84049082D01*
X127099062Y-84032717D01*
X127119542Y-84011251D01*
X127131164Y-83999549D01*
X127148015Y-83980431D01*
X127154639Y-83969508D01*
X127156276Y-83965362D01*
X127167975Y-83949179D01*
X127187229Y-83927313D01*
X127204588Y-83907977D01*
X127232810Y-83874295D01*
X127259929Y-83839869D01*
X127280377Y-83813326D01*
X127301289Y-83787154D01*
X127315081Y-83771027D01*
X127318569Y-83767168D01*
X127335023Y-83747679D01*
X127358547Y-83718834D01*
X127385274Y-83685353D01*
X127395155Y-83672894D01*
X127421165Y-83640524D01*
X127442559Y-83614489D01*
X127455468Y-83599521D01*
X127458756Y-83595880D01*
X127475171Y-83576602D01*
X127498785Y-83548021D01*
X127525661Y-83514883D01*
X127534748Y-83503623D01*
X127561540Y-83470922D01*
X127584121Y-83444044D01*
X127598362Y-83427931D01*
X127609592Y-83413857D01*
X127615910Y-83399566D01*
X127616120Y-83397234D01*
X127623563Y-83389538D01*
X127624104Y-83389434D01*
X127634702Y-83380498D01*
X127653253Y-83359976D01*
X127676104Y-83331879D01*
X127676331Y-83331587D01*
X127701165Y-83299898D01*
X127723233Y-83272095D01*
X127737783Y-83254165D01*
X127743447Y-83247374D01*
X127762165Y-83224831D01*
X127787869Y-83193805D01*
X127816743Y-83158902D01*
X127833319Y-83139108D01*
X127858713Y-83109866D01*
X127877947Y-83089093D01*
X127887797Y-83080352D01*
X127891215Y-83078007D01*
X127896684Y-83063302D01*
X127897733Y-83057155D01*
X127909218Y-83041576D01*
X127911713Y-83039752D01*
X127924019Y-83027704D01*
X127943799Y-83004985D01*
X127972571Y-82969803D01*
X128011853Y-82920366D01*
X128016341Y-82914906D01*
X128033123Y-82895482D01*
X128054619Y-82871332D01*
X128065391Y-82859051D01*
X128081071Y-82839487D01*
X128087257Y-82829095D01*
X128090108Y-82823555D01*
X128103160Y-82806301D01*
X128123205Y-82782866D01*
X128154666Y-82747575D01*
X128181875Y-82716453D01*
X128204827Y-82689129D01*
X128228434Y-82659740D01*
X128257605Y-82622424D01*
X128266402Y-82611192D01*
X128293989Y-82577011D01*
X128318352Y-82548232D01*
X128335048Y-82530147D01*
X128335601Y-82529611D01*
X128351422Y-82511961D01*
X128358003Y-82500064D01*
X128360435Y-82494525D01*
X128373152Y-82477042D01*
X128393100Y-82453903D01*
X128406093Y-82439461D01*
X128421956Y-82420700D01*
X128428148Y-82411631D01*
X128428841Y-82409964D01*
X128438438Y-82397245D01*
X128455724Y-82377534D01*
X128474684Y-82355898D01*
X128501281Y-82324038D01*
X128528425Y-82290338D01*
X128529047Y-82289549D01*
X128553615Y-82258817D01*
X128574984Y-82232781D01*
X128588591Y-82217003D01*
X128592069Y-82213109D01*
X128608521Y-82193514D01*
X128632050Y-82164588D01*
X128658784Y-82131070D01*
X128668664Y-82118610D01*
X128694675Y-82086241D01*
X128716069Y-82060207D01*
X128728977Y-82045239D01*
X128729142Y-82045064D01*
X128746343Y-82025902D01*
X128766515Y-82002429D01*
X128768419Y-82000221D01*
X128787793Y-81982790D01*
X128803887Y-81975641D01*
X128817080Y-81980731D01*
G37*
G36*
X128858945Y-79965152D02*
G01*
X128879188Y-79974168D01*
X128901731Y-79993284D01*
X128903278Y-79995420D01*
X128906640Y-80002041D01*
X128909492Y-80011944D01*
X128911877Y-80026654D01*
X128913837Y-80047694D01*
X128915413Y-80076590D01*
X128916649Y-80114868D01*
X128917586Y-80164051D01*
X128918267Y-80225664D01*
X128918734Y-80301234D01*
X128919029Y-80392284D01*
X128919194Y-80500339D01*
X128919271Y-80626924D01*
X128919287Y-80690201D01*
X128919256Y-80807882D01*
X128919102Y-80907876D01*
X128918782Y-80991780D01*
X128918253Y-81061194D01*
X128917470Y-81117716D01*
X128916389Y-81162947D01*
X128914967Y-81198484D01*
X128913160Y-81225927D01*
X128910925Y-81246874D01*
X128908217Y-81262926D01*
X128904993Y-81275680D01*
X128901208Y-81286737D01*
X128888991Y-81311722D01*
X128862493Y-81353202D01*
X128826391Y-81401887D01*
X128783466Y-81454072D01*
X128736498Y-81506056D01*
X128731056Y-81511972D01*
X128715270Y-81531766D01*
X128708922Y-81544300D01*
X128707738Y-81548909D01*
X128696219Y-81561503D01*
X128692051Y-81564698D01*
X128675224Y-81581351D01*
X128655012Y-81604619D01*
X128616936Y-81651156D01*
X128567038Y-81711432D01*
X128518397Y-81769520D01*
X128502455Y-81788532D01*
X128472056Y-81825112D01*
X128443190Y-81860172D01*
X128423957Y-81883437D01*
X128402314Y-81909027D01*
X128388038Y-81925204D01*
X128384371Y-81929238D01*
X128366572Y-81950311D01*
X128346138Y-81975972D01*
X128341072Y-81982491D01*
X128298992Y-82034549D01*
X128255051Y-82085945D01*
X128250505Y-82091256D01*
X128233677Y-82111533D01*
X128209654Y-82140892D01*
X128182035Y-82174947D01*
X128170804Y-82188754D01*
X128139738Y-82226082D01*
X128111028Y-82259492D01*
X128089716Y-82283078D01*
X128079515Y-82294081D01*
X128063457Y-82313095D01*
X128057126Y-82323314D01*
X128053765Y-82329553D01*
X128040106Y-82347316D01*
X128019522Y-82371210D01*
X128015689Y-82375479D01*
X127973439Y-82423376D01*
X127934924Y-82469065D01*
X127892367Y-82521752D01*
X127892022Y-82522185D01*
X127851181Y-82572946D01*
X127820058Y-82610347D01*
X127796407Y-82637088D01*
X127785672Y-82649413D01*
X127765287Y-82673996D01*
X127741878Y-82703055D01*
X127722834Y-82726665D01*
X127701230Y-82752561D01*
X127686726Y-82768895D01*
X127670944Y-82786051D01*
X127651007Y-82809160D01*
X127643597Y-82818096D01*
X127616829Y-82850539D01*
X127588592Y-82884946D01*
X127562447Y-82916962D01*
X127541954Y-82942230D01*
X127530675Y-82956393D01*
X127529616Y-82957751D01*
X127515114Y-82974961D01*
X127495578Y-82996859D01*
X127491407Y-83001511D01*
X127470736Y-83025719D01*
X127443812Y-83058357D01*
X127415357Y-83093723D01*
X127407177Y-83103985D01*
X127378681Y-83139144D01*
X127353093Y-83169912D01*
X127335136Y-83190586D01*
X127332723Y-83193232D01*
X127313391Y-83215032D01*
X127300039Y-83231053D01*
X127295431Y-83236957D01*
X127286632Y-83247936D01*
X127272516Y-83265314D01*
X127251225Y-83291362D01*
X127220908Y-83328356D01*
X127179708Y-83378568D01*
X127162175Y-83399378D01*
X127144611Y-83419243D01*
X127133795Y-83431629D01*
X127113325Y-83456193D01*
X127089799Y-83485211D01*
X127070404Y-83509091D01*
X127052758Y-83530008D01*
X127043484Y-83539952D01*
X127042522Y-83540820D01*
X127031368Y-83553289D01*
X127012014Y-83576398D01*
X126987992Y-83605948D01*
X126979600Y-83616372D01*
X126938300Y-83666934D01*
X126895946Y-83717763D01*
X126857024Y-83763516D01*
X126826019Y-83798851D01*
X126814038Y-83812749D01*
X126790687Y-83841362D01*
X126766299Y-83872560D01*
X126748721Y-83894473D01*
X126731225Y-83913629D01*
X126721390Y-83921003D01*
X126719298Y-83921372D01*
X126713423Y-83931509D01*
X126713422Y-83931589D01*
X126706739Y-83945497D01*
X126690861Y-83964099D01*
X126674232Y-83981787D01*
X126649625Y-84009903D01*
X126623366Y-84041334D01*
X126621949Y-84043071D01*
X126598839Y-84070539D01*
X126580475Y-84090889D01*
X126570721Y-84099829D01*
X126569002Y-84100841D01*
X126563008Y-84113790D01*
X126562074Y-84117384D01*
X126551515Y-84134059D01*
X126532984Y-84155572D01*
X126516908Y-84172920D01*
X126489238Y-84204325D01*
X126461777Y-84236873D01*
X126442175Y-84260638D01*
X126415217Y-84293067D01*
X126394031Y-84318274D01*
X126390279Y-84322714D01*
X126368967Y-84348333D01*
X126341313Y-84381972D01*
X126312317Y-84417557D01*
X126303996Y-84427797D01*
X126276455Y-84461394D01*
X126252694Y-84489971D01*
X126237110Y-84508226D01*
X126221529Y-84526372D01*
X126197841Y-84554670D01*
X126171930Y-84586124D01*
X126159351Y-84601238D01*
X126127395Y-84635541D01*
X126101866Y-84654719D01*
X126080021Y-84660431D01*
X126059120Y-84654332D01*
X126058337Y-84653910D01*
X126046229Y-84646398D01*
X126036405Y-84636959D01*
X126028625Y-84623579D01*
X126022654Y-84604245D01*
X126018252Y-84576941D01*
X126015184Y-84539654D01*
X126013211Y-84490369D01*
X126012096Y-84427073D01*
X126011601Y-84347750D01*
X126011488Y-84250387D01*
X126011551Y-84196107D01*
X126012061Y-84103095D01*
X126013119Y-84028191D01*
X126014768Y-83970106D01*
X126017052Y-83927551D01*
X126020013Y-83899235D01*
X126023694Y-83883871D01*
X126037290Y-83859451D01*
X126062156Y-83823307D01*
X126093972Y-83782040D01*
X126129138Y-83740547D01*
X126142899Y-83724734D01*
X126167057Y-83696249D01*
X126192818Y-83665298D01*
X126212852Y-83641066D01*
X126237498Y-83611478D01*
X126255524Y-83590091D01*
X126277878Y-83563850D01*
X126308431Y-83527825D01*
X126338885Y-83491777D01*
X126366016Y-83459532D01*
X126386600Y-83434914D01*
X126397413Y-83421748D01*
X126401878Y-83416312D01*
X126418642Y-83396901D01*
X126440123Y-83372763D01*
X126454572Y-83356225D01*
X126482913Y-83322078D01*
X126509870Y-83287908D01*
X126527710Y-83265671D01*
X126545218Y-83246498D01*
X126555041Y-83239123D01*
X126557066Y-83238782D01*
X126563008Y-83228758D01*
X126563417Y-83226576D01*
X126572764Y-83211217D01*
X126590584Y-83191129D01*
X126605907Y-83174948D01*
X126632002Y-83145126D01*
X126658271Y-83113132D01*
X126680375Y-83085673D01*
X126713840Y-83045165D01*
X126745457Y-83007867D01*
X126753425Y-82998600D01*
X126784867Y-82961619D01*
X126820744Y-82918967D01*
X126854753Y-82878128D01*
X126871365Y-82858293D01*
X126896692Y-82829070D01*
X126915806Y-82808313D01*
X126925501Y-82799579D01*
X126928657Y-82797388D01*
X126934031Y-82782866D01*
X126934647Y-82777679D01*
X126942661Y-82766153D01*
X126944924Y-82764803D01*
X126959610Y-82750877D01*
X126985684Y-82722124D01*
X127023447Y-82678205D01*
X127073200Y-82618779D01*
X127088060Y-82600971D01*
X127109760Y-82575296D01*
X127124556Y-82558202D01*
X127135412Y-82545566D01*
X127156004Y-82520813D01*
X127179708Y-82491773D01*
X127199121Y-82468034D01*
X127220656Y-82442341D01*
X127234860Y-82426153D01*
X127242047Y-82418216D01*
X127266252Y-82389961D01*
X127302724Y-82346079D01*
X127351525Y-82286498D01*
X127359095Y-82277261D01*
X127377933Y-82254680D01*
X127390225Y-82240526D01*
X127401490Y-82227691D01*
X127421327Y-82204493D01*
X127445440Y-82175954D01*
X127468399Y-82148633D01*
X127501003Y-82109832D01*
X127528987Y-82076526D01*
X127585806Y-82008945D01*
X127685642Y-81890406D01*
X127711423Y-81859811D01*
X127750690Y-81813117D01*
X127782324Y-81775328D01*
X127809786Y-81742305D01*
X127836535Y-81709909D01*
X127854966Y-81687681D01*
X127887594Y-81648831D01*
X127916739Y-81614646D01*
X127934542Y-81593854D01*
X127967004Y-81555471D01*
X127997127Y-81519384D01*
X128016670Y-81496034D01*
X128045999Y-81461756D01*
X128070419Y-81434028D01*
X128071774Y-81432523D01*
X128094699Y-81405967D01*
X128123540Y-81371213D01*
X128152388Y-81335371D01*
X128154508Y-81332695D01*
X128183673Y-81296816D01*
X128212528Y-81262750D01*
X128235116Y-81237539D01*
X128245132Y-81226492D01*
X128261318Y-81205882D01*
X128267706Y-81193303D01*
X128267905Y-81191123D01*
X128275673Y-81183458D01*
X128283421Y-81178061D01*
X128300032Y-81160385D01*
X128320844Y-81134673D01*
X128336749Y-81114335D01*
X128365492Y-81079325D01*
X128390591Y-81050612D01*
X128409540Y-81029406D01*
X128437717Y-80994658D01*
X128456448Y-80966932D01*
X128463245Y-80949683D01*
X128462839Y-80945170D01*
X128453755Y-80936544D01*
X128434464Y-80942466D01*
X128407262Y-80962413D01*
X128397002Y-80971233D01*
X128377478Y-80986613D01*
X128367010Y-80992773D01*
X128366929Y-80992777D01*
X128355572Y-80998810D01*
X128336927Y-81012802D01*
X128317357Y-81028757D01*
X128302698Y-81040378D01*
X128293800Y-81047349D01*
X128272670Y-81064175D01*
X128245859Y-81085689D01*
X128224315Y-81102147D01*
X128201427Y-81117404D01*
X128188304Y-81123292D01*
X128185224Y-81123658D01*
X128177457Y-81132142D01*
X128177122Y-81133262D01*
X128166383Y-81144296D01*
X128143577Y-81161994D01*
X128112844Y-81183089D01*
X128106456Y-81187274D01*
X128076370Y-81207655D01*
X128054482Y-81223579D01*
X128045157Y-81231899D01*
X128038421Y-81238581D01*
X128019018Y-81253717D01*
X127991946Y-81272981D01*
X127969378Y-81288763D01*
X127943019Y-81308040D01*
X127926767Y-81320986D01*
X127926557Y-81321173D01*
X127913429Y-81331650D01*
X127887042Y-81351807D01*
X127850194Y-81379539D01*
X127805680Y-81412740D01*
X127756297Y-81449306D01*
X127753183Y-81451604D01*
X127704500Y-81487565D01*
X127661245Y-81519584D01*
X127626097Y-81545672D01*
X127601736Y-81563840D01*
X127590841Y-81572100D01*
X127580965Y-81579707D01*
X127558797Y-81596354D01*
X127530675Y-81617223D01*
X127507331Y-81634700D01*
X127481450Y-81654684D01*
X127465495Y-81667759D01*
X127454434Y-81676696D01*
X127429957Y-81694812D01*
X127400316Y-81715649D01*
X127377720Y-81731843D01*
X127354360Y-81750411D01*
X127342159Y-81762554D01*
X127337776Y-81767528D01*
X127319596Y-81775089D01*
X127313176Y-81775866D01*
X127305031Y-81782609D01*
X127301424Y-81787964D01*
X127285120Y-81802181D01*
X127260128Y-81820213D01*
X127242566Y-81832574D01*
X127222805Y-81848496D01*
X127215025Y-81857817D01*
X127213436Y-81861125D01*
X127200261Y-81865337D01*
X127193828Y-81866372D01*
X127177699Y-81877872D01*
X127169198Y-81886758D01*
X127147729Y-81904346D01*
X127119542Y-81924777D01*
X127096967Y-81940554D01*
X127070612Y-81959786D01*
X127054362Y-81972667D01*
X127042777Y-81982272D01*
X127018453Y-82001213D01*
X126989183Y-82023203D01*
X126965587Y-82040686D01*
X126942013Y-82058303D01*
X126929017Y-82068210D01*
X126916899Y-82077752D01*
X126884024Y-82103010D01*
X126843857Y-82133288D01*
X126799313Y-82166453D01*
X126753307Y-82200370D01*
X126708755Y-82232905D01*
X126668572Y-82261925D01*
X126635674Y-82285296D01*
X126612975Y-82300883D01*
X126603392Y-82306553D01*
X126602818Y-82306569D01*
X126591420Y-82314074D01*
X126586453Y-82320415D01*
X126568990Y-82336538D01*
X126544541Y-82356504D01*
X126518622Y-82376048D01*
X126496750Y-82390902D01*
X126484442Y-82396802D01*
X126482529Y-82396959D01*
X126471088Y-82405855D01*
X126463606Y-82414274D01*
X126442985Y-82431998D01*
X126413238Y-82455424D01*
X126378276Y-82481483D01*
X126342012Y-82507106D01*
X126326394Y-82518173D01*
X126298230Y-82538707D01*
X126266198Y-82562411D01*
X126236930Y-82584373D01*
X126217055Y-82599681D01*
X126210915Y-82604559D01*
X126165072Y-82639213D01*
X126129853Y-82661730D01*
X126102041Y-82673915D01*
X126078423Y-82677576D01*
X126071095Y-82677472D01*
X126052613Y-82675288D01*
X126038387Y-82668574D01*
X126027866Y-82655111D01*
X126020497Y-82632682D01*
X126015727Y-82599071D01*
X126013004Y-82552060D01*
X126011775Y-82489431D01*
X126011488Y-82408969D01*
X126011598Y-82354916D01*
X126012542Y-82281342D01*
X126015026Y-82223393D01*
X126019728Y-82178328D01*
X126027328Y-82143403D01*
X126038503Y-82115876D01*
X126053934Y-82093006D01*
X126074298Y-82072048D01*
X126100275Y-82050262D01*
X126131397Y-82025317D01*
X126160508Y-82001721D01*
X126180303Y-81985383D01*
X126198737Y-81971393D01*
X126210386Y-81965381D01*
X126215943Y-81962664D01*
X126233470Y-81949909D01*
X126257165Y-81930277D01*
X126272380Y-81917138D01*
X126294444Y-81898424D01*
X126307408Y-81887892D01*
X126316314Y-81880998D01*
X126337442Y-81864254D01*
X126364248Y-81842775D01*
X126385791Y-81826317D01*
X126408679Y-81811059D01*
X126421802Y-81805172D01*
X126424869Y-81804833D01*
X126432649Y-81796897D01*
X126432651Y-81796831D01*
X126440478Y-81787203D01*
X126460612Y-81770130D01*
X126488754Y-81749266D01*
X126517225Y-81728548D01*
X126550161Y-81702943D01*
X126574334Y-81682333D01*
X126580726Y-81676471D01*
X126599192Y-81660973D01*
X126609298Y-81654757D01*
X126616661Y-81650796D01*
X126635799Y-81637158D01*
X126661492Y-81617153D01*
X126682418Y-81600346D01*
X126706603Y-81581031D01*
X126721187Y-81569522D01*
X126726930Y-81565018D01*
X126746361Y-81549137D01*
X126749631Y-81546478D01*
X126768654Y-81532242D01*
X126793644Y-81514543D01*
X126801338Y-81509056D01*
X126823810Y-81490938D01*
X126836760Y-81477270D01*
X126841405Y-81471860D01*
X126859322Y-81464232D01*
X126865742Y-81463456D01*
X126873933Y-81456711D01*
X126875398Y-81453643D01*
X126888518Y-81440840D01*
X126910814Y-81424121D01*
X126920034Y-81417750D01*
X126943756Y-81400508D01*
X126958376Y-81388634D01*
X126968529Y-81379979D01*
X126990997Y-81362236D01*
X127019266Y-81340742D01*
X127026815Y-81335096D01*
X127072584Y-81300650D01*
X127105424Y-81275425D01*
X127128227Y-81257168D01*
X127143885Y-81243624D01*
X127151199Y-81237429D01*
X127174471Y-81219636D01*
X127202607Y-81199643D01*
X127217831Y-81188639D01*
X127237280Y-81172189D01*
X127244887Y-81162039D01*
X127246574Y-81158065D01*
X127259929Y-81153375D01*
X127266815Y-81152538D01*
X127275039Y-81145854D01*
X127276082Y-81143345D01*
X127288333Y-81130947D01*
X127309926Y-81114623D01*
X127315036Y-81111111D01*
X127343895Y-81090390D01*
X127367517Y-81072191D01*
X127385568Y-81057515D01*
X127400420Y-81045764D01*
X127409319Y-81038793D01*
X127430448Y-81021968D01*
X127457260Y-81000454D01*
X127478781Y-80983950D01*
X127501326Y-80968725D01*
X127513979Y-80962850D01*
X127515856Y-80962716D01*
X127527332Y-80954823D01*
X127529836Y-80951931D01*
X127545426Y-80938183D01*
X127572725Y-80915794D01*
X127608872Y-80887087D01*
X127651007Y-80854385D01*
X127657808Y-80849161D01*
X127709038Y-80809796D01*
X127748715Y-80779246D01*
X127780755Y-80754478D01*
X127809073Y-80732455D01*
X127837585Y-80710145D01*
X127870207Y-80684512D01*
X127885749Y-80672296D01*
X127908531Y-80654427D01*
X127921753Y-80644110D01*
X127923939Y-80642419D01*
X127939811Y-80630121D01*
X127967303Y-80608807D01*
X128003260Y-80580924D01*
X128044527Y-80548918D01*
X128059902Y-80537039D01*
X128098981Y-80507288D01*
X128131314Y-80483304D01*
X128153892Y-80467295D01*
X128163709Y-80461468D01*
X128164371Y-80461370D01*
X128175965Y-80453349D01*
X128193377Y-80436399D01*
X128195473Y-80434165D01*
X128212506Y-80417966D01*
X128222922Y-80411330D01*
X128230618Y-80407392D01*
X128250093Y-80393752D01*
X128275942Y-80373727D01*
X128296982Y-80356839D01*
X128319886Y-80338592D01*
X128332781Y-80328495D01*
X128336859Y-80325297D01*
X128354594Y-80310741D01*
X128378010Y-80291052D01*
X128388650Y-80282274D01*
X128408949Y-80267137D01*
X128420237Y-80261076D01*
X128429180Y-80256581D01*
X128445306Y-80242666D01*
X128458055Y-80231593D01*
X128484284Y-80210464D01*
X128520890Y-80181763D01*
X128564980Y-80147759D01*
X128613660Y-80110718D01*
X128614248Y-80110273D01*
X128661767Y-80074152D01*
X128703627Y-80041958D01*
X128737232Y-80015718D01*
X128759985Y-79997459D01*
X128769292Y-79989208D01*
X128778276Y-79981322D01*
X128803220Y-79970659D01*
X128833184Y-79964444D01*
X128858945Y-79965152D01*
G37*
G36*
X128862214Y-63264588D02*
G01*
X128886590Y-63275186D01*
X128909439Y-63295782D01*
X128922452Y-63319226D01*
X128922749Y-63321509D01*
X128923622Y-63341422D01*
X128924412Y-63379674D01*
X128925119Y-63434964D01*
X128925745Y-63505990D01*
X128926291Y-63591450D01*
X128926758Y-63690044D01*
X128927147Y-63800471D01*
X128927460Y-63921428D01*
X128927698Y-64051616D01*
X128927861Y-64189731D01*
X128927952Y-64334474D01*
X128927971Y-64484543D01*
X128927919Y-64638637D01*
X128927798Y-64795454D01*
X128927609Y-64953692D01*
X128927353Y-65112052D01*
X128927031Y-65269231D01*
X128926645Y-65423929D01*
X128926195Y-65574843D01*
X128925683Y-65720673D01*
X128925110Y-65860118D01*
X128924477Y-65991875D01*
X128923786Y-66114645D01*
X128923037Y-66227125D01*
X128922232Y-66328014D01*
X128921373Y-66416011D01*
X128920459Y-66489815D01*
X128919492Y-66548125D01*
X128918578Y-66593775D01*
X128915957Y-66719402D01*
X128913116Y-66849049D01*
X128910096Y-66981113D01*
X128906942Y-67113987D01*
X128903699Y-67246069D01*
X128900409Y-67375752D01*
X128897118Y-67501433D01*
X128893868Y-67621506D01*
X128890704Y-67734366D01*
X128887669Y-67838410D01*
X128884808Y-67932031D01*
X128882164Y-68013626D01*
X128879781Y-68081589D01*
X128877704Y-68134316D01*
X128875976Y-68170203D01*
X128874641Y-68187643D01*
X128873562Y-68199497D01*
X128871742Y-68230968D01*
X128869581Y-68277936D01*
X128867183Y-68337796D01*
X128864650Y-68407945D01*
X128862086Y-68485779D01*
X128859592Y-68568693D01*
X128858247Y-68613903D01*
X128855310Y-68703624D01*
X128852099Y-68791799D01*
X128848766Y-68874729D01*
X128845465Y-68948712D01*
X128842347Y-69010047D01*
X128839565Y-69055033D01*
X128835890Y-69109559D01*
X128831613Y-69178873D01*
X128827135Y-69256243D01*
X128822804Y-69335635D01*
X128818969Y-69411014D01*
X128817670Y-69437719D01*
X128811718Y-69559514D01*
X128806579Y-69663444D01*
X128802148Y-69751314D01*
X128798321Y-69824932D01*
X128794996Y-69886102D01*
X128792067Y-69936633D01*
X128789431Y-69978329D01*
X128786985Y-70012997D01*
X128784623Y-70042442D01*
X128782243Y-70068473D01*
X128779740Y-70092894D01*
X128778377Y-70106080D01*
X128773702Y-70156475D01*
X128768554Y-70218091D01*
X128763467Y-70284330D01*
X128758977Y-70348598D01*
X128755118Y-70407212D01*
X128748582Y-70505603D01*
X128743060Y-70587078D01*
X128738395Y-70653675D01*
X128734427Y-70707434D01*
X128730997Y-70750393D01*
X128727945Y-70784590D01*
X128725114Y-70812063D01*
X128722344Y-70834852D01*
X128719476Y-70854994D01*
X128714913Y-70889141D01*
X128709300Y-70938129D01*
X128703536Y-70994138D01*
X128698338Y-71050533D01*
X128697967Y-71054827D01*
X128691658Y-71124187D01*
X128684188Y-71200655D01*
X128675899Y-71281223D01*
X128667134Y-71362884D01*
X128658234Y-71442629D01*
X128649540Y-71517451D01*
X128641396Y-71584341D01*
X128634142Y-71640292D01*
X128628121Y-71682295D01*
X128623675Y-71707343D01*
X128623111Y-71709987D01*
X128618970Y-71734668D01*
X128613852Y-71771177D01*
X128608735Y-71812633D01*
X128601457Y-71872159D01*
X128582712Y-72005146D01*
X128559621Y-72147864D01*
X128533181Y-72293960D01*
X128529442Y-72313377D01*
X128513854Y-72391057D01*
X128496906Y-72471141D01*
X128479340Y-72550475D01*
X128461899Y-72625901D01*
X128445324Y-72694265D01*
X128430357Y-72752411D01*
X128417741Y-72797182D01*
X128408217Y-72825424D01*
X128401474Y-72843332D01*
X128390454Y-72874330D01*
X128377950Y-72910659D01*
X128366168Y-72944507D01*
X128352963Y-72980550D01*
X128342930Y-73005922D01*
X128331392Y-73032888D01*
X128319448Y-73061074D01*
X128308640Y-73086674D01*
X128274304Y-73165934D01*
X128244288Y-73231247D01*
X128216694Y-73286458D01*
X128189626Y-73335414D01*
X128161189Y-73381958D01*
X128159827Y-73384087D01*
X128136012Y-73419809D01*
X128113101Y-73451835D01*
X128095878Y-73473462D01*
X128086668Y-73483722D01*
X128063661Y-73509453D01*
X128034052Y-73542638D01*
X128001974Y-73578648D01*
X127985847Y-73596725D01*
X127947840Y-73639089D01*
X127910855Y-73680037D01*
X127881027Y-73712766D01*
X127852677Y-73743667D01*
X127818162Y-73781358D01*
X127789114Y-73813146D01*
X127756798Y-73848495D01*
X127729437Y-73878041D01*
X127711166Y-73896992D01*
X127699637Y-73907663D01*
X127692504Y-73912368D01*
X127687418Y-73913423D01*
X127685869Y-73913519D01*
X127674404Y-73921286D01*
X127672436Y-73924038D01*
X127658734Y-73938522D01*
X127635230Y-73961349D01*
X127605532Y-73988973D01*
X127604043Y-73990332D01*
X127569786Y-74021272D01*
X127538493Y-74048656D01*
X127505460Y-74076446D01*
X127465982Y-74108600D01*
X127415357Y-74149080D01*
X127397050Y-74163831D01*
X127368868Y-74187184D01*
X127348764Y-74204631D01*
X127331095Y-74218045D01*
X127316174Y-74224279D01*
X127312886Y-74224616D01*
X127304985Y-74231800D01*
X127303942Y-74234309D01*
X127291691Y-74246708D01*
X127270097Y-74263032D01*
X127264342Y-74266991D01*
X127236938Y-74286713D01*
X127215828Y-74303143D01*
X127198330Y-74317220D01*
X127173001Y-74336242D01*
X127163777Y-74342900D01*
X127138370Y-74361426D01*
X127104470Y-74386274D01*
X127066841Y-74413956D01*
X127041908Y-74432029D01*
X127009974Y-74454187D01*
X126986365Y-74469350D01*
X126974921Y-74474970D01*
X126973883Y-74475017D01*
X126962442Y-74482491D01*
X126958838Y-74486537D01*
X126941706Y-74500817D01*
X126914238Y-74521754D01*
X126880439Y-74546445D01*
X126844314Y-74571984D01*
X126809869Y-74595467D01*
X126781109Y-74613989D01*
X126770981Y-74620541D01*
X126751317Y-74635865D01*
X126743506Y-74646258D01*
X126743142Y-74648664D01*
X126733072Y-74655468D01*
X126731638Y-74655664D01*
X126716231Y-74662629D01*
X126693250Y-74676278D01*
X126669868Y-74692106D01*
X126653257Y-74705606D01*
X126650562Y-74708125D01*
X126632287Y-74722178D01*
X126608734Y-74737812D01*
X126587024Y-74750508D01*
X126574278Y-74755744D01*
X126572393Y-74755917D01*
X126561337Y-74765216D01*
X126554848Y-74771589D01*
X126532004Y-74780126D01*
X126498355Y-74786592D01*
X126459446Y-74790029D01*
X126420823Y-74789480D01*
X126378795Y-74781990D01*
X126322657Y-74755699D01*
X126275484Y-74711800D01*
X126237949Y-74650805D01*
X126234278Y-74642966D01*
X126204978Y-74580161D01*
X126183223Y-74532965D01*
X126168025Y-74499130D01*
X126158393Y-74476411D01*
X126153340Y-74462560D01*
X126151875Y-74455333D01*
X126151518Y-74452574D01*
X126141848Y-74444887D01*
X126139123Y-74444488D01*
X126131820Y-74434309D01*
X126129428Y-74424188D01*
X126120726Y-74399959D01*
X126108152Y-74369089D01*
X126094363Y-74338035D01*
X126082016Y-74313256D01*
X126081228Y-74311740D01*
X126073219Y-74289563D01*
X126066210Y-74260610D01*
X126065003Y-74254740D01*
X126058229Y-74233053D01*
X126051364Y-74224279D01*
X126048961Y-74222723D01*
X126042260Y-74207624D01*
X126036305Y-74181662D01*
X126034459Y-74171431D01*
X126028029Y-74144586D01*
X126021897Y-74129017D01*
X126021036Y-74127620D01*
X126013889Y-74110559D01*
X126003484Y-74080789D01*
X125991756Y-74043782D01*
X125990828Y-74040722D01*
X125977799Y-73999004D01*
X125965216Y-73960601D01*
X125955681Y-73933478D01*
X125955647Y-73933388D01*
X125944258Y-73898419D01*
X125935543Y-73863614D01*
X125935166Y-73861728D01*
X125928087Y-73833657D01*
X125920649Y-73813475D01*
X125919043Y-73810075D01*
X125910925Y-73787428D01*
X125902599Y-73757994D01*
X125898236Y-73741104D01*
X125887581Y-73702163D01*
X125876219Y-73662732D01*
X125854405Y-73586929D01*
X125834710Y-73513258D01*
X125820045Y-73452151D01*
X125817172Y-73439871D01*
X125808961Y-73410541D01*
X125801743Y-73391600D01*
X125799458Y-73386395D01*
X125792547Y-73362358D01*
X125786538Y-73331434D01*
X125784724Y-73320569D01*
X125777875Y-73288978D01*
X125770841Y-73266640D01*
X125767426Y-73257650D01*
X125758993Y-73229816D01*
X125750585Y-73196447D01*
X125746523Y-73178762D01*
X125735975Y-73133910D01*
X125725662Y-73091157D01*
X125718934Y-73063402D01*
X125707661Y-73015997D01*
X125697127Y-72970825D01*
X125694358Y-72958788D01*
X125683994Y-72913735D01*
X125671920Y-72861254D01*
X125660217Y-72810383D01*
X125656204Y-72792674D01*
X125645151Y-72741515D01*
X125635287Y-72692759D01*
X125628365Y-72654954D01*
X125623184Y-72627375D01*
X125616373Y-72599473D01*
X125610699Y-72584761D01*
X125606169Y-72572147D01*
X125600686Y-72544919D01*
X125595906Y-72509902D01*
X125591733Y-72477855D01*
X125586603Y-72449501D01*
X125582065Y-72434695D01*
X125581900Y-72434429D01*
X125576713Y-72419182D01*
X125569756Y-72390414D01*
X125562487Y-72354125D01*
X125554549Y-72310997D01*
X125544387Y-72256467D01*
X125534911Y-72206218D01*
X125525141Y-72154692D01*
X125498745Y-72013710D01*
X125476204Y-71890299D01*
X125457254Y-71782937D01*
X125441628Y-71690097D01*
X125429061Y-71610255D01*
X125419288Y-71541887D01*
X125418515Y-71536209D01*
X125411926Y-71492866D01*
X125404921Y-71453696D01*
X125398893Y-71426569D01*
X125398787Y-71426182D01*
X125392730Y-71398117D01*
X125386116Y-71358675D01*
X125380357Y-71316265D01*
X125375214Y-71274685D01*
X125367663Y-71217379D01*
X125360435Y-71165851D01*
X125353633Y-71118533D01*
X125342979Y-71041959D01*
X125331213Y-70955218D01*
X125318994Y-70863315D01*
X125306979Y-70771251D01*
X125295824Y-70684032D01*
X125286189Y-70606659D01*
X125278730Y-70544137D01*
X125272009Y-70485465D01*
X125259327Y-70372557D01*
X125248736Y-70274658D01*
X125239890Y-70188441D01*
X125232444Y-70110578D01*
X125226050Y-70037742D01*
X125224595Y-70020815D01*
X125219876Y-69971169D01*
X125215279Y-69929758D01*
X125211266Y-69900504D01*
X125208300Y-69887327D01*
X125205773Y-69879043D01*
X125202255Y-69854614D01*
X125199872Y-69822147D01*
X125198949Y-69803337D01*
X125195950Y-69752812D01*
X125191944Y-69693737D01*
X125187362Y-69631826D01*
X125182636Y-69572793D01*
X125178198Y-69522354D01*
X125174480Y-69486222D01*
X125173306Y-69474986D01*
X125170320Y-69439379D01*
X125166851Y-69391021D01*
X125163240Y-69334808D01*
X125159826Y-69275641D01*
X125157980Y-69243026D01*
X125154574Y-69189051D01*
X125151228Y-69142854D01*
X125148247Y-69108518D01*
X125145936Y-69090130D01*
X125144352Y-69077499D01*
X125141927Y-69046446D01*
X125139259Y-69002210D01*
X125136574Y-68948639D01*
X125134100Y-68889577D01*
X125132484Y-68848257D01*
X125129868Y-68785870D01*
X125127266Y-68728514D01*
X125124910Y-68681195D01*
X125123028Y-68648914D01*
X125121926Y-68632118D01*
X125118544Y-68573975D01*
X125115240Y-68508240D01*
X125112115Y-68437982D01*
X125109274Y-68366270D01*
X125106818Y-68296173D01*
X125104850Y-68230761D01*
X125103473Y-68173102D01*
X125102789Y-68126266D01*
X125102901Y-68093322D01*
X125103912Y-68077339D01*
X125115167Y-68042827D01*
X125149597Y-67983484D01*
X125201836Y-67925847D01*
X125270479Y-67871649D01*
X125286115Y-67860782D01*
X125314239Y-67840128D01*
X125333783Y-67824350D01*
X125340587Y-67818543D01*
X125364936Y-67799661D01*
X125393434Y-67779225D01*
X125403406Y-67772161D01*
X125435623Y-67747220D01*
X125462306Y-67723865D01*
X125488600Y-67704855D01*
X125519345Y-67696470D01*
X125545203Y-67703963D01*
X125549239Y-67706991D01*
X125559464Y-67716018D01*
X125567676Y-67727105D01*
X125574206Y-67742502D01*
X125579391Y-67764456D01*
X125583563Y-67795215D01*
X125587056Y-67837027D01*
X125590205Y-67892140D01*
X125593344Y-67962802D01*
X125596806Y-68051260D01*
X125598162Y-68086042D01*
X125607521Y-68295112D01*
X125619306Y-68516647D01*
X125633155Y-68745226D01*
X125648704Y-68975430D01*
X125665593Y-69201839D01*
X125683456Y-69419034D01*
X125701932Y-69621595D01*
X125705024Y-69654641D01*
X125710657Y-69718356D01*
X125716314Y-69785885D01*
X125721141Y-69847217D01*
X125724476Y-69888484D01*
X125729815Y-69946827D01*
X125735399Y-70000869D01*
X125740449Y-70042755D01*
X125743348Y-70065028D01*
X125749414Y-70115830D01*
X125755752Y-70173129D01*
X125761385Y-70228267D01*
X125772433Y-70337444D01*
X125787682Y-70477736D01*
X125805116Y-70629424D01*
X125824181Y-70788013D01*
X125844326Y-70949009D01*
X125864998Y-71107918D01*
X125885642Y-71260247D01*
X125905708Y-71401500D01*
X125908462Y-71420405D01*
X125917397Y-71482042D01*
X125926916Y-71548057D01*
X125935374Y-71607067D01*
X125939318Y-71634268D01*
X125947265Y-71687104D01*
X125954919Y-71735812D01*
X125961057Y-71772522D01*
X125963031Y-71783771D01*
X125970391Y-71826682D01*
X125978959Y-71877657D01*
X125987262Y-71927951D01*
X125989663Y-71942505D01*
X125998876Y-71996429D01*
X126008426Y-72049968D01*
X126016592Y-72093407D01*
X126023170Y-72129840D01*
X126031322Y-72182258D01*
X126037199Y-72228377D01*
X126041286Y-72260335D01*
X126046753Y-72290929D01*
X126051851Y-72308598D01*
X126056882Y-72323689D01*
X126063894Y-72353138D01*
X126070825Y-72389222D01*
X126071916Y-72395546D01*
X126083966Y-72461070D01*
X126099512Y-72539878D01*
X126117407Y-72626406D01*
X126136502Y-72715086D01*
X126155649Y-72800355D01*
X126166227Y-72846331D01*
X126179518Y-72903966D01*
X126189697Y-72947835D01*
X126197592Y-72981458D01*
X126204033Y-73008357D01*
X126209847Y-73032051D01*
X126215865Y-73056060D01*
X126216963Y-73060396D01*
X126231375Y-73115848D01*
X126249360Y-73183073D01*
X126269051Y-73255229D01*
X126288584Y-73325476D01*
X126306093Y-73386972D01*
X126307680Y-73392407D01*
X126319749Y-73432021D01*
X126335353Y-73481216D01*
X126353122Y-73535892D01*
X126371688Y-73591949D01*
X126389683Y-73645285D01*
X126405739Y-73691801D01*
X126418487Y-73727395D01*
X126426559Y-73747967D01*
X126431576Y-73759503D01*
X126444948Y-73792276D01*
X126458569Y-73827669D01*
X126480599Y-73871564D01*
X126520118Y-73921421D01*
X126568353Y-73961693D01*
X126620044Y-73987187D01*
X126640489Y-73993296D01*
X126669943Y-74000758D01*
X126688354Y-74003671D01*
X126701160Y-74002362D01*
X126735251Y-73993709D01*
X126776677Y-73979060D01*
X126818783Y-73960893D01*
X126854919Y-73941682D01*
X126873453Y-73930667D01*
X126896107Y-73918253D01*
X126907609Y-73913423D01*
X126909070Y-73913109D01*
X126924316Y-73904859D01*
X126951686Y-73887044D01*
X126988129Y-73861867D01*
X127030596Y-73831529D01*
X127076037Y-73798231D01*
X127121402Y-73764174D01*
X127163641Y-73731560D01*
X127199706Y-73702589D01*
X127201482Y-73701113D01*
X127231008Y-73675039D01*
X127267512Y-73640640D01*
X127308617Y-73600392D01*
X127351948Y-73556771D01*
X127395129Y-73512252D01*
X127435787Y-73469312D01*
X127471544Y-73430426D01*
X127500025Y-73398070D01*
X127518856Y-73374720D01*
X127525661Y-73362851D01*
X127526037Y-73359661D01*
X127534325Y-73351875D01*
X127539454Y-73348952D01*
X127553893Y-73333516D01*
X127571901Y-73309258D01*
X127582594Y-73293745D01*
X127598131Y-73272212D01*
X127606783Y-73261626D01*
X127614950Y-73252445D01*
X127630789Y-73231084D01*
X127649490Y-73203863D01*
X127667387Y-73176302D01*
X127680813Y-73153920D01*
X127686103Y-73142233D01*
X127686168Y-73141029D01*
X127694153Y-73129596D01*
X127695569Y-73128654D01*
X127706557Y-73115292D01*
X127722918Y-73090937D01*
X127741365Y-73061056D01*
X127758611Y-73031114D01*
X127771369Y-73006577D01*
X127776352Y-72992911D01*
X127776524Y-72990680D01*
X127784201Y-72979181D01*
X127789029Y-72973260D01*
X127801359Y-72952338D01*
X127818448Y-72920134D01*
X127838146Y-72880576D01*
X127866149Y-72822441D01*
X127890231Y-72771599D01*
X127907661Y-72733450D01*
X127919666Y-72705217D01*
X127927471Y-72684124D01*
X127932303Y-72667394D01*
X127939226Y-72647176D01*
X127947933Y-72634213D01*
X127952217Y-72629479D01*
X127956911Y-72611745D01*
X127960449Y-72593715D01*
X127970541Y-72568787D01*
X127971495Y-72566901D01*
X127982685Y-72537818D01*
X127991221Y-72504879D01*
X127992143Y-72500183D01*
X127999425Y-72471153D01*
X128006990Y-72450660D01*
X128012671Y-72437248D01*
X128023534Y-72402849D01*
X128035913Y-72355992D01*
X128048778Y-72301155D01*
X128061099Y-72242812D01*
X128071845Y-72185441D01*
X128079986Y-72133517D01*
X128081536Y-72122540D01*
X128087482Y-72086367D01*
X128093131Y-72059916D01*
X128097439Y-72048282D01*
X128099472Y-72043865D01*
X128104217Y-72023049D01*
X128109757Y-71989553D01*
X128115268Y-71948006D01*
X128118133Y-71924209D01*
X128125490Y-71864915D01*
X128133657Y-71800912D01*
X128141335Y-71742440D01*
X128145843Y-71708582D01*
X128154509Y-71642853D01*
X128163526Y-71573818D01*
X128171543Y-71511804D01*
X128177752Y-71464776D01*
X128183810Y-71421460D01*
X128188785Y-71388520D01*
X128191985Y-71370721D01*
X128195227Y-71351483D01*
X128199240Y-71318814D01*
X128203017Y-71280472D01*
X128206827Y-71240445D01*
X128212661Y-71185897D01*
X128218612Y-71135768D01*
X128221689Y-71109883D01*
X128227132Y-71058677D01*
X128232697Y-71001050D01*
X128237566Y-70945243D01*
X128240788Y-70908250D01*
X128246245Y-70852994D01*
X128251901Y-70802642D01*
X128256945Y-70764745D01*
X128259219Y-70748547D01*
X128264788Y-70700780D01*
X128271202Y-70637000D01*
X128278243Y-70559934D01*
X128285698Y-70472305D01*
X128293350Y-70376839D01*
X128300984Y-70276259D01*
X128308386Y-70173291D01*
X128315340Y-70070658D01*
X128321631Y-69971086D01*
X128327044Y-69877299D01*
X128330077Y-69824666D01*
X128334492Y-69755590D01*
X128339123Y-69690037D01*
X128343576Y-69633510D01*
X128347458Y-69591512D01*
X128348247Y-69583519D01*
X128351589Y-69540081D01*
X128354990Y-69482407D01*
X128358221Y-69415164D01*
X128361054Y-69343016D01*
X128363257Y-69270627D01*
X128363727Y-69252988D01*
X128366037Y-69180227D01*
X128368841Y-69108856D01*
X128371921Y-69043542D01*
X128375064Y-68988949D01*
X128378053Y-68949743D01*
X128378174Y-68948439D01*
X128380378Y-68915566D01*
X128382685Y-68865711D01*
X128385007Y-68801779D01*
X128387257Y-68726676D01*
X128389347Y-68643308D01*
X128391190Y-68554582D01*
X128392699Y-68463403D01*
X128393512Y-68410327D01*
X128395503Y-68297979D01*
X128397931Y-68177898D01*
X128400670Y-68055640D01*
X128403592Y-67936764D01*
X128406569Y-67826826D01*
X128409475Y-67731385D01*
X128410425Y-67700147D01*
X128411793Y-67645162D01*
X128412983Y-67583198D01*
X128413992Y-67513568D01*
X128414818Y-67435583D01*
X128415460Y-67348555D01*
X128415916Y-67251796D01*
X128416185Y-67144617D01*
X128416265Y-67026331D01*
X128416155Y-66896250D01*
X128415852Y-66753684D01*
X128415356Y-66597946D01*
X128414664Y-66428348D01*
X128413775Y-66244201D01*
X128412687Y-66044818D01*
X128411400Y-65829509D01*
X128409910Y-65597588D01*
X128408217Y-65348365D01*
X128406319Y-65081152D01*
X128404215Y-64795262D01*
X128401902Y-64490006D01*
X128400870Y-64352261D01*
X128399973Y-64222740D01*
X128399310Y-64110701D01*
X128398895Y-64014810D01*
X128398745Y-63933738D01*
X128398876Y-63866151D01*
X128399303Y-63810719D01*
X128400043Y-63766111D01*
X128401112Y-63730994D01*
X128402525Y-63704037D01*
X128404298Y-63683910D01*
X128406447Y-63669279D01*
X128408989Y-63658814D01*
X128411939Y-63651183D01*
X128414505Y-63645693D01*
X128424217Y-63623040D01*
X128428148Y-63610522D01*
X128435469Y-63597774D01*
X128456938Y-63575159D01*
X128490293Y-63544975D01*
X128533263Y-63509272D01*
X128583577Y-63470102D01*
X128615684Y-63445653D01*
X128647047Y-63421333D01*
X128669248Y-63403606D01*
X128678839Y-63395182D01*
X128681024Y-63392899D01*
X128696049Y-63380714D01*
X128718950Y-63364139D01*
X128722951Y-63361366D01*
X128745502Y-63345526D01*
X128762734Y-63332559D01*
X128781461Y-63317115D01*
X128808498Y-63293846D01*
X128818269Y-63285894D01*
X128841880Y-63270364D01*
X128858636Y-63264297D01*
X128862214Y-63264588D01*
G37*
G36*
X128816492Y-73688065D02*
G01*
X128847287Y-73703676D01*
X128867933Y-73727153D01*
X128869445Y-73732594D01*
X128872346Y-73757594D01*
X128874822Y-73799010D01*
X128876774Y-73854379D01*
X128878104Y-73921244D01*
X128878713Y-73997142D01*
X128878770Y-74059047D01*
X128878383Y-74126651D01*
X128877347Y-74178511D01*
X128875533Y-74217097D01*
X128872814Y-74244880D01*
X128869060Y-74264329D01*
X128864146Y-74277916D01*
X128851799Y-74294791D01*
X128823030Y-74323168D01*
X128780474Y-74359346D01*
X128725858Y-74401779D01*
X128705672Y-74416954D01*
X128662108Y-74449955D01*
X128624060Y-74479111D01*
X128595051Y-74501711D01*
X128578605Y-74515044D01*
X128577211Y-74516241D01*
X128550744Y-74536635D01*
X128521353Y-74556463D01*
X128515312Y-74560352D01*
X128496071Y-74575386D01*
X128488314Y-74586092D01*
X128486799Y-74590173D01*
X128473771Y-74595302D01*
X128467338Y-74596337D01*
X128451209Y-74607836D01*
X128448607Y-74611171D01*
X128431940Y-74626719D01*
X128408093Y-74644993D01*
X128402114Y-74649190D01*
X128380817Y-74664340D01*
X128364076Y-74677012D01*
X128345286Y-74692370D01*
X128317844Y-74715580D01*
X128307159Y-74724435D01*
X128287330Y-74739519D01*
X128276761Y-74745556D01*
X128267249Y-74750244D01*
X128249743Y-74763265D01*
X128226749Y-74781928D01*
X128200578Y-74802493D01*
X128191710Y-74809326D01*
X128162704Y-74831673D01*
X128132333Y-74855068D01*
X128090888Y-74887190D01*
X128061445Y-74910886D01*
X128043533Y-74927127D01*
X128034876Y-74938273D01*
X128033198Y-74946683D01*
X128036224Y-74954716D01*
X128039087Y-74961525D01*
X128046179Y-74987037D01*
X128052279Y-75019093D01*
X128055019Y-75034726D01*
X128061443Y-75059783D01*
X128067609Y-75071896D01*
X128071482Y-75078616D01*
X128077500Y-75100810D01*
X128082665Y-75132071D01*
X128086130Y-75154685D01*
X128092057Y-75180243D01*
X128097707Y-75192237D01*
X128101574Y-75198953D01*
X128107585Y-75221144D01*
X128112748Y-75252402D01*
X128116213Y-75275016D01*
X128122139Y-75300575D01*
X128127789Y-75312568D01*
X128131657Y-75319285D01*
X128137668Y-75341475D01*
X128142831Y-75372734D01*
X128146280Y-75395356D01*
X128152118Y-75420847D01*
X128157635Y-75432753D01*
X128161154Y-75438527D01*
X128167264Y-75459809D01*
X128172627Y-75490279D01*
X128175745Y-75510232D01*
X128181724Y-75537867D01*
X128187300Y-75552941D01*
X128188878Y-75555593D01*
X128195636Y-75575122D01*
X128201830Y-75603079D01*
X128204196Y-75615682D01*
X128212708Y-75654457D01*
X128222537Y-75693328D01*
X128232235Y-75728801D01*
X128248556Y-75789751D01*
X128261686Y-75840979D01*
X128273281Y-75888867D01*
X128278836Y-75912167D01*
X128290394Y-75959600D01*
X128301510Y-76004185D01*
X128307847Y-76029666D01*
X128318780Y-76075279D01*
X128327734Y-76114489D01*
X128331825Y-76131891D01*
X128340129Y-76161576D01*
X128347102Y-76180068D01*
X128350471Y-76188714D01*
X128356999Y-76214830D01*
X128362677Y-76247744D01*
X128365953Y-76267615D01*
X128372145Y-76292983D01*
X128378010Y-76305014D01*
X128381613Y-76310832D01*
X128387829Y-76332178D01*
X128393235Y-76362684D01*
X128396364Y-76382633D01*
X128402407Y-76410270D01*
X128408082Y-76425345D01*
X128410440Y-76429755D01*
X128416877Y-76450995D01*
X128422569Y-76480497D01*
X128424412Y-76491750D01*
X128431183Y-76523385D01*
X128438160Y-76545677D01*
X128441575Y-76554667D01*
X128450008Y-76582501D01*
X128458416Y-76615870D01*
X128462537Y-76633688D01*
X128473284Y-76678481D01*
X128483931Y-76721160D01*
X128489717Y-76744117D01*
X128501353Y-76791706D01*
X128511934Y-76836478D01*
X128518047Y-76862501D01*
X128528354Y-76904832D01*
X128537142Y-76939262D01*
X128538493Y-76944339D01*
X128549334Y-76985089D01*
X128559818Y-77024496D01*
X128570741Y-77067188D01*
X128587862Y-77138274D01*
X128608461Y-77227556D01*
X128612543Y-77244544D01*
X128621301Y-77276284D01*
X128628717Y-77297749D01*
X128631009Y-77303782D01*
X128638202Y-77330523D01*
X128644308Y-77362929D01*
X128646414Y-77375534D01*
X128652625Y-77402637D01*
X128658653Y-77418081D01*
X128661519Y-77424014D01*
X128667776Y-77446549D01*
X128673396Y-77477214D01*
X128676010Y-77493092D01*
X128682694Y-77523240D01*
X128689297Y-77542393D01*
X128692788Y-77550449D01*
X128700980Y-77576262D01*
X128709061Y-77608606D01*
X128713587Y-77628784D01*
X128724054Y-77673504D01*
X128734535Y-77716403D01*
X128740453Y-77739960D01*
X128752714Y-77788848D01*
X128764074Y-77834228D01*
X128770713Y-77860750D01*
X128783276Y-77910825D01*
X128794906Y-77957067D01*
X128801926Y-77985036D01*
X128813883Y-78033007D01*
X128824236Y-78074891D01*
X128829532Y-78095923D01*
X128839817Y-78134612D01*
X128848556Y-78165074D01*
X128856717Y-78200009D01*
X128857396Y-78264536D01*
X128838728Y-78325139D01*
X128801073Y-78380893D01*
X128744794Y-78430872D01*
X128743749Y-78431620D01*
X128721135Y-78448450D01*
X128705304Y-78461285D01*
X128702103Y-78464022D01*
X128683521Y-78478324D01*
X128658784Y-78496110D01*
X128642906Y-78507220D01*
X128622832Y-78521700D01*
X128604581Y-78535910D01*
X128579535Y-78556404D01*
X128567904Y-78564349D01*
X128534638Y-78575083D01*
X128501551Y-78572558D01*
X128476056Y-78556750D01*
X128474263Y-78554491D01*
X128461413Y-78529725D01*
X128452464Y-78499092D01*
X128451317Y-78493102D01*
X128444677Y-78466776D01*
X128438133Y-78450928D01*
X128435323Y-78444993D01*
X128429151Y-78422459D01*
X128423564Y-78391795D01*
X128420950Y-78375917D01*
X128414266Y-78345769D01*
X128407663Y-78326615D01*
X128405061Y-78320939D01*
X128396901Y-78296472D01*
X128388978Y-78265416D01*
X128386299Y-78253202D01*
X128377069Y-78211075D01*
X128368112Y-78170154D01*
X128364028Y-78152823D01*
X128355572Y-78122846D01*
X128348357Y-78103941D01*
X128345310Y-78096611D01*
X128338396Y-78071023D01*
X128332456Y-78038761D01*
X128329738Y-78022260D01*
X128323608Y-77994861D01*
X128317887Y-77979629D01*
X128316329Y-77976968D01*
X128309598Y-77957439D01*
X128303335Y-77929491D01*
X128301771Y-77921180D01*
X128293128Y-77882509D01*
X128282988Y-77844256D01*
X128280228Y-77834784D01*
X128273427Y-77810743D01*
X128265788Y-77782606D01*
X128256651Y-77747810D01*
X128245356Y-77703792D01*
X128231242Y-77647990D01*
X128213650Y-77577841D01*
X128191919Y-77490781D01*
X128184710Y-77462309D01*
X128172812Y-77416605D01*
X128162406Y-77377971D01*
X128145791Y-77316018D01*
X128116037Y-77192459D01*
X128113335Y-77180812D01*
X128104848Y-77149399D01*
X128097220Y-77127280D01*
X128094988Y-77121443D01*
X128087728Y-77094794D01*
X128081524Y-77062486D01*
X128079577Y-77050947D01*
X128072957Y-77021443D01*
X128066319Y-77002320D01*
X128063795Y-76996745D01*
X128055861Y-76972633D01*
X128048038Y-76941768D01*
X128045360Y-76929554D01*
X128036130Y-76887427D01*
X128027172Y-76846506D01*
X128023084Y-76829103D01*
X128014787Y-76799424D01*
X128007822Y-76780941D01*
X128005538Y-76775736D01*
X127998627Y-76751698D01*
X127992618Y-76720775D01*
X127990804Y-76709910D01*
X127983955Y-76678319D01*
X127976921Y-76655981D01*
X127973506Y-76646990D01*
X127965073Y-76619157D01*
X127956665Y-76585787D01*
X127952563Y-76568013D01*
X127941879Y-76523200D01*
X127931338Y-76480497D01*
X127926447Y-76461155D01*
X127915178Y-76416574D01*
X127905259Y-76377321D01*
X127899586Y-76357637D01*
X127889291Y-76336955D01*
X127877356Y-76332328D01*
X127875525Y-76332739D01*
X127869612Y-76335760D01*
X127864538Y-76343122D01*
X127859716Y-76357413D01*
X127854558Y-76381222D01*
X127848475Y-76417138D01*
X127840881Y-76467751D01*
X127831186Y-76535649D01*
X127823526Y-76589771D01*
X127803590Y-76729841D01*
X127786248Y-76850420D01*
X127771459Y-76951796D01*
X127770342Y-76959379D01*
X127754464Y-77067408D01*
X127738699Y-77174983D01*
X127723992Y-77275644D01*
X127711289Y-77362929D01*
X127709229Y-77377118D01*
X127700597Y-77436493D01*
X127691234Y-77500820D01*
X127682830Y-77558468D01*
X127680357Y-77575499D01*
X127672014Y-77633868D01*
X127663642Y-77693554D01*
X127656729Y-77743979D01*
X127655545Y-77752649D01*
X127648708Y-77799114D01*
X127641626Y-77842478D01*
X127635656Y-77874339D01*
X127631802Y-77894712D01*
X127625327Y-77937225D01*
X127620353Y-77979629D01*
X127619922Y-77984032D01*
X127615073Y-78025827D01*
X127608303Y-78076134D01*
X127600937Y-78125029D01*
X127596017Y-78156473D01*
X127587707Y-78211901D01*
X127578897Y-78272759D01*
X127570824Y-78330596D01*
X127565339Y-78370248D01*
X127556488Y-78432439D01*
X127547715Y-78492349D01*
X127540294Y-78541176D01*
X127539041Y-78549197D01*
X127530754Y-78603237D01*
X127522349Y-78659364D01*
X127515469Y-78706632D01*
X127514544Y-78713130D01*
X127504252Y-78785101D01*
X127492455Y-78867016D01*
X127479876Y-78953907D01*
X127467236Y-79040808D01*
X127455259Y-79122754D01*
X127444666Y-79194778D01*
X127436180Y-79251913D01*
X127432040Y-79274372D01*
X127408591Y-79346416D01*
X127372374Y-79411913D01*
X127326602Y-79464624D01*
X127322312Y-79468364D01*
X127299113Y-79487395D01*
X127264874Y-79514418D01*
X127222043Y-79547595D01*
X127173069Y-79585088D01*
X127120399Y-79625057D01*
X127066482Y-79665663D01*
X127013766Y-79705067D01*
X126964700Y-79741431D01*
X126921731Y-79772915D01*
X126887308Y-79797681D01*
X126863879Y-79813888D01*
X126853892Y-79819700D01*
X126852520Y-79819812D01*
X126842111Y-79828700D01*
X126840533Y-79830779D01*
X126826401Y-79843536D01*
X126800191Y-79864879D01*
X126764882Y-79892423D01*
X126723450Y-79923783D01*
X126707996Y-79935324D01*
X126667538Y-79965583D01*
X126633616Y-79991019D01*
X126609411Y-80009243D01*
X126598105Y-80017868D01*
X126592042Y-80022698D01*
X126541128Y-80061926D01*
X126500006Y-80089754D01*
X126464125Y-80108095D01*
X126428932Y-80118862D01*
X126389874Y-80123967D01*
X126342400Y-80125325D01*
X126339078Y-80125329D01*
X126277792Y-80123194D01*
X126229912Y-80115184D01*
X126189359Y-80098898D01*
X126150054Y-80071935D01*
X126105917Y-80031891D01*
X126096308Y-80021822D01*
X126076292Y-79995818D01*
X126065519Y-79974232D01*
X126059620Y-79958526D01*
X126051343Y-79950059D01*
X126051099Y-79950055D01*
X126047662Y-79948929D01*
X126044500Y-79945255D01*
X126041602Y-79938238D01*
X126038957Y-79927081D01*
X126036553Y-79910989D01*
X126034379Y-79889165D01*
X126032424Y-79860815D01*
X126030675Y-79825143D01*
X126029121Y-79781351D01*
X126027752Y-79728646D01*
X126026556Y-79666231D01*
X126025521Y-79593310D01*
X126024636Y-79509087D01*
X126023889Y-79412767D01*
X126023269Y-79303554D01*
X126022765Y-79180651D01*
X126022365Y-79043265D01*
X126022058Y-78890597D01*
X126021832Y-78721853D01*
X126021677Y-78536238D01*
X126021647Y-78473282D01*
X126433560Y-78473282D01*
X126433635Y-78590806D01*
X126433937Y-78694072D01*
X126434508Y-78784053D01*
X126435392Y-78861720D01*
X126436634Y-78928043D01*
X126438277Y-78983994D01*
X126440364Y-79030544D01*
X126442940Y-79068664D01*
X126446049Y-79099325D01*
X126449734Y-79123498D01*
X126454039Y-79142156D01*
X126459009Y-79156267D01*
X126464686Y-79166805D01*
X126471114Y-79174739D01*
X126478338Y-79181042D01*
X126486401Y-79186684D01*
X126495347Y-79192636D01*
X126505221Y-79199870D01*
X126512475Y-79205535D01*
X126533515Y-79219738D01*
X126554233Y-79227623D01*
X126581417Y-79231053D01*
X126621855Y-79231893D01*
X126628973Y-79231904D01*
X126661469Y-79231160D01*
X126688847Y-79227895D01*
X126714619Y-79220504D01*
X126742295Y-79207380D01*
X126775388Y-79186918D01*
X126817409Y-79157512D01*
X126871869Y-79117556D01*
X126919972Y-79081507D01*
X126973227Y-79039240D01*
X127013432Y-79002667D01*
X127042726Y-78968692D01*
X127063250Y-78934221D01*
X127077144Y-78896158D01*
X127086547Y-78851410D01*
X127093599Y-78796881D01*
X127097271Y-78764179D01*
X127104257Y-78704744D01*
X127112065Y-78640727D01*
X127119590Y-78581287D01*
X127119838Y-78579379D01*
X127135289Y-78459757D01*
X127148429Y-78356986D01*
X127159632Y-78268091D01*
X127169274Y-78190093D01*
X127177730Y-78120016D01*
X127182453Y-78082458D01*
X127188286Y-78041217D01*
X127193402Y-78010363D01*
X127197064Y-77994670D01*
X127198117Y-77991242D01*
X127201897Y-77969475D01*
X127205915Y-77935280D01*
X127209462Y-77894394D01*
X127210638Y-77879456D01*
X127215863Y-77824856D01*
X127222679Y-77764480D01*
X127229924Y-77708883D01*
X127242736Y-77617350D01*
X127256102Y-77517086D01*
X127266820Y-77430133D01*
X127275347Y-77352901D01*
X127276130Y-77345484D01*
X127281828Y-77297806D01*
X127288248Y-77252164D01*
X127294144Y-77217528D01*
X127296593Y-77204175D01*
X127302727Y-77164823D01*
X127309282Y-77116622D01*
X127315203Y-77067114D01*
X127318409Y-77038555D01*
X127325558Y-76977062D01*
X127333437Y-76911355D01*
X127340846Y-76851520D01*
X127345039Y-76817896D01*
X127352500Y-76756163D01*
X127359555Y-76695755D01*
X127365106Y-76645953D01*
X127366971Y-76629000D01*
X127372044Y-76586664D01*
X127376784Y-76551794D01*
X127380365Y-76530635D01*
X127380434Y-76530324D01*
X127383846Y-76510390D01*
X127388915Y-76475510D01*
X127394969Y-76430511D01*
X127401335Y-76380221D01*
X127406688Y-76336957D01*
X127415060Y-76270293D01*
X127423420Y-76204695D01*
X127430572Y-76149585D01*
X127433123Y-76129937D01*
X127440969Y-76067086D01*
X127448816Y-76001316D01*
X127455296Y-75944019D01*
X127458001Y-75920159D01*
X127464153Y-75871616D01*
X127470375Y-75828716D01*
X127475663Y-75798618D01*
X127476059Y-75796693D01*
X127481643Y-75762826D01*
X127487245Y-75718674D01*
X127491708Y-75673273D01*
X127492459Y-75664581D01*
X127496890Y-75625342D01*
X127502049Y-75593798D01*
X127506970Y-75576112D01*
X127510398Y-75565932D01*
X127506928Y-75553758D01*
X127499009Y-75541150D01*
X127492112Y-75518059D01*
X127485313Y-75500329D01*
X127460991Y-75473539D01*
X127425528Y-75454779D01*
X127384487Y-75447688D01*
X127369789Y-75449802D01*
X127337186Y-75461003D01*
X127300594Y-75478586D01*
X127267374Y-75498842D01*
X127244887Y-75518059D01*
X127244849Y-75518103D01*
X127235325Y-75526021D01*
X127212446Y-75544008D01*
X127178790Y-75570067D01*
X127136935Y-75602202D01*
X127089459Y-75638416D01*
X127089208Y-75638607D01*
X127041350Y-75675039D01*
X126998714Y-75707565D01*
X126963989Y-75734128D01*
X126939861Y-75752673D01*
X126929017Y-75761144D01*
X126916748Y-75770666D01*
X126893237Y-75788364D01*
X126863837Y-75810196D01*
X126835388Y-75831573D01*
X126813760Y-75848523D01*
X126803671Y-75857353D01*
X126801442Y-75859619D01*
X126786411Y-75871754D01*
X126763561Y-75888420D01*
X126758697Y-75891833D01*
X126738593Y-75906097D01*
X126722897Y-75917876D01*
X126705008Y-75932283D01*
X126678326Y-75954430D01*
X126670918Y-75960466D01*
X126640269Y-75984004D01*
X126608467Y-76006878D01*
X126603159Y-76010617D01*
X126569163Y-76037694D01*
X126534368Y-76069724D01*
X126502946Y-76102412D01*
X126479071Y-76131460D01*
X126466917Y-76152574D01*
X126460603Y-76167136D01*
X126448846Y-76181808D01*
X126448823Y-76181824D01*
X126447151Y-76189233D01*
X126445607Y-76209291D01*
X126444184Y-76242569D01*
X126442877Y-76289637D01*
X126441682Y-76351064D01*
X126440592Y-76427419D01*
X126439602Y-76519273D01*
X126438706Y-76627194D01*
X126437900Y-76751754D01*
X126437179Y-76893520D01*
X126436535Y-77053063D01*
X126435965Y-77230952D01*
X126435463Y-77427757D01*
X126435023Y-77644048D01*
X126434638Y-77841199D01*
X126434249Y-78025461D01*
X126433910Y-78191581D01*
X126433666Y-78340531D01*
X126433560Y-78473282D01*
X126021647Y-78473282D01*
X126021580Y-78332954D01*
X126021530Y-78111207D01*
X126021516Y-77870200D01*
X126021525Y-77676949D01*
X126021570Y-77451463D01*
X126021661Y-77244589D01*
X126021810Y-77055525D01*
X126022028Y-76883469D01*
X126022326Y-76727616D01*
X126022715Y-76587164D01*
X126023206Y-76461309D01*
X126023811Y-76349249D01*
X126024540Y-76250180D01*
X126025404Y-76163299D01*
X126026414Y-76087804D01*
X126027582Y-76022890D01*
X126028919Y-75967756D01*
X126030435Y-75921597D01*
X126032142Y-75883611D01*
X126034051Y-75852994D01*
X126036173Y-75828944D01*
X126038519Y-75810658D01*
X126041100Y-75797331D01*
X126043927Y-75788162D01*
X126047012Y-75782346D01*
X126050365Y-75779082D01*
X126056352Y-75772413D01*
X126065419Y-75753494D01*
X126068231Y-75746287D01*
X126081025Y-75725389D01*
X126102962Y-75700217D01*
X126135550Y-75669402D01*
X126180299Y-75631575D01*
X126238719Y-75585364D01*
X126312317Y-75529402D01*
X126333509Y-75513500D01*
X126383623Y-75475897D01*
X126427598Y-75442897D01*
X126462958Y-75416359D01*
X126487229Y-75398141D01*
X126497933Y-75390101D01*
X126506835Y-75383161D01*
X126527964Y-75366367D01*
X126554773Y-75344868D01*
X126576294Y-75328364D01*
X126598839Y-75313138D01*
X126611491Y-75307264D01*
X126613353Y-75307140D01*
X126624845Y-75299743D01*
X126629812Y-75293403D01*
X126647275Y-75277279D01*
X126671724Y-75257313D01*
X126697643Y-75237769D01*
X126719515Y-75222915D01*
X126731823Y-75217015D01*
X126733736Y-75216858D01*
X126745177Y-75207962D01*
X126753642Y-75198636D01*
X126774861Y-75180539D01*
X126804739Y-75157088D01*
X126839260Y-75131430D01*
X126874407Y-75106711D01*
X126883639Y-75100194D01*
X126909297Y-75081105D01*
X126937843Y-75059009D01*
X126959409Y-75041966D01*
X126981726Y-75024443D01*
X126999677Y-75010660D01*
X127019979Y-74995482D01*
X127049349Y-74973775D01*
X127072693Y-74956298D01*
X127098573Y-74936315D01*
X127114528Y-74923240D01*
X127125590Y-74914302D01*
X127150066Y-74896186D01*
X127179708Y-74875349D01*
X127202304Y-74859156D01*
X127225663Y-74840588D01*
X127237865Y-74828444D01*
X127242248Y-74823470D01*
X127260427Y-74815910D01*
X127266863Y-74815009D01*
X127274970Y-74807246D01*
X127277896Y-74802112D01*
X127293333Y-74787663D01*
X127317588Y-74769642D01*
X127346506Y-74749877D01*
X127366586Y-74735541D01*
X127383857Y-74722078D01*
X127384487Y-74721555D01*
X127405330Y-74704264D01*
X127428606Y-74686003D01*
X127455468Y-74667087D01*
X127474575Y-74652754D01*
X127488556Y-74638160D01*
X127493029Y-74632946D01*
X127510282Y-74625385D01*
X127515786Y-74624809D01*
X127527332Y-74617864D01*
X127532138Y-74611627D01*
X127549590Y-74595450D01*
X127574170Y-74575453D01*
X127600324Y-74555895D01*
X127622500Y-74541036D01*
X127635146Y-74535136D01*
X127638202Y-74534818D01*
X127645993Y-74527312D01*
X127645995Y-74527243D01*
X127653794Y-74517771D01*
X127673820Y-74500701D01*
X127701801Y-74479681D01*
X127730470Y-74458832D01*
X127762010Y-74435050D01*
X127784529Y-74417125D01*
X127791951Y-74411034D01*
X127820712Y-74389005D01*
X127851559Y-74366987D01*
X127862943Y-74359061D01*
X127890804Y-74338541D01*
X127910885Y-74322257D01*
X127917894Y-74316300D01*
X127942375Y-74297481D01*
X127971051Y-74277161D01*
X127984929Y-74267587D01*
X128006376Y-74251992D01*
X128017015Y-74243071D01*
X128023613Y-74236652D01*
X128042468Y-74221232D01*
X128067377Y-74202258D01*
X128092903Y-74183740D01*
X128113609Y-74169689D01*
X128124058Y-74164113D01*
X128131094Y-74161151D01*
X128146533Y-74149041D01*
X128152013Y-74144027D01*
X128177332Y-74122643D01*
X128209703Y-74096813D01*
X128242133Y-74072036D01*
X128267630Y-74053809D01*
X128284703Y-74041783D01*
X128301525Y-74028410D01*
X128304666Y-74025708D01*
X128323185Y-74011480D01*
X128347927Y-73993817D01*
X128355622Y-73988329D01*
X128378093Y-73970212D01*
X128391043Y-73956543D01*
X128395689Y-73951134D01*
X128413605Y-73943506D01*
X128420033Y-73942674D01*
X128428148Y-73935478D01*
X128431637Y-73930186D01*
X128448013Y-73916278D01*
X128473273Y-73898927D01*
X128490594Y-73887317D01*
X128510603Y-73871559D01*
X128518397Y-73861830D01*
X128518926Y-73859233D01*
X128529608Y-73853257D01*
X128532973Y-73852540D01*
X128550281Y-73842927D01*
X128572696Y-73825681D01*
X128576623Y-73822314D01*
X128605846Y-73798458D01*
X128632790Y-73778050D01*
X128633949Y-73777224D01*
X128656606Y-73760495D01*
X128672430Y-73747837D01*
X128676676Y-73744226D01*
X128704939Y-73723757D01*
X128738939Y-73702636D01*
X128768399Y-73687341D01*
X128783996Y-73683699D01*
X128816492Y-73688065D01*
G37*
%LPC*%
D11*
X154450000Y-101900000D03*
D12*
X154450000Y-96900000D03*
X154450000Y-91900000D03*
D13*
X111150000Y-97000000D03*
X117650000Y-97000000D03*
X111150000Y-101500000D03*
X117650000Y-101500000D03*
X111250000Y-77700000D03*
X117750000Y-77700000D03*
X111250000Y-82200000D03*
X117750000Y-82200000D03*
D11*
X154400000Y-64150000D03*
D12*
X154400000Y-59150000D03*
X154400000Y-54150000D03*
D14*
X139160000Y-107000000D03*
D15*
X136620000Y-107000000D03*
X134080000Y-107000000D03*
X131540000Y-107000000D03*
X129000000Y-107000000D03*
X126460000Y-107000000D03*
X123920000Y-107000000D03*
D11*
X154450000Y-83100000D03*
D12*
X154450000Y-78100000D03*
X154450000Y-73100000D03*
D14*
X123000000Y-52980000D03*
D15*
X123000000Y-55520000D03*
X123000000Y-58060000D03*
X123000000Y-60600000D03*
X123000000Y-63140000D03*
X123000000Y-65680000D03*
X123000000Y-68220000D03*
X123000000Y-70760000D03*
X123000000Y-73300000D03*
X123000000Y-75840000D03*
X123000000Y-78380000D03*
X123000000Y-80920000D03*
X123000000Y-83460000D03*
X123000000Y-86000000D03*
X123000000Y-88540000D03*
X123000000Y-91080000D03*
X123000000Y-93620000D03*
X123000000Y-96160000D03*
X123000000Y-98700000D03*
X123000000Y-101240000D03*
D14*
X140900000Y-53280000D03*
D15*
X140900000Y-55820000D03*
X140900000Y-58360000D03*
X140900000Y-60900000D03*
X140900000Y-63440000D03*
X140900000Y-65980000D03*
X140900000Y-68520000D03*
X140900000Y-71060000D03*
X140900000Y-73600000D03*
X140900000Y-76140000D03*
X140900000Y-78680000D03*
X140900000Y-81220000D03*
X140900000Y-83760000D03*
X140900000Y-86300000D03*
X140900000Y-88840000D03*
X140900000Y-91380000D03*
X140900000Y-93920000D03*
X140900000Y-96460000D03*
X140900000Y-99000000D03*
X140900000Y-101540000D03*
D14*
X111360000Y-53500000D03*
D15*
X113900000Y-53500000D03*
X116440000Y-53500000D03*
D13*
X111200000Y-87600000D03*
X117700000Y-87600000D03*
X111200000Y-92100000D03*
X117700000Y-92100000D03*
%LPD*%
M02*
