G04 #@! TF.GenerationSoftware,KiCad,Pcbnew,7.0.6*
G04 #@! TF.CreationDate,2024-04-12T16:48:44+03:00*
G04 #@! TF.ProjectId,ecu-emulator,6563752d-656d-4756-9c61-746f722e6b69,rev?*
G04 #@! TF.SameCoordinates,Original*
G04 #@! TF.FileFunction,Soldermask,Top*
G04 #@! TF.FilePolarity,Negative*
%FSLAX46Y46*%
G04 Gerber Fmt 4.6, Leading zero omitted, Abs format (unit mm)*
G04 Created by KiCad (PCBNEW 7.0.6) date 2024-04-12 16:48:44*
%MOMM*%
%LPD*%
G01*
G04 APERTURE LIST*
G04 Aperture macros list*
%AMRoundRect*
0 Rectangle with rounded corners*
0 $1 Rounding radius*
0 $2 $3 $4 $5 $6 $7 $8 $9 X,Y pos of 4 corners*
0 Add a 4 corners polygon primitive as box body*
4,1,4,$2,$3,$4,$5,$6,$7,$8,$9,$2,$3,0*
0 Add four circle primitives for the rounded corners*
1,1,$1+$1,$2,$3*
1,1,$1+$1,$4,$5*
1,1,$1+$1,$6,$7*
1,1,$1+$1,$8,$9*
0 Add four rect primitives between the rounded corners*
20,1,$1+$1,$2,$3,$4,$5,0*
20,1,$1+$1,$4,$5,$6,$7,0*
20,1,$1+$1,$6,$7,$8,$9,0*
20,1,$1+$1,$8,$9,$2,$3,0*%
G04 Aperture macros list end*
%ADD10RoundRect,0.150000X0.150000X-0.825000X0.150000X0.825000X-0.150000X0.825000X-0.150000X-0.825000X0*%
%ADD11RoundRect,0.250000X-0.400000X-1.075000X0.400000X-1.075000X0.400000X1.075000X-0.400000X1.075000X0*%
%ADD12R,3.000000X3.000000*%
%ADD13C,3.000000*%
%ADD14C,2.000000*%
%ADD15RoundRect,0.250000X1.075000X-0.375000X1.075000X0.375000X-1.075000X0.375000X-1.075000X-0.375000X0*%
%ADD16R,1.700000X1.700000*%
%ADD17O,1.700000X1.700000*%
%ADD18RoundRect,0.250000X-1.075000X0.400000X-1.075000X-0.400000X1.075000X-0.400000X1.075000X0.400000X0*%
G04 APERTURE END LIST*
D10*
X111095000Y-67475000D03*
X112365000Y-67475000D03*
X113635000Y-67475000D03*
X114905000Y-67475000D03*
X114905000Y-62525000D03*
X113635000Y-62525000D03*
X112365000Y-62525000D03*
X111095000Y-62525000D03*
D11*
X111200000Y-58100000D03*
X114300000Y-58100000D03*
D12*
X154450000Y-101900000D03*
D13*
X154450000Y-96900000D03*
X154450000Y-91900000D03*
D14*
X111150000Y-97000000D03*
X117650000Y-97000000D03*
X111150000Y-101500000D03*
X117650000Y-101500000D03*
X111250000Y-77700000D03*
X117750000Y-77700000D03*
X111250000Y-82200000D03*
X117750000Y-82200000D03*
D15*
X111350000Y-74250000D03*
X111350000Y-71450000D03*
D12*
X154400000Y-64150000D03*
D13*
X154400000Y-59150000D03*
X154400000Y-54150000D03*
D16*
X139160000Y-107000000D03*
D17*
X136620000Y-107000000D03*
X134080000Y-107000000D03*
X131540000Y-107000000D03*
X129000000Y-107000000D03*
X126460000Y-107000000D03*
X123920000Y-107000000D03*
D12*
X154450000Y-83100000D03*
D13*
X154450000Y-78100000D03*
X154450000Y-73100000D03*
D16*
X123000000Y-52980000D03*
D17*
X123000000Y-55520000D03*
X123000000Y-58060000D03*
X123000000Y-60600000D03*
X123000000Y-63140000D03*
X123000000Y-65680000D03*
X123000000Y-68220000D03*
X123000000Y-70760000D03*
X123000000Y-73300000D03*
X123000000Y-75840000D03*
X123000000Y-78380000D03*
X123000000Y-80920000D03*
X123000000Y-83460000D03*
X123000000Y-86000000D03*
X123000000Y-88540000D03*
X123000000Y-91080000D03*
X123000000Y-93620000D03*
X123000000Y-96160000D03*
X123000000Y-98700000D03*
X123000000Y-101240000D03*
D18*
X116950000Y-70950000D03*
X116950000Y-74050000D03*
D16*
X140900000Y-53280000D03*
D17*
X140900000Y-55820000D03*
X140900000Y-58360000D03*
X140900000Y-60900000D03*
X140900000Y-63440000D03*
X140900000Y-65980000D03*
X140900000Y-68520000D03*
X140900000Y-71060000D03*
X140900000Y-73600000D03*
X140900000Y-76140000D03*
X140900000Y-78680000D03*
X140900000Y-81220000D03*
X140900000Y-83760000D03*
X140900000Y-86300000D03*
X140900000Y-88840000D03*
X140900000Y-91380000D03*
X140900000Y-93920000D03*
X140900000Y-96460000D03*
X140900000Y-99000000D03*
X140900000Y-101540000D03*
D16*
X111360000Y-53500000D03*
D17*
X113900000Y-53500000D03*
X116440000Y-53500000D03*
D14*
X111200000Y-87600000D03*
X117700000Y-87600000D03*
X111200000Y-92100000D03*
X117700000Y-92100000D03*
M02*
